<svg width="100" height="100" viewBox="0 0 100 100" fill="none" xmlns="http://www.w3.org/2000/svg">
<g clip-path="url(#clip0_449_38497)">
<g clip-path="url(#clip1_449_38497)">
<g clip-path="url(#clip2_449_38497)">
<mask id="mask0_449_38497" style="mask-type:luminance" maskUnits="userSpaceOnUse" x="-10" y="1" width="125" height="72">
<path d="M114.328 1H-9.07971V73H114.328V1Z" fill="white"/>
</mask>
<g mask="url(#mask0_449_38497)">
<path d="M114.328 1H-9.07971V73H114.328V1Z" fill="#180087"/>
<path d="M23.3902 45.1267L25.2656 50.9735L31.002 48.7672L27.619 53.8785L32.8774 57.0409L26.7732 57.5557L27.619 63.6231L23.3902 59.1737L19.1614 63.6231L20.0071 57.5557L13.903 57.0409L19.1614 53.8785L15.7783 48.7672L21.5148 50.9735L23.3902 45.1267Z" fill="white"/>
<path d="M72.0765 29.9395L72.9958 32.6974L75.717 31.6677L74.099 34.0947L76.5995 35.6024L73.6945 35.823L74.099 38.728L72.0765 36.632L70.0908 38.728L70.4585 35.823L67.5535 35.6024L70.0908 34.0947L68.4728 31.6677L71.194 32.6974L72.0765 29.9395Z" fill="white"/>
<path d="M17.9846 1V11.811H-9.07971V22.6588H17.9846V33.4699H28.7957V22.6588H55.86V11.811H28.7957V1H17.9846Z" fill="white"/>
<path d="M-9.07971 1V4.64045L48.6159 33.4699H55.86V29.8294L-1.83558 1H-9.07971Z" fill="white"/>
<path d="M48.6159 1L-9.07971 29.8294V33.4699H-1.83558L55.86 4.64045V1H48.6159Z" fill="white"/>
<path d="M20.1542 1V13.9806H-9.07971V20.4893H20.1542V33.4699H26.6261V20.4893H55.86V13.9806H26.6261V1H20.1542Z" fill="#EA0020"/>
<path d="M-9.07971 1V3.42697L7.72519 11.811H12.5791L-9.07971 1ZM51.0061 1L29.384 11.811H34.238L55.86 1H51.0061Z" fill="#EA0020"/>
<path d="M12.5791 22.6588L-9.07971 33.4699H-4.22578L17.4331 22.6588H12.5791ZM34.238 22.6588L55.8968 33.4699V31.0429L39.0919 22.6221H34.238V22.6588Z" fill="#EA0020"/>
</g>
</g>
</g>
<rect x="0.5" y="0.5" width="73" height="73" rx="36.5" stroke="#8F99A8"/>
<g clip-path="url(#clip3_449_38497)">
<g clip-path="url(#clip4_449_38497)">
<mask id="mask1_449_38497" style="mask-type:luminance" maskUnits="userSpaceOnUse" x="1" y="27" width="124" height="72">
<path d="M124.996 27H1.58813V99H124.996V27Z" fill="white"/>
</mask>
<g mask="url(#mask1_449_38497)">
<path d="M30.6382 27H1.58813V99H30.6382V27Z" fill="#EA0020"/>
<path d="M125.032 27H95.9824V99H125.032V27Z" fill="#EA0020"/>
<path d="M95.9825 27H30.6383V99H95.9825V27Z" fill="white"/>
<mask id="mask2_449_38497" style="mask-type:luminance" maskUnits="userSpaceOnUse" x="1" y="27" width="124" height="72">
<path d="M124.996 27H1.58813V99H124.996V27Z" fill="white"/>
</mask>
<g mask="url(#mask2_449_38497)">
<path d="M63.2918 36.3403L59.0262 44.6509C58.5482 45.5702 57.6657 45.4598 56.7831 44.945L53.6943 43.2535L56.0109 56.0502C56.489 58.4037 54.9445 58.4037 54.1723 57.374L48.7668 51.0492L47.8843 54.2484C47.7739 54.6529 47.3327 55.1309 46.6708 55.0206L39.8311 53.513L41.633 60.3158C42.0375 61.8235 42.3316 62.4486 41.2285 62.8531L38.8015 64.0298L50.5686 73.9951C51.0099 74.3628 51.2673 75.0615 51.0834 75.6498L50.0538 79.18C54.0988 78.7019 57.7392 78.2607 61.7842 77.7459C62.1519 77.7459 62.7402 78.0768 62.7402 78.4813L62.1886 91.3883H64.1743L63.8434 78.5181C63.8434 78.1136 64.395 77.7459 64.7259 77.7459C68.7709 78.2239 72.4113 78.6652 76.4563 79.18L75.4266 75.6498C75.2796 75.0247 75.5002 74.3628 75.9782 73.9951L87.7453 64.0298L85.3184 62.8531C84.252 62.4486 84.5462 61.8235 84.9139 60.3158L86.7157 53.513L79.8761 55.0206C79.2142 55.1309 78.7729 54.6897 78.6626 54.2484L77.7801 51.0492L72.3746 57.374C71.6023 58.3669 70.0579 58.3669 70.5359 56.0502L72.8526 43.2535L69.7637 44.945C68.8812 45.4598 67.9987 45.5334 67.5206 44.6509L63.255 36.3403H63.2918Z" fill="#EA0020"/>
</g>
</g>
</g>
</g>
<rect x="26.5" y="26.5" width="73" height="73" rx="36.5" stroke="#8F99A8"/>
</g>
<defs>
<clipPath id="clip0_449_38497">
<rect width="100" height="100" fill="white"/>
</clipPath>
<clipPath id="clip1_449_38497">
<rect x="1" y="1" width="72" height="72" rx="36" fill="white"/>
</clipPath>
<clipPath id="clip2_449_38497">
<rect width="123.408" height="72" fill="white" transform="translate(-9.07971 1)"/>
</clipPath>
<clipPath id="clip3_449_38497">
<rect x="27" y="27" width="72" height="72" rx="36" fill="white"/>
</clipPath>
<clipPath id="clip4_449_38497">
<rect width="123.408" height="72" fill="white" transform="translate(1.58813 27)"/>
</clipPath>
</defs>
</svg>
