<svg width="100" height="100" viewBox="0 0 100 100" fill="none" xmlns="http://www.w3.org/2000/svg">
<g clip-path="url(#clip0_449_38502)">
<g clip-path="url(#clip1_449_38502)">
<g clip-path="url(#clip2_449_38502)">
<mask id="mask0_449_38502" style="mask-type:luminance" maskUnits="userSpaceOnUse" x="-10" y="1" width="125" height="72">
<path d="M114.328 1H-9.07971V73H114.328V1Z" fill="white"/>
</mask>
<g mask="url(#mask0_449_38502)">
<path d="M114.328 1H-9.07971V73H114.328V1Z" fill="#180087"/>
<path d="M23.3902 45.1267L25.2656 50.9735L31.002 48.7672L27.619 53.8785L32.8774 57.0409L26.7732 57.5557L27.619 63.6231L23.3902 59.1737L19.1614 63.6231L20.0071 57.5557L13.903 57.0409L19.1614 53.8785L15.7783 48.7672L21.5148 50.9735L23.3902 45.1267Z" fill="white"/>
<path d="M72.0764 29.9395L72.9958 32.6974L75.7169 31.6677L74.0989 34.0947L76.5994 35.6024L73.6944 35.823L74.0989 38.728L72.0764 36.632L70.0908 38.728L70.4585 35.823L67.5535 35.6024L70.0908 34.0947L68.4728 31.6677L71.1939 32.6974L72.0764 29.9395Z" fill="white"/>
<path d="M17.9846 1V11.811H-9.07971V22.6588H17.9846V33.4699H28.7957V22.6588H55.86V11.811H28.7957V1H17.9846Z" fill="white"/>
<path d="M-9.07971 1V4.64045L48.6159 33.4699H55.86V29.8294L-1.83558 1H-9.07971Z" fill="white"/>
<path d="M48.6159 1L-9.07971 29.8294V33.4699H-1.83558L55.86 4.64045V1H48.6159Z" fill="white"/>
<path d="M20.1542 1V13.9806H-9.07971V20.4893H20.1542V33.4699H26.6261V20.4893H55.86V13.9806H26.6261V1H20.1542Z" fill="#EA0020"/>
<path d="M-9.07971 1V3.42697L7.72519 11.811H12.5791L-9.07971 1ZM51.0061 1L29.384 11.811H34.238L55.86 1H51.0061Z" fill="#EA0020"/>
<path d="M12.5791 22.6588L-9.07971 33.4699H-4.22578L17.4331 22.6588H12.5791ZM34.238 22.6588L55.8968 33.4699V31.0429L39.0919 22.6221H34.238V22.6588Z" fill="#EA0020"/>
</g>
</g>
</g>
<rect x="0.5" y="0.5" width="73" height="73" rx="36.5" stroke="#8F99A8"/>
<g clip-path="url(#clip3_449_38502)">
<g clip-path="url(#clip4_449_38502)">
<mask id="mask1_449_38502" style="mask-type:luminance" maskUnits="userSpaceOnUse" x="1" y="27" width="124" height="72">
<path d="M124.996 27H1.58813V99H124.996V27Z" fill="white"/>
</mask>
<g mask="url(#mask1_449_38502)">
<path d="M63.3287 27V29.2799V30.0889V30.4566L49.6127 37.2962H63.3287V39.3555V42.4443V45.5332V47.5557H49.6127L63.3287 54.4321V55.572V57.8519V58.0725H59.0999H57.5187H56.82L37.5881 48.4382V58.0725H35.5289H32.44H29.3512H27.2919V48.4382L8.09682 58.0725H5.78017H1.58813V99H124.996V27H63.3287Z" fill="#1A237B"/>
<path d="M37.5881 27V36.4137L56.4155 27H37.5881Z" fill="#1A237B"/>
<path d="M27.2918 27H8.50122L27.2918 36.4137V27Z" fill="#1A237B"/>
<path d="M63.2918 27L42.7362 37.2962H38.1029L58.6953 27H56.4154L37.5881 36.4137V27H35.5288V37.4433V38.5833V39.3555H38.6177H43.2142H44.7954H45.4941H63.3286V37.2962H49.6126L63.3286 30.4566V30.0889V29.2799V27H63.2918Z" fill="white"/>
<path d="M27.2919 27V36.4137L8.50131 27H1.58813L22.1438 37.2962H17.5473L1.58813 29.3167V30.4566L15.2674 37.2962H1.58813V39.3555H19.3491H21.6658H26.2623H29.3512V38.5833V37.811V37.4433V27H27.2919Z" fill="white"/>
<path d="M43.2142 45.5332H38.6177H35.5288V46.2686V47.0776V47.4086V58.0725H37.5881V48.4382L56.8199 58.0725H57.5186H59.0998H63.3286V57.8519L42.7362 47.5557H47.3327L63.3286 55.572V54.4321L49.6126 47.5557H63.3286V45.5332H45.4941H43.2142Z" fill="white"/>
<path d="M26.2623 45.5332H21.6658H20.0846H19.3491H1.58813V47.5557H15.2674L1.58813 54.3953V57.8519L22.1438 47.5557H26.7403L5.78017 58.0725H8.09682L27.2919 48.4382V58.0725H29.3512V47.4086V46.2686V45.5332H26.2623Z" fill="white"/>
<path d="M63.292 27H58.6955L38.103 37.2962H42.7363L63.292 27Z" fill="#BD0034"/>
<path d="M42.7362 47.5554L63.3287 57.8516V55.5718L47.3327 47.5554H42.7362Z" fill="#BD0034"/>
<path d="M29.3512 27V37.4433V37.811V38.5832V39.3555H26.2623H21.6658H19.3491H1.58813V45.5332H19.3491H20.0846H21.6658H26.2623H29.3512V46.2686V47.4086V58.0725H32.44H35.5289V47.4086V47.0776V46.2686V45.5332H38.6178H43.2143H45.4942H63.3287V42.4443V39.3555H45.4942H44.7955H43.2143H38.6178H35.5289V38.5832V37.4433V27H29.3512Z" fill="#BD0034"/>
<path d="M87.2675 47.9969H90.6137L91.6434 44.8345L92.673 47.9969H96.0192L93.3349 49.9826L94.3645 53.1818L91.6434 51.1961L88.9222 53.1818L89.9886 49.9826L87.2675 47.9969Z" fill="white"/>
<path d="M88.7384 48.5117H90.9447L91.6434 46.3789L92.3421 48.5117H94.5484L92.7466 49.7987L93.4452 51.9315L91.6434 50.6077L89.8416 51.9315L90.5402 49.7987L88.7384 48.5117Z" fill="#BD0034"/>
<path d="M73.8455 61.529H77.1917L78.2214 58.3298L79.251 61.529H82.634L79.9129 63.4779L80.9425 66.6771L78.2214 64.6914L75.537 66.6771L76.5666 63.4779L73.8455 61.529Z" fill="white"/>
<path d="M75.3164 62.0071H77.5595L78.2214 59.8743L78.9201 62.0071H81.1264L79.3246 63.2941L80.0233 65.4269L78.2214 64.1031L76.4196 65.4269L77.1183 63.2941L75.3164 62.0071Z" fill="#BD0034"/>
<path d="M86.7893 82.6732H90.5033L91.6432 79.1431L92.7832 82.6732H96.5339L93.5186 84.8795L94.6586 88.4464L91.6432 86.2401L88.6279 88.4464L89.7679 84.8795L86.7893 82.6732Z" fill="white"/>
<path d="M88.4073 83.2248H90.8711L91.6433 80.8713L92.4155 83.2248H94.8793L92.8936 84.6956L93.629 87.0491L91.6433 85.5782L89.6576 87.0491L90.4298 84.6956L88.4073 83.2248Z" fill="#BD0034"/>
</g>
</g>
</g>
<rect x="26.5" y="26.5" width="73" height="73" rx="36.5" stroke="#8F99A8"/>
</g>
<defs>
<clipPath id="clip0_449_38502">
<rect width="100" height="100" fill="white"/>
</clipPath>
<clipPath id="clip1_449_38502">
<rect x="1" y="1" width="72" height="72" rx="36" fill="white"/>
</clipPath>
<clipPath id="clip2_449_38502">
<rect width="123.408" height="72" fill="white" transform="translate(-9.07971 1)"/>
</clipPath>
<clipPath id="clip3_449_38502">
<rect x="27" y="27" width="72" height="72" rx="36" fill="white"/>
</clipPath>
<clipPath id="clip4_449_38502">
<rect width="123.408" height="72" fill="white" transform="translate(1.58813 27)"/>
</clipPath>
</defs>
</svg>
