<svg width="100" height="100" viewBox="0 0 100 100" fill="none" xmlns="http://www.w3.org/2000/svg">
<g clip-path="url(#clip0_449_38237)">
<g clip-path="url(#clip1_449_38237)">
<g clip-path="url(#clip2_449_38237)">
<mask id="mask0_449_38237" style="mask-type:luminance" maskUnits="userSpaceOnUse" x="-10" y="1" width="125" height="72">
<path d="M114.328 1H-9.07971V73H114.328V1Z" fill="white"/>
</mask>
<g mask="url(#mask0_449_38237)">
<path d="M114.328 1H-9.07971V73H114.328V1Z" fill="#180087"/>
<path d="M23.3902 45.1267L25.2656 50.9735L31.002 48.7672L27.619 53.8785L32.8774 57.0409L26.7732 57.5557L27.619 63.6231L23.3902 59.1737L19.1614 63.6231L20.0071 57.5557L13.903 57.0409L19.1614 53.8785L15.7783 48.7672L21.5148 50.9735L23.3902 45.1267Z" fill="white"/>
<path d="M72.0764 29.9395L72.9958 32.6974L75.7169 31.6677L74.0989 34.0947L76.5994 35.6024L73.6944 35.823L74.0989 38.728L72.0764 36.632L70.0908 38.728L70.4585 35.823L67.5535 35.6024L70.0908 34.0947L68.4728 31.6677L71.1939 32.6974L72.0764 29.9395Z" fill="white"/>
<path d="M17.9846 1V11.811H-9.07971V22.6588H17.9846V33.4699H28.7957V22.6588H55.86V11.811H28.7957V1H17.9846Z" fill="white"/>
<path d="M-9.07971 1V4.64045L48.6159 33.4699H55.86V29.8294L-1.83558 1H-9.07971Z" fill="white"/>
<path d="M48.6159 1L-9.07971 29.8294V33.4699H-1.83558L55.86 4.64045V1H48.6159Z" fill="white"/>
<path d="M20.1542 1V13.9806H-9.07971V20.4893H20.1542V33.4699H26.6261V20.4893H55.86V13.9806H26.6261V1H20.1542Z" fill="#EA0020"/>
<path d="M-9.07971 1V3.42697L7.72519 11.811H12.5791L-9.07971 1ZM51.0061 1L29.384 11.811H34.238L55.86 1H51.0061Z" fill="#EA0020"/>
<path d="M12.5791 22.6588L-9.07971 33.4699H-4.22578L17.4331 22.6588H12.5791ZM34.238 22.6588L55.8968 33.4699V31.0429L39.0919 22.6221H34.238V22.6588Z" fill="#EA0020"/>
</g>
</g>
</g>
<rect x="0.5" y="0.5" width="73" height="73" rx="36.5" stroke="#8F99A8"/>
<g clip-path="url(#clip3_449_38237)">
<g clip-path="url(#clip4_449_38237)">
<mask id="mask1_449_38237" style="mask-type:luminance" maskUnits="userSpaceOnUse" x="1" y="27" width="124" height="72">
<path d="M124.996 27H1.58813V99H124.996V27Z" fill="white"/>
</mask>
<g mask="url(#mask1_449_38237)">
<path d="M124.996 93.4475H1.58813V99.0001H124.996V93.4475Z" fill="#CB001C"/>
<path d="M124.996 87.9314H1.58813V93.484H124.996V87.9314Z" fill="white"/>
<path d="M124.996 82.3789H1.58813V87.8947H124.996V82.3789Z" fill="#CB001C"/>
<path d="M124.996 76.8633H1.58813V82.4159H124.996V76.8633Z" fill="white"/>
<path d="M124.996 71.3105H1.58813V76.8632H124.996V71.3105Z" fill="#CB001C"/>
<path d="M124.996 65.7581H1.58813V71.2739H124.996V65.7581Z" fill="white"/>
<path d="M124.996 60.2419H1.58813V65.7945H124.996V60.2419Z" fill="#CB001C"/>
<path d="M124.996 54.6895H1.58813V60.2053H124.996V54.6895Z" fill="white"/>
<path d="M124.996 49.1738H1.58813V54.7264H124.996V49.1738Z" fill="#CB001C"/>
<path d="M124.996 43.6211H1.58813V49.1737H124.996V43.6211Z" fill="white"/>
<path d="M124.996 38.0686H1.58813V43.6212H124.996V38.0686Z" fill="#CB001C"/>
<path d="M124.996 32.5525H1.58813V38.1051H124.996V32.5525Z" fill="white"/>
<path d="M124.996 27H1.58813V32.5526H124.996V27Z" fill="#CB001C"/>
<path d="M57.96 27H1.58813V65.7579H57.96V27Z" fill="#1A2F81"/>
<path d="M29.3511 34.6855L29.7924 36.1564H31.3368L30.0865 37.0757L30.5646 38.5099L29.3511 37.6273L28.1008 38.5099L28.5421 37.0757L27.3286 36.1564H28.8363L29.3511 34.6855Z" fill="white"/>
<path d="M29.3511 41.1575L29.7924 42.6284H31.3368L30.0865 43.5109L30.5646 44.9818L29.3511 44.0992L28.1008 44.9818L28.5421 43.5109L27.3286 42.6284H28.8363L29.3511 41.1575Z" fill="white"/>
<path d="M29.3511 47.6294L29.7924 49.1003H31.3368L30.0865 49.9828L30.5646 51.4537L29.3511 50.5712L28.1008 51.4537L28.5421 49.9828L27.3286 49.1003H28.8363L29.3511 47.6294Z" fill="white"/>
<path d="M29.3511 54.1013L29.7924 55.5722H31.3368L30.0865 56.4547L30.5646 57.9256L29.3511 57.0063L28.1008 57.9256L28.5421 56.4547L27.3286 55.5722H28.8363L29.3511 54.1013Z" fill="white"/>
<path d="M33.8741 31.2656L34.3522 32.7365H35.8966L34.6463 33.6558L35.1244 35.1267L33.8741 34.2074L32.6606 35.1267L33.1019 33.6558L31.8884 32.7365H33.3961L33.8741 31.2656Z" fill="white"/>
<path d="M33.8741 37.7373L34.3522 39.2082H35.8966L34.6463 40.1275L35.1244 41.5984L33.8741 40.6791L32.6606 41.5984L33.1019 40.1275L31.8884 39.2082H33.3961L33.8741 37.7373Z" fill="white"/>
<path d="M33.8741 44.2092L34.3522 45.6801H35.8966L34.6463 46.5994L35.1244 48.0703L33.8741 47.151L32.6606 48.0703L33.1019 46.5994L31.8884 45.6801H33.3961L33.8741 44.2092Z" fill="white"/>
<path d="M33.8741 50.6812L34.3522 52.152H35.8966L34.6463 53.0713L35.1244 54.5055L33.8741 53.6229L32.6606 54.5055L33.1019 53.0713L31.8884 52.152H33.3961L33.8741 50.6812Z" fill="white"/>
<path d="M33.8741 57.1531L34.3522 58.624H35.8966L34.6463 59.5433L35.1244 60.9774L33.8741 60.0949L32.6606 60.9774L33.1019 59.5433L31.8884 58.624H33.3961L33.8741 57.1531Z" fill="white"/>
<path d="M38.3972 34.6855L38.8753 36.1564H40.4197L39.1694 37.0757L39.6475 38.5099L38.3972 37.6273L37.147 38.5099L37.625 37.0757L36.3748 36.1564H37.9192L38.3972 34.6855Z" fill="white"/>
<path d="M38.3972 41.1575L38.8753 42.6284H40.4197L39.1694 43.5109L39.6475 44.9818L38.3972 44.0992L37.147 44.9818L37.625 43.5109L36.3748 42.6284H37.9192L38.3972 41.1575Z" fill="white"/>
<path d="M38.3972 47.6294L38.8753 49.1003H40.4197L39.1694 49.9828L39.6475 51.4537L38.3972 50.5712L37.147 51.4537L37.625 49.9828L36.3748 49.1003H37.9192L38.3972 47.6294Z" fill="white"/>
<path d="M38.3972 54.1013L38.8753 55.5722H40.4197L39.1694 56.4547L39.6475 57.9256L38.3972 57.0063L37.147 57.9256L37.625 56.4547L36.3748 55.5722H37.9192L38.3972 54.1013Z" fill="white"/>
<path d="M42.9569 31.2656L43.4349 32.7365H44.9794L43.7291 33.6558L44.2071 35.1267L42.9569 34.2074L41.7434 35.1267L42.1847 33.6558L40.9712 32.7365H42.4789L42.9569 31.2656Z" fill="white"/>
<path d="M42.9569 37.7373L43.4349 39.2082H44.9794L43.7291 40.1275L44.2071 41.5984L42.9569 40.6791L41.7434 41.5984L42.1847 40.1275L40.9712 39.2082H42.4789L42.9569 37.7373Z" fill="white"/>
<path d="M42.9569 44.2092L43.4349 45.6801H44.9794L43.7291 46.5994L44.2071 48.0703L42.9569 47.151L41.7434 48.0703L42.1847 46.5994L40.9712 45.6801H42.4789L42.9569 44.2092Z" fill="white"/>
<path d="M42.9569 50.6812L43.4349 52.152H44.9794L43.7291 53.0713L44.2071 54.5055L42.9569 53.6229L41.7434 54.5055L42.1847 53.0713L40.9712 52.152H42.4789L42.9569 50.6812Z" fill="white"/>
<path d="M42.9569 57.1531L43.4349 58.624H44.9794L43.7291 59.5433L44.2071 60.9774L42.9569 60.0949L41.7434 60.9774L42.1847 59.5433L40.9712 58.624H42.4789L42.9569 57.1531Z" fill="white"/>
<path d="M47.4799 34.6855L47.9579 36.1564H49.5023L48.2521 37.0757L48.6934 38.5099L47.4799 37.6273L46.2296 38.5099L46.7077 37.0757L45.4574 36.1564H47.0018L47.4799 34.6855Z" fill="white"/>
<path d="M47.4799 41.1575L47.9579 42.6284H49.5023L48.2521 43.5109L48.6934 44.9818L47.4799 44.0992L46.2296 44.9818L46.7077 43.5109L45.4574 42.6284H47.0018L47.4799 41.1575Z" fill="white"/>
<path d="M47.4799 47.6294L47.9579 49.1003H49.5023L48.2521 49.9828L48.6934 51.4537L47.4799 50.5712L46.2296 51.4537L46.7077 49.9828L45.4574 49.1003H47.0018L47.4799 47.6294Z" fill="white"/>
<path d="M47.4799 54.1013L47.9579 55.5722H49.5023L48.2521 56.4547L48.6934 57.9256L47.4799 57.0063L46.2296 57.9256L46.7077 56.4547L45.4574 55.5722H47.0018L47.4799 54.1013Z" fill="white"/>
<path d="M52.0396 31.2656L52.5176 32.7365H54.062L52.8118 33.6558L53.2898 35.1267L52.0396 34.2074L50.7893 35.1267L51.2673 33.6558L50.0171 32.7365H51.5615L52.0396 31.2656Z" fill="white"/>
<path d="M52.0396 37.7373L52.5176 39.2082H54.062L52.8118 40.1275L53.2898 41.5984L52.0396 40.6791L50.7893 41.5984L51.2673 40.1275L50.0171 39.2082H51.5615L52.0396 37.7373Z" fill="white"/>
<path d="M52.0396 44.2092L52.5176 45.6801H54.062L52.8118 46.5994L53.2898 48.0703L52.0396 47.151L50.7893 48.0703L51.2673 46.5994L50.0171 45.6801H51.5615L52.0396 44.2092Z" fill="white"/>
<path d="M52.0396 50.6812L52.5176 52.152H54.062L52.8118 53.0713L53.2898 54.5055L52.0396 53.6229L50.7893 54.5055L51.2673 53.0713L50.0171 52.152H51.5615L52.0396 50.6812Z" fill="white"/>
<path d="M52.0396 57.1531L52.5176 58.624H54.062L52.8118 59.5433L53.2898 60.9774L52.0396 60.0949L50.7893 60.9774L51.2673 59.5433L50.0171 58.624H51.5615L52.0396 57.1531Z" fill="white"/>
</g>
</g>
</g>
<rect x="26.5" y="26.5" width="73" height="73" rx="36.5" stroke="#8F99A8"/>
</g>
<defs>
<clipPath id="clip0_449_38237">
<rect width="100" height="100" fill="white"/>
</clipPath>
<clipPath id="clip1_449_38237">
<rect x="1" y="1" width="72" height="72" rx="36" fill="white"/>
</clipPath>
<clipPath id="clip2_449_38237">
<rect width="123.408" height="72" fill="white" transform="translate(-9.07971 1)"/>
</clipPath>
<clipPath id="clip3_449_38237">
<rect x="27" y="27" width="72" height="72" rx="36" fill="white"/>
</clipPath>
<clipPath id="clip4_449_38237">
<rect width="123.408" height="72" fill="white" transform="translate(1.58813 27)"/>
</clipPath>
</defs>
</svg>
