<svg width="100" height="100" viewBox="0 0 100 100" fill="none" xmlns="http://www.w3.org/2000/svg">
<g clip-path="url(#clip0_449_38568)">
<g clip-path="url(#clip1_449_38568)">
<rect x="1" y="1" width="88" height="88" rx="44" fill="#1836AC"/>
<g clip-path="url(#clip2_449_38568)">
<mask id="mask0_449_38568" style="mask-type:luminance" maskUnits="userSpaceOnUse" x="-27" y="1" width="152" height="88">
<path d="M124.593 1H-26.238V89H124.593V1Z" fill="white"/>
</mask>
<g mask="url(#mask0_449_38568)">
<path d="M124.593 1H-26.238V89H124.593V1Z" fill="#180087"/>
<path d="M13.4474 54.9326L15.7396 62.0787L22.7508 59.3821L18.616 65.6292L25.0429 69.4944L17.5823 70.1236L18.616 77.5394L13.4474 72.1012L8.27889 77.5394L9.3126 70.1236L1.85193 69.4944L8.27889 65.6292L4.14406 59.3821L11.1553 62.0787L13.4474 54.9326Z" fill="white"/>
<path d="M92.7733 67.7417L93.8969 71.1574L97.2227 69.899L95.2902 72.8653L98.3463 74.708L94.7508 75.0226L95.2902 78.5282L92.7733 75.9664L90.3463 78.5282L90.8407 75.0226L87.2902 74.708L90.3463 72.8653L88.3688 69.899L91.7396 71.1574L92.7733 67.7417Z" fill="white"/>
<path d="M72.9529 36.3706L74.0765 39.7414L77.4023 38.483L75.4248 41.4493L78.481 43.292L74.9304 43.5616L75.4248 47.1122L72.9529 44.5504L70.5259 47.1122L70.9754 43.5616L67.4248 43.292L70.5259 41.4493L68.5484 38.483L71.8742 39.7414L72.9529 36.3706Z" fill="white"/>
<path d="M92.7733 14.8428L93.8969 18.2585L97.2227 17.0001L95.2902 19.9664L98.3463 21.7641L94.7508 22.0787L95.2902 25.6293L92.7733 23.0675L90.3463 25.6293L90.8407 22.0787L87.2902 21.7641L90.3463 19.9664L88.3688 17.0001L91.7396 18.2585L92.7733 14.8428Z" fill="white"/>
<path d="M6.84062 1V14.2135H-26.238V27.4719H6.84062V40.6854H20.0541V27.4719H53.1328V14.2135H20.0541V1H6.84062Z" fill="white"/>
<path d="M-26.238 1V5.44944L44.2788 40.6854H53.1328V36.236L-17.3841 1H-26.238Z" fill="white"/>
<path d="M44.2788 1L-26.238 36.236V40.6854H-17.3841L53.1328 5.44944V1H44.2788Z" fill="white"/>
<path d="M9.4923 1V16.8652H-26.238V24.8202H9.4923V40.6854H17.4024V24.8202H53.1328V16.8652H17.4024V1H9.4923Z" fill="#EA0020"/>
<path d="M-26.238 1V3.96629L-5.69871 14.2135H0.233875L-26.238 1ZM47.2002 1L20.7732 14.2135H26.7058L53.1328 1H47.2002Z" fill="#EA0020"/>
<path d="M0.233875 27.4719L-26.238 40.6854H-20.3055L6.16646 27.4719H0.233875ZM26.7058 27.4719L53.1777 40.6854V37.7191L32.6384 27.427H26.7058V27.4719Z" fill="#EA0020"/>
</g>
</g>
</g>
<rect x="0.5" y="0.5" width="89" height="89" rx="44.5" stroke="#8F99A8"/>
<rect x="52.5" y="52.5" width="47" height="47" rx="23.5" fill="#1836AC"/>
<rect x="52.5" y="52.5" width="47" height="47" rx="23.5" stroke="#8F99A8"/>
<path d="M69.2745 84.4761H57.2504V81.9465L61.5682 77.5816C62.4389 76.6875 63.1369 75.9423 63.6625 75.3462C64.1958 74.7423 64.5801 74.1932 64.8155 73.6991C65.0586 73.205 65.1802 72.6755 65.1802 72.1108C65.1802 71.4284 64.988 70.9186 64.6037 70.5813C64.2272 70.2362 63.7213 70.0636 63.086 70.0636C62.4193 70.0636 61.7722 70.2166 61.1447 70.5225C60.5172 70.8284 59.8623 71.2637 59.1799 71.8284L57.2033 69.4871C57.6975 69.0636 58.2191 68.6636 58.7681 68.2871C59.325 67.9106 59.9682 67.6086 60.6976 67.3812C61.4349 67.1459 62.3173 67.0282 63.3448 67.0282C64.4743 67.0282 65.4429 67.2321 66.2508 67.64C67.0665 68.0479 67.694 68.6047 68.1333 69.3107C68.5725 70.0087 68.7921 70.8009 68.7921 71.6872C68.7921 72.6363 68.6039 73.503 68.2274 74.2874C67.8509 75.0717 67.3018 75.8482 66.5802 76.6169C65.8665 77.3855 65.0037 78.2366 63.9919 79.1699L61.78 81.2524V81.4171H69.2745V84.4761ZM82.9692 75.8757C82.9692 77.264 82.8594 78.5032 82.6398 79.5935C82.428 80.6837 82.0829 81.6093 81.6045 82.3701C81.1339 83.1309 80.5142 83.7113 79.7456 84.1114C78.9769 84.5114 78.0435 84.7114 76.9454 84.7114C75.565 84.7114 74.4316 84.3623 73.5453 83.6643C72.659 82.9584 72.004 81.9465 71.5805 80.6288C71.1569 79.3033 70.9452 77.7189 70.9452 75.8757C70.9452 74.0168 71.1373 72.4285 71.5216 71.1107C71.9138 69.7852 72.5491 68.7695 73.4276 68.0635C74.3061 67.3576 75.4787 67.0047 76.9454 67.0047C78.318 67.0047 79.4475 67.3576 80.3338 68.0635C81.228 68.7616 81.8908 69.7734 82.3222 71.099C82.7535 72.4167 82.9692 74.0089 82.9692 75.8757ZM74.5571 75.8757C74.5571 77.1855 74.6277 78.2797 74.7689 79.1582C74.9179 80.0288 75.165 80.6837 75.5101 81.123C75.8552 81.5622 76.3336 81.7818 76.9454 81.7818C77.5494 81.7818 78.0239 81.5661 78.369 81.1347C78.722 80.6955 78.973 80.0406 79.122 79.1699C79.271 78.2915 79.3455 77.1934 79.3455 75.8757C79.3455 74.5658 79.271 73.4716 79.122 72.5932C78.973 71.7147 78.722 71.0558 78.369 70.6166C78.0239 70.1695 77.5494 69.946 76.9454 69.946C76.3336 69.946 75.8552 70.1695 75.5101 70.6166C75.165 71.0558 74.9179 71.7147 74.7689 72.5932C74.6277 73.4716 74.5571 74.5658 74.5571 75.8757ZM96.7581 75.8757C96.7581 77.264 96.6483 78.5032 96.4287 79.5935C96.2169 80.6837 95.8718 81.6093 95.3934 82.3701C94.9227 83.1309 94.3031 83.7113 93.5344 84.1114C92.7658 84.5114 91.8324 84.7114 90.7343 84.7114C89.3539 84.7114 88.2205 84.3623 87.3342 83.6643C86.4478 82.9584 85.7929 81.9465 85.3694 80.6288C84.9458 79.3033 84.734 77.7189 84.734 75.8757C84.734 74.0168 84.9262 72.4285 85.3105 71.1107C85.7027 69.7852 86.338 68.7695 87.2165 68.0635C88.095 67.3576 89.2676 67.0047 90.7343 67.0047C92.1069 67.0047 93.2364 67.3576 94.1227 68.0635C95.0169 68.7616 95.6796 69.7734 96.111 71.099C96.5424 72.4167 96.7581 74.0089 96.7581 75.8757ZM88.346 75.8757C88.346 77.1855 88.4166 78.2797 88.5577 79.1582C88.7068 80.0288 88.9538 80.6837 89.2989 81.123C89.6441 81.5622 90.1225 81.7818 90.7343 81.7818C91.3383 81.7818 91.8128 81.5661 92.1579 81.1347C92.5109 80.6955 92.7619 80.0406 92.9109 79.1699C93.0599 78.2915 93.1344 77.1934 93.1344 75.8757C93.1344 74.5658 93.0599 73.4716 92.9109 72.5932C92.7619 71.7147 92.5109 71.0558 92.1579 70.6166C91.8128 70.1695 91.3383 69.946 90.7343 69.946C90.1225 69.946 89.6441 70.1695 89.2989 70.6166C88.9538 71.0558 88.7068 71.7147 88.5577 72.5932C88.4166 73.4716 88.346 74.5658 88.346 75.8757Z" fill="white"/>
</g>
<defs>
<clipPath id="clip0_449_38568">
<rect width="100" height="100" fill="white"/>
</clipPath>
<clipPath id="clip1_449_38568">
<rect x="1" y="1" width="88" height="88" rx="44" fill="white"/>
</clipPath>
<clipPath id="clip2_449_38568">
<rect width="150.831" height="88" fill="white" transform="translate(-26.238 1)"/>
</clipPath>
</defs>
</svg>
