<svg width="100" height="101" viewBox="0 0 100 101" fill="none" xmlns="http://www.w3.org/2000/svg">
<g clip-path="url(#clip0_1_239)">
<path d="M98.0183 61.9924L97.959 62.2302C91.2461 88.6095 64.4661 104.633 38.0214 98.0396C11.5085 91.4278 -4.63174 64.5646 1.98297 38.0458L1.983 38.0456C8.59192 11.5217 35.4534 -4.61968 61.9693 1.9921L62.0903 1.50696L61.9693 1.99211C88.4915 8.60391 104.631 35.47 98.0183 61.9924Z" fill="#F7931A" stroke="#8F99A8"/>
<path d="M72.0505 42.8917C73.0458 36.237 67.9794 32.6599 61.0515 30.2736L63.299 21.2593L57.8117 19.892L55.6238 28.669C54.1813 28.3092 52.6998 27.9702 51.2274 27.6341L53.4311 18.7992L47.9473 17.4319L45.6986 26.4433C44.5048 26.1715 43.3323 25.9028 42.1948 25.6198L42.2011 25.5915L34.634 23.7018L33.1743 29.5626C33.1743 29.5626 37.2454 30.4958 37.1597 30.5532C39.3817 31.1078 39.7835 32.5788 39.7168 33.7447L37.1567 44.0141C37.3097 44.053 37.5082 44.1092 37.7272 44.1972C37.5441 44.1517 37.3493 44.1021 37.1472 44.0537L33.5588 58.4397C33.2873 59.1148 32.598 60.1279 31.0444 59.7432C31.0994 59.8229 27.0562 58.7479 27.0562 58.7479L24.3318 65.0291L31.4727 66.8092C32.8011 67.1424 34.1029 67.4909 35.3849 67.8187L33.1142 76.9364L38.5951 78.3037L40.8438 69.2828C42.3412 69.6893 43.7943 70.0642 45.2168 70.4176L42.9757 79.396L48.4632 80.7633L50.7337 71.6627C60.0907 73.4336 67.1264 72.7196 70.0878 64.2562C72.4741 57.4422 69.969 53.5119 65.0463 50.9489C68.6318 50.122 71.3324 47.7638 72.0525 42.8924L72.0508 42.8912L72.0505 42.8917ZM59.5133 60.4721C57.8175 67.2861 46.3448 63.6026 42.6252 62.679L45.6384 50.5996C49.3578 51.5281 61.2857 53.3657 59.5136 60.4721H59.5133ZM61.2104 42.793C59.6634 48.991 50.1145 45.8421 47.017 45.07L49.7489 34.1147C52.8465 34.8869 62.8219 36.328 61.2109 42.793H61.2104Z" fill="white"/>
</g>
<defs>
<clipPath id="clip0_1_239">
<rect width="100" height="100.011" fill="white" transform="translate(0 0.0106201)"/>
</clipPath>
</defs>
</svg>
