<svg width="100" height="100" viewBox="0 0 100 100" fill="none" xmlns="http://www.w3.org/2000/svg">
<g clip-path="url(#clip0_449_38487)">
<g clip-path="url(#clip1_449_38487)">
<g clip-path="url(#clip2_449_38487)">
<mask id="mask0_449_38487" style="mask-type:luminance" maskUnits="userSpaceOnUse" x="-25" y="1" width="124" height="72">
<path d="M98.4076 1H-25V73H98.4076V1Z" fill="white"/>
</mask>
<g mask="url(#mask0_449_38487)">
<path d="M4.05005 1H-25V73H4.05005V1Z" fill="#EA0020"/>
<path d="M98.4443 1H69.3943V73H98.4443V1Z" fill="#EA0020"/>
<path d="M69.3943 1H4.05005V73H69.3943V1Z" fill="white"/>
<mask id="mask1_449_38487" style="mask-type:luminance" maskUnits="userSpaceOnUse" x="-25" y="1" width="124" height="72">
<path d="M98.4076 1H-25V73H98.4076V1Z" fill="white"/>
</mask>
<g mask="url(#mask1_449_38487)">
<path d="M36.7038 10.3403L32.4382 18.6509C31.9602 19.5702 31.0776 19.4598 30.1951 18.945L27.1062 17.2535L29.4229 30.0502C29.9009 32.4037 28.3565 32.4037 27.5843 31.374L22.1788 25.0492L21.2962 28.2484C21.1859 28.6529 20.7446 29.1309 20.0827 29.0206L13.2431 27.513L15.0449 34.3158C15.4494 35.8235 15.7436 36.4486 14.6405 36.8531L12.2135 38.0298L23.9806 47.9951C24.4219 48.3628 24.6793 49.0615 24.4954 49.6498L23.4658 53.18C27.5107 52.7019 31.1512 52.2607 35.1961 51.7458C35.5638 51.7458 36.1522 52.0768 36.1522 52.4813L35.6006 65.3883H37.5863L37.2554 52.5181C37.2554 52.1136 37.8069 51.7458 38.1379 51.7458C42.1828 52.2239 45.8233 52.6651 49.8682 53.18L48.8386 49.6498C48.6915 49.0247 48.9122 48.3628 49.3902 47.9951L61.1573 38.0298L58.7303 36.8531C57.6639 36.4486 57.9581 35.8235 58.3258 34.3158L60.1277 27.513L53.2881 29.0206C52.6262 29.1309 52.1849 28.6897 52.0746 28.2484L51.192 25.0492L45.7865 31.374C45.0143 32.3669 43.4699 32.3669 43.9479 30.0502L46.2646 17.2535L43.1757 18.945C42.2932 19.4598 41.4106 19.5334 40.9326 18.6509L36.667 10.3403H36.7038Z" fill="#EA0020"/>
</g>
</g>
</g>
</g>
<rect x="0.5" y="0.5" width="73" height="73" rx="36.5" stroke="#8F99A8"/>
<g clip-path="url(#clip3_449_38487)">
<g clip-path="url(#clip4_449_38487)">
<rect width="116.64" height="72" transform="translate(3.61884 27)" fill="#DB291C"/>
<path fill-rule="evenodd" clip-rule="evenodd" d="M68.8187 40.2437H55.0589V56.1203H39.1824V69.88H55.0589V85.7565H68.8187V69.88H84.6953V56.1203H68.8187V40.2437Z" fill="white"/>
</g>
</g>
<rect x="26.5" y="26.5" width="73" height="73" rx="36.5" stroke="#8F99A8"/>
</g>
<defs>
<clipPath id="clip0_449_38487">
<rect width="100" height="100" fill="white"/>
</clipPath>
<clipPath id="clip1_449_38487">
<rect x="1" y="1" width="72" height="72" rx="36" fill="white"/>
</clipPath>
<clipPath id="clip2_449_38487">
<rect width="123.408" height="72" fill="white" transform="translate(-25 1)"/>
</clipPath>
<clipPath id="clip3_449_38487">
<rect x="27" y="27" width="72" height="72" rx="36" fill="white"/>
</clipPath>
<clipPath id="clip4_449_38487">
<rect width="116.682" height="72" fill="white" transform="translate(4.65883 27)"/>
</clipPath>
</defs>
</svg>
