<svg width="100" height="100" viewBox="0 0 100 100" fill="none" xmlns="http://www.w3.org/2000/svg">
<g clip-path="url(#clip0_449_38327)">
<g clip-path="url(#clip1_449_38327)">
<g clip-path="url(#clip2_449_38327)">
<rect width="116.64" height="72" transform="translate(-22.4871 1)" fill="#DB291C"/>
<path fill-rule="evenodd" clip-rule="evenodd" d="M42.7128 14.2437H28.9531V30.1203H13.0765V43.88H28.9531V59.7565H42.7128V43.88H58.5894V30.1203H42.7128V14.2437Z" fill="white"/>
</g>
</g>
<rect x="0.5" y="0.5" width="73" height="73" rx="36.5" stroke="#8F99A8"/>
<g clip-path="url(#clip3_449_38327)">
<g clip-path="url(#clip4_449_38327)">
<mask id="mask0_449_38327" style="mask-type:luminance" maskUnits="userSpaceOnUse" x="1" y="27" width="124" height="72">
<path d="M124.784 27H1.37646V99H124.784V27Z" fill="white"/>
</mask>
<g mask="url(#mask0_449_38327)">
<path d="M124.784 27H1.37646V99H124.784V27Z" fill="white"/>
<mask id="mask1_449_38327" style="mask-type:luminance" maskUnits="userSpaceOnUse" x="1" y="27" width="124" height="72">
<path d="M124.784 27H1.37646V99H124.784V27Z" fill="white"/>
</mask>
<g mask="url(#mask1_449_38327)">
<path d="M63.0803 41.4148C74.9945 41.4148 84.6655 51.0859 84.6655 63.0001C84.6655 74.9143 74.9945 84.6221 63.0803 84.6221C51.1661 84.6221 41.4582 74.9143 41.4582 63.0001C41.4582 51.0859 51.1293 41.4148 63.0803 41.4148Z" fill="#AD0018"/>
</g>
</g>
</g>
</g>
<rect x="26.5" y="26.5" width="73" height="73" rx="36.5" stroke="#8F99A8"/>
</g>
<defs>
<clipPath id="clip0_449_38327">
<rect width="100" height="100" fill="white"/>
</clipPath>
<clipPath id="clip1_449_38327">
<rect x="1" y="1" width="72" height="72" rx="36" fill="white"/>
</clipPath>
<clipPath id="clip2_449_38327">
<rect width="116.682" height="72" fill="white" transform="translate(-21.4471 1)"/>
</clipPath>
<clipPath id="clip3_449_38327">
<rect x="27" y="27" width="72" height="72" rx="36" fill="white"/>
</clipPath>
<clipPath id="clip4_449_38327">
<rect width="123.408" height="72" fill="white" transform="translate(1.37646 27)"/>
</clipPath>
</defs>
</svg>
