<svg width="100" height="100" viewBox="0 0 100 100" fill="none" xmlns="http://www.w3.org/2000/svg">
<g clip-path="url(#clip0_1_79)">
<path d="M49.9999 74L49.4347 74.8351V97.9175L49.4999 98.5L49.9999 99L79.9021 56.6128L49.9999 74Z" fill="#3C3C3B"/>
<path d="M50 99V74.5L19.5 56.5L50 99Z" fill="#8C8C8C"/>
<path d="M50 1L49.1479 3.23329V68.0324L49.8054 68.6883L79.8839 50.9087L50 1Z" fill="#343434"/>
<path d="M50 1L20 51L50 69V37.4035V1Z" fill="#8C8C8C"/>
<path d="M49.8054 68.6884L79.5 50.5001L49.8054 37.0001V68.6884Z" fill="#141414"/>
<path d="M20 51.0001L50 68.6502V36.9999L20 51.0001Z" fill="#393939"/>
<path d="M49.3992 1.02955L19.6754 50.5691C19.4748 50.9035 19.5861 51.3374 19.923 51.5339L49.645 68.8718C49.8672 69.0014 50.1427 68.9987 50.3623 68.8647L79.5915 51.0299C79.9191 50.83 80.0246 50.4037 79.8282 50.074L50.6007 1.03134C50.3297 0.57661 49.6715 0.575618 49.3992 1.02955Z" stroke="#8F99A8"/>
<path d="M49.9979 73.9182L20.5719 56.552C19.9198 56.1672 19.2059 56.9478 19.6474 57.563L49.4299 99.0632C49.7106 99.4543 50.293 99.452 50.5705 99.0588L79.8616 57.5631C80.2982 56.9446 79.5787 56.1697 78.9296 56.5592L49.9979 73.9182Z" stroke="#8F99A8"/>
</g>
<defs>
<clipPath id="clip0_1_79">
<rect width="62" height="100" fill="white" transform="translate(19)"/>
</clipPath>
</defs>
</svg>
