<svg width="100" height="100" viewBox="0 0 100 100" fill="none" xmlns="http://www.w3.org/2000/svg">
<g clip-path="url(#clip0_449_38477)">
<g clip-path="url(#clip1_449_38477)">
<g clip-path="url(#clip2_449_38477)">
<path d="M105.227 1H-31.2305V73H105.227V1Z" fill="#314199"/>
<path d="M36.9721 57.4839L37.9191 60.2871L40.8039 60.2843L38.7563 61.8341L39.3193 64.8437L36.9721 63.1362L34.6173 64.7977L35.1872 61.8341L33.1609 60.2747H36.0429L36.9721 57.4839Z" fill="#F8EC26"/>
<path d="M36.9721 8.78638L37.9191 11.5903L40.8039 11.5868L38.7563 13.1365L39.3193 16.1461L36.9721 14.4387L34.6173 16.1002L35.1872 13.1365L33.1609 11.5772H36.0429L36.9721 8.78638Z" fill="#F8EC26"/>
<path d="M48.7013 11.9182L49.6482 14.7214L52.5337 14.7187L50.4862 16.2684L51.0485 19.2773L48.7013 17.5706L46.3465 19.232L46.917 16.2684L44.8907 14.7091H47.7728L48.7013 11.9182Z" fill="#F8EC26"/>
<path d="M24.6757 11.9182L25.6227 14.7214L28.5082 14.7187L26.4607 16.2684L27.023 19.2773L24.6757 17.5706L22.321 19.232L22.8915 16.2684L20.8652 14.7091H23.7466L24.6757 11.9182Z" fill="#F8EC26"/>
<path d="M48.7013 54.1938L49.6482 56.9977L52.5337 56.995L50.4862 58.5447L51.0485 61.5536L48.7013 59.8469L46.3465 61.5084L46.917 58.5447L44.8907 56.9847H47.7728L48.7013 54.1938Z" fill="#F8EC26"/>
<path d="M24.6757 54.1938L25.6227 56.9977L28.5082 56.995L26.4607 58.5447L27.023 61.5536L24.6757 59.8469L22.321 61.5084L22.8915 58.5447L20.8652 56.9847H23.7466L24.6757 54.1938Z" fill="#F8EC26"/>
<path d="M15.6923 21.1079L16.6393 23.9118L19.5241 23.9084L17.4765 25.4588L18.0395 28.4677L15.6923 26.7609L13.3376 28.4217L13.9074 25.4588L11.8811 23.8988H14.7632L15.6923 21.1079Z" fill="#F8EC26"/>
<path d="M57.9797 21.1079L58.9266 23.9118L61.8121 23.9084L59.7646 25.4588L60.3269 28.4677L57.9797 26.7609L55.6249 28.4217L56.1947 25.4588L54.1685 23.8988H57.0505L57.9797 21.1079Z" fill="#F8EC26"/>
<path d="M15.6923 45.4141L16.6393 48.2179L19.5241 48.2145L17.4765 49.7649L18.0395 52.7738L15.6923 51.0664L13.3376 52.7279L13.9074 49.7649L11.8811 48.2049H14.7632L15.6923 45.4141Z" fill="#F8EC26"/>
<path d="M57.9797 45.4141L58.9266 48.2179L61.8121 48.2145L59.7646 49.7649L60.3269 52.7738L57.9797 51.0664L55.6249 52.7279L56.1947 49.7649L54.1685 48.2049H57.0505L57.9797 45.4141Z" fill="#F8EC26"/>
<path d="M12.9014 33.1697L13.8484 35.9736L16.7332 35.9701L14.6856 37.5205L15.2486 40.5294L12.9014 38.822L10.5467 40.4835L11.1165 37.5205L9.09021 35.9605H11.9723L12.9014 33.1697Z" fill="#F8EC26"/>
<path d="M61.0736 33.1697L62.0205 35.9736L64.906 35.9701L62.8585 37.5205L63.4208 40.5294L61.0736 38.822L58.7188 40.4835L59.2887 37.5205L57.2631 35.9605H60.1444L61.0736 33.1697Z" fill="#F8EC26"/>
</g>
</g>
<rect x="0.5" y="0.5" width="73" height="73" rx="36.5" stroke="#8F99A8"/>
<g clip-path="url(#clip3_449_38477)">
<g clip-path="url(#clip4_449_38477)">
<mask id="mask0_449_38477" style="mask-type:luminance" maskUnits="userSpaceOnUse" x="12" y="27" width="124" height="72">
<path d="M135.584 27H12.1765V99H135.584V27Z" fill="white"/>
</mask>
<g mask="url(#mask0_449_38477)">
<path d="M135.584 27H12.1765V99H135.584V27Z" fill="#180087"/>
<path d="M44.6464 71.1267L46.5218 76.9735L52.2583 74.7672L48.8752 79.8785L54.1336 83.0409L48.0295 83.5557L48.8752 89.6231L44.6464 85.1737L40.4176 89.6231L41.2634 83.5557L35.1592 83.0409L40.4176 79.8785L37.0346 74.7672L42.771 76.9735L44.6464 71.1267Z" fill="white"/>
<path d="M93.3328 55.9395L94.2521 58.6974L96.9732 57.6677L95.3553 60.0947L97.8558 61.6024L94.9508 61.823L95.3553 64.728L93.3328 62.632L91.3471 64.728L91.7148 61.823L88.8098 61.6024L91.3471 60.0947L89.7291 57.6677L92.4503 58.6974L93.3328 55.9395Z" fill="white"/>
<path d="M39.2409 27V37.811H12.1765V48.6588H39.2409V59.4699H50.0519V48.6588H77.1162V37.811H50.0519V27H39.2409Z" fill="white"/>
<path d="M12.1765 27V30.6404L69.8721 59.4699H77.1162V55.8294L19.4206 27H12.1765Z" fill="white"/>
<path d="M69.8721 27L12.1765 55.8294V59.4699H19.4206L77.1162 30.6404V27H69.8721Z" fill="white"/>
<path d="M41.4104 27V39.9806H12.1765V46.4893H41.4104V59.4699H47.8823V46.4893H77.1162V39.9806H47.8823V27H41.4104Z" fill="#EA0020"/>
<path d="M12.1765 27V29.427L28.9814 37.811H33.8353L12.1765 27ZM72.2623 27L50.6403 37.811H55.4942L77.1162 27H72.2623Z" fill="#EA0020"/>
<path d="M33.8353 48.6588L12.1765 59.4699H17.0304L38.6893 48.6588H33.8353ZM55.4942 48.6588L77.153 59.4699V57.0429L60.3481 48.6221H55.4942V48.6588Z" fill="#EA0020"/>
</g>
</g>
</g>
<rect x="26.5" y="26.5" width="73" height="73" rx="36.5" stroke="#8F99A8"/>
</g>
<defs>
<clipPath id="clip0_449_38477">
<rect width="100" height="100" fill="white"/>
</clipPath>
<clipPath id="clip1_449_38477">
<rect x="1" y="1" width="72" height="72" rx="36" fill="white"/>
</clipPath>
<clipPath id="clip2_449_38477">
<rect width="136.457" height="72" fill="white" transform="translate(-31.2305 1)"/>
</clipPath>
<clipPath id="clip3_449_38477">
<rect x="27" y="27" width="72" height="72" rx="36" fill="white"/>
</clipPath>
<clipPath id="clip4_449_38477">
<rect width="123.408" height="72" fill="white" transform="translate(12.1765 27)"/>
</clipPath>
</defs>
</svg>
