<svg width="100" height="100" viewBox="0 0 100 100" fill="none" xmlns="http://www.w3.org/2000/svg">
<g clip-path="url(#clip0_449_38472)">
<g clip-path="url(#clip1_449_38472)">
<g clip-path="url(#clip2_449_38472)">
<path d="M105.227 1H-31.2305V73H105.227V1Z" fill="#314199"/>
<path d="M36.9721 57.4839L37.9191 60.2871L40.8039 60.2843L38.7563 61.8341L39.3193 64.8437L36.9721 63.1362L34.6173 64.7977L35.1872 61.8341L33.1609 60.2747H36.0429L36.9721 57.4839Z" fill="#F8EC26"/>
<path d="M36.9721 8.78638L37.9191 11.5903L40.8039 11.5868L38.7563 13.1365L39.3193 16.1461L36.9721 14.4387L34.6173 16.1002L35.1872 13.1365L33.1609 11.5772H36.0429L36.9721 8.78638Z" fill="#F8EC26"/>
<path d="M48.7013 11.9182L49.6482 14.7214L52.5337 14.7187L50.4862 16.2684L51.0485 19.2773L48.7013 17.5706L46.3465 19.232L46.917 16.2684L44.8907 14.7091H47.7728L48.7013 11.9182Z" fill="#F8EC26"/>
<path d="M24.6757 11.9182L25.6227 14.7214L28.5082 14.7187L26.4607 16.2684L27.023 19.2773L24.6757 17.5706L22.321 19.232L22.8915 16.2684L20.8652 14.7091H23.7466L24.6757 11.9182Z" fill="#F8EC26"/>
<path d="M48.7013 54.1938L49.6482 56.9977L52.5337 56.995L50.4862 58.5447L51.0485 61.5536L48.7013 59.8469L46.3465 61.5084L46.917 58.5447L44.8907 56.9847H47.7728L48.7013 54.1938Z" fill="#F8EC26"/>
<path d="M24.6757 54.1938L25.6227 56.9977L28.5082 56.995L26.4607 58.5447L27.023 61.5536L24.6757 59.8469L22.321 61.5084L22.8915 58.5447L20.8652 56.9847H23.7466L24.6757 54.1938Z" fill="#F8EC26"/>
<path d="M15.6923 21.1079L16.6393 23.9118L19.5241 23.9084L17.4765 25.4588L18.0395 28.4677L15.6923 26.7609L13.3376 28.4217L13.9074 25.4588L11.8811 23.8988H14.7632L15.6923 21.1079Z" fill="#F8EC26"/>
<path d="M57.9797 21.1079L58.9266 23.9118L61.8121 23.9084L59.7646 25.4588L60.3269 28.4677L57.9797 26.7609L55.6249 28.4217L56.1947 25.4588L54.1685 23.8988H57.0505L57.9797 21.1079Z" fill="#F8EC26"/>
<path d="M15.6923 45.4141L16.6393 48.2179L19.5241 48.2145L17.4765 49.7649L18.0395 52.7738L15.6923 51.0664L13.3376 52.7279L13.9074 49.7649L11.8811 48.2049H14.7632L15.6923 45.4141Z" fill="#F8EC26"/>
<path d="M57.9797 45.4141L58.9266 48.2179L61.8121 48.2145L59.7646 49.7649L60.3269 52.7738L57.9797 51.0664L55.6249 52.7279L56.1947 49.7649L54.1685 48.2049H57.0505L57.9797 45.4141Z" fill="#F8EC26"/>
<path d="M12.9014 33.1697L13.8484 35.9736L16.7332 35.9701L14.6856 37.5205L15.2486 40.5294L12.9014 38.822L10.5467 40.4835L11.1165 37.5205L9.09021 35.9605H11.9723L12.9014 33.1697Z" fill="#F8EC26"/>
<path d="M61.0736 33.1697L62.0205 35.9736L64.906 35.9701L62.8585 37.5205L63.4208 40.5294L61.0736 38.822L58.7188 40.4835L59.2887 37.5205L57.2631 35.9605H60.1444L61.0736 33.1697Z" fill="#F8EC26"/>
</g>
</g>
<rect x="0.5" y="0.5" width="73" height="73" rx="36.5" stroke="#8F99A8"/>
<g clip-path="url(#clip3_449_38472)">
<g clip-path="url(#clip4_449_38472)">
<mask id="mask0_449_38472" style="mask-type:luminance" maskUnits="userSpaceOnUse" x="1" y="27" width="124" height="72">
<path d="M124.996 27H1.58826V99H124.996V27Z" fill="white"/>
</mask>
<g mask="url(#mask0_449_38472)">
<path d="M30.6383 27H1.58826V99H30.6383V27Z" fill="#EA0020"/>
<path d="M125.033 27H95.9827V99H125.033V27Z" fill="#EA0020"/>
<path d="M95.9827 27H30.6384V99H95.9827V27Z" fill="white"/>
<mask id="mask1_449_38472" style="mask-type:luminance" maskUnits="userSpaceOnUse" x="1" y="27" width="124" height="72">
<path d="M124.996 27H1.58826V99H124.996V27Z" fill="white"/>
</mask>
<g mask="url(#mask1_449_38472)">
<path d="M63.2919 36.3403L59.0264 44.6509C58.5483 45.5702 57.6658 45.4598 56.7833 44.945L53.6944 43.2535L56.011 56.0502C56.4891 58.4037 54.9446 58.4037 54.1724 57.374L48.7669 51.0492L47.8844 54.2484C47.7741 54.6529 47.3328 55.1309 46.6709 55.0206L39.8313 53.513L41.6331 60.3158C42.0376 61.8235 42.3318 62.4486 41.2286 62.8531L38.8016 64.0298L50.5687 73.9951C51.01 74.3628 51.2674 75.0615 51.0836 75.6498L50.0539 79.18C54.0989 78.7019 57.7393 78.2607 61.7843 77.7458C62.152 77.7458 62.7403 78.0768 62.7403 78.4813L62.1888 91.3883H64.1745L63.8435 78.5181C63.8435 78.1136 64.3951 77.7458 64.726 77.7458C68.771 78.2239 72.4114 78.6651 76.4564 79.18L75.4268 75.6498C75.2797 75.0247 75.5003 74.3628 75.9783 73.9951L87.7455 64.0298L85.3185 62.8531C84.2521 62.4486 84.5463 61.8235 84.914 60.3158L86.7158 53.513L79.8762 55.0206C79.2143 55.1309 78.773 54.6897 78.6627 54.2484L77.7802 51.0492L72.3747 57.374C71.6025 58.3669 70.058 58.3669 70.5361 56.0502L72.8527 43.2535L69.7638 44.945C68.8813 45.4598 67.9988 45.5334 67.5207 44.6509L63.2552 36.3403H63.2919Z" fill="#EA0020"/>
</g>
</g>
</g>
</g>
<rect x="26.5" y="26.5" width="73" height="73" rx="36.5" stroke="#8F99A8"/>
</g>
<defs>
<clipPath id="clip0_449_38472">
<rect width="100" height="100" fill="white"/>
</clipPath>
<clipPath id="clip1_449_38472">
<rect x="1" y="1" width="72" height="72" rx="36" fill="white"/>
</clipPath>
<clipPath id="clip2_449_38472">
<rect width="136.457" height="72" fill="white" transform="translate(-31.2305 1)"/>
</clipPath>
<clipPath id="clip3_449_38472">
<rect x="27" y="27" width="72" height="72" rx="36" fill="white"/>
</clipPath>
<clipPath id="clip4_449_38472">
<rect width="123.408" height="72" fill="white" transform="translate(1.58826 27)"/>
</clipPath>
</defs>
</svg>
