<svg width="100" height="100" viewBox="0 0 100 100" fill="none" xmlns="http://www.w3.org/2000/svg">
<g clip-path="url(#clip0_449_38262)">
<g clip-path="url(#clip1_449_38262)">
<g clip-path="url(#clip2_449_38262)">
<path d="M105.227 1H-31.2306V73H105.227V1Z" fill="#314199"/>
<path d="M36.9719 57.4839L37.9189 60.2871L40.8037 60.2843L38.7561 61.8341L39.3191 64.8437L36.9719 63.1362L34.6172 64.7977L35.187 61.8341L33.1607 60.2747H36.0428L36.9719 57.4839Z" fill="#F8EC26"/>
<path d="M36.9719 8.78638L37.9189 11.5903L40.8037 11.5868L38.7561 13.1365L39.3191 16.1461L36.9719 14.4387L34.6172 16.1002L35.187 13.1365L33.1607 11.5772H36.0428L36.9719 8.78638Z" fill="#F8EC26"/>
<path d="M48.7011 11.9182L49.6481 14.7214L52.5336 14.7187L50.4861 16.2684L51.0483 19.2773L48.7011 17.5706L46.3464 19.232L46.9169 16.2684L44.8906 14.7091H47.7727L48.7011 11.9182Z" fill="#F8EC26"/>
<path d="M24.6757 11.9182L25.6227 14.7214L28.5081 14.7187L26.4606 16.2684L27.0229 19.2773L24.6757 17.5706L22.3209 19.232L22.8915 16.2684L20.8652 14.7091H23.7465L24.6757 11.9182Z" fill="#F8EC26"/>
<path d="M48.7011 54.1938L49.6481 56.9977L52.5336 56.995L50.4861 58.5447L51.0483 61.5536L48.7011 59.8469L46.3464 61.5084L46.9169 58.5447L44.8906 56.9847H47.7727L48.7011 54.1938Z" fill="#F8EC26"/>
<path d="M24.6757 54.1938L25.6227 56.9977L28.5081 56.995L26.4606 58.5447L27.0229 61.5536L24.6757 59.8469L22.3209 61.5084L22.8915 58.5447L20.8652 56.9847H23.7465L24.6757 54.1938Z" fill="#F8EC26"/>
<path d="M15.6922 21.1079L16.6391 23.9118L19.5239 23.9084L17.4764 25.4588L18.0394 28.4677L15.6922 26.7609L13.3374 28.4217L13.9073 25.4588L11.881 23.8988H14.763L15.6922 21.1079Z" fill="#F8EC26"/>
<path d="M57.9794 21.1079L58.9264 23.9118L61.8119 23.9084L59.7643 25.4588L60.3266 28.4677L57.9794 26.7609L55.6247 28.4217L56.1945 25.4588L54.1682 23.8988H57.0503L57.9794 21.1079Z" fill="#F8EC26"/>
<path d="M15.6922 45.4141L16.6391 48.2179L19.5239 48.2145L17.4764 49.7649L18.0394 52.7738L15.6922 51.0664L13.3374 52.7279L13.9073 49.7649L11.881 48.2049H14.763L15.6922 45.4141Z" fill="#F8EC26"/>
<path d="M57.9794 45.4141L58.9264 48.2179L61.8119 48.2145L59.7643 49.7649L60.3266 52.7738L57.9794 51.0664L55.6247 52.7279L56.1945 49.7649L54.1682 48.2049H57.0503L57.9794 45.4141Z" fill="#F8EC26"/>
<path d="M12.9013 33.1697L13.8483 35.9736L16.7331 35.9701L14.6855 37.5205L15.2485 40.5294L12.9013 38.822L10.5465 40.4835L11.1164 37.5205L9.09009 35.9605H11.9721L12.9013 33.1697Z" fill="#F8EC26"/>
<path d="M61.0734 33.1697L62.0204 35.9736L64.9058 35.9701L62.8583 37.5205L63.4206 40.5294L61.0734 38.822L58.7186 40.4835L59.2885 37.5205L57.2629 35.9605H60.1443L61.0734 33.1697Z" fill="#F8EC26"/>
</g>
</g>
<rect x="0.5" y="0.5" width="73" height="73" rx="36.5" stroke="#8F99A8"/>
<g clip-path="url(#clip3_449_38262)">
<g clip-path="url(#clip4_449_38262)">
<mask id="mask0_449_38262" style="mask-type:luminance" maskUnits="userSpaceOnUse" x="27" y="27" width="124" height="72">
<path d="M150.471 27H27V99H150.471V27Z" fill="white"/>
</mask>
<g mask="url(#mask0_449_38262)">
<path d="M150.471 27H27V99H150.471V27Z" fill="#CB1D23"/>
<path d="M38.8835 53.0847L41.2013 45.8737L35.094 41.422L42.6362 41.3852L44.9908 34.2109L47.3454 41.3852L54.8876 41.422L48.817 45.8737L51.0981 53.0847L44.9908 48.633L38.8835 53.0847Z" fill="#F7DE29"/>
<path d="M59.9279 56.9478L62.4665 57.9779L64.2693 55.8809L64.0485 58.6034L66.6239 59.6703L63.9382 60.3326L63.7542 63.0551L62.2826 60.7373L59.6336 61.3627L61.3628 59.2656L59.9279 56.9478Z" fill="#F7DE29"/>
<path d="M73.7246 43.1514L71.0388 42.6731L69.7143 45.1013L69.3464 42.3788L66.6239 41.8637L69.0889 40.6864L68.721 37.9639L70.6341 39.9138L73.0991 38.7365L71.8114 41.1647L73.7246 43.1514Z" fill="#F7DE29"/>
<path d="M67.9852 55.4396L68.8314 52.8274L66.6239 51.2086H69.3464L70.1926 48.5964L71.0756 51.2086H73.7981L71.5907 52.8274L72.4369 55.4396L70.1926 53.8208L67.9852 55.4396Z" fill="#F7DE29"/>
<path d="M60.0751 31.5623L62.5768 32.7396L64.4532 30.7161L64.1221 33.4386L66.5871 34.6159L63.9013 35.131L63.5702 37.8903L62.2089 35.4621L59.5232 35.9772L61.3995 33.9537L60.0751 31.5623Z" fill="#F7DE29"/>
</g>
</g>
</g>
<rect x="26.5" y="26.5" width="73" height="73" rx="36.5" stroke="#8F99A8"/>
</g>
<defs>
<clipPath id="clip0_449_38262">
<rect width="100" height="100" fill="white"/>
</clipPath>
<clipPath id="clip1_449_38262">
<rect x="1" y="1" width="72" height="72" rx="36" fill="white"/>
</clipPath>
<clipPath id="clip2_449_38262">
<rect width="136.457" height="72" fill="white" transform="translate(-31.2306 1)"/>
</clipPath>
<clipPath id="clip3_449_38262">
<rect x="27" y="27" width="72" height="72" rx="36" fill="white"/>
</clipPath>
<clipPath id="clip4_449_38262">
<rect width="123.471" height="72" fill="white" transform="translate(27 27)"/>
</clipPath>
</defs>
</svg>
