<svg width="100" height="100" viewBox="0 0 100 100" fill="none" xmlns="http://www.w3.org/2000/svg">
<g clip-path="url(#clip0_449_38292)">
<g clip-path="url(#clip1_449_38292)">
<g clip-path="url(#clip2_449_38292)">
<path d="M105.227 1H-31.2306V73H105.227V1Z" fill="#314199"/>
<path d="M36.9719 57.4839L37.9189 60.2871L40.8037 60.2843L38.7562 61.8341L39.3191 64.8437L36.9719 63.1362L34.6172 64.7977L35.187 61.8341L33.1607 60.2747H36.0428L36.9719 57.4839Z" fill="#F8EC26"/>
<path d="M36.9719 8.78638L37.9189 11.5903L40.8037 11.5868L38.7562 13.1365L39.3191 16.1461L36.9719 14.4387L34.6172 16.1002L35.187 13.1365L33.1607 11.5772H36.0428L36.9719 8.78638Z" fill="#F8EC26"/>
<path d="M48.7011 11.9182L49.648 14.7214L52.5335 14.7187L50.486 16.2684L51.0483 19.2773L48.7011 17.5706L46.3463 19.232L46.9168 16.2684L44.8905 14.7091H47.7726L48.7011 11.9182Z" fill="#F8EC26"/>
<path d="M24.6757 11.9182L25.6227 14.7214L28.5081 14.7187L26.4606 16.2684L27.0229 19.2773L24.6757 17.5706L22.3209 19.232L22.8915 16.2684L20.8652 14.7091H23.7465L24.6757 11.9182Z" fill="#F8EC26"/>
<path d="M48.7011 54.1938L49.648 56.9977L52.5335 56.995L50.486 58.5447L51.0483 61.5536L48.7011 59.8469L46.3463 61.5084L46.9168 58.5447L44.8905 56.9847H47.7726L48.7011 54.1938Z" fill="#F8EC26"/>
<path d="M24.6757 54.1938L25.6227 56.9977L28.5081 56.995L26.4606 58.5447L27.0229 61.5536L24.6757 59.8469L22.3209 61.5084L22.8915 58.5447L20.8652 56.9847H23.7465L24.6757 54.1938Z" fill="#F8EC26"/>
<path d="M15.6921 21.1079L16.6391 23.9118L19.5239 23.9084L17.4764 25.4588L18.0394 28.4677L15.6921 26.7609L13.3374 28.4217L13.9072 25.4588L11.881 23.8988H14.763L15.6921 21.1079Z" fill="#F8EC26"/>
<path d="M57.9794 21.1079L58.9264 23.9118L61.8119 23.9084L59.7644 25.4588L60.3266 28.4677L57.9794 26.7609L55.6247 28.4217L56.1945 25.4588L54.1682 23.8988H57.0503L57.9794 21.1079Z" fill="#F8EC26"/>
<path d="M15.6921 45.4141L16.6391 48.2179L19.5239 48.2145L17.4764 49.7649L18.0394 52.7738L15.6921 51.0664L13.3374 52.7279L13.9072 49.7649L11.881 48.2049H14.763L15.6921 45.4141Z" fill="#F8EC26"/>
<path d="M57.9794 45.4141L58.9264 48.2179L61.8119 48.2145L59.7644 49.7649L60.3266 52.7738L57.9794 51.0664L55.6247 52.7279L56.1945 49.7649L54.1682 48.2049H57.0503L57.9794 45.4141Z" fill="#F8EC26"/>
<path d="M12.9013 33.1697L13.8483 35.9736L16.7331 35.9701L14.6855 37.5205L15.2485 40.5294L12.9013 38.822L10.5465 40.4835L11.1164 37.5205L9.09009 35.9605H11.9721L12.9013 33.1697Z" fill="#F8EC26"/>
<path d="M61.0734 33.1697L62.0204 35.9736L64.9058 35.9701L62.8583 37.5205L63.4206 40.5294L61.0734 38.822L58.7186 40.4835L59.2885 37.5205L57.2629 35.9605H60.1443L61.0734 33.1697Z" fill="#F8EC26"/>
</g>
</g>
<rect x="0.5" y="0.5" width="73" height="73" rx="36.5" stroke="#8F99A8"/>
<g clip-path="url(#clip3_449_38292)">
<rect width="116.682" height="72" transform="translate(4.65881 27)" fill="#EE1C25"/>
<path d="M53.6188 46.4401C55.3468 36.6481 64.8988 34.6801 69.4588 34.9201C66.5788 36.6481 67.2988 40.4401 68.0188 42.1201C68.9788 44.2801 69.6028 49.3201 64.4188 52.2001C59.2348 55.0801 60.8188 60.6001 62.2588 63.0001C58.6588 61.5601 51.8908 56.2321 53.6188 46.4401Z" fill="white"/>
<path d="M76.8805 48.9904C86.7849 48.1108 91.1707 56.8216 92.1256 61.2869C89.7077 58.9558 86.2337 60.6378 84.799 61.7702C82.9632 63.2592 78.2592 65.1732 74.1295 60.9173C69.9997 56.6613 65.082 59.6272 63.1394 61.6421C63.593 57.7914 66.9762 49.8701 76.8805 48.9904Z" fill="white"/>
<path d="M80.5415 70.6679C85.0219 79.5446 78.5509 86.8411 74.7554 89.3798C76.0269 86.2712 73.1793 83.6657 71.5966 82.7515C69.5342 81.5966 66.0161 77.9341 68.4429 72.5231C70.8696 67.112 66.2953 63.6401 63.7048 62.5804C67.4501 61.5777 76.061 61.7912 80.5415 70.6679Z" fill="white"/>
<path d="M60.5517 82.3916C53.241 89.1312 44.4515 84.9052 40.9706 81.9498C44.3086 82.3216 46.0349 78.8695 46.4808 77.0969C47.0269 74.7971 49.5863 70.4107 55.4549 71.2632C61.3236 72.1157 63.4105 66.7656 63.7204 63.9839C65.7103 67.3117 67.8625 75.652 60.5517 82.3916Z" fill="white"/>
<path d="M43.6876 66.653C35.0622 61.706 36.4509 52.0528 38.2235 47.8445C38.8721 51.1399 42.6835 51.7488 44.5081 51.6414C46.8657 51.4709 51.8186 52.5935 52.7694 58.4471C53.7203 64.3006 59.4503 64.6829 62.1965 64.1424C59.6207 67.0405 52.3129 71.6 43.6876 66.653Z" fill="white"/>
<path d="M44.7873 56.7776L46.0019 58.2168L47.746 57.5064L46.7525 59.1062L47.9671 60.5454L46.1386 60.095L45.1452 61.6949L45.0085 59.8166L43.1799 59.3662L44.924 58.6558L44.7873 56.7776Z" fill="#EE1C25"/>
<path d="M52.8514 75.7021L54.066 77.1413L55.81 76.4309L54.8166 78.0308L56.0312 79.47L54.2026 79.0196L53.2092 80.6194L53.0725 78.7412L51.244 78.2908L52.9881 77.5804L52.8514 75.7021Z" fill="#EE1C25"/>
<path d="M60.3393 43.3022L61.5539 44.7414L63.298 44.031L62.3045 45.6309L63.5191 47.0701L61.6906 46.6197L60.6972 48.2195L60.5605 46.3413L58.7319 45.8909L60.476 45.1805L60.3393 43.3022Z" fill="#EE1C25"/>
<path d="M78.3393 53.8977L79.5539 55.3369L81.298 54.6265L80.3045 56.2263L81.5191 57.6655L79.6906 57.2151L78.6972 58.815L78.5605 56.9367L76.7319 56.4863L78.476 55.7759L78.3393 53.8977Z" fill="#EE1C25"/>
<path d="M74.0193 73.6863L75.2339 75.1255L76.9779 74.4151L75.9845 76.0149L77.1991 77.4541L75.3706 77.0037L74.3772 78.6036L74.2405 76.7253L72.4119 76.2749L74.156 75.5645L74.0193 73.6863Z" fill="#EE1C25"/>
</g>
<rect x="26.5" y="26.5" width="73" height="73" rx="36.5" stroke="#8F99A8"/>
</g>
<defs>
<clipPath id="clip0_449_38292">
<rect width="100" height="100" fill="white"/>
</clipPath>
<clipPath id="clip1_449_38292">
<rect x="1" y="1" width="72" height="72" rx="36" fill="white"/>
</clipPath>
<clipPath id="clip2_449_38292">
<rect width="136.457" height="72" fill="white" transform="translate(-31.2306 1)"/>
</clipPath>
<clipPath id="clip3_449_38292">
<rect x="27" y="27" width="72" height="72" rx="36" fill="white"/>
</clipPath>
</defs>
</svg>
