<svg width="100" height="100" viewBox="0 0 100 100" fill="none" xmlns="http://www.w3.org/2000/svg">
<g clip-path="url(#clip0_449_38462)">
<g clip-path="url(#clip1_449_38462)">
<g clip-path="url(#clip2_449_38462)">
<path d="M105.227 1H-31.2306V73H105.227V1Z" fill="#314199"/>
<path d="M36.9719 57.4839L37.9189 60.2871L40.8037 60.2843L38.7561 61.8341L39.3191 64.8437L36.9719 63.1362L34.6172 64.7977L35.187 61.8341L33.1607 60.2747H36.0428L36.9719 57.4839Z" fill="#F8EC26"/>
<path d="M36.9719 8.78638L37.9189 11.5903L40.8037 11.5868L38.7561 13.1365L39.3191 16.1461L36.9719 14.4387L34.6172 16.1002L35.187 13.1365L33.1607 11.5772H36.0428L36.9719 8.78638Z" fill="#F8EC26"/>
<path d="M48.7011 11.9182L49.6481 14.7214L52.5336 14.7187L50.4861 16.2684L51.0483 19.2773L48.7011 17.5706L46.3464 19.232L46.9169 16.2684L44.8906 14.7091H47.7727L48.7011 11.9182Z" fill="#F8EC26"/>
<path d="M24.6757 11.9182L25.6227 14.7214L28.5081 14.7187L26.4606 16.2684L27.0229 19.2773L24.6757 17.5706L22.3209 19.232L22.8915 16.2684L20.8652 14.7091H23.7465L24.6757 11.9182Z" fill="#F8EC26"/>
<path d="M48.7011 54.1938L49.6481 56.9977L52.5336 56.995L50.4861 58.5447L51.0483 61.5536L48.7011 59.8469L46.3464 61.5084L46.9169 58.5447L44.8906 56.9847H47.7727L48.7011 54.1938Z" fill="#F8EC26"/>
<path d="M24.6757 54.1938L25.6227 56.9977L28.5081 56.995L26.4606 58.5447L27.0229 61.5536L24.6757 59.8469L22.3209 61.5084L22.8915 58.5447L20.8652 56.9847H23.7465L24.6757 54.1938Z" fill="#F8EC26"/>
<path d="M15.6922 21.1079L16.6391 23.9118L19.5239 23.9084L17.4764 25.4588L18.0394 28.4677L15.6922 26.7609L13.3374 28.4217L13.9073 25.4588L11.881 23.8988H14.763L15.6922 21.1079Z" fill="#F8EC26"/>
<path d="M57.9794 21.1079L58.9264 23.9118L61.8119 23.9084L59.7643 25.4588L60.3266 28.4677L57.9794 26.7609L55.6247 28.4217L56.1945 25.4588L54.1682 23.8988H57.0503L57.9794 21.1079Z" fill="#F8EC26"/>
<path d="M15.6922 45.4141L16.6391 48.2179L19.5239 48.2145L17.4764 49.7649L18.0394 52.7738L15.6922 51.0664L13.3374 52.7279L13.9073 49.7649L11.881 48.2049H14.763L15.6922 45.4141Z" fill="#F8EC26"/>
<path d="M57.9794 45.4141L58.9264 48.2179L61.8119 48.2145L59.7643 49.7649L60.3266 52.7738L57.9794 51.0664L55.6247 52.7279L56.1945 49.7649L54.1682 48.2049H57.0503L57.9794 45.4141Z" fill="#F8EC26"/>
<path d="M12.9013 33.1697L13.8483 35.9736L16.7331 35.9701L14.6855 37.5205L15.2485 40.5294L12.9013 38.822L10.5465 40.4835L11.1164 37.5205L9.09009 35.9605H11.9721L12.9013 33.1697Z" fill="#F8EC26"/>
<path d="M61.0734 33.1697L62.0204 35.9736L64.9058 35.9701L62.8583 37.5205L63.4206 40.5294L61.0734 38.822L58.7186 40.4835L59.2885 37.5205L57.2629 35.9605H60.1443L61.0734 33.1697Z" fill="#F8EC26"/>
</g>
</g>
<rect x="0.5" y="0.5" width="73" height="73" rx="36.5" stroke="#8F99A8"/>
<g clip-path="url(#clip3_449_38462)">
<g clip-path="url(#clip4_449_38462)">
<mask id="mask0_449_38462" style="mask-type:luminance" maskUnits="userSpaceOnUse" x="1" y="27" width="124" height="72">
<path d="M124.731 27H1.32355V99H124.731V27Z" fill="white"/>
</mask>
<g mask="url(#mask0_449_38462)">
<path d="M63.0641 27V29.2799V30.0889V30.4566L49.3481 37.2962H63.0641V39.3555V42.4443V45.5332V47.5557H49.3481L63.0641 54.4321V55.572V57.8519V58.0725H58.8353H57.2541H56.5554L37.3235 48.4382V58.0725H35.2643H32.1754H29.0866H27.0273V48.4382L7.83223 58.0725H5.51558H1.32355V99H124.731V27H63.0641Z" fill="#1A237B"/>
<path d="M37.3235 27V36.4137L56.1509 27H37.3235Z" fill="#1A237B"/>
<path d="M27.0274 27H8.23676L27.0274 36.4137V27Z" fill="#1A237B"/>
<path d="M63.0273 27L42.4716 37.2962H37.8383L58.4308 27H56.1509L37.3235 36.4137V27H35.2643V37.4433V38.5832V39.3555H38.3531H42.9497H44.5309H45.2296H63.0641V37.2962H49.348L63.0641 30.4566V30.0889V29.2799V27H63.0273Z" fill="white"/>
<path d="M27.0273 27V36.4137L8.23672 27H1.32355L21.8792 37.2962H17.2827L1.32355 29.3166V30.4566L15.0028 37.2962H1.32355V39.3555H19.0845H21.4012H25.9977H29.0866V38.5832V37.811V37.4433V27H27.0273Z" fill="white"/>
<path d="M42.9497 45.5332H38.3531H35.2643V46.2686V47.0776V47.4086V58.0725H37.3235V48.4382L56.5554 58.0725H57.2541H58.8353H63.0641V57.8519L42.4716 47.5557H47.0682L63.0641 55.572V54.4321L49.348 47.5557H63.0641V45.5332H45.2296H42.9497Z" fill="white"/>
<path d="M25.9977 45.5332H21.4012H19.82H19.0845H1.32355V47.5557H15.0028L1.32355 54.3953V57.8519L21.8792 47.5557H26.4757L5.51558 58.0725H7.83223L27.0273 48.4382V58.0725H29.0866V47.4086V46.2686V45.5332H25.9977Z" fill="white"/>
<path d="M63.0273 27H58.4308L37.8383 37.2962H42.4716L63.0273 27Z" fill="#BD0034"/>
<path d="M42.4717 47.5554L63.0641 57.8516V55.5718L47.0682 47.5554H42.4717Z" fill="#BD0034"/>
<path d="M29.0866 27V37.4433V37.811V38.5832V39.3555H25.9977H21.4012H19.0845H1.32355V45.5332H19.0845H19.82H21.4012H25.9977H29.0866V46.2686V47.4086V58.0725H32.1754H35.2643V47.4086V47.0776V46.2686V45.5332H38.3532H42.9497H45.2296H63.0641V42.4443V39.3555H45.2296H44.5309H42.9497H38.3532H35.2643V38.5832V37.4433V27H29.0866Z" fill="#BD0034"/>
<path d="M87.0028 47.9969H90.3491L91.3787 44.8345L92.4083 47.9969H95.7546L93.0702 49.9826L94.0998 53.1818L91.3787 51.1961L88.6576 53.1818L89.724 49.9826L87.0028 47.9969Z" fill="white"/>
<path d="M88.4737 48.5117H90.68L91.3787 46.3789L92.0774 48.5117H94.2837L92.4819 49.7987L93.1805 51.9315L91.3787 50.6077L89.5769 51.9315L90.2755 49.7987L88.4737 48.5117Z" fill="#BD0034"/>
<path d="M73.581 61.529H76.9273L77.9569 58.3298L78.9865 61.529H82.3696L79.6484 63.4779L80.678 66.6771L77.9569 64.6914L75.2725 66.6771L76.3021 63.4779L73.581 61.529Z" fill="white"/>
<path d="M75.0518 62.0071H77.2949L77.9568 59.8743L78.6555 62.0071H80.8618L79.06 63.2941L79.7587 65.4269L77.9568 64.1031L76.155 65.4269L76.8537 63.2941L75.0518 62.0071Z" fill="#BD0034"/>
<path d="M98.9537 58.1827H101.969L102.888 55.3145L103.808 58.1827H106.786L104.359 59.911L105.315 62.7424L102.888 61.0141L100.461 62.7424L101.381 59.911L98.9537 58.1827Z" fill="white"/>
<path d="M86.5248 82.6732H90.2388L91.3787 79.1431L92.5186 82.6732H96.2694L93.2541 84.8795L94.394 88.4464L91.3787 86.2401L88.3634 88.4464L89.5033 84.8795L86.5248 82.6732Z" fill="white"/>
<path d="M88.1428 83.2248H90.6065L91.3787 80.8713L92.1509 83.2248H94.6147L92.629 84.6956L93.3644 87.0491L91.3787 85.5782L89.393 87.0491L90.1652 84.6956L88.1428 83.2248Z" fill="#BD0034"/>
</g>
</g>
</g>
<rect x="26.5" y="26.5" width="73" height="73" rx="36.5" stroke="#8F99A8"/>
</g>
<defs>
<clipPath id="clip0_449_38462">
<rect width="100" height="100" fill="white"/>
</clipPath>
<clipPath id="clip1_449_38462">
<rect x="1" y="1" width="72" height="72" rx="36" fill="white"/>
</clipPath>
<clipPath id="clip2_449_38462">
<rect width="136.457" height="72" fill="white" transform="translate(-31.2306 1)"/>
</clipPath>
<clipPath id="clip3_449_38462">
<rect x="27" y="27" width="72" height="72" rx="36" fill="white"/>
</clipPath>
<clipPath id="clip4_449_38462">
<rect width="123.408" height="72" fill="white" transform="translate(1.32355 27)"/>
</clipPath>
</defs>
</svg>
