<svg width="100" height="100" viewBox="0 0 100 100" fill="none" xmlns="http://www.w3.org/2000/svg">
<g clip-path="url(#clip0_449_38528)">
<g clip-path="url(#clip1_449_38528)">
<rect x="1" y="1" width="88" height="88" rx="44" fill="#1836AC"/>
<g clip-path="url(#clip2_449_38528)">
<path d="M128.39 1H-38.3905V89H128.39V1Z" fill="#314199"/>
<path d="M44.9682 70.0356L46.1256 73.4618L49.6514 73.4584L47.1489 75.3525L47.837 79.0309L44.9682 76.9441L42.0901 78.9748L42.7866 75.3525L40.31 73.4467H43.8325L44.9682 70.0356Z" fill="#F8EC26"/>
<path d="M44.9682 10.5166L46.1256 13.9436L49.6514 13.9394L47.1489 15.8335L47.837 19.5119L44.9682 17.425L42.0901 19.4557L42.7866 15.8335L40.31 13.9276H43.8325L44.9682 10.5166Z" fill="#F8EC26"/>
<path d="M59.3038 14.3445L60.4612 17.7706L63.9879 17.7673L61.4853 19.6614L62.1726 23.3389L59.3038 21.2529L56.4257 23.2836L57.123 19.6614L54.6465 17.7555H58.169L59.3038 14.3445Z" fill="#F8EC26"/>
<path d="M29.9394 14.3445L31.0968 17.7706L34.6235 17.7673L32.121 19.6614L32.8082 23.3389L29.9394 21.2529L27.0614 23.2836L27.7587 19.6614L25.2821 17.7555H28.8038L29.9394 14.3445Z" fill="#F8EC26"/>
<path d="M59.3038 66.0146L60.4612 69.4416L63.9879 69.4383L61.4853 71.3324L62.1726 75.0099L59.3038 72.9239L56.4257 74.9546L57.123 71.3324L54.6465 69.4257H58.169L59.3038 66.0146Z" fill="#F8EC26"/>
<path d="M29.9394 66.0146L31.0968 69.4416L34.6235 69.4383L32.121 71.3324L32.8082 75.0099L29.9394 72.9239L27.0614 74.9546L27.7587 71.3324L25.2821 69.4257H28.8038L29.9394 66.0146Z" fill="#F8EC26"/>
<path d="M18.9595 25.5764L20.1169 29.0034L23.6428 28.9992L21.1403 30.8941L21.8283 34.5717L18.9595 32.4857L16.0815 34.5155L16.778 30.8941L14.3014 28.9875H17.8239L18.9595 25.5764Z" fill="#F8EC26"/>
<path d="M70.644 25.5764L71.8014 29.0034L75.3281 28.9992L72.8256 30.8941L73.5128 34.5717L70.644 32.4857L67.766 34.5155L68.4625 30.8941L65.9859 28.9875H69.5084L70.644 25.5764Z" fill="#F8EC26"/>
<path d="M18.9595 55.2837L20.1169 58.7107L23.6428 58.7065L21.1403 60.6014L21.8283 64.279L18.9595 62.1921L16.0815 64.2228L16.778 60.6014L14.3014 58.6947H17.8239L18.9595 55.2837Z" fill="#F8EC26"/>
<path d="M70.644 55.2837L71.8014 58.7107L75.3281 58.7065L72.8256 60.6014L73.5128 64.279L70.644 62.1921L67.766 64.2228L68.4625 60.6014L65.9859 58.6947H69.5084L70.644 55.2837Z" fill="#F8EC26"/>
<path d="M15.5485 40.3186L16.7059 43.7456L20.2318 43.7414L17.7292 45.6363L18.4173 49.3139L15.5485 47.227L12.6705 49.2577L13.3669 45.6363L10.8904 43.7296H14.4129L15.5485 40.3186Z" fill="#F8EC26"/>
<path d="M74.4255 40.3186L75.5829 43.7456L79.1096 43.7414L76.6071 45.6363L77.2943 49.3139L74.4255 47.227L71.5475 49.2577L72.2439 45.6363L69.7682 43.7296H73.2899L74.4255 40.3186Z" fill="#F8EC26"/>
</g>
</g>
<rect x="0.5" y="0.5" width="89" height="89" rx="44.5" stroke="#8F99A8"/>
<rect x="52.5" y="52.5" width="47" height="47" rx="23.5" fill="#1836AC"/>
<rect x="52.5" y="52.5" width="47" height="47" rx="23.5" stroke="#8F99A8"/>
<path d="M70.081 73.4873C71.132 73.4873 72.0654 73.6873 72.8811 74.0874C73.7047 74.4874 74.3518 75.0756 74.8224 75.8521C75.293 76.6286 75.5283 77.5856 75.5283 78.7229C75.5283 79.9621 75.2695 81.0328 74.7518 81.9348C74.242 82.8289 73.4773 83.5152 72.4576 83.9937C71.4458 84.4722 70.183 84.7114 68.6692 84.7114C67.7672 84.7114 66.9162 84.6329 66.1161 84.4761C65.3239 84.327 64.6298 84.0957 64.0337 83.7819V80.6406C64.6298 80.9543 65.3435 81.221 66.1749 81.4406C67.0142 81.6524 67.8025 81.7583 68.5398 81.7583C69.2614 81.7583 69.8692 81.6642 70.3634 81.4759C70.8575 81.2798 71.2301 80.9818 71.4811 80.5818C71.7399 80.1739 71.8693 79.6562 71.8693 79.0288C71.8693 78.1895 71.587 77.5463 71.0222 77.0993C70.4575 76.6522 69.5908 76.4286 68.4221 76.4286C67.975 76.4286 67.5083 76.4718 67.022 76.5581C66.5436 76.6443 66.1436 76.7306 65.822 76.8169L64.3749 76.0404L65.022 67.2753H74.3518V70.3578H68.2103L67.8927 73.7344C68.1594 73.6795 68.4496 73.6246 68.7633 73.5697C69.077 73.5148 69.5163 73.4873 70.081 73.4873ZM89.5407 75.8757C89.5407 77.264 89.4309 78.5032 89.2113 79.5935C88.9995 80.6837 88.6544 81.6093 88.176 82.3701C87.7054 83.1309 87.0857 83.7113 86.3171 84.1114C85.5484 84.5114 84.615 84.7114 83.5169 84.7114C82.1365 84.7114 81.0031 84.3623 80.1168 83.6643C79.2305 82.9584 78.5755 81.9465 78.152 80.6288C77.7284 79.3033 77.5167 77.7189 77.5167 75.8757C77.5167 74.0168 77.7088 72.4285 78.0932 71.1107C78.4853 69.7852 79.1207 68.7695 79.9991 68.0635C80.8776 67.3576 82.0502 67.0047 83.5169 67.0047C84.8895 67.0047 86.019 67.3576 86.9053 68.0635C87.7995 68.7616 88.4623 69.7734 88.8937 71.099C89.325 72.4167 89.5407 74.0089 89.5407 75.8757ZM81.1286 75.8757C81.1286 77.1855 81.1992 78.2797 81.3404 79.1582C81.4894 80.0288 81.7365 80.6837 82.0816 81.123C82.4267 81.5622 82.9051 81.7818 83.5169 81.7818C84.1209 81.7818 84.5954 81.5661 84.9405 81.1347C85.2935 80.6955 85.5445 80.0406 85.6935 79.1699C85.8425 78.2915 85.917 77.1934 85.917 75.8757C85.917 74.5658 85.8425 73.4716 85.6935 72.5932C85.5445 71.7147 85.2935 71.0558 84.9405 70.6166C84.5954 70.1695 84.1209 69.946 83.5169 69.946C82.9051 69.946 82.4267 70.1695 82.0816 70.6166C81.7365 71.0558 81.4894 71.7147 81.3404 72.5932C81.1992 73.4716 81.1286 74.5658 81.1286 75.8757Z" fill="white"/>
</g>
<defs>
<clipPath id="clip0_449_38528">
<rect width="100" height="100" fill="white"/>
</clipPath>
<clipPath id="clip1_449_38528">
<rect x="1" y="1" width="88" height="88" rx="44" fill="white"/>
</clipPath>
<clipPath id="clip2_449_38528">
<rect width="166.781" height="88" fill="white" transform="translate(-38.3905 1)"/>
</clipPath>
</defs>
</svg>
