<svg width="100" height="100" viewBox="0 0 100 100" fill="none" xmlns="http://www.w3.org/2000/svg">
<g clip-path="url(#clip0_449_38252)">
<g clip-path="url(#clip1_449_38252)">
<g clip-path="url(#clip2_449_38252)">
<path d="M105.227 1H-31.2306V73H105.227V1Z" fill="#314199"/>
<path d="M36.972 57.4839L37.9189 60.2871L40.8037 60.2843L38.7562 61.8341L39.3192 64.8437L36.972 63.1362L34.6172 64.7977L35.1871 61.8341L33.1608 60.2747H36.0428L36.972 57.4839Z" fill="#F8EC26"/>
<path d="M36.972 8.78638L37.9189 11.5903L40.8037 11.5868L38.7562 13.1365L39.3192 16.1461L36.972 14.4387L34.6172 16.1002L35.1871 13.1365L33.1608 11.5772H36.0428L36.972 8.78638Z" fill="#F8EC26"/>
<path d="M48.7011 11.9182L49.6481 14.7214L52.5336 14.7187L50.4861 16.2684L51.0483 19.2773L48.7011 17.5706L46.3464 19.232L46.9169 16.2684L44.8906 14.7091H47.7727L48.7011 11.9182Z" fill="#F8EC26"/>
<path d="M24.6756 11.9182L25.6226 14.7214L28.5081 14.7187L26.4605 16.2684L27.0228 19.2773L24.6756 17.5706L22.3209 19.232L22.8914 16.2684L20.8651 14.7091H23.7465L24.6756 11.9182Z" fill="#F8EC26"/>
<path d="M48.7011 54.1938L49.6481 56.9977L52.5336 56.995L50.4861 58.5447L51.0483 61.5536L48.7011 59.8469L46.3464 61.5084L46.9169 58.5447L44.8906 56.9847H47.7727L48.7011 54.1938Z" fill="#F8EC26"/>
<path d="M24.6756 54.1938L25.6226 56.9977L28.5081 56.995L26.4605 58.5447L27.0228 61.5536L24.6756 59.8469L22.3209 61.5084L22.8914 58.5447L20.8651 56.9847H23.7465L24.6756 54.1938Z" fill="#F8EC26"/>
<path d="M15.6922 21.1079L16.6391 23.9118L19.5239 23.9084L17.4764 25.4588L18.0394 28.4677L15.6922 26.7609L13.3374 28.4217L13.9073 25.4588L11.881 23.8988H14.763L15.6922 21.1079Z" fill="#F8EC26"/>
<path d="M57.9795 21.1079L58.9265 23.9118L61.812 23.9084L59.7644 25.4588L60.3267 28.4677L57.9795 26.7609L55.6248 28.4217L56.1946 25.4588L54.1683 23.8988H57.0504L57.9795 21.1079Z" fill="#F8EC26"/>
<path d="M15.6922 45.4141L16.6391 48.2179L19.5239 48.2145L17.4764 49.7649L18.0394 52.7738L15.6922 51.0664L13.3374 52.7279L13.9073 49.7649L11.881 48.2049H14.763L15.6922 45.4141Z" fill="#F8EC26"/>
<path d="M57.9795 45.4141L58.9265 48.2179L61.812 48.2145L59.7644 49.7649L60.3267 52.7738L57.9795 51.0664L55.6248 52.7279L56.1946 49.7649L54.1683 48.2049H57.0504L57.9795 45.4141Z" fill="#F8EC26"/>
<path d="M12.9013 33.1697L13.8483 35.9736L16.7331 35.9701L14.6855 37.5205L15.2485 40.5294L12.9013 38.822L10.5465 40.4835L11.1164 37.5205L9.09009 35.9605H11.9721L12.9013 33.1697Z" fill="#F8EC26"/>
<path d="M61.0734 33.1697L62.0204 35.9736L64.9059 35.9701L62.8584 37.5205L63.4206 40.5294L61.0734 38.822L58.7187 40.4835L59.2885 37.5205L57.2629 35.9605H60.1443L61.0734 33.1697Z" fill="#F8EC26"/>
</g>
</g>
<rect x="0.5" y="0.5" width="73" height="73" rx="36.5" stroke="#8F99A8"/>
<g clip-path="url(#clip3_449_38252)">
<rect x="27" y="27" width="107.609" height="36" fill="#ED2939"/>
<rect x="26.9999" y="63" width="107.609" height="36" fill="white"/>
<path d="M36.3903 45.1955C36.3903 32.0868 49.1086 30.7173 52.825 32.0868C49.4338 33.1303 42.6358 35.9999 42.4555 45.1955C42.299 53.1781 49.3033 57.1303 52.825 58.1086C46.5651 59.0868 36.3903 55.9564 36.3903 45.1955Z" fill="white"/>
<path d="M56.7388 33.8477L57.5295 36.2811H60.0882L58.0181 37.7851L58.8088 40.2185L56.7388 38.7146L54.6688 40.2185L55.4594 37.7851L53.3894 36.2811H55.9481L56.7388 33.8477Z" fill="white"/>
<path d="M49.6952 39.1304L50.4859 41.5638H53.0446L50.9745 43.0678L51.7652 45.5013L49.6952 43.9973L47.6252 45.5013L48.4159 43.0678L46.3458 41.5638H48.9045L49.6952 39.1304Z" fill="white"/>
<path d="M64.1736 39.1304L64.9643 41.5638H67.523L65.4529 43.0678L66.2436 45.5013L64.1736 43.9973L62.1036 45.5013L62.8942 43.0678L60.8242 41.5638H63.3829L64.1736 39.1304Z" fill="white"/>
<path d="M61.4345 47.739L62.2251 50.1725H64.7838L62.7138 51.6764L63.5045 54.1099L61.4345 52.6059L59.3644 54.1099L60.1551 51.6764L58.0851 50.1725H60.6438L61.4345 47.739Z" fill="white"/>
<path d="M52.4343 47.739L53.225 50.1725H55.7837L53.7137 51.6764L54.5044 54.1099L52.4343 52.6059L50.3643 54.1099L51.155 51.6764L49.085 50.1725H51.6437L52.4343 47.739Z" fill="white"/>
</g>
<rect x="26.5" y="26.5" width="73" height="73" rx="36.5" stroke="#8F99A8"/>
</g>
<defs>
<clipPath id="clip0_449_38252">
<rect width="100" height="100" fill="white"/>
</clipPath>
<clipPath id="clip1_449_38252">
<rect x="1" y="1" width="72" height="72" rx="36" fill="white"/>
</clipPath>
<clipPath id="clip2_449_38252">
<rect width="136.457" height="72" fill="white" transform="translate(-31.2306 1)"/>
</clipPath>
<clipPath id="clip3_449_38252">
<rect x="27" y="27" width="72" height="72" rx="36" fill="white"/>
</clipPath>
</defs>
</svg>
