<svg width="100" height="100" viewBox="0 0 100 100" fill="none" xmlns="http://www.w3.org/2000/svg">
<g clip-path="url(#clip0_449_38452)">
<g clip-path="url(#clip1_449_38452)">
<g clip-path="url(#clip2_449_38452)">
<path d="M105.227 1H-31.2306V73H105.227V1Z" fill="#314199"/>
<path d="M36.9719 57.4839L37.9189 60.2871L40.8037 60.2843L38.7561 61.8341L39.3191 64.8437L36.9719 63.1362L34.6172 64.7977L35.187 61.8341L33.1607 60.2747H36.0428L36.9719 57.4839Z" fill="#F8EC26"/>
<path d="M36.9719 8.78638L37.9189 11.5903L40.8037 11.5868L38.7561 13.1365L39.3191 16.1461L36.9719 14.4387L34.6172 16.1002L35.187 13.1365L33.1607 11.5772H36.0428L36.9719 8.78638Z" fill="#F8EC26"/>
<path d="M48.7011 11.9182L49.6481 14.7214L52.5336 14.7187L50.4861 16.2684L51.0483 19.2773L48.7011 17.5706L46.3464 19.232L46.9169 16.2684L44.8906 14.7091H47.7727L48.7011 11.9182Z" fill="#F8EC26"/>
<path d="M24.6757 11.9182L25.6227 14.7214L28.5081 14.7187L26.4606 16.2684L27.0229 19.2773L24.6757 17.5706L22.3209 19.232L22.8915 16.2684L20.8652 14.7091H23.7465L24.6757 11.9182Z" fill="#F8EC26"/>
<path d="M48.7011 54.1938L49.6481 56.9977L52.5336 56.995L50.4861 58.5447L51.0483 61.5536L48.7011 59.8469L46.3464 61.5084L46.9169 58.5447L44.8906 56.9847H47.7727L48.7011 54.1938Z" fill="#F8EC26"/>
<path d="M24.6757 54.1938L25.6227 56.9977L28.5081 56.995L26.4606 58.5447L27.0229 61.5536L24.6757 59.8469L22.3209 61.5084L22.8915 58.5447L20.8652 56.9847H23.7465L24.6757 54.1938Z" fill="#F8EC26"/>
<path d="M15.6922 21.1079L16.6391 23.9118L19.5239 23.9084L17.4764 25.4588L18.0394 28.4677L15.6922 26.7609L13.3374 28.4217L13.9073 25.4588L11.881 23.8988H14.763L15.6922 21.1079Z" fill="#F8EC26"/>
<path d="M57.9794 21.1079L58.9264 23.9118L61.8119 23.9084L59.7643 25.4588L60.3266 28.4677L57.9794 26.7609L55.6247 28.4217L56.1945 25.4588L54.1682 23.8988H57.0503L57.9794 21.1079Z" fill="#F8EC26"/>
<path d="M15.6922 45.4141L16.6391 48.2179L19.5239 48.2145L17.4764 49.7649L18.0394 52.7738L15.6922 51.0664L13.3374 52.7279L13.9073 49.7649L11.881 48.2049H14.763L15.6922 45.4141Z" fill="#F8EC26"/>
<path d="M57.9794 45.4141L58.9264 48.2179L61.8119 48.2145L59.7643 49.7649L60.3266 52.7738L57.9794 51.0664L55.6247 52.7279L56.1945 49.7649L54.1682 48.2049H57.0503L57.9794 45.4141Z" fill="#F8EC26"/>
<path d="M12.9013 33.1697L13.8483 35.9736L16.7331 35.9701L14.6855 37.5205L15.2485 40.5294L12.9013 38.822L10.5465 40.4835L11.1164 37.5205L9.09009 35.9605H11.9721L12.9013 33.1697Z" fill="#F8EC26"/>
<path d="M61.0734 33.1697L62.0204 35.9736L64.9058 35.9701L62.8583 37.5205L63.4206 40.5294L61.0734 38.822L58.7186 40.4835L59.2885 37.5205L57.2629 35.9605H60.1443L61.0734 33.1697Z" fill="#F8EC26"/>
</g>
</g>
<rect x="0.5" y="0.5" width="73" height="73" rx="36.5" stroke="#8F99A8"/>
<g clip-path="url(#clip3_449_38452)">
<rect width="108.197" height="72" transform="translate(24.8823 27)" fill="#E30A17"/>
<path d="M65.0614 77.4312C57.281 77.4312 50.9742 71.0125 50.9742 63.095C50.9742 55.1775 57.281 48.7588 65.0614 48.7588C69.7373 48.7588 73.8803 51.0771 76.442 54.646C73.443 48.963 67.5482 45.0984 60.7648 45.0984C50.943 45.0984 42.9808 53.2015 42.9808 63.1967C42.9808 73.192 50.943 81.2951 60.7648 81.2951C67.8429 81.2951 73.9545 77.0868 76.8169 70.9946C74.296 74.873 69.9726 77.4312 65.0606 77.4312H65.0614Z" fill="white"/>
<path d="M81.3327 54.3732L85.2446 59.7574L91.5741 57.7008L87.6622 63.0851L91.5741 68.4694L85.2446 66.4128L81.3327 71.797L81.3327 65.1417L75.0031 63.0851L81.3327 61.0285L81.3327 54.3732Z" fill="white"/>
</g>
<rect x="26.5" y="26.5" width="73" height="73" rx="36.5" stroke="#8F99A8"/>
</g>
<defs>
<clipPath id="clip0_449_38452">
<rect width="100" height="100" fill="white"/>
</clipPath>
<clipPath id="clip1_449_38452">
<rect x="1" y="1" width="72" height="72" rx="36" fill="white"/>
</clipPath>
<clipPath id="clip2_449_38452">
<rect width="136.457" height="72" fill="white" transform="translate(-31.2306 1)"/>
</clipPath>
<clipPath id="clip3_449_38452">
<rect x="27" y="27" width="72" height="72" rx="36" fill="white"/>
</clipPath>
</defs>
</svg>
