<svg width="100" height="100" viewBox="0 0 100 100" fill="none" xmlns="http://www.w3.org/2000/svg">
<g clip-path="url(#clip0_449_38447)">
<g clip-path="url(#clip1_449_38447)">
<g clip-path="url(#clip2_449_38447)">
<path d="M105.227 1H-31.2306V73H105.227V1Z" fill="#314199"/>
<path d="M36.9719 57.4839L37.9189 60.2871L40.8037 60.2843L38.7561 61.8341L39.3191 64.8437L36.9719 63.1362L34.6172 64.7977L35.187 61.8341L33.1607 60.2747H36.0428L36.9719 57.4839Z" fill="#F8EC26"/>
<path d="M36.9719 8.78638L37.9189 11.5903L40.8037 11.5868L38.7561 13.1365L39.3191 16.1461L36.9719 14.4387L34.6172 16.1002L35.187 13.1365L33.1607 11.5772H36.0428L36.9719 8.78638Z" fill="#F8EC26"/>
<path d="M48.7011 11.9182L49.648 14.7214L52.5335 14.7187L50.486 16.2684L51.0483 19.2773L48.7011 17.5706L46.3463 19.232L46.9169 16.2684L44.8906 14.7091H47.7726L48.7011 11.9182Z" fill="#F8EC26"/>
<path d="M24.6757 11.9182L25.6227 14.7214L28.5081 14.7187L26.4606 16.2684L27.0229 19.2773L24.6757 17.5706L22.3209 19.232L22.8915 16.2684L20.8652 14.7091H23.7465L24.6757 11.9182Z" fill="#F8EC26"/>
<path d="M48.7011 54.1938L49.648 56.9977L52.5335 56.995L50.486 58.5447L51.0483 61.5536L48.7011 59.8469L46.3463 61.5084L46.9169 58.5447L44.8906 56.9847H47.7726L48.7011 54.1938Z" fill="#F8EC26"/>
<path d="M24.6757 54.1938L25.6227 56.9977L28.5081 56.995L26.4606 58.5447L27.0229 61.5536L24.6757 59.8469L22.3209 61.5084L22.8915 58.5447L20.8652 56.9847H23.7465L24.6757 54.1938Z" fill="#F8EC26"/>
<path d="M15.6922 21.1079L16.6391 23.9118L19.5239 23.9084L17.4764 25.4588L18.0394 28.4677L15.6922 26.7609L13.3374 28.4217L13.9073 25.4588L11.881 23.8988H14.763L15.6922 21.1079Z" fill="#F8EC26"/>
<path d="M57.9795 21.1079L58.9264 23.9118L61.8119 23.9084L59.7644 25.4588L60.3267 28.4677L57.9795 26.7609L55.6247 28.4217L56.1946 25.4588L54.1683 23.8988H57.0503L57.9795 21.1079Z" fill="#F8EC26"/>
<path d="M15.6922 45.4141L16.6391 48.2179L19.5239 48.2145L17.4764 49.7649L18.0394 52.7738L15.6922 51.0664L13.3374 52.7279L13.9073 49.7649L11.881 48.2049H14.763L15.6922 45.4141Z" fill="#F8EC26"/>
<path d="M57.9795 45.4141L58.9264 48.2179L61.8119 48.2145L59.7644 49.7649L60.3267 52.7738L57.9795 51.0664L55.6247 52.7279L56.1946 49.7649L54.1683 48.2049H57.0503L57.9795 45.4141Z" fill="#F8EC26"/>
<path d="M12.9013 33.1697L13.8483 35.9736L16.7331 35.9701L14.6855 37.5205L15.2485 40.5294L12.9013 38.822L10.5465 40.4835L11.1164 37.5205L9.09009 35.9605H11.9721L12.9013 33.1697Z" fill="#F8EC26"/>
<path d="M61.0734 33.1697L62.0204 35.9736L64.9059 35.9701L62.8583 37.5205L63.4206 40.5294L61.0734 38.822L58.7187 40.4835L59.2885 37.5205L57.2629 35.9605H60.1443L61.0734 33.1697Z" fill="#F8EC26"/>
</g>
</g>
<rect x="0.5" y="0.5" width="73" height="73" rx="36.5" stroke="#8F99A8"/>
<g clip-path="url(#clip3_449_38447)">
<g clip-path="url(#clip4_449_38447)">
<mask id="mask0_449_38447" style="mask-type:luminance" maskUnits="userSpaceOnUse" x="1" y="27" width="124" height="72">
<path d="M124.996 27H1.58826V99H124.996V27Z" fill="white"/>
</mask>
<g mask="url(#mask0_449_38447)">
<path d="M124.996 93.4475H1.58826V99.0001H124.996V93.4475Z" fill="#CB001C"/>
<path d="M124.996 87.9314H1.58826V93.484H124.996V87.9314Z" fill="white"/>
<path d="M124.996 82.3789H1.58826V87.8947H124.996V82.3789Z" fill="#CB001C"/>
<path d="M124.996 76.8633H1.58826V82.4159H124.996V76.8633Z" fill="white"/>
<path d="M124.996 71.3105H1.58826V76.8632H124.996V71.3105Z" fill="#CB001C"/>
<path d="M124.996 65.7581H1.58826V71.2739H124.996V65.7581Z" fill="white"/>
<path d="M124.996 60.2419H1.58826V65.7945H124.996V60.2419Z" fill="#CB001C"/>
<path d="M124.996 54.6895H1.58826V60.2053H124.996V54.6895Z" fill="white"/>
<path d="M124.996 49.1738H1.58826V54.7264H124.996V49.1738Z" fill="#CB001C"/>
<path d="M124.996 43.6211H1.58826V49.1737H124.996V43.6211Z" fill="white"/>
<path d="M124.996 38.0686H1.58826V43.6212H124.996V38.0686Z" fill="#CB001C"/>
<path d="M124.996 32.5525H1.58826V38.1051H124.996V32.5525Z" fill="white"/>
<path d="M124.996 27H1.58826V32.5526H124.996V27Z" fill="#CB001C"/>
<path d="M57.9601 27H1.58826V65.7579H57.9601V27Z" fill="#1A2F81"/>
<path d="M29.3513 34.6855L29.7926 36.1564H31.337L30.0867 37.0757L30.5648 38.5099L29.3513 37.6273L28.101 38.5099L28.5423 37.0757L27.3288 36.1564H28.8365L29.3513 34.6855Z" fill="white"/>
<path d="M29.3513 41.1575L29.7926 42.6284H31.337L30.0867 43.5109L30.5648 44.9818L29.3513 44.0992L28.101 44.9818L28.5423 43.5109L27.3288 42.6284H28.8365L29.3513 41.1575Z" fill="white"/>
<path d="M29.3513 47.6294L29.7926 49.1003H31.337L30.0867 49.9828L30.5648 51.4537L29.3513 50.5712L28.101 51.4537L28.5423 49.9828L27.3288 49.1003H28.8365L29.3513 47.6294Z" fill="white"/>
<path d="M29.3513 54.1013L29.7926 55.5722H31.337L30.0867 56.4547L30.5648 57.9256L29.3513 57.0063L28.101 57.9256L28.5423 56.4547L27.3288 55.5722H28.8365L29.3513 54.1013Z" fill="white"/>
<path d="M33.8742 31.2656L34.3523 32.7365H35.8967L34.6465 33.6558L35.1245 35.1267L33.8742 34.2074L32.6608 35.1267L33.102 33.6558L31.8885 32.7365H33.3962L33.8742 31.2656Z" fill="white"/>
<path d="M33.8742 37.7373L34.3523 39.2082H35.8967L34.6465 40.1275L35.1245 41.5984L33.8742 40.6791L32.6608 41.5984L33.102 40.1275L31.8885 39.2082H33.3962L33.8742 37.7373Z" fill="white"/>
<path d="M33.8742 44.2092L34.3523 45.6801H35.8967L34.6465 46.5994L35.1245 48.0703L33.8742 47.151L32.6608 48.0703L33.102 46.5994L31.8885 45.6801H33.3962L33.8742 44.2092Z" fill="white"/>
<path d="M33.8742 50.6812L34.3523 52.152H35.8967L34.6465 53.0713L35.1245 54.5055L33.8742 53.6229L32.6608 54.5055L33.102 53.0713L31.8885 52.152H33.3962L33.8742 50.6812Z" fill="white"/>
<path d="M33.8742 57.1531L34.3523 58.624H35.8967L34.6465 59.5433L35.1245 60.9774L33.8742 60.0949L32.6608 60.9774L33.102 59.5433L31.8885 58.624H33.3962L33.8742 57.1531Z" fill="white"/>
<path d="M38.3972 34.6855L38.8753 36.1564H40.4197L39.1694 37.0757L39.6475 38.5099L38.3972 37.6273L37.147 38.5099L37.625 37.0757L36.3748 36.1564H37.9192L38.3972 34.6855Z" fill="white"/>
<path d="M38.3972 41.1575L38.8753 42.6284H40.4197L39.1694 43.5109L39.6475 44.9818L38.3972 44.0992L37.147 44.9818L37.625 43.5109L36.3748 42.6284H37.9192L38.3972 41.1575Z" fill="white"/>
<path d="M38.3972 47.6294L38.8753 49.1003H40.4197L39.1694 49.9828L39.6475 51.4537L38.3972 50.5712L37.147 51.4537L37.625 49.9828L36.3748 49.1003H37.9192L38.3972 47.6294Z" fill="white"/>
<path d="M38.3972 54.1013L38.8753 55.5722H40.4197L39.1694 56.4547L39.6475 57.9256L38.3972 57.0063L37.147 57.9256L37.625 56.4547L36.3748 55.5722H37.9192L38.3972 54.1013Z" fill="white"/>
<path d="M42.957 31.2656L43.4351 32.7365H44.9795L43.7292 33.6558L44.2073 35.1267L42.957 34.2074L41.7435 35.1267L42.1848 33.6558L40.9713 32.7365H42.479L42.957 31.2656Z" fill="white"/>
<path d="M42.957 37.7373L43.4351 39.2082H44.9795L43.7292 40.1275L44.2073 41.5984L42.957 40.6791L41.7435 41.5984L42.1848 40.1275L40.9713 39.2082H42.479L42.957 37.7373Z" fill="white"/>
<path d="M42.957 44.2092L43.4351 45.6801H44.9795L43.7292 46.5994L44.2073 48.0703L42.957 47.151L41.7435 48.0703L42.1848 46.5994L40.9713 45.6801H42.479L42.957 44.2092Z" fill="white"/>
<path d="M42.957 50.6812L43.4351 52.152H44.9795L43.7292 53.0713L44.2073 54.5055L42.957 53.6229L41.7435 54.5055L42.1848 53.0713L40.9713 52.152H42.479L42.957 50.6812Z" fill="white"/>
<path d="M42.957 57.1531L43.4351 58.624H44.9795L43.7292 59.5433L44.2073 60.9774L42.957 60.0949L41.7435 60.9774L42.1848 59.5433L40.9713 58.624H42.479L42.957 57.1531Z" fill="white"/>
<path d="M47.48 34.6855L47.958 36.1564H49.5024L48.2522 37.0757L48.6934 38.5099L47.48 37.6273L46.2297 38.5099L46.7077 37.0757L45.4575 36.1564H47.0019L47.48 34.6855Z" fill="white"/>
<path d="M47.48 41.1575L47.958 42.6284H49.5024L48.2522 43.5109L48.6934 44.9818L47.48 44.0992L46.2297 44.9818L46.7077 43.5109L45.4575 42.6284H47.0019L47.48 41.1575Z" fill="white"/>
<path d="M47.48 47.6294L47.958 49.1003H49.5024L48.2522 49.9828L48.6934 51.4537L47.48 50.5712L46.2297 51.4537L46.7077 49.9828L45.4575 49.1003H47.0019L47.48 47.6294Z" fill="white"/>
<path d="M47.48 54.1013L47.958 55.5722H49.5024L48.2522 56.4547L48.6934 57.9256L47.48 57.0063L46.2297 57.9256L46.7077 56.4547L45.4575 55.5722H47.0019L47.48 54.1013Z" fill="white"/>
<path d="M52.0397 31.2656L52.5178 32.7365H54.0622L52.812 33.6558L53.29 35.1267L52.0397 34.2074L50.7895 35.1267L51.2675 33.6558L50.0173 32.7365H51.5617L52.0397 31.2656Z" fill="white"/>
<path d="M52.0397 37.7373L52.5178 39.2082H54.0622L52.812 40.1275L53.29 41.5984L52.0397 40.6791L50.7895 41.5984L51.2675 40.1275L50.0173 39.2082H51.5617L52.0397 37.7373Z" fill="white"/>
<path d="M52.0397 44.2092L52.5178 45.6801H54.0622L52.812 46.5994L53.29 48.0703L52.0397 47.151L50.7895 48.0703L51.2675 46.5994L50.0173 45.6801H51.5617L52.0397 44.2092Z" fill="white"/>
<path d="M52.0397 50.6812L52.5178 52.152H54.0622L52.812 53.0713L53.29 54.5055L52.0397 53.6229L50.7895 54.5055L51.2675 53.0713L50.0173 52.152H51.5617L52.0397 50.6812Z" fill="white"/>
<path d="M52.0397 57.1531L52.5178 58.624H54.0622L52.812 59.5433L53.29 60.9774L52.0397 60.0949L50.7895 60.9774L51.2675 59.5433L50.0173 58.624H51.5617L52.0397 57.1531Z" fill="white"/>
</g>
</g>
</g>
<rect x="26.5" y="26.5" width="73" height="73" rx="36.5" stroke="#8F99A8"/>
</g>
<defs>
<clipPath id="clip0_449_38447">
<rect width="100" height="100" fill="white"/>
</clipPath>
<clipPath id="clip1_449_38447">
<rect x="1" y="1" width="72" height="72" rx="36" fill="white"/>
</clipPath>
<clipPath id="clip2_449_38447">
<rect width="136.457" height="72" fill="white" transform="translate(-31.2306 1)"/>
</clipPath>
<clipPath id="clip3_449_38447">
<rect x="27" y="27" width="72" height="72" rx="36" fill="white"/>
</clipPath>
<clipPath id="clip4_449_38447">
<rect width="123.408" height="72" fill="white" transform="translate(1.58826 27)"/>
</clipPath>
</defs>
</svg>
