<svg width="100" height="100" viewBox="0 0 100 100" fill="none" xmlns="http://www.w3.org/2000/svg">
<g clip-path="url(#clip0_449_38548)">
<g clip-path="url(#clip1_449_38548)">
<rect x="1" y="1" width="88" height="88" rx="44" fill="#1836AC"/>
<g clip-path="url(#clip2_449_38548)">
<mask id="mask0_449_38548" style="mask-type:luminance" maskUnits="userSpaceOnUse" x="-31" y="1" width="152" height="88">
<path d="M120.403 1H-30.4286V89H120.403V1Z" fill="white"/>
</mask>
<g mask="url(#mask0_449_38548)">
<path d="M19.8635 1H-30.4286V89H19.8635V1Z" fill="#323E95"/>
<path d="M70.1557 1H19.8635V89H70.1557V1Z" fill="#F4F4F4"/>
<path d="M120.448 1H70.1557V89H120.448V1Z" fill="#D80031"/>
</g>
</g>
</g>
<rect x="0.5" y="0.5" width="89" height="89" rx="44.5" stroke="#8F99A8"/>
<rect x="52.5" y="52.5" width="47" height="47" rx="23.5" fill="#1836AC"/>
<rect x="52.5" y="52.5" width="47" height="47" rx="23.5" stroke="#8F99A8"/>
<path d="M76.2342 80.9114H74.1635V84.4763H70.6104V80.9114H63.2689V78.3819L70.8104 67.2755H74.1635V78.0878H76.2342V80.9114ZM70.6104 78.0878V75.17C70.6104 74.8955 70.6143 74.57 70.6222 74.1935C70.6379 73.817 70.6536 73.4405 70.6692 73.064C70.6849 72.6875 70.7006 72.3542 70.7163 72.064C70.7398 71.7659 70.7555 71.5581 70.7634 71.4404H70.6692C70.5202 71.762 70.3633 72.0757 70.1986 72.3816C70.0339 72.6797 69.8418 72.9934 69.6221 73.3229L66.469 78.0878H70.6104ZM89.5407 75.8759C89.5407 77.2642 89.4309 78.5035 89.2113 79.5937C88.9995 80.684 88.6544 81.6095 88.1759 82.3703C87.7053 83.1312 87.0857 83.7116 86.317 84.1116C85.5484 84.5116 84.615 84.7116 83.5169 84.7116C82.1364 84.7116 81.0031 84.3626 80.1167 83.6645C79.2304 82.9586 78.5755 81.9468 78.1519 80.6291C77.7284 79.3035 77.5166 77.7191 77.5166 75.8759C77.5166 74.017 77.7088 72.4287 78.0931 71.111C78.4853 69.7854 79.1206 68.7697 79.9991 68.0638C80.8776 67.3579 82.0502 67.0049 83.5169 67.0049C84.8895 67.0049 86.019 67.3579 86.9053 68.0638C87.7995 68.7619 88.4622 69.7737 88.8936 71.0992C89.325 72.4169 89.5407 74.0092 89.5407 75.8759ZM81.1286 75.8759C81.1286 77.1858 81.1991 78.28 81.3403 79.1584C81.4894 80.0291 81.7364 80.684 82.0815 81.1232C82.4267 81.5625 82.9051 81.7821 83.5169 81.7821C84.1209 81.7821 84.5954 81.5664 84.9405 81.135C85.2935 80.6958 85.5444 80.0408 85.6935 79.1702C85.8425 78.2917 85.917 77.1936 85.917 75.8759C85.917 74.5661 85.8425 73.4719 85.6935 72.5934C85.5444 71.7149 85.2935 71.0561 84.9405 70.6169C84.5954 70.1698 84.1209 69.9462 83.5169 69.9462C82.9051 69.9462 82.4267 70.1698 82.0815 70.6169C81.7364 71.0561 81.4894 71.7149 81.3403 72.5934C81.1991 73.4719 81.1286 74.5661 81.1286 75.8759Z" fill="white"/>
</g>
<defs>
<clipPath id="clip0_449_38548">
<rect width="100" height="100" fill="white"/>
</clipPath>
<clipPath id="clip1_449_38548">
<rect x="1" y="1" width="88" height="88" rx="44" fill="white"/>
</clipPath>
<clipPath id="clip2_449_38548">
<rect width="150.831" height="88" fill="white" transform="translate(-30.4286 1)"/>
</clipPath>
</defs>
</svg>
