<svg width="100" height="100" viewBox="0 0 100 100" fill="none" xmlns="http://www.w3.org/2000/svg">
<g clip-path="url(#clip0_449_38548)">
<g clip-path="url(#clip1_449_38548)">
<rect x="1" y="1" width="88" height="88" rx="44" fill="#1836AC"/>
<g clip-path="url(#clip2_449_38548)">
<mask id="mask0_449_38548" style="mask-type:luminance" maskUnits="userSpaceOnUse" x="-31" y="1" width="152" height="88">
<path d="M120.403 1H-30.4286V89H120.403V1Z" fill="white"/>
</mask>
<g mask="url(#mask0_449_38548)">
<path d="M19.8635 1H-30.4286V89H19.8635V1Z" fill="#323E95"/>
<path d="M70.1557 1H19.8635V89H70.1557V1Z" fill="#F4F4F4"/>
<path d="M120.448 1H70.1557V89H120.448V1Z" fill="#D80031"/>
</g>
</g>
</g>
<rect x="0.5" y="0.5" width="89" height="89" rx="44.5" stroke="#8F99A8"/>
<rect x="52.5" y="52.5" width="47" height="47" rx="23.5" fill="#1836AC"/>
<rect x="52.5" y="52.5" width="47" height="47" rx="23.5" stroke="#8F99A8"/>
<path d="M75.1753 71.1228C75.1753 71.915 75.0106 72.6013 74.6812 73.1817C74.3518 73.7621 73.9047 74.2366 73.34 74.6053C72.7831 74.9739 72.1556 75.2445 71.4575 75.4171V75.4877C72.838 75.6602 73.8851 76.0838 74.5988 76.7583C75.3204 77.4329 75.6812 78.3349 75.6812 79.4643C75.6812 80.4683 75.4342 81.3664 74.94 82.1586C74.4537 82.9508 73.7008 83.5743 72.6811 84.0292C71.6614 84.4842 70.3477 84.7116 68.7397 84.7116C67.7907 84.7116 66.9044 84.6332 66.0808 84.4763C65.2651 84.3273 64.4964 84.0959 63.7748 83.7822V80.6879C64.5121 81.0644 65.2847 81.3507 66.0926 81.5468C66.9004 81.735 67.6534 81.8291 68.3515 81.8291C69.6535 81.8291 70.5634 81.6056 71.081 81.1585C71.6065 80.7036 71.8693 80.0683 71.8693 79.2525C71.8693 78.7741 71.7477 78.3702 71.5046 78.0407C71.2614 77.7113 70.8379 77.4603 70.2339 77.2877C69.6378 77.1152 68.8025 77.0289 67.7279 77.0289H66.422V74.2405H67.7515C68.8103 74.2405 69.6143 74.1425 70.1633 73.9464C70.7202 73.7425 71.0967 73.468 71.2928 73.1228C71.4967 72.7699 71.5987 72.3699 71.5987 71.9228C71.5987 71.311 71.4105 70.8325 71.034 70.4874C70.6575 70.1423 70.03 69.9698 69.1515 69.9698C68.6025 69.9698 68.1005 70.0404 67.6456 70.1815C67.1985 70.3149 66.7946 70.4796 66.4338 70.6757C66.073 70.8639 65.7553 71.0482 65.4808 71.2286L63.7983 68.7226C64.4729 68.2363 65.2612 67.8324 66.1632 67.5108C67.073 67.1892 68.1554 67.0284 69.4104 67.0284C71.183 67.0284 72.587 67.3853 73.6223 68.0991C74.6577 68.8128 75.1753 69.8207 75.1753 71.1228ZM89.5407 75.8759C89.5407 77.2642 89.4309 78.5035 89.2113 79.5937C88.9995 80.684 88.6544 81.6095 88.1759 82.3703C87.7053 83.1312 87.0857 83.7116 86.317 84.1116C85.5484 84.5116 84.615 84.7116 83.5169 84.7116C82.1364 84.7116 81.0031 84.3626 80.1167 83.6645C79.2304 82.9586 78.5755 81.9468 78.1519 80.6291C77.7284 79.3035 77.5166 77.7191 77.5166 75.8759C77.5166 74.017 77.7088 72.4287 78.0931 71.111C78.4853 69.7854 79.1206 68.7697 79.9991 68.0638C80.8776 67.3579 82.0502 67.0049 83.5169 67.0049C84.8895 67.0049 86.019 67.3579 86.9053 68.0638C87.7995 68.7619 88.4622 69.7737 88.8936 71.0992C89.325 72.4169 89.5407 74.0092 89.5407 75.8759ZM81.1286 75.8759C81.1286 77.1858 81.1991 78.28 81.3403 79.1584C81.4894 80.0291 81.7364 80.684 82.0815 81.1232C82.4267 81.5625 82.9051 81.7821 83.5169 81.7821C84.1209 81.7821 84.5954 81.5664 84.9405 81.135C85.2935 80.6958 85.5444 80.0408 85.6935 79.1702C85.8425 78.2917 85.917 77.1936 85.917 75.8759C85.917 74.5661 85.8425 73.4719 85.6935 72.5934C85.5444 71.7149 85.2935 71.0561 84.9405 70.6169C84.5954 70.1698 84.1209 69.9462 83.5169 69.9462C82.9051 69.9462 82.4267 70.1698 82.0815 70.6169C81.7364 71.0561 81.4894 71.7149 81.3403 72.5934C81.1991 73.4719 81.1286 74.5661 81.1286 75.8759Z" fill="white"/>
</g>
<defs>
<clipPath id="clip0_449_38548">
<rect width="100" height="100" fill="white"/>
</clipPath>
<clipPath id="clip1_449_38548">
<rect x="1" y="1" width="88" height="88" rx="44" fill="white"/>
</clipPath>
<clipPath id="clip2_449_38548">
<rect width="150.831" height="88" fill="white" transform="translate(-30.4286 1)"/>
</clipPath>
</defs>
</svg>
