<svg width="100" height="100" viewBox="0 0 100 100" fill="none" xmlns="http://www.w3.org/2000/svg">
<g clip-path="url(#clip0_449_38342)">
<g clip-path="url(#clip1_449_38342)">
<g clip-path="url(#clip2_449_38342)">
<path d="M105.314 1.00708H-31.2941V72.8837H105.314V1.00708Z" fill="white"/>
<path d="M105.324 29.7671H45.1736V1.01099H28.7543V29.7671H-31.2372V44.1376H28.7543V72.8821H45.1736V44.1376H105.324V29.7671Z" fill="#C8102E"/>
<path d="M-14.8543 1.00342L-15.291 1.0233L23.3442 21.4226V1.00342H-14.8543Z" fill="#012169"/>
<path d="M14.5599 24.9269L-31.2927 1.00708V6.64502L3.63388 24.9269H14.5599Z" fill="#C8102E"/>
<path d="M59.4958 48.9561L105.349 72.8758V67.2379L70.4226 48.9561H59.4958Z" fill="#C8102E"/>
<path d="M-14.8543 73L-15.291 72.9801L23.3442 52.5808V73H-14.8543Z" fill="#012169"/>
<path d="M14.3257 48.9548L-31.2626 72.8636L-20.6009 72.8739L23.3881 49.9272V48.9548H14.3257Z" fill="#C8102E"/>
<path d="M88.9113 1L89.348 1.01989L50.7128 21.4192V1H88.9113Z" fill="#012169"/>
<path d="M105.306 1.03364L95.0507 1.03296L50.752 24.1415V24.952H60.1241L105.306 1.03364Z" fill="#C8102E"/>
<path d="M88.9113 72.9937L89.348 72.9738L50.7128 52.5745V72.9937H88.9113Z" fill="#012169"/>
</g>
</g>
<rect x="0.5" y="0.5" width="73" height="73" rx="36.5" stroke="#8F99A8"/>
<g clip-path="url(#clip3_449_38342)">
<g clip-path="url(#clip4_449_38342)">
<mask id="mask0_449_38342" style="mask-type:luminance" maskUnits="userSpaceOnUse" x="1" y="27" width="124" height="72">
<path d="M124.996 27H1.5882V99H124.996V27Z" fill="white"/>
</mask>
<g mask="url(#mask0_449_38342)">
<path d="M124.996 27H1.5882V99H124.996V27Z" fill="#180087"/>
<path d="M34.058 71.1267L35.9334 76.9735L41.6699 74.7672L38.2868 79.8785L43.5453 83.0409L37.4411 83.5557L38.2868 89.6231L34.058 85.1737L29.8292 89.6231L30.675 83.5557L24.5708 83.0409L29.8292 79.8785L26.4462 74.7672L32.1826 76.9735L34.058 71.1267Z" fill="white"/>
<path d="M98.961 81.6067L99.8803 84.4014L102.601 83.3718L101.02 85.7987L103.521 87.3064L100.579 87.5638L101.02 90.432L98.961 88.336L96.9753 90.432L97.3798 87.5638L94.4748 87.3064L96.9753 85.7987L95.3573 83.3718L98.1152 84.4014L98.961 81.6067Z" fill="white"/>
<path d="M82.7445 55.9395L83.6638 58.6974L86.3849 57.6677L84.767 60.0947L87.2675 61.6024L84.3625 61.823L84.767 64.728L82.7445 62.632L80.7588 64.728L81.1265 61.823L78.2215 61.6024L80.7588 60.0947L79.1408 57.6677L81.8619 58.6974L82.7445 55.9395Z" fill="white"/>
<path d="M98.961 38.3259L99.8803 41.1206L102.601 40.091L101.02 42.518L103.521 43.9888L100.579 44.2463L101.02 47.1513L98.961 45.0552L96.9753 47.1513L97.3798 44.2463L94.4748 43.9888L96.9753 42.518L95.3573 40.091L98.1152 41.1206L98.961 38.3259Z" fill="white"/>
<path d="M28.6525 27V37.811H1.5882V48.6588H28.6525V59.4699H39.4636V48.6588H66.5279V37.811H39.4636V27H28.6525Z" fill="white"/>
<path d="M1.5882 27V30.6404L59.2838 59.4699H66.5279V55.8294L8.83232 27H1.5882Z" fill="white"/>
<path d="M59.2838 27L1.5882 55.8294V59.4699H8.83232L66.5279 30.6404V27H59.2838Z" fill="white"/>
<path d="M30.8221 27V39.9806H1.5882V46.4893H30.8221V59.4699H37.294V46.4893H66.5279V39.9806H37.294V27H30.8221Z" fill="#EA0020"/>
<path d="M1.5882 27V29.427L18.3931 37.811H23.247L1.5882 27ZM61.674 27L40.0519 37.811H44.9059L66.5279 27H61.674Z" fill="#EA0020"/>
<path d="M23.247 48.6588L1.5882 59.4699H6.44213L28.101 48.6588H23.247ZM44.9059 48.6588L66.5647 59.4699V57.0429L49.7598 48.6221H44.9059V48.6588Z" fill="#EA0020"/>
</g>
</g>
</g>
<rect x="26.5" y="26.5" width="73" height="73" rx="36.5" stroke="#8F99A8"/>
</g>
<defs>
<clipPath id="clip0_449_38342">
<rect width="100" height="100" fill="white"/>
</clipPath>
<clipPath id="clip1_449_38342">
<rect x="1" y="1" width="72" height="72" rx="36" fill="white"/>
</clipPath>
<clipPath id="clip2_449_38342">
<rect width="136.644" height="72" fill="white" transform="translate(-31.2941 1)"/>
</clipPath>
<clipPath id="clip3_449_38342">
<rect x="27" y="27" width="72" height="72" rx="36" fill="white"/>
</clipPath>
<clipPath id="clip4_449_38342">
<rect width="123.408" height="72" fill="white" transform="translate(1.5882 27)"/>
</clipPath>
</defs>
</svg>
