<svg width="100" height="100" viewBox="0 0 100 100" fill="none" xmlns="http://www.w3.org/2000/svg">
<g clip-path="url(#clip0_449_38377)">
<g clip-path="url(#clip1_449_38377)">
<g clip-path="url(#clip2_449_38377)">
<path d="M105.314 1.00708H-31.2941V72.8837H105.314V1.00708Z" fill="white"/>
<path d="M105.324 29.7671H45.1737V1.01099H28.7544V29.7671H-31.2371V44.1376H28.7544V72.8821H45.1737V44.1376H105.324V29.7671Z" fill="#C8102E"/>
<path d="M-14.8542 1.00342L-15.2909 1.0233L23.3443 21.4226V1.00342H-14.8542Z" fill="#012169"/>
<path d="M14.56 24.9269L-31.2926 1.00708V6.64502L3.63401 24.9269H14.56Z" fill="#C8102E"/>
<path d="M59.4958 48.9561L105.349 72.8758V67.2379L70.4226 48.9561H59.4958Z" fill="#C8102E"/>
<path d="M-14.8542 73L-15.2909 72.9801L23.3443 52.5808V73H-14.8542Z" fill="#012169"/>
<path d="M14.3258 48.9548L-31.2625 72.8636L-20.6008 72.8739L23.3883 49.9272V48.9548H14.3258Z" fill="#C8102E"/>
<path d="M88.9115 1L89.3482 1.01989L50.713 21.4192V1H88.9115Z" fill="#012169"/>
<path d="M105.306 1.03364L95.0507 1.03296L50.752 24.1415V24.952H60.1241L105.306 1.03364Z" fill="#C8102E"/>
<path d="M88.9115 72.9937L89.3482 72.9738L50.713 52.5745V72.9937H88.9115Z" fill="#012169"/>
</g>
</g>
<rect x="0.5" y="0.5" width="73" height="73" rx="36.5" stroke="#8F99A8"/>
<g clip-path="url(#clip3_449_38377)">
<g clip-path="url(#clip4_449_38377)">
<rect width="116.64" height="72" transform="translate(3.6189 27)" fill="#DB291C"/>
<path fill-rule="evenodd" clip-rule="evenodd" d="M68.8185 40.2437H55.0588V56.1203H39.1824V69.88H55.0588V85.7565H68.8185V69.88H84.6953V56.1203H68.8185V40.2437Z" fill="white"/>
</g>
</g>
<rect x="26.5" y="26.5" width="73" height="73" rx="36.5" stroke="#8F99A8"/>
</g>
<defs>
<clipPath id="clip0_449_38377">
<rect width="100" height="100" fill="white"/>
</clipPath>
<clipPath id="clip1_449_38377">
<rect x="1" y="1" width="72" height="72" rx="36" fill="white"/>
</clipPath>
<clipPath id="clip2_449_38377">
<rect width="136.644" height="72" fill="white" transform="translate(-31.2941 1)"/>
</clipPath>
<clipPath id="clip3_449_38377">
<rect x="27" y="27" width="72" height="72" rx="36" fill="white"/>
</clipPath>
<clipPath id="clip4_449_38377">
<rect width="116.682" height="72" fill="white" transform="translate(4.65881 27)"/>
</clipPath>
</defs>
</svg>
