<svg width="100" height="100" viewBox="0 0 100 100" fill="none" xmlns="http://www.w3.org/2000/svg">
<g clip-path="url(#clip0_449_38347)">
<g clip-path="url(#clip1_449_38347)">
<g clip-path="url(#clip2_449_38347)">
<path d="M105.314 1.00708H-31.2941V72.8837H105.314V1.00708Z" fill="white"/>
<path d="M105.324 29.7671H45.1737V1.01099H28.7544V29.7671H-31.2371V44.1376H28.7544V72.8821H45.1737V44.1376H105.324V29.7671Z" fill="#C8102E"/>
<path d="M-14.8542 1.00342L-15.2909 1.0233L23.3443 21.4226V1.00342H-14.8542Z" fill="#012169"/>
<path d="M14.56 24.9269L-31.2926 1.00708V6.64502L3.63401 24.9269H14.56Z" fill="#C8102E"/>
<path d="M59.4958 48.9561L105.349 72.8758V67.2379L70.4226 48.9561H59.4958Z" fill="#C8102E"/>
<path d="M-14.8542 73L-15.2909 72.9801L23.3443 52.5808V73H-14.8542Z" fill="#012169"/>
<path d="M14.3258 48.9548L-31.2625 72.8636L-20.6008 72.8739L23.3883 49.9272V48.9548H14.3258Z" fill="#C8102E"/>
<path d="M88.9115 1L89.3482 1.01989L50.713 21.4192V1H88.9115Z" fill="#012169"/>
<path d="M105.306 1.03364L95.0507 1.03296L50.752 24.1415V24.952H60.1241L105.306 1.03364Z" fill="#C8102E"/>
<path d="M88.9115 72.9937L89.3482 72.9738L50.713 52.5745V72.9937H88.9115Z" fill="#012169"/>
</g>
</g>
<rect x="0.5" y="0.5" width="73" height="73" rx="36.5" stroke="#8F99A8"/>
<g clip-path="url(#clip3_449_38347)">
<g clip-path="url(#clip4_449_38347)">
<mask id="mask0_449_38347" style="mask-type:luminance" maskUnits="userSpaceOnUse" x="1" y="27" width="124" height="72">
<path d="M124.996 27H1.58813V99H124.996V27Z" fill="white"/>
</mask>
<g mask="url(#mask0_449_38347)">
<path d="M30.6382 27H1.58813V99H30.6382V27Z" fill="#EA0020"/>
<path d="M125.032 27H95.9824V99H125.032V27Z" fill="#EA0020"/>
<path d="M95.9825 27H30.6383V99H95.9825V27Z" fill="white"/>
<mask id="mask1_449_38347" style="mask-type:luminance" maskUnits="userSpaceOnUse" x="1" y="27" width="124" height="72">
<path d="M124.996 27H1.58813V99H124.996V27Z" fill="white"/>
</mask>
<g mask="url(#mask1_449_38347)">
<path d="M63.2918 36.3403L59.0262 44.6509C58.5482 45.5702 57.6657 45.4598 56.7831 44.945L53.6943 43.2535L56.0109 56.0502C56.489 58.4037 54.9445 58.4037 54.1723 57.374L48.7668 51.0492L47.8843 54.2484C47.7739 54.6529 47.3327 55.1309 46.6708 55.0206L39.8311 53.513L41.633 60.3158C42.0375 61.8235 42.3316 62.4486 41.2285 62.8531L38.8015 64.0298L50.5686 73.9951C51.0099 74.3628 51.2673 75.0615 51.0834 75.6498L50.0538 79.18C54.0988 78.7019 57.7392 78.2607 61.7842 77.7458C62.1519 77.7458 62.7402 78.0768 62.7402 78.4813L62.1886 91.3883H64.1743L63.8434 78.5181C63.8434 78.1136 64.395 77.7458 64.7259 77.7458C68.7709 78.2239 72.4113 78.6651 76.4563 79.18L75.4266 75.6498C75.2796 75.0247 75.5002 74.3628 75.9782 73.9951L87.7453 64.0298L85.3184 62.8531C84.252 62.4486 84.5461 61.8235 84.9139 60.3158L86.7157 53.513L79.8761 55.0206C79.2142 55.1309 78.7729 54.6897 78.6626 54.2484L77.7801 51.0492L72.3745 57.374C71.6023 58.3669 70.0579 58.3669 70.5359 56.0502L72.8526 43.2535L69.7637 44.945C68.8812 45.4598 67.9987 45.5334 67.5206 44.6509L63.255 36.3403H63.2918Z" fill="#EA0020"/>
</g>
</g>
</g>
</g>
<rect x="26.5" y="26.5" width="73" height="73" rx="36.5" stroke="#8F99A8"/>
</g>
<defs>
<clipPath id="clip0_449_38347">
<rect width="100" height="100" fill="white"/>
</clipPath>
<clipPath id="clip1_449_38347">
<rect x="1" y="1" width="72" height="72" rx="36" fill="white"/>
</clipPath>
<clipPath id="clip2_449_38347">
<rect width="136.644" height="72" fill="white" transform="translate(-31.2941 1)"/>
</clipPath>
<clipPath id="clip3_449_38347">
<rect x="27" y="27" width="72" height="72" rx="36" fill="white"/>
</clipPath>
<clipPath id="clip4_449_38347">
<rect width="123.408" height="72" fill="white" transform="translate(1.58813 27)"/>
</clipPath>
</defs>
</svg>
