<svg width="100" height="100" viewBox="0 0 100 100" fill="none" xmlns="http://www.w3.org/2000/svg">
<g clip-path="url(#clip0_449_38332)">
<g clip-path="url(#clip1_449_38332)">
<g clip-path="url(#clip2_449_38332)">
<path d="M105.314 1.00708H-31.2941V72.8837H105.314V1.00708Z" fill="white"/>
<path d="M105.324 29.7671H45.1736V1.01099H28.7543V29.7671H-31.2372V44.1376H28.7543V72.8821H45.1736V44.1376H105.324V29.7671Z" fill="#C8102E"/>
<path d="M-14.8543 1.00342L-15.291 1.0233L23.3442 21.4226V1.00342H-14.8543Z" fill="#012169"/>
<path d="M14.5599 24.9269L-31.2927 1.00708V6.64502L3.63388 24.9269H14.5599Z" fill="#C8102E"/>
<path d="M59.4958 48.9561L105.349 72.8758V67.2379L70.4226 48.9561H59.4958Z" fill="#C8102E"/>
<path d="M-14.8543 73L-15.291 72.9801L23.3442 52.5808V73H-14.8543Z" fill="#012169"/>
<path d="M14.3257 48.9548L-31.2626 72.8636L-20.6009 72.8739L23.3881 49.9272V48.9548H14.3257Z" fill="#C8102E"/>
<path d="M88.9113 1L89.348 1.01989L50.7128 21.4192V1H88.9113Z" fill="#012169"/>
<path d="M105.306 1.03364L95.0507 1.03296L50.752 24.1415V24.952H60.1241L105.306 1.03364Z" fill="#C8102E"/>
<path d="M88.9113 72.9937L89.348 72.9738L50.7128 52.5745V72.9937H88.9113Z" fill="#012169"/>
</g>
</g>
<rect x="0.5" y="0.5" width="73" height="73" rx="36.5" stroke="#8F99A8"/>
<g clip-path="url(#clip3_449_38332)">
<g clip-path="url(#clip4_449_38332)">
<mask id="mask0_449_38332" style="mask-type:luminance" maskUnits="userSpaceOnUse" x="1" y="27" width="124" height="72">
<path d="M124.784 27H1.37646V99H124.784V27Z" fill="white"/>
</mask>
<g mask="url(#mask0_449_38332)">
<path d="M124.784 27H1.37646V99H124.784V27Z" fill="white"/>
<mask id="mask1_449_38332" style="mask-type:luminance" maskUnits="userSpaceOnUse" x="1" y="27" width="124" height="72">
<path d="M124.784 27H1.37646V99H124.784V27Z" fill="white"/>
</mask>
<g mask="url(#mask1_449_38332)">
<path d="M63.0803 41.4148C74.9945 41.4148 84.6655 51.0859 84.6655 63.0001C84.6655 74.9143 74.9945 84.6221 63.0803 84.6221C51.1661 84.6221 41.4582 74.9143 41.4582 63.0001C41.4582 51.0859 51.1293 41.4148 63.0803 41.4148Z" fill="#AD0018"/>
</g>
</g>
</g>
</g>
<rect x="26.5" y="26.5" width="73" height="73" rx="36.5" stroke="#8F99A8"/>
</g>
<defs>
<clipPath id="clip0_449_38332">
<rect width="100" height="100" fill="white"/>
</clipPath>
<clipPath id="clip1_449_38332">
<rect x="1" y="1" width="72" height="72" rx="36" fill="white"/>
</clipPath>
<clipPath id="clip2_449_38332">
<rect width="136.644" height="72" fill="white" transform="translate(-31.2941 1)"/>
</clipPath>
<clipPath id="clip3_449_38332">
<rect x="27" y="27" width="72" height="72" rx="36" fill="white"/>
</clipPath>
<clipPath id="clip4_449_38332">
<rect width="123.408" height="72" fill="white" transform="translate(1.37646 27)"/>
</clipPath>
</defs>
</svg>
