<svg width="100" height="100" viewBox="0 0 100 100" fill="none" xmlns="http://www.w3.org/2000/svg">
<g clip-path="url(#clip0_449_38367)">
<g clip-path="url(#clip1_449_38367)">
<g clip-path="url(#clip2_449_38367)">
<path d="M105.314 1.00708H-31.2941V72.8837H105.314V1.00708Z" fill="white"/>
<path d="M105.324 29.7671H45.1737V1.01099H28.7544V29.7671H-31.2371V44.1376H28.7544V72.8821H45.1737V44.1376H105.324V29.7671Z" fill="#C8102E"/>
<path d="M-14.8542 1.00342L-15.2909 1.0233L23.3443 21.4226V1.00342H-14.8542Z" fill="#012169"/>
<path d="M14.56 24.9269L-31.2926 1.00708V6.64502L3.63401 24.9269H14.56Z" fill="#C8102E"/>
<path d="M59.4958 48.9561L105.349 72.8758V67.2379L70.4226 48.9561H59.4958Z" fill="#C8102E"/>
<path d="M-14.8542 73L-15.2909 72.9801L23.3443 52.5808V73H-14.8542Z" fill="#012169"/>
<path d="M14.3258 48.9548L-31.2625 72.8636L-20.6008 72.8739L23.3883 49.9272V48.9548H14.3258Z" fill="#C8102E"/>
<path d="M88.9115 1L89.3482 1.01989L50.713 21.4192V1H88.9115Z" fill="#012169"/>
<path d="M105.306 1.03364L95.0507 1.03296L50.752 24.1415V24.952H60.1241L105.306 1.03364Z" fill="#C8102E"/>
<path d="M88.9115 72.9937L89.3482 72.9738L50.713 52.5745V72.9937H88.9115Z" fill="#012169"/>
</g>
</g>
<rect x="0.5" y="0.5" width="73" height="73" rx="36.5" stroke="#8F99A8"/>
<g clip-path="url(#clip3_449_38367)">
<g clip-path="url(#clip4_449_38367)">
<mask id="mask0_449_38367" style="mask-type:luminance" maskUnits="userSpaceOnUse" x="4" y="27" width="124" height="72">
<path d="M127.961 27H4.55298V99H127.961V27Z" fill="white"/>
</mask>
<g mask="url(#mask0_449_38367)">
<path d="M66.2935 27V29.2799V30.0889V30.4566L52.5775 37.2962H66.2935V39.3555V42.4443V45.5332V47.5557H52.5775L66.2935 54.4321V55.572V57.8519V58.0725H62.0647H60.4835H59.7848L40.553 48.4382V58.0725H38.4937H35.4049H32.316H30.2568V48.4382L11.0617 58.0725H8.74501H4.55298V99H127.961V27H66.2935Z" fill="#1A237B"/>
<path d="M40.553 27V36.4137L59.3804 27H40.553Z" fill="#1A237B"/>
<path d="M30.2567 27H11.4661L30.2567 36.4137V27Z" fill="#1A237B"/>
<path d="M66.2567 27L45.701 37.2962H41.0677L61.6602 27H59.3803L40.5529 36.4137V27H38.4937V37.4433V38.5832V39.3555H41.5825H46.179H47.7603H48.4589H66.2935V37.2962H52.5774L66.2935 30.4566V30.0889V29.2799V27H66.2567Z" fill="white"/>
<path d="M30.2568 27V36.4137L11.4662 27H4.55298L25.1086 37.2962H20.5121L4.55298 29.3166V30.4566L18.2322 37.2962H4.55298V39.3555H22.314H24.6306H29.2271H32.316V38.5832V37.811V37.4433V27H30.2568Z" fill="white"/>
<path d="M46.179 45.5332H41.5825H38.4937V46.2686V47.0776V47.4086V58.0725H40.5529V48.4382L59.7848 58.0725H60.4834H62.0646H66.2935V57.8519L45.701 47.5557H50.2975L66.2935 55.572V54.4321L52.5774 47.5557H66.2935V45.5332H48.4589H46.179Z" fill="white"/>
<path d="M29.2271 45.5332H24.6306H23.0494H22.314H4.55298V47.5557H18.2322L4.55298 54.3953V57.8519L25.1086 47.5557H29.7052L8.74501 58.0725H11.0617L30.2568 48.4382V58.0725H32.316V47.4086V46.2686V45.5332H29.2271Z" fill="white"/>
<path d="M25.1086 47.5554L4.55298 57.8516V58.0723H8.74501L29.7052 47.5554H25.1086Z" fill="#BD0034"/>
<path d="M66.2568 27H61.6603L41.0679 37.2962H45.7012L66.2568 27Z" fill="#BD0034"/>
<path d="M45.701 47.5554L66.2935 57.8516V55.5718L50.2976 47.5554H45.701Z" fill="#BD0034"/>
<path d="M32.316 27V37.4433V37.811V38.5832V39.3555H29.2271H24.6306H22.314H4.55298V45.5332H22.314H23.0494H24.6306H29.2271H32.316V46.2686V47.4086V58.0725H35.4049H38.4937V47.4086V47.0776V46.2686V45.5332H41.5826H46.1791H48.459H66.2935V42.4443V39.3555H48.459H47.7603H46.1791H41.5826H38.4937V38.5832V37.4433V27H32.316Z" fill="#BD0034"/>
<path d="M90.2323 47.9969H93.5786L94.6082 44.8345L95.6378 47.9969H98.9841L96.2997 49.9826L97.3293 53.1818L94.6082 51.1961L91.8871 53.1818L92.9534 49.9826L90.2323 47.9969Z" fill="white"/>
<path d="M91.7032 48.5117H93.9096L94.6082 46.3789L95.3069 48.5117H97.5133L95.7114 49.7987L96.4101 51.9315L94.6082 50.6077L92.8064 51.9315L93.5051 49.7987L91.7032 48.5117Z" fill="#BD0034"/>
<path d="M76.8103 61.529H80.1566L81.1862 58.3298L82.2158 61.529H85.5989L82.8777 63.4779L83.9073 66.6771L81.1862 64.6914L78.5018 66.6771L79.5314 63.4779L76.8103 61.529Z" fill="white"/>
<path d="M78.2812 62.0071H80.5244L81.1863 59.8743L81.8849 62.0071H84.0913L82.2894 63.2941L82.9881 65.4269L81.1863 64.1031L79.3844 65.4269L80.0831 63.2941L78.2812 62.0071Z" fill="#BD0034"/>
<path d="M89.7542 82.6732H93.4681L94.6081 79.1431L95.748 82.6732H99.4988L96.4835 84.8795L97.6234 88.4464L94.6081 86.2401L91.5928 88.4464L92.7327 84.8795L89.7542 82.6732Z" fill="white"/>
<path d="M91.3722 83.2248H93.8359L94.6081 80.8713L95.3804 83.2248H97.8441L95.8584 84.6956L96.5938 87.0491L94.6081 85.5782L92.6224 87.0491L93.3947 84.6956L91.3722 83.2248Z" fill="#BD0034"/>
</g>
</g>
</g>
<rect x="26.5" y="26.5" width="73" height="73" rx="36.5" stroke="#8F99A8"/>
</g>
<defs>
<clipPath id="clip0_449_38367">
<rect width="100" height="100" fill="white"/>
</clipPath>
<clipPath id="clip1_449_38367">
<rect x="1" y="1" width="72" height="72" rx="36" fill="white"/>
</clipPath>
<clipPath id="clip2_449_38367">
<rect width="136.644" height="72" fill="white" transform="translate(-31.2941 1)"/>
</clipPath>
<clipPath id="clip3_449_38367">
<rect x="27" y="27" width="72" height="72" rx="36" fill="white"/>
</clipPath>
<clipPath id="clip4_449_38367">
<rect width="123.408" height="72" fill="white" transform="translate(4.55298 27)"/>
</clipPath>
</defs>
</svg>
