<svg width="100" height="100" viewBox="0 0 100 100" fill="none" xmlns="http://www.w3.org/2000/svg">
<g clip-path="url(#clip0_449_38362)">
<g clip-path="url(#clip1_449_38362)">
<g clip-path="url(#clip2_449_38362)">
<path d="M105.314 1.00708H-31.2941V72.8837H105.314V1.00708Z" fill="white"/>
<path d="M105.324 29.7671H45.1736V1.01099H28.7543V29.7671H-31.2372V44.1376H28.7543V72.8821H45.1736V44.1376H105.324V29.7671Z" fill="#C8102E"/>
<path d="M-14.8543 1.00342L-15.291 1.0233L23.3442 21.4226V1.00342H-14.8543Z" fill="#012169"/>
<path d="M14.5599 24.9269L-31.2927 1.00708V6.64502L3.63388 24.9269H14.5599Z" fill="#C8102E"/>
<path d="M59.4958 48.9561L105.349 72.8758V67.2379L70.4225 48.9561H59.4958Z" fill="#C8102E"/>
<path d="M-14.8543 73L-15.291 72.9801L23.3442 52.5808V73H-14.8543Z" fill="#012169"/>
<path d="M14.3257 48.9548L-31.2626 72.8636L-20.6009 72.8739L23.3881 49.9272V48.9548H14.3257Z" fill="#C8102E"/>
<path d="M88.9113 1L89.348 1.01989L50.7128 21.4192V1H88.9113Z" fill="#012169"/>
<path d="M105.306 1.03364L95.0507 1.03296L50.752 24.1415V24.952H60.1241L105.306 1.03364Z" fill="#C8102E"/>
<path d="M88.9113 72.9937L89.348 72.9738L50.7128 52.5745V72.9937H88.9113Z" fill="#012169"/>
</g>
</g>
<rect x="0.5" y="0.5" width="73" height="73" rx="36.5" stroke="#8F99A8"/>
<g clip-path="url(#clip3_449_38362)">
<rect width="108.197" height="72" transform="translate(24.8824 27)" fill="#E30A17"/>
<path d="M65.0614 77.4312C57.281 77.4312 50.9742 71.0125 50.9742 63.095C50.9742 55.1775 57.281 48.7588 65.0614 48.7588C69.7373 48.7588 73.8803 51.0771 76.442 54.646C73.443 48.963 67.5482 45.0984 60.7648 45.0984C50.943 45.0984 42.9808 53.2015 42.9808 63.1967C42.9808 73.192 50.943 81.2951 60.7648 81.2951C67.8429 81.2951 73.9545 77.0868 76.8169 70.9946C74.296 74.873 69.9726 77.4312 65.0606 77.4312H65.0614Z" fill="white"/>
<path d="M81.3327 54.3732L85.2446 59.7574L91.5742 57.7008L87.6623 63.0851L91.5742 68.4694L85.2446 66.4128L81.3327 71.797L81.3327 65.1417L75.0031 63.0851L81.3327 61.0285L81.3327 54.3732Z" fill="white"/>
</g>
<rect x="26.5" y="26.5" width="73" height="73" rx="36.5" stroke="#8F99A8"/>
</g>
<defs>
<clipPath id="clip0_449_38362">
<rect width="100" height="100" fill="white"/>
</clipPath>
<clipPath id="clip1_449_38362">
<rect x="1" y="1" width="72" height="72" rx="36" fill="white"/>
</clipPath>
<clipPath id="clip2_449_38362">
<rect width="136.644" height="72" fill="white" transform="translate(-31.2941 1)"/>
</clipPath>
<clipPath id="clip3_449_38362">
<rect x="27" y="27" width="72" height="72" rx="36" fill="white"/>
</clipPath>
</defs>
</svg>
