<svg width="100" height="100" viewBox="0 0 100 100" fill="none" xmlns="http://www.w3.org/2000/svg">
<g clip-path="url(#clip0_449_38337)">
<g clip-path="url(#clip1_449_38337)">
<g clip-path="url(#clip2_449_38337)">
<path d="M105.314 1.00708H-31.2941V72.8837H105.314V1.00708Z" fill="white"/>
<path d="M105.324 29.7671H45.1736V1.01099H28.7543V29.7671H-31.2372V44.1376H28.7543V72.8821H45.1736V44.1376H105.324V29.7671Z" fill="#C8102E"/>
<path d="M-14.8543 1.00342L-15.291 1.0233L23.3442 21.4226V1.00342H-14.8543Z" fill="#012169"/>
<path d="M14.5599 24.9269L-31.2927 1.00708V6.64502L3.63388 24.9269H14.5599Z" fill="#C8102E"/>
<path d="M59.4958 48.9561L105.349 72.8758V67.2379L70.4226 48.9561H59.4958Z" fill="#C8102E"/>
<path d="M-14.8543 73L-15.291 72.9801L23.3442 52.5808V73H-14.8543Z" fill="#012169"/>
<path d="M14.3257 48.9548L-31.2626 72.8636L-20.6009 72.8739L23.3881 49.9272V48.9548H14.3257Z" fill="#C8102E"/>
<path d="M88.9113 1L89.348 1.01989L50.7128 21.4192V1H88.9113Z" fill="#012169"/>
<path d="M105.306 1.03364L95.0507 1.03296L50.752 24.1415V24.952H60.1241L105.306 1.03364Z" fill="#C8102E"/>
<path d="M88.9113 72.9937L89.348 72.9738L50.7128 52.5745V72.9937H88.9113Z" fill="#012169"/>
</g>
</g>
<rect x="0.5" y="0.5" width="73" height="73" rx="36.5" stroke="#8F99A8"/>
<g clip-path="url(#clip3_449_38337)">
<g clip-path="url(#clip4_449_38337)">
<mask id="mask0_449_38337" style="mask-type:luminance" maskUnits="userSpaceOnUse" x="1" y="27" width="124" height="72">
<path d="M124.996 27H1.5882V99H124.996V27Z" fill="white"/>
</mask>
<g mask="url(#mask0_449_38337)">
<path d="M124.996 93.4475H1.5882V99.0001H124.996V93.4475Z" fill="#CB001C"/>
<path d="M124.996 87.9314H1.5882V93.484H124.996V87.9314Z" fill="white"/>
<path d="M124.996 82.3789H1.5882V87.8947H124.996V82.3789Z" fill="#CB001C"/>
<path d="M124.996 76.8633H1.5882V82.4159H124.996V76.8633Z" fill="white"/>
<path d="M124.996 71.3105H1.5882V76.8632H124.996V71.3105Z" fill="#CB001C"/>
<path d="M124.996 65.7581H1.5882V71.2739H124.996V65.7581Z" fill="white"/>
<path d="M124.996 60.2419H1.5882V65.7945H124.996V60.2419Z" fill="#CB001C"/>
<path d="M124.996 54.6895H1.5882V60.2053H124.996V54.6895Z" fill="white"/>
<path d="M124.996 49.1738H1.5882V54.7264H124.996V49.1738Z" fill="#CB001C"/>
<path d="M124.996 43.6211H1.5882V49.1737H124.996V43.6211Z" fill="white"/>
<path d="M124.996 38.0686H1.5882V43.6212H124.996V38.0686Z" fill="#CB001C"/>
<path d="M124.996 32.5525H1.5882V38.1051H124.996V32.5525Z" fill="white"/>
<path d="M124.996 27H1.5882V32.5526H124.996V27Z" fill="#CB001C"/>
<path d="M57.96 27H1.5882V65.7579H57.96V27Z" fill="#1A2F81"/>
<path d="M29.3512 34.6855L29.7925 36.1564H31.3369L30.0867 37.0757L30.5647 38.5099L29.3512 37.6273L28.101 38.5099L28.5422 37.0757L27.3287 36.1564H28.8364L29.3512 34.6855Z" fill="white"/>
<path d="M29.3512 41.1575L29.7925 42.6284H31.3369L30.0867 43.5109L30.5647 44.9818L29.3512 44.0992L28.101 44.9818L28.5422 43.5109L27.3287 42.6284H28.8364L29.3512 41.1575Z" fill="white"/>
<path d="M29.3512 47.6294L29.7925 49.1003H31.3369L30.0867 49.9828L30.5647 51.4537L29.3512 50.5712L28.101 51.4537L28.5422 49.9828L27.3287 49.1003H28.8364L29.3512 47.6294Z" fill="white"/>
<path d="M29.3512 54.1013L29.7925 55.5722H31.3369L30.0867 56.4547L30.5647 57.9256L29.3512 57.0063L28.101 57.9256L28.5422 56.4547L27.3287 55.5722H28.8364L29.3512 54.1013Z" fill="white"/>
<path d="M33.8742 31.2656L34.3522 32.7365H35.8967L34.6464 33.6558L35.1244 35.1267L33.8742 34.2074L32.6607 35.1267L33.102 33.6558L31.8885 32.7365H33.3961L33.8742 31.2656Z" fill="white"/>
<path d="M33.8742 37.7373L34.3522 39.2082H35.8967L34.6464 40.1275L35.1244 41.5984L33.8742 40.6791L32.6607 41.5984L33.102 40.1275L31.8885 39.2082H33.3961L33.8742 37.7373Z" fill="white"/>
<path d="M33.8742 44.2092L34.3522 45.6801H35.8967L34.6464 46.5994L35.1244 48.0703L33.8742 47.151L32.6607 48.0703L33.102 46.5994L31.8885 45.6801H33.3961L33.8742 44.2092Z" fill="white"/>
<path d="M33.8742 50.6812L34.3522 52.152H35.8967L34.6464 53.0713L35.1244 54.5055L33.8742 53.6229L32.6607 54.5055L33.102 53.0713L31.8885 52.152H33.3961L33.8742 50.6812Z" fill="white"/>
<path d="M33.8742 57.1531L34.3522 58.624H35.8967L34.6464 59.5433L35.1244 60.9774L33.8742 60.0949L32.6607 60.9774L33.102 59.5433L31.8885 58.624H33.3961L33.8742 57.1531Z" fill="white"/>
<path d="M38.3972 34.6855L38.8752 36.1564H40.4196L39.1694 37.0757L39.6474 38.5099L38.3972 37.6273L37.1469 38.5099L37.625 37.0757L36.3747 36.1564H37.9191L38.3972 34.6855Z" fill="white"/>
<path d="M38.3972 41.1575L38.8752 42.6284H40.4196L39.1694 43.5109L39.6474 44.9818L38.3972 44.0992L37.1469 44.9818L37.625 43.5109L36.3747 42.6284H37.9191L38.3972 41.1575Z" fill="white"/>
<path d="M38.3972 47.6294L38.8752 49.1003H40.4196L39.1694 49.9828L39.6474 51.4537L38.3972 50.5712L37.1469 51.4537L37.625 49.9828L36.3747 49.1003H37.9191L38.3972 47.6294Z" fill="white"/>
<path d="M38.3972 54.1013L38.8752 55.5722H40.4196L39.1694 56.4547L39.6474 57.9256L38.3972 57.0063L37.1469 57.9256L37.625 56.4547L36.3747 55.5722H37.9191L38.3972 54.1013Z" fill="white"/>
<path d="M42.957 31.2656L43.435 32.7365H44.9794L43.7292 33.6558L44.2072 35.1267L42.957 34.2074L41.7435 35.1267L42.1847 33.6558L40.9713 32.7365H42.4789L42.957 31.2656Z" fill="white"/>
<path d="M42.957 37.7373L43.435 39.2082H44.9794L43.7292 40.1275L44.2072 41.5984L42.957 40.6791L41.7435 41.5984L42.1847 40.1275L40.9713 39.2082H42.4789L42.957 37.7373Z" fill="white"/>
<path d="M42.957 44.2092L43.435 45.6801H44.9794L43.7292 46.5994L44.2072 48.0703L42.957 47.151L41.7435 48.0703L42.1847 46.5994L40.9713 45.6801H42.4789L42.957 44.2092Z" fill="white"/>
<path d="M42.957 50.6812L43.435 52.152H44.9794L43.7292 53.0713L44.2072 54.5055L42.957 53.6229L41.7435 54.5055L42.1847 53.0713L40.9713 52.152H42.4789L42.957 50.6812Z" fill="white"/>
<path d="M42.957 57.1531L43.435 58.624H44.9794L43.7292 59.5433L44.2072 60.9774L42.957 60.0949L41.7435 60.9774L42.1847 59.5433L40.9713 58.624H42.4789L42.957 57.1531Z" fill="white"/>
<path d="M47.4799 34.6855L47.958 36.1564H49.5024L48.2521 37.0757L48.6934 38.5099L47.4799 37.6273L46.2297 38.5099L46.7077 37.0757L45.4575 36.1564H47.0019L47.4799 34.6855Z" fill="white"/>
<path d="M47.4799 41.1575L47.958 42.6284H49.5024L48.2521 43.5109L48.6934 44.9818L47.4799 44.0992L46.2297 44.9818L46.7077 43.5109L45.4575 42.6284H47.0019L47.4799 41.1575Z" fill="white"/>
<path d="M47.4799 47.6294L47.958 49.1003H49.5024L48.2521 49.9828L48.6934 51.4537L47.4799 50.5712L46.2297 51.4537L46.7077 49.9828L45.4575 49.1003H47.0019L47.4799 47.6294Z" fill="white"/>
<path d="M47.4799 54.1013L47.958 55.5722H49.5024L48.2521 56.4547L48.6934 57.9256L47.4799 57.0063L46.2297 57.9256L46.7077 56.4547L45.4575 55.5722H47.0019L47.4799 54.1013Z" fill="white"/>
<path d="M52.0397 31.2656L52.5178 32.7365H54.0622L52.812 33.6558L53.29 35.1267L52.0397 34.2074L50.7895 35.1267L51.2675 33.6558L50.0173 32.7365H51.5617L52.0397 31.2656Z" fill="white"/>
<path d="M52.0397 37.7373L52.5178 39.2082H54.0622L52.812 40.1275L53.29 41.5984L52.0397 40.6791L50.7895 41.5984L51.2675 40.1275L50.0173 39.2082H51.5617L52.0397 37.7373Z" fill="white"/>
<path d="M52.0397 44.2092L52.5178 45.6801H54.0622L52.812 46.5994L53.29 48.0703L52.0397 47.151L50.7895 48.0703L51.2675 46.5994L50.0173 45.6801H51.5617L52.0397 44.2092Z" fill="white"/>
<path d="M52.0397 50.6812L52.5178 52.152H54.0622L52.812 53.0713L53.29 54.5055L52.0397 53.6229L50.7895 54.5055L51.2675 53.0713L50.0173 52.152H51.5617L52.0397 50.6812Z" fill="white"/>
<path d="M52.0397 57.1531L52.5178 58.624H54.0622L52.812 59.5433L53.29 60.9774L52.0397 60.0949L50.7895 60.9774L51.2675 59.5433L50.0173 58.624H51.5617L52.0397 57.1531Z" fill="white"/>
</g>
</g>
</g>
<rect x="26.5" y="26.5" width="73" height="73" rx="36.5" stroke="#8F99A8"/>
</g>
<defs>
<clipPath id="clip0_449_38337">
<rect width="100" height="100" fill="white"/>
</clipPath>
<clipPath id="clip1_449_38337">
<rect x="1" y="1" width="72" height="72" rx="36" fill="white"/>
</clipPath>
<clipPath id="clip2_449_38337">
<rect width="136.644" height="72" fill="white" transform="translate(-31.2941 1)"/>
</clipPath>
<clipPath id="clip3_449_38337">
<rect x="27" y="27" width="72" height="72" rx="36" fill="white"/>
</clipPath>
<clipPath id="clip4_449_38337">
<rect width="123.408" height="72" fill="white" transform="translate(1.5882 27)"/>
</clipPath>
</defs>
</svg>
