<svg width="100" height="100" viewBox="0 0 100 100" fill="none" xmlns="http://www.w3.org/2000/svg">
<g clip-path="url(#clip0_449_38372)">
<g clip-path="url(#clip1_449_38372)">
<g clip-path="url(#clip2_449_38372)">
<path d="M105.314 1.00708H-31.2941V72.8837H105.314V1.00708Z" fill="white"/>
<path d="M105.324 29.7671H45.1737V1.01099H28.7544V29.7671H-31.2371V44.1376H28.7544V72.8821H45.1737V44.1376H105.324V29.7671Z" fill="#C8102E"/>
<path d="M-14.8542 1.00342L-15.2909 1.0233L23.3443 21.4226V1.00342H-14.8542Z" fill="#012169"/>
<path d="M14.56 24.9269L-31.2926 1.00708V6.64502L3.63401 24.9269H14.56Z" fill="#C8102E"/>
<path d="M59.4958 48.9561L105.349 72.8758V67.2379L70.4226 48.9561H59.4958Z" fill="#C8102E"/>
<path d="M-14.8542 73L-15.2909 72.9801L23.3443 52.5808V73H-14.8542Z" fill="#012169"/>
<path d="M14.3258 48.9548L-31.2625 72.8636L-20.6008 72.8739L23.3883 49.9272V48.9548H14.3258Z" fill="#C8102E"/>
<path d="M88.9115 1L89.3482 1.01989L50.713 21.4192V1H88.9115Z" fill="#012169"/>
<path d="M105.306 1.03364L95.0507 1.03296L50.752 24.1415V24.952H60.1241L105.306 1.03364Z" fill="#C8102E"/>
<path d="M88.9115 72.9937L89.3482 72.9738L50.713 52.5745V72.9937H88.9115Z" fill="#012169"/>
</g>
</g>
<rect x="0.5" y="0.5" width="73" height="73" rx="36.5" stroke="#8F99A8"/>
<g clip-path="url(#clip3_449_38372)">
<g clip-path="url(#clip4_449_38372)">
<path d="M132.408 27H9V99H132.408V27Z" fill="#DE3831"/>
<rect x="-25.5601" y="6.84009" width="177.12" height="56.16" fill="#002395"/>
<mask id="path-17-inside-1_449_38372" fill="white">
<path fill-rule="evenodd" clip-rule="evenodd" d="M-25.5601 135V-10.4399L67.6421 51.48H164.52V74.52H67.8704L-25.5601 135Z"/>
</mask>
<path fill-rule="evenodd" clip-rule="evenodd" d="M-25.5601 135V-10.4399L67.6421 51.48H164.52V74.52H67.8704L-25.5601 135Z" fill="#007A4D"/>
<path d="M-25.5601 -10.4399L-23.1695 -14.0382L-29.8801 -18.4965V-10.4399H-25.5601ZM-25.5601 135H-29.8801V142.943L-23.2125 138.627L-25.5601 135ZM67.6421 51.48L65.2515 55.0783L66.3379 55.8H67.6421V51.48ZM164.52 51.48H168.84V47.16H164.52V51.48ZM164.52 74.52V78.84H168.84V74.52H164.52ZM67.8704 74.52V70.2H66.5942L65.5229 70.8935L67.8704 74.52ZM-29.8801 -10.4399V135H-21.2401V-10.4399H-29.8801ZM70.0327 47.8817L-23.1695 -14.0382L-27.9506 -6.84166L65.2515 55.0783L70.0327 47.8817ZM164.52 47.16H67.6421V55.8H164.52V47.16ZM168.84 74.52V51.48H160.2V74.52H168.84ZM67.8704 78.84H164.52V70.2H67.8704V78.84ZM-23.2125 138.627L70.218 78.1465L65.5229 70.8935L-27.9076 131.374L-23.2125 138.627Z" fill="white" mask="url(#path-17-inside-1_449_38372)"/>
<path d="M9 34.9199V90.3599L50.76 62.9999L9 34.9199Z" fill="#FFB612"/>
<path d="M0.359985 35.6399V90.3599L42.12 63.3552L0.359985 35.6399Z" fill="black"/>
</g>
</g>
<rect x="26.5" y="26.5" width="73" height="73" rx="36.5" stroke="#8F99A8"/>
</g>
<defs>
<clipPath id="clip0_449_38372">
<rect width="100" height="100" fill="white"/>
</clipPath>
<clipPath id="clip1_449_38372">
<rect x="1" y="1" width="72" height="72" rx="36" fill="white"/>
</clipPath>
<clipPath id="clip2_449_38372">
<rect width="136.644" height="72" fill="white" transform="translate(-31.2941 1)"/>
</clipPath>
<clipPath id="clip3_449_38372">
<rect x="27" y="27" width="72" height="72" rx="36" fill="white"/>
</clipPath>
<clipPath id="clip4_449_38372">
<rect width="123.408" height="72" fill="white" transform="translate(9 27)"/>
</clipPath>
</defs>
</svg>
