<svg width="100" height="100" viewBox="0 0 100 100" fill="none" xmlns="http://www.w3.org/2000/svg">
<g clip-path="url(#clip0_449_38553)">
<g clip-path="url(#clip1_449_38553)">
<rect x="1" y="1" width="88" height="88" rx="44" fill="#1836AC"/>
<g clip-path="url(#clip2_449_38553)">
<mask id="mask0_449_38553" style="mask-type:luminance" maskUnits="userSpaceOnUse" x="-27" y="1" width="152" height="88">
<path d="M124.593 1H-26.2381V89H124.593V1Z" fill="white"/>
</mask>
<g mask="url(#mask0_449_38553)">
<path d="M124.593 1H-26.2381V30.3034H124.593V1Z" fill="black"/>
<path d="M124.593 30.3035H-26.2381V59.6518H124.593V30.3035Z" fill="#E1001F"/>
<path d="M124.593 59.6514H-26.2381V88.9997H124.593V59.6514Z" fill="#F6D928"/>
</g>
</g>
</g>
<rect x="0.5" y="0.5" width="89" height="89" rx="44.5" stroke="#8F99A8"/>
<rect x="52.5" y="52.5" width="47" height="47" rx="23.5" fill="#1836AC"/>
<rect x="52.5" y="52.5" width="47" height="47" rx="23.5" stroke="#8F99A8"/>
<path d="M76.2342 80.9112H74.1635V84.4761H70.6104V80.9112H63.2689V78.3817L70.8104 67.2753H74.1635V78.0875H76.2342V80.9112ZM70.6104 78.0875V75.1698C70.6104 74.8952 70.6143 74.5697 70.6222 74.1932C70.6379 73.8168 70.6536 73.4403 70.6692 73.0638C70.6849 72.6873 70.7006 72.3539 70.7163 72.0637C70.7398 71.7657 70.7555 71.5578 70.7634 71.4402H70.6692C70.5202 71.7618 70.3633 72.0755 70.1986 72.3814C70.0339 72.6794 69.8418 72.9932 69.6221 73.3226L66.469 78.0875H70.6104ZM89.5407 75.8757C89.5407 77.264 89.4309 78.5032 89.2113 79.5935C88.9995 80.6837 88.6544 81.6093 88.1759 82.3701C87.7053 83.1309 87.0857 83.7113 86.317 84.1114C85.5484 84.5114 84.615 84.7114 83.5169 84.7114C82.1364 84.7114 81.0031 84.3623 80.1167 83.6643C79.2304 82.9584 78.5755 81.9465 78.1519 80.6288C77.7284 79.3033 77.5166 77.7189 77.5166 75.8757C77.5166 74.0168 77.7088 72.4285 78.0931 71.1107C78.4853 69.7852 79.1206 68.7695 79.9991 68.0635C80.8776 67.3576 82.0502 67.0047 83.5169 67.0047C84.8895 67.0047 86.019 67.3576 86.9053 68.0635C87.7995 68.7616 88.4622 69.7734 88.8936 71.099C89.325 72.4167 89.5407 74.0089 89.5407 75.8757ZM81.1286 75.8757C81.1286 77.1855 81.1991 78.2797 81.3403 79.1582C81.4894 80.0288 81.7364 80.6837 82.0815 81.123C82.4267 81.5622 82.9051 81.7818 83.5169 81.7818C84.1209 81.7818 84.5954 81.5661 84.9405 81.1347C85.2935 80.6955 85.5444 80.0406 85.6935 79.1699C85.8425 78.2915 85.917 77.1934 85.917 75.8757C85.917 74.5658 85.8425 73.4716 85.6935 72.5932C85.5444 71.7147 85.2935 71.0558 84.9405 70.6166C84.5954 70.1695 84.1209 69.946 83.5169 69.946C82.9051 69.946 82.4267 70.1695 82.0815 70.6166C81.7364 71.0558 81.4894 71.7147 81.3403 72.5932C81.1991 73.4716 81.1286 74.5658 81.1286 75.8757Z" fill="white"/>
</g>
<defs>
<clipPath id="clip0_449_38553">
<rect width="100" height="100" fill="white"/>
</clipPath>
<clipPath id="clip1_449_38553">
<rect x="1" y="1" width="88" height="88" rx="44" fill="white"/>
</clipPath>
<clipPath id="clip2_449_38553">
<rect width="150.831" height="88" fill="white" transform="translate(-26.2381 1)"/>
</clipPath>
</defs>
</svg>
