<svg width="100" height="100" viewBox="0 0 100 100" fill="none" xmlns="http://www.w3.org/2000/svg">
<g clip-path="url(#clip0_449_38553)">
<g clip-path="url(#clip1_449_38553)">
<rect x="1" y="1" width="88" height="88" rx="44" fill="#1836AC"/>
<g clip-path="url(#clip2_449_38553)">
<mask id="mask0_449_38553" style="mask-type:luminance" maskUnits="userSpaceOnUse" x="-27" y="1" width="152" height="88">
<path d="M124.593 1H-26.2381V89H124.593V1Z" fill="white"/>
</mask>
<g mask="url(#mask0_449_38553)">
<path d="M124.593 1H-26.2381V30.3034H124.593V1Z" fill="black"/>
<path d="M124.593 30.3035H-26.2381V59.6518H124.593V30.3035Z" fill="#E1001F"/>
<path d="M124.593 59.6514H-26.2381V88.9997H124.593V59.6514Z" fill="#F6D928"/>
</g>
</g>
</g>
<rect x="0.5" y="0.5" width="89" height="89" rx="44.5" stroke="#8F99A8"/>
<rect x="52.5" y="52.5" width="47" height="47" rx="23.5" fill="#1836AC"/>
<rect x="52.5" y="52.5" width="47" height="47" rx="23.5" stroke="#8F99A8"/>
<path d="M75.1753 71.1225C75.1753 71.9147 75.0106 72.601 74.6812 73.1814C74.3518 73.7619 73.9047 74.2364 73.34 74.605C72.7831 74.9737 72.1556 75.2443 71.4575 75.4168V75.4874C72.838 75.66 73.8851 76.0835 74.5988 76.7581C75.3204 77.4326 75.6812 78.3346 75.6812 79.4641C75.6812 80.468 75.4342 81.3661 74.94 82.1583C74.4537 82.9505 73.7008 83.5741 72.6811 84.029C71.6614 84.4839 70.3477 84.7114 68.7397 84.7114C67.7907 84.7114 66.9044 84.6329 66.0808 84.4761C65.2651 84.327 64.4964 84.0957 63.7748 83.7819V80.6877C64.5121 81.0642 65.2847 81.3504 66.0926 81.5465C66.9004 81.7348 67.6534 81.8289 68.3515 81.8289C69.6535 81.8289 70.5634 81.6054 71.081 81.1583C71.6065 80.7033 71.8693 80.068 71.8693 79.2523C71.8693 78.7738 71.7477 78.3699 71.5046 78.0405C71.2614 77.7111 70.8379 77.4601 70.2339 77.2875C69.6378 77.1149 68.8025 77.0287 67.7279 77.0287H66.422V74.2403H67.7515C68.8103 74.2403 69.6143 74.1423 70.1633 73.9462C70.7202 73.7422 71.0967 73.4677 71.2928 73.1226C71.4967 72.7696 71.5987 72.3696 71.5987 71.9225C71.5987 71.3108 71.4105 70.8323 71.034 70.4872C70.6575 70.1421 70.03 69.9695 69.1515 69.9695C68.6025 69.9695 68.1005 70.0401 67.6456 70.1813C67.1985 70.3146 66.7946 70.4793 66.4338 70.6754C66.073 70.8637 65.7553 71.048 65.4808 71.2284L63.7983 68.7224C64.4729 68.2361 65.2612 67.8322 66.1632 67.5106C67.073 67.189 68.1554 67.0282 69.4104 67.0282C71.183 67.0282 72.587 67.3851 73.6223 68.0988C74.6577 68.8126 75.1753 69.8205 75.1753 71.1225ZM89.5407 75.8757C89.5407 77.264 89.4309 78.5032 89.2113 79.5935C88.9995 80.6837 88.6544 81.6093 88.1759 82.3701C87.7053 83.1309 87.0857 83.7113 86.317 84.1114C85.5484 84.5114 84.615 84.7114 83.5169 84.7114C82.1364 84.7114 81.0031 84.3623 80.1167 83.6643C79.2304 82.9584 78.5755 81.9465 78.1519 80.6288C77.7284 79.3033 77.5166 77.7189 77.5166 75.8757C77.5166 74.0168 77.7088 72.4285 78.0931 71.1107C78.4853 69.7852 79.1206 68.7695 79.9991 68.0635C80.8776 67.3576 82.0502 67.0047 83.5169 67.0047C84.8895 67.0047 86.019 67.3576 86.9053 68.0635C87.7995 68.7616 88.4622 69.7734 88.8936 71.099C89.325 72.4167 89.5407 74.0089 89.5407 75.8757ZM81.1286 75.8757C81.1286 77.1855 81.1991 78.2797 81.3403 79.1582C81.4894 80.0288 81.7364 80.6837 82.0815 81.123C82.4267 81.5622 82.9051 81.7818 83.5169 81.7818C84.1209 81.7818 84.5954 81.5661 84.9405 81.1347C85.2935 80.6955 85.5444 80.0406 85.6935 79.1699C85.8425 78.2915 85.917 77.1934 85.917 75.8757C85.917 74.5658 85.8425 73.4716 85.6935 72.5932C85.5444 71.7147 85.2935 71.0558 84.9405 70.6166C84.5954 70.1695 84.1209 69.946 83.5169 69.946C82.9051 69.946 82.4267 70.1695 82.0815 70.6166C81.7364 71.0558 81.4894 71.7147 81.3403 72.5932C81.1991 73.4716 81.1286 74.5658 81.1286 75.8757Z" fill="white"/>
</g>
<defs>
<clipPath id="clip0_449_38553">
<rect width="100" height="100" fill="white"/>
</clipPath>
<clipPath id="clip1_449_38553">
<rect x="1" y="1" width="88" height="88" rx="44" fill="white"/>
</clipPath>
<clipPath id="clip2_449_38553">
<rect width="150.831" height="88" fill="white" transform="translate(-26.2381 1)"/>
</clipPath>
</defs>
</svg>
