<svg width="100" height="100" viewBox="0 0 100 100" fill="none" xmlns="http://www.w3.org/2000/svg">
<g clip-path="url(#clip0_449_38573)">
<g clip-path="url(#clip1_449_38573)">
<rect x="1" y="1" width="88" height="88" rx="44" fill="#1836AC"/>
<rect width="142.612" height="88" transform="translate(-26.238 1)" fill="#EE1C25"/>
<path d="M33.6019 24.7601C35.7139 12.7921 47.3886 10.3868 52.9619 10.6801C49.4419 12.7922 50.3219 17.4268 51.202 19.4801C52.3753 22.1201 53.138 28.2801 46.802 31.8001C40.466 35.3201 42.4019 42.0668 44.1619 45.0001C39.7619 43.2401 31.4899 36.7281 33.6019 24.7601Z" fill="white"/>
<path d="M62.0329 27.8771C74.1382 26.802 79.4987 37.4485 80.6658 42.9062C77.7106 40.057 73.4646 42.1128 71.711 43.4968C69.4673 45.3167 63.718 47.6561 58.6705 42.4544C53.623 37.2526 47.6125 40.8776 45.2383 43.3403C45.7926 38.6339 49.9277 28.9523 62.0329 27.8771Z" fill="white"/>
<path d="M66.5075 54.3718C71.9836 65.221 64.0746 74.1391 59.4356 77.242C60.9897 73.4425 57.5093 70.2579 55.5749 69.1406C53.0542 67.7291 48.7543 63.2527 51.7203 56.6392C54.6863 50.0257 49.0955 45.7822 45.9293 44.4871C50.507 43.2615 61.0314 43.5225 66.5075 54.3718Z" fill="white"/>
<path d="M42.0757 68.7008C33.1403 76.9381 22.3976 71.773 18.1432 68.1608C22.223 68.6152 24.3329 64.396 24.8779 62.2295C25.5454 59.4187 28.6734 54.0575 35.8463 55.0994C43.0191 56.1414 45.5698 49.6023 45.9485 46.2025C48.3806 50.2697 51.011 60.4635 42.0757 68.7008Z" fill="white"/>
<path d="M21.4637 49.4648C10.9216 43.4185 12.6189 31.6201 14.7854 26.4766C15.5782 30.5044 20.2365 31.2486 22.4666 31.1172C25.3481 30.9089 31.4016 32.281 32.5638 39.4353C33.7259 46.5897 40.7293 47.0569 44.0857 46.3963C40.9376 49.9384 32.0058 55.5111 21.4637 49.4648Z" fill="white"/>
<path d="M22.8078 37.3948L24.2923 39.1538L26.424 38.2855L25.2098 40.2409L26.6943 41.9999L24.4594 41.4494L23.2452 43.4048L23.0782 41.1092L20.8433 40.5587L22.9749 39.6904L22.8078 37.3948Z" fill="#EE1C25"/>
<path d="M32.664 60.5249L34.1485 62.2839L36.2802 61.4156L35.066 63.371L36.5505 65.13L34.3156 64.5795L33.1014 66.5349L32.9344 64.2393L30.6995 63.6888L32.8311 62.8205L32.664 60.5249Z" fill="#EE1C25"/>
<path d="M41.8159 20.925L43.3004 22.684L45.432 21.8158L44.2178 23.7712L45.7023 25.5302L43.4674 24.9797L42.2533 26.935L42.0862 24.6394L39.8513 24.0889L41.983 23.2207L41.8159 20.925Z" fill="#EE1C25"/>
<path d="M63.8159 33.8748L65.3004 35.6338L67.432 34.7655L66.2178 36.7209L67.7023 38.4799L65.4674 37.9294L64.2533 39.8848L64.0862 37.5891L61.8513 37.0386L63.983 36.1704L63.8159 33.8748Z" fill="#EE1C25"/>
<path d="M58.5359 58.061L60.0204 59.82L62.152 58.9518L60.9378 60.9071L62.4223 62.6661L60.1874 62.1156L58.9732 64.071L58.8062 61.7754L56.5713 61.2249L58.7029 60.3566L58.5359 58.061Z" fill="#EE1C25"/>
</g>
<rect x="0.5" y="0.5" width="89" height="89" rx="44.5" stroke="#8F99A8"/>
<rect x="52.5" y="52.5" width="47" height="47" rx="23.5" fill="#1836AC"/>
<rect x="52.5" y="52.5" width="47" height="47" rx="23.5" stroke="#8F99A8"/>
<path d="M70.081 73.4876C71.1321 73.4876 72.0654 73.6876 72.8812 74.0876C73.7047 74.4876 74.3518 75.0759 74.8224 75.8524C75.293 76.6289 75.5284 77.5858 75.5284 78.7231C75.5284 79.9624 75.2695 81.033 74.7518 81.935C74.242 82.8292 73.4773 83.5155 72.4576 83.9939C71.4458 84.4724 70.183 84.7116 68.6692 84.7116C67.7672 84.7116 66.9162 84.6332 66.1162 84.4763C65.324 84.3273 64.6298 84.0959 64.0337 83.7822V80.6408C64.6298 80.9546 65.3436 81.2213 66.175 81.4409C67.0142 81.6527 67.8025 81.7585 68.5398 81.7585C69.2614 81.7585 69.8693 81.6644 70.3634 81.4762C70.8575 81.2801 71.2301 80.982 71.4811 80.582C71.7399 80.1742 71.8694 79.6565 71.8694 79.029C71.8694 78.1898 71.587 77.5466 71.0223 77.0995C70.4575 76.6524 69.5908 76.4289 68.4221 76.4289C67.9751 76.4289 67.5084 76.472 67.0221 76.5583C66.5436 76.6446 66.1436 76.7309 65.822 76.8171L64.3749 76.0406L65.022 67.2755H74.3518V70.358H68.2104L67.8927 73.7346C68.1594 73.6797 68.4496 73.6248 68.7633 73.5699C69.0771 73.515 69.5163 73.4876 70.081 73.4876ZM89.5408 75.8759C89.5408 77.2642 89.431 78.5035 89.2113 79.5937C88.9996 80.684 88.6545 81.6095 88.176 82.3703C87.7054 83.1312 87.0858 83.7116 86.3171 84.1116C85.5484 84.5116 84.6151 84.7116 83.517 84.7116C82.1365 84.7116 81.0031 84.3626 80.1168 83.6645C79.2305 82.9586 78.5756 81.9468 78.152 80.6291C77.7285 79.3035 77.5167 77.7191 77.5167 75.8759C77.5167 74.017 77.7088 72.4287 78.0932 71.111C78.4854 69.7854 79.1207 68.7697 79.9992 68.0638C80.8776 67.3579 82.0502 67.0049 83.517 67.0049C84.8896 67.0049 86.019 67.3579 86.9054 68.0638C87.7995 68.7619 88.4623 69.7737 88.8937 71.0992C89.3251 72.4169 89.5408 74.0092 89.5408 75.8759ZM81.1286 75.8759C81.1286 77.1858 81.1992 78.28 81.3404 79.1584C81.4894 80.0291 81.7365 80.684 82.0816 81.1232C82.4267 81.5625 82.9052 81.7821 83.517 81.7821C84.1209 81.7821 84.5954 81.5664 84.9406 81.135C85.2935 80.6958 85.5445 80.0408 85.6935 79.1702C85.8426 78.2917 85.9171 77.1936 85.9171 75.8759C85.9171 74.5661 85.8426 73.4719 85.6935 72.5934C85.5445 71.7149 85.2935 71.0561 84.9406 70.6169C84.5954 70.1698 84.1209 69.9462 83.517 69.9462C82.9052 69.9462 82.4267 70.1698 82.0816 70.6169C81.7365 71.0561 81.4894 71.7149 81.3404 72.5934C81.1992 73.4719 81.1286 74.5661 81.1286 75.8759Z" fill="white"/>
</g>
<defs>
<clipPath id="clip0_449_38573">
<rect width="100" height="100" fill="white"/>
</clipPath>
<clipPath id="clip1_449_38573">
<rect x="1" y="1" width="88" height="88" rx="44" fill="white"/>
</clipPath>
</defs>
</svg>
