<svg width="100" height="100" viewBox="0 0 100 100" fill="none" xmlns="http://www.w3.org/2000/svg">
<g clip-path="url(#clip0_449_38523)">
<g clip-path="url(#clip1_449_38523)">
<rect x="1" y="1" width="88" height="88" rx="44" fill="#1836AC"/>
<g clip-path="url(#clip2_449_38523)">
<mask id="mask0_449_38523" style="mask-type:luminance" maskUnits="userSpaceOnUse" x="-31" y="1" width="152" height="88">
<path d="M120.403 1H-30.4286V89H120.403V1Z" fill="white"/>
</mask>
<g mask="url(#mask0_449_38523)">
<path d="M19.8635 1H-30.4286V89H19.8635V1Z" fill="#009246"/>
<path d="M70.1557 1H19.8635V89H70.1557V1Z" fill="#F1F2F1"/>
<path d="M120.403 1H70.1107V89H120.403V1Z" fill="#CE2B37"/>
</g>
</g>
</g>
<rect x="0.5" y="0.5" width="89" height="89" rx="44.5" stroke="#8F99A8"/>
<rect x="52.5" y="52.5" width="47" height="47" rx="23.5" fill="#1836AC"/>
<rect x="52.5" y="52.5" width="47" height="47" rx="23.5" stroke="#8F99A8"/>
<path d="M75.139 80.9112H73.0683V84.4761H69.5152V80.9112H62.1737V78.3817L69.7152 67.2753H73.0683V78.0875H75.139V80.9112ZM69.5152 78.0875V75.1698C69.5152 74.8952 69.5191 74.5697 69.527 74.1932C69.5427 73.8168 69.5583 73.4403 69.574 73.0638C69.5897 72.6873 69.6054 72.3539 69.6211 72.0637C69.6446 71.7657 69.6603 71.5578 69.6682 71.4402H69.574C69.425 71.7618 69.2681 72.0755 69.1034 72.3814C68.9387 72.6794 68.7465 72.9932 68.5269 73.3226L65.3738 78.0875H69.5152ZM88.4455 75.8757C88.4455 77.264 88.3357 78.5032 88.1161 79.5935C87.9043 80.6837 87.5592 81.6093 87.0807 82.3701C86.6101 83.1309 85.9905 83.7113 85.2218 84.1114C84.4532 84.5114 83.5198 84.7114 82.4217 84.7114C81.0412 84.7114 79.9078 84.3623 79.0215 83.6643C78.1352 82.9584 77.4803 81.9465 77.0567 80.6288C76.6332 79.3033 76.4214 77.7189 76.4214 75.8757C76.4214 74.0168 76.6136 72.4285 76.9979 71.1107C77.3901 69.7852 78.0254 68.7695 78.9039 68.0635C79.7824 67.3576 80.955 67.0047 82.4217 67.0047C83.7943 67.0047 84.9238 67.3576 85.8101 68.0635C86.7042 68.7616 87.367 69.7734 87.7984 71.099C88.2298 72.4167 88.4455 74.0089 88.4455 75.8757ZM80.0333 75.8757C80.0333 77.1855 80.1039 78.2797 80.2451 79.1582C80.3941 80.0288 80.6412 80.6837 80.9863 81.123C81.3314 81.5622 81.8099 81.7818 82.4217 81.7818C83.0256 81.7818 83.5002 81.5661 83.8453 81.1347C84.1982 80.6955 84.4492 80.0406 84.5983 79.1699C84.7473 78.2915 84.8218 77.1934 84.8218 75.8757C84.8218 74.5658 84.7473 73.4716 84.5983 72.5932C84.4492 71.7147 84.1982 71.0558 83.8453 70.6166C83.5002 70.1695 83.0256 69.946 82.4217 69.946C81.8099 69.946 81.3314 70.1695 80.9863 70.6166C80.6412 71.0558 80.3941 71.7147 80.2451 72.5932C80.1039 73.4716 80.0333 74.5658 80.0333 75.8757Z" fill="white"/>
</g>
<defs>
<clipPath id="clip0_449_38523">
<rect width="100" height="100" fill="white"/>
</clipPath>
<clipPath id="clip1_449_38523">
<rect x="1" y="1" width="88" height="88" rx="44" fill="white"/>
</clipPath>
<clipPath id="clip2_449_38523">
<rect width="150.831" height="88" fill="white" transform="translate(-30.4286 1)"/>
</clipPath>
</defs>
</svg>
