<svg width="100" height="100" viewBox="0 0 100 100" fill="none" xmlns="http://www.w3.org/2000/svg">
<g clip-path="url(#clip0_460_38267)">
<g clip-path="url(#clip1_460_38267)">
<rect x="1" y="1" width="88" height="88" rx="44" fill="#1836AC"/>
<g clip-path="url(#clip2_460_38267)">
<mask id="mask0_460_38267" style="mask-type:luminance" maskUnits="userSpaceOnUse" x="-30" y="1" width="151" height="88">
<path d="M120.831 1H-30V89H120.831V1Z" fill="white"/>
</mask>
<g mask="url(#mask0_460_38267)">
<path d="M120.831 1H-30V89H120.831V1Z" fill="white"/>
<mask id="mask1_460_38267" style="mask-type:luminance" maskUnits="userSpaceOnUse" x="-30" y="1" width="151" height="88">
<path d="M120.831 1H-30V89H120.831V1Z" fill="white"/>
</mask>
<g mask="url(#mask1_460_38267)">
<path d="M45.4157 18.6182C59.9775 18.6182 71.7978 30.4384 71.7978 45.0002C71.7978 59.562 59.9775 71.4272 45.4157 71.4272C30.8539 71.4272 18.9888 59.562 18.9888 45.0002C18.9888 30.4384 30.809 18.6182 45.4157 18.6182Z" fill="#AD0018"/>
</g>
</g>
</g>
</g>
<rect x="0.5" y="0.5" width="89" height="89" rx="44.5" stroke="#8F99A8"/>
<rect x="52.5" y="52.5" width="47" height="47" rx="23.5" fill="#1836AC"/>
<rect x="52.5" y="52.5" width="47" height="47" rx="23.5" stroke="#8F99A8"/>
<path d="M69.0841 84.4761H57.06V81.9465L61.3778 77.5816C62.2485 76.6875 62.9465 75.9423 63.4721 75.3462C64.0054 74.7423 64.3897 74.1932 64.6251 73.6991C64.8682 73.205 64.9898 72.6755 64.9898 72.1108C64.9898 71.4284 64.7976 70.9186 64.4133 70.5813C64.0368 70.2362 63.5309 70.0636 62.8956 70.0636C62.2289 70.0636 61.5818 70.2166 60.9543 70.5225C60.3268 70.8284 59.6719 71.2637 58.9895 71.8284L57.0129 69.4871C57.5071 69.0636 58.0287 68.6636 58.5777 68.2871C59.1346 67.9106 59.7778 67.6086 60.5072 67.3812C61.2445 67.1459 62.1269 67.0282 63.1544 67.0282C64.2839 67.0282 65.2525 67.2321 66.0604 67.64C66.8761 68.0479 67.5036 68.6047 67.9429 69.3107C68.3821 70.0087 68.6017 70.8009 68.6017 71.6872C68.6017 72.6363 68.4135 73.503 68.037 74.2874C67.6605 75.0717 67.1114 75.8482 66.3898 76.6169C65.6761 77.3855 64.8133 78.2366 63.8015 79.1699L61.5896 81.2524V81.4171H69.0841V84.4761ZM82.873 84.4761H70.8489V81.9465L75.1667 77.5816C76.0373 76.6875 76.7354 75.9423 77.2609 75.3462C77.7943 74.7423 78.1786 74.1932 78.4139 73.6991C78.6571 73.205 78.7787 72.6755 78.7787 72.1108C78.7787 71.4284 78.5865 70.9186 78.2022 70.5813C77.8257 70.2362 77.3198 70.0636 76.6844 70.0636C76.0177 70.0636 75.3707 70.2166 74.7432 70.5225C74.1157 70.8284 73.4608 71.2637 72.7784 71.8284L70.8018 69.4871C71.296 69.0636 71.8175 68.6636 72.3666 68.2871C72.9235 67.9106 73.5666 67.6086 74.2961 67.3812C75.0334 67.1459 75.9158 67.0282 76.9433 67.0282C78.0727 67.0282 79.0414 67.2321 79.8493 67.64C80.665 68.0479 81.2925 68.6047 81.7317 69.3107C82.171 70.0087 82.3906 70.8009 82.3906 71.6872C82.3906 72.6363 82.2023 73.503 81.8259 74.2874C81.4494 75.0717 80.9003 75.8482 80.1787 76.6169C79.465 77.3855 78.6022 78.2366 77.5904 79.1699L75.3785 81.2524V81.4171H82.873V84.4761ZM90.8969 73.4873C91.9479 73.4873 92.8813 73.6873 93.697 74.0874C94.5206 74.4874 95.1677 75.0756 95.6383 75.8521C96.1089 76.6287 96.3442 77.5856 96.3442 78.7229C96.3442 79.9621 96.0853 81.0328 95.5677 81.9348C95.0578 82.8289 94.2931 83.5152 93.2734 83.9937C92.2616 84.4722 90.9988 84.7114 89.485 84.7114C88.583 84.7114 87.732 84.6329 86.932 84.4761C86.1398 84.327 85.4456 84.0957 84.8495 83.7819V80.6406C85.4456 80.9543 86.1594 81.221 86.9908 81.4406C87.8301 81.6524 88.6183 81.7583 89.3556 81.7583C90.0772 81.7583 90.6851 81.6642 91.1792 81.4759C91.6734 81.2798 92.0459 80.9818 92.2969 80.5818C92.5558 80.1739 92.6852 79.6562 92.6852 79.0288C92.6852 78.1895 92.4028 77.5463 91.8381 77.0993C91.2734 76.6522 90.4066 76.4286 89.238 76.4286C88.7909 76.4286 88.3242 76.4718 87.8379 76.5581C87.3594 76.6443 86.9594 76.7306 86.6378 76.8169L85.1907 76.0404L85.8378 67.2753H95.1677V70.3578H89.0262L88.7085 73.7344C88.9752 73.6795 89.2654 73.6246 89.5792 73.5697C89.8929 73.5148 90.3321 73.4873 90.8969 73.4873Z" fill="white"/>
</g>
<defs>
<clipPath id="clip0_460_38267">
<rect width="100" height="100" fill="white"/>
</clipPath>
<clipPath id="clip1_460_38267">
<rect x="1" y="1" width="88" height="88" rx="44" fill="white"/>
</clipPath>
<clipPath id="clip2_460_38267">
<rect width="150.831" height="88" fill="white" transform="translate(-30 1)"/>
</clipPath>
</defs>
</svg>
