<svg width="100" height="100" viewBox="0 0 100 100" fill="none" xmlns="http://www.w3.org/2000/svg">
<g clip-path="url(#clip0_449_38578)">
<g clip-path="url(#clip1_449_38578)">
<rect x="1" y="1" width="88" height="88" rx="44" fill="#2A43B6"/>
<rect width="88.2464" height="88.2464" transform="translate(0.753479 0.753418)" fill="#DADBE1"/>
<path d="M32.7213 33.6824C31.9496 36.1712 32.2665 41.6962 33.9499 43.8757C33.9499 43.8757 33.1574 38.2508 40.2616 31.1935C43.122 28.3526 44.4545 25.5902 43.4557 22.6921C42.8883 21.0503 41.4854 20.4505 40.8602 18.799C40.2616 17.2175 44.7535 17.5011 48.6467 18.7987C52.5399 20.0966 56.3448 23.4138 57.7309 27.883C58.7576 31.1935 58.4136 36.2069 58.0019 38.265C57.5903 40.3231 55.6055 50.5904 59.0286 51.2424C61.4717 51.7088 62.5036 47.6716 63.0037 43.6107C63.0037 40.5651 63.6233 41.4047 64.1108 41.9674C68.2373 46.731 68.589 52.3416 67.7356 57.1717C66.085 66.5085 56.7675 73.304 47.5111 73.304C35.9475 73.304 26.7426 66.5894 24.3558 54.4354C23.3945 49.5291 23.8822 39.8212 31.338 32.9686C33.8583 30.2692 33.493 31.1935 32.7213 33.6824Z" fill="white" stroke="#C5C6CD" stroke-width="2.59548"/>
</g>
<rect x="0.5" y="0.5" width="89" height="89" rx="44.5" stroke="#8F99A8"/>
<g clip-path="url(#clip2_449_38578)">
<rect x="53" y="53" width="46" height="46" rx="23" fill="#2A43B6"/>
<g clip-path="url(#clip3_449_38578)">
<mask id="mask0_449_38578" style="mask-type:luminance" maskUnits="userSpaceOnUse" x="36" y="53" width="81" height="47">
<path d="M116.08 53.0002H36.2279V99.5886H116.08V53.0002Z" fill="white"/>
</mask>
<g mask="url(#mask0_449_38578)">
<path d="M116.08 95.9958H36.2279V99.5887H116.08V95.9958Z" fill="#CB001C"/>
<path d="M116.08 92.4265H36.2279V96.0194H116.08V92.4265Z" fill="white"/>
<path d="M116.08 88.8337H36.2279V92.4028H116.08V88.8337Z" fill="#CB001C"/>
<path d="M116.08 85.2646H36.2279V88.8575H116.08V85.2646Z" fill="white"/>
<path d="M116.08 81.6719H36.2279V85.2648H116.08V81.6719Z" fill="#CB001C"/>
<path d="M116.08 78.0791H36.2279V81.6482H116.08V78.0791Z" fill="white"/>
<path d="M116.08 74.5098H36.2279V78.1026H116.08V74.5098Z" fill="#CB001C"/>
<path d="M116.08 70.917H36.2279V74.4861H116.08V70.917Z" fill="white"/>
<path d="M116.08 67.3479H36.2279V70.9408H116.08V67.3479Z" fill="#CB001C"/>
<path d="M116.08 63.7551H36.2279V67.348H116.08V63.7551Z" fill="white"/>
<path d="M116.08 60.1624H36.2279V63.7552H116.08V60.1624Z" fill="#CB001C"/>
<path d="M116.08 56.593H36.2279V60.1859H116.08V56.593Z" fill="white"/>
<path d="M116.08 53.0002H36.2279V56.5931H116.08V53.0002Z" fill="#CB001C"/>
<path d="M72.7039 53.0002H36.2279V78.079H72.7039V53.0002Z" fill="#1A2F81"/>
<path d="M54.1923 57.9731L54.4779 58.9249H55.4772L54.6682 59.5197L54.9775 60.4477L54.1923 59.8767L53.3833 60.4477L53.6689 59.5197L52.8837 58.9249H53.8592L54.1923 57.9731Z" fill="white"/>
<path d="M54.1923 62.1609L54.4779 63.1126H55.4772L54.6682 63.6837L54.9775 64.6355L54.1923 64.0644L53.3833 64.6355L53.6689 63.6837L52.8837 63.1126H53.8592L54.1923 62.1609Z" fill="white"/>
<path d="M54.1923 66.3486L54.4779 67.3004H55.4772L54.6682 67.8714L54.9775 68.8232L54.1923 68.2521L53.3833 68.8232L53.6689 67.8714L52.8837 67.3004H53.8592L54.1923 66.3486Z" fill="white"/>
<path d="M54.1923 70.5364L54.4779 71.4881H55.4772L54.6682 72.0592L54.9775 73.0109L54.1923 72.4161L53.3833 73.0109L53.6689 72.0592L52.8837 71.4881H53.8592L54.1923 70.5364Z" fill="white"/>
<path d="M57.1189 55.7603L57.4283 56.712H58.4276L57.6186 57.3069L57.9279 58.2586L57.1189 57.6638L56.3337 58.2586L56.6193 57.3069L55.8341 56.712H56.8096L57.1189 55.7603Z" fill="white"/>
<path d="M57.1189 59.948L57.4283 60.8998H58.4276L57.6186 61.4946L57.9279 62.4464L57.1189 61.8515L56.3337 62.4464L56.6193 61.4946L55.8341 60.8998H56.8096L57.1189 59.948Z" fill="white"/>
<path d="M57.1189 64.1357L57.4283 65.0875H58.4276L57.6186 65.6823L57.9279 66.6341L57.1189 66.0393L56.3337 66.6341L56.6193 65.6823L55.8341 65.0875H56.8096L57.1189 64.1357Z" fill="white"/>
<path d="M57.1189 68.3235L57.4283 69.2752H58.4276L57.6186 69.8701L57.9279 70.798L57.1189 70.227L56.3337 70.798L56.6193 69.8701L55.8341 69.2752H56.8096L57.1189 68.3235Z" fill="white"/>
<path d="M57.1189 72.5112L57.4283 73.463H58.4276L57.6186 74.0578L57.9279 74.9858L57.1189 74.4147L56.3337 74.9858L56.6193 74.0578L55.8341 73.463H56.8096L57.1189 72.5112Z" fill="white"/>
<path d="M60.0456 57.9731L60.3549 58.9249H61.3543L60.5453 59.5197L60.8546 60.4477L60.0456 59.8767L59.2366 60.4477L59.5459 59.5197L58.7369 58.9249H59.7363L60.0456 57.9731Z" fill="white"/>
<path d="M60.0456 62.1609L60.3549 63.1126H61.3543L60.5453 63.6837L60.8546 64.6355L60.0456 64.0644L59.2366 64.6355L59.5459 63.6837L58.7369 63.1126H59.7363L60.0456 62.1609Z" fill="white"/>
<path d="M60.0456 66.3486L60.3549 67.3004H61.3543L60.5453 67.8714L60.8546 68.8232L60.0456 68.2521L59.2366 68.8232L59.5459 67.8714L58.7369 67.3004H59.7363L60.0456 66.3486Z" fill="white"/>
<path d="M60.0456 70.5364L60.3549 71.4881H61.3543L60.5453 72.0592L60.8546 73.0109L60.0456 72.4161L59.2366 73.0109L59.5459 72.0592L58.7369 71.4881H59.7363L60.0456 70.5364Z" fill="white"/>
<path d="M62.9961 55.7603L63.3054 56.712H64.3047L63.4957 57.3069L63.805 58.2586L62.9961 57.6638L62.2109 58.2586L62.4964 57.3069L61.7112 56.712H62.6867L62.9961 55.7603Z" fill="white"/>
<path d="M62.9961 59.948L63.3054 60.8998H64.3047L63.4957 61.4946L63.805 62.4464L62.9961 61.8515L62.2109 62.4464L62.4964 61.4946L61.7112 60.8998H62.6867L62.9961 59.948Z" fill="white"/>
<path d="M62.9961 64.1357L63.3054 65.0875H64.3047L63.4957 65.6823L63.805 66.6341L62.9961 66.0393L62.2109 66.6341L62.4964 65.6823L61.7112 65.0875H62.6867L62.9961 64.1357Z" fill="white"/>
<path d="M62.9961 68.3235L63.3054 69.2752H64.3047L63.4957 69.8701L63.805 70.798L62.9961 70.227L62.2109 70.798L62.4964 69.8701L61.7112 69.2752H62.6867L62.9961 68.3235Z" fill="white"/>
<path d="M62.9961 72.5112L63.3054 73.463H64.3047L63.4957 74.0578L63.805 74.9858L62.9961 74.4147L62.2109 74.9858L62.4964 74.0578L61.7112 73.463H62.6867L62.9961 72.5112Z" fill="white"/>
<path d="M65.9227 57.9731L66.232 58.9249H67.2313L66.4223 59.5197L66.7079 60.4477L65.9227 59.8767L65.1137 60.4477L65.423 59.5197L64.614 58.9249H65.6134L65.9227 57.9731Z" fill="white"/>
<path d="M65.9227 62.1609L66.232 63.1126H67.2313L66.4223 63.6837L66.7079 64.6355L65.9227 64.0644L65.1137 64.6355L65.423 63.6837L64.614 63.1126H65.6134L65.9227 62.1609Z" fill="white"/>
<path d="M65.9227 66.3486L66.232 67.3004H67.2313L66.4223 67.8714L66.7079 68.8232L65.9227 68.2521L65.1137 68.8232L65.423 67.8714L64.614 67.3004H65.6134L65.9227 66.3486Z" fill="white"/>
<path d="M65.9227 70.5364L66.232 71.4881H67.2313L66.4223 72.0592L66.7079 73.0109L65.9227 72.4161L65.1137 73.0109L65.423 72.0592L64.614 71.4881H65.6134L65.9227 70.5364Z" fill="white"/>
<path d="M68.8731 55.7603L69.1824 56.712H70.1818L69.3728 57.3069L69.6821 58.2586L68.8731 57.6638L68.0641 58.2586L68.3734 57.3069L67.5645 56.712H68.5638L68.8731 55.7603Z" fill="white"/>
<path d="M68.8731 59.948L69.1824 60.8998H70.1818L69.3728 61.4946L69.6821 62.4464L68.8731 61.8515L68.0641 62.4464L68.3734 61.4946L67.5645 60.8998H68.5638L68.8731 59.948Z" fill="white"/>
<path d="M68.8731 64.1357L69.1824 65.0875H70.1818L69.3728 65.6823L69.6821 66.6341L68.8731 66.0393L68.0641 66.6341L68.3734 65.6823L67.5645 65.0875H68.5638L68.8731 64.1357Z" fill="white"/>
<path d="M68.8731 68.3235L69.1824 69.2752H70.1818L69.3728 69.8701L69.6821 70.798L68.8731 70.227L68.0641 70.798L68.3734 69.8701L67.5645 69.2752H68.5638L68.8731 68.3235Z" fill="white"/>
<path d="M68.8731 72.5112L69.1824 73.463H70.1818L69.3728 74.0578L69.6821 74.9858L68.8731 74.4147L68.0641 74.9858L68.3734 74.0578L67.5645 73.463H68.5638L68.8731 72.5112Z" fill="white"/>
</g>
</g>
</g>
<rect x="52.5" y="52.5" width="47" height="47" rx="23.5" stroke="#8F99A8"/>
</g>
<defs>
<clipPath id="clip0_449_38578">
<rect width="100" height="100" fill="white"/>
</clipPath>
<clipPath id="clip1_449_38578">
<rect x="1" y="1" width="88" height="88" rx="44" fill="white"/>
</clipPath>
<clipPath id="clip2_449_38578">
<rect x="53" y="53" width="46" height="46" rx="23" fill="white"/>
</clipPath>
<clipPath id="clip3_449_38578">
<rect width="79.8522" height="46.5884" fill="white" transform="translate(36.2279 53.0002)"/>
</clipPath>
</defs>
</svg>
