<svg width="100" height="100" viewBox="0 0 100 100" fill="none" xmlns="http://www.w3.org/2000/svg">
<g clip-path="url(#clip0_449_38538)">
<g clip-path="url(#clip1_449_38538)">
<rect x="1" y="1" width="88" height="88" rx="44" fill="#1836AC"/>
<g clip-path="url(#clip2_449_38538)">
<mask id="mask0_449_38538" style="mask-type:luminance" maskUnits="userSpaceOnUse" x="-20" y="1" width="151" height="88">
<path d="M130.879 1H-19.9524V89H130.879V1Z" fill="white"/>
</mask>
<g mask="url(#mask0_449_38538)">
<path d="M130.879 1H-19.9524V89H130.879V1Z" fill="#314588"/>
<path d="M130.879 1H-19.9524V59.6517H130.879V1Z" fill="white"/>
<path d="M130.879 1H-19.9524V30.3483H130.879V1Z" fill="#9F1330"/>
</g>
</g>
</g>
<rect x="0.5" y="0.5" width="89" height="89" rx="44.5" stroke="#8F99A8"/>
<rect x="52.5" y="52.5" width="47" height="47" rx="23.5" fill="#1836AC"/>
<rect x="52.5" y="52.5" width="47" height="47" rx="23.5" stroke="#8F99A8"/>
<path d="M75.846 84.4761H63.8219V81.9465L68.1397 77.5816C69.0104 76.6875 69.7084 75.9423 70.234 75.3462C70.7673 74.7423 71.1517 74.1932 71.387 73.6991C71.6301 73.205 71.7517 72.6755 71.7517 72.1108C71.7517 71.4284 71.5595 70.9186 71.1752 70.5813C70.7987 70.2362 70.2928 70.0636 69.6575 70.0636C68.9908 70.0636 68.3437 70.2166 67.7162 70.5225C67.0887 70.8284 66.4338 71.2637 65.7514 71.8284L63.7748 69.4871C64.269 69.0636 64.7906 68.6636 65.3396 68.2871C65.8965 67.9106 66.5397 67.6086 67.2691 67.3812C68.0064 67.1459 68.8888 67.0282 69.9163 67.0282C71.0458 67.0282 72.0144 67.2321 72.8223 67.64C73.638 68.0479 74.2655 68.6047 74.7048 69.3107C75.144 70.0087 75.3636 70.8009 75.3636 71.6872C75.3636 72.6363 75.1754 73.503 74.7989 74.2874C74.4224 75.0717 73.8733 75.8482 73.1517 76.6169C72.438 77.3855 71.5752 78.2366 70.5634 79.1699L68.3515 81.2524V81.4171H75.846V84.4761ZM83.8699 73.4873C84.9209 73.4873 85.8543 73.6873 86.67 74.0874C87.4936 74.4874 88.1407 75.0756 88.6113 75.8521C89.0819 76.6287 89.3172 77.5856 89.3172 78.7229C89.3172 79.9621 89.0584 81.0328 88.5407 81.9348C88.0309 82.8289 87.2661 83.5152 86.2465 83.9937C85.2347 84.4722 83.9719 84.7114 82.4581 84.7114C81.5561 84.7114 80.705 84.6329 79.905 84.4761C79.1128 84.327 78.4187 84.0957 77.8225 83.7819V80.6406C78.4187 80.9543 79.1324 81.221 79.9638 81.4406C80.8031 81.6524 81.5914 81.7583 82.3286 81.7583C83.0502 81.7583 83.6581 81.6642 84.1523 81.4759C84.6464 81.2798 85.019 80.9818 85.27 80.5818C85.5288 80.1739 85.6582 79.6562 85.6582 79.0288C85.6582 78.1895 85.3758 77.5463 84.8111 77.0993C84.2464 76.6522 83.3797 76.4286 82.211 76.4286C81.7639 76.4286 81.2972 76.4718 80.8109 76.5581C80.3325 76.6443 79.9325 76.7306 79.6109 76.8169L78.1637 76.0404L78.8108 67.2753H88.1407V70.3578H81.9992L81.6816 73.7344C81.9482 73.6795 82.2384 73.6246 82.5522 73.5697C82.8659 73.5148 83.3052 73.4873 83.8699 73.4873Z" fill="white"/>
</g>
<defs>
<clipPath id="clip0_449_38538">
<rect width="100" height="100" fill="white"/>
</clipPath>
<clipPath id="clip1_449_38538">
<rect x="1" y="1" width="88" height="88" rx="44" fill="white"/>
</clipPath>
<clipPath id="clip2_449_38538">
<rect width="150.831" height="88" fill="white" transform="translate(-19.9524 1)"/>
</clipPath>
</defs>
</svg>
