<svg width="100" height="100" viewBox="0 0 100 100" fill="none" xmlns="http://www.w3.org/2000/svg">
<g clip-path="url(#clip0_449_38382)">
<g clip-path="url(#clip1_449_38382)">
<g clip-path="url(#clip2_449_38382)">
<mask id="mask0_449_38382" style="mask-type:luminance" maskUnits="userSpaceOnUse" x="-25" y="1" width="124" height="72">
<path d="M98.9958 1H-24.4117V73H98.9958V1Z" fill="white"/>
</mask>
<g mask="url(#mask0_449_38382)">
<path d="M37.3288 1V3.27988V4.08887V4.45659L23.6128 11.2962H37.3288V13.3555V16.4443V19.5332V21.5557H23.6128L37.3288 28.4321V29.572V31.8519V32.0725H33.1H31.5188H30.8201L11.5883 22.4382V32.0725H9.52901H6.44015H3.35128H1.29203V22.4382L-17.9031 32.0725H-20.2197H-24.4117V73H98.9958V1H37.3288Z" fill="#1A237B"/>
<path d="M11.5883 1V10.4137L30.4156 1H11.5883Z" fill="#1A237B"/>
<path d="M1.29194 1H-17.4987L1.29194 10.4137V1Z" fill="#1A237B"/>
<path d="M37.292 1L16.7363 11.2962H12.103L32.6954 1H30.4156L11.5882 10.4137V1H9.52893V11.4433V12.5832V13.3555H12.6178H17.2143H18.7955H19.4942H37.3287V11.2962H23.6127L37.3287 4.45659V4.08887V3.27988V1H37.292Z" fill="white"/>
<path d="M1.29203 1V10.4137L-17.4986 1H-24.4117L-3.85607 11.2962H-8.4526L-24.4117 3.31665V4.45659L-10.7325 11.2962H-24.4117V13.3555H-6.65076H-4.33411H0.262413H3.35128V12.5832V11.811V11.4433V1H1.29203Z" fill="white"/>
<path d="M17.2143 19.5332H12.6178H9.52893V20.2686V21.0776V21.4086V32.0725H11.5882V22.4382L30.82 32.0725H31.5187H33.0999H37.3287V31.8519L16.7363 21.5557H21.3328L37.3287 29.572V28.4321L23.6127 21.5557H37.3287V19.5332H19.4942H17.2143Z" fill="white"/>
<path d="M0.262413 19.5332H-4.33411H-5.91532H-6.65076H-24.4117V21.5557H-10.7325L-24.4117 28.3953V31.8519L-3.85607 21.5557H0.740453L-20.2197 32.0725H-17.9031L1.29203 22.4382V32.0725H3.35128V21.4086V20.2686V19.5332H0.262413Z" fill="white"/>
<path d="M37.2921 1H32.6956L12.1031 11.2962H16.7364L37.2921 1Z" fill="#BD0034"/>
<path d="M16.7363 21.5554L37.3288 31.8516V29.5718L21.3329 21.5554H16.7363Z" fill="#BD0034"/>
<path d="M3.35128 1V11.4433V11.811V12.5832V13.3555H0.262413H-4.33411H-6.65076H-24.4117V19.5332H-6.65076H-5.91532H-4.33411H0.262413H3.35128V20.2686V21.4086V32.0725H6.44015H9.52901V21.4086V21.0776V20.2686V19.5332H12.6179H17.2144H19.4943H37.3288V16.4443V13.3555H19.4943H18.7956H17.2144H12.6179H9.52901V12.5832V11.4433V1H3.35128Z" fill="#BD0034"/>
<path d="M61.2676 21.9969H64.6138L65.6435 18.8345L66.6731 21.9969H70.0194L67.335 23.9826L68.3646 27.1818L65.6435 25.1961L62.9223 27.1818L63.9887 23.9826L61.2676 21.9969Z" fill="white"/>
<path d="M62.7385 22.5117H64.9448L65.6435 20.3789L66.3421 22.5117H68.5485L66.7466 23.7987L67.4453 25.9315L65.6435 24.6077L63.8416 25.9315L64.5403 23.7987L62.7385 22.5117Z" fill="#BD0034"/>
<path d="M47.8456 35.529H51.1919L52.2215 32.3298L53.2511 35.529H56.6341L53.913 37.4779L54.9426 40.6771L52.2215 38.6914L49.5371 40.6771L50.5667 37.4779L47.8456 35.529Z" fill="white"/>
<path d="M49.3165 36.0071H51.5596L52.2215 33.8743L52.9202 36.0071H55.1265L53.3247 37.2941L54.0234 39.4269L52.2215 38.1031L50.4197 39.4269L51.1184 37.2941L49.3165 36.0071Z" fill="#BD0034"/>
<path d="M60.7894 56.6732H64.5034L65.6434 53.1431L66.7833 56.6732H70.5341L67.5187 58.8795L68.6587 62.4464L65.6434 60.2401L62.628 62.4464L63.768 58.8795L60.7894 56.6732Z" fill="white"/>
<path d="M62.4075 57.2248H64.8712L65.6434 54.8713L66.4156 57.2248H68.8794L66.8937 58.6956L67.6291 61.0491L65.6434 59.5782L63.6577 61.0491L64.4299 58.6956L62.4075 57.2248Z" fill="#BD0034"/>
</g>
</g>
</g>
<rect x="0.5" y="0.5" width="73" height="73" rx="36.5" stroke="#8F99A8"/>
<g clip-path="url(#clip3_449_38382)">
<g clip-path="url(#clip4_449_38382)">
<rect width="116.64" height="72" transform="translate(3.6189 27)" fill="#DB291C"/>
<path fill-rule="evenodd" clip-rule="evenodd" d="M68.8185 40.2437H55.0588V56.1203H39.1824V69.88H55.0588V85.7565H68.8185V69.88H84.6953V56.1203H68.8185V40.2437Z" fill="white"/>
</g>
</g>
<rect x="26.5" y="26.5" width="73" height="73" rx="36.5" stroke="#8F99A8"/>
</g>
<defs>
<clipPath id="clip0_449_38382">
<rect width="100" height="100" fill="white"/>
</clipPath>
<clipPath id="clip1_449_38382">
<rect x="1" y="1" width="72" height="72" rx="36" fill="white"/>
</clipPath>
<clipPath id="clip2_449_38382">
<rect width="123.408" height="72" fill="white" transform="translate(-24.4117 1)"/>
</clipPath>
<clipPath id="clip3_449_38382">
<rect x="27" y="27" width="72" height="72" rx="36" fill="white"/>
</clipPath>
<clipPath id="clip4_449_38382">
<rect width="116.682" height="72" fill="white" transform="translate(4.65881 27)"/>
</clipPath>
</defs>
</svg>
