<svg width="100" height="100" viewBox="0 0 100 100" fill="none" xmlns="http://www.w3.org/2000/svg">
<g clip-path="url(#clip0_449_38432)">
<g clip-path="url(#clip1_449_38432)">
<g clip-path="url(#clip2_449_38432)">
<mask id="mask0_449_38432" style="mask-type:luminance" maskUnits="userSpaceOnUse" x="-32" y="1" width="125" height="72">
<path d="M92.1771 1H-31.2305V73H92.1771V1Z" fill="white"/>
</mask>
<g mask="url(#mask0_449_38432)">
<path d="M30.5101 1V3.27988V4.08887V4.45659L16.794 11.2962H30.5101V13.3555V16.4443V19.5332V21.5557H16.794L30.5101 28.4321V29.572V31.8519V32.0725H26.2813H24.7001H24.0014L4.76953 22.4382V32.0725H2.71028H-0.378579H-3.46745H-5.52669V22.4382L-24.7218 32.0725H-27.0384H-31.2305V73H92.1771V1H30.5101Z" fill="#1A237B"/>
<path d="M4.76953 1V10.4137L23.5969 1H4.76953Z" fill="#1A237B"/>
<path d="M30.4732 1L9.91756 11.2962H5.28426L25.8767 1H23.5968L4.76945 10.4137V1H2.71021V11.4433V12.5832V13.3555H5.79907H10.3956H11.9768H12.6755H30.51V11.2962H16.794L30.51 4.45659V4.08887V3.27988V1H30.4732Z" fill="white"/>
<path d="M10.3956 19.5332H5.79907H2.71021V20.2686V21.0776V21.4086V32.0725H4.76945V22.4382L24.0013 32.0725H24.7H26.2812H30.51V31.8519L9.91756 21.5557H14.5141L30.51 29.572V28.4321L16.794 21.5557H30.51V19.5332H12.6755H10.3956Z" fill="white"/>
<path d="M30.4734 1H25.8769L5.28442 11.2962H9.91772L30.4734 1Z" fill="#BD0034"/>
<path d="M9.9176 21.5554L30.51 31.8516V29.5718L14.5141 21.5554H9.9176Z" fill="#BD0034"/>
<path d="M-3.46745 1V11.4433V11.811V12.5832V13.3555H-6.55631H-11.1528H-13.4695H-31.2305V19.5332H-13.4695H-12.734H-11.1528H-6.55631H-3.46745V20.2686V21.4086V32.0725H-0.378579H2.71028V21.4086V21.0776V20.2686V19.5332H5.79915H10.3957H12.6756H30.5101V16.4443V13.3555H12.6756H11.9769H10.3957H5.79915H2.71028V12.5832V11.4433V1H-3.46745Z" fill="#BD0034"/>
<path d="M54.4489 21.9969H57.7951L58.8247 18.8345L59.8544 21.9969H63.2006L60.5163 23.9826L61.5459 27.1818L58.8247 25.1961L56.1036 27.1818L57.17 23.9826L54.4489 21.9969Z" fill="white"/>
<path d="M55.9198 22.5117H58.1261L58.8248 20.3789L59.5235 22.5117H61.7298L59.928 23.7987L60.6266 25.9315L58.8248 24.6077L57.023 25.9315L57.7216 23.7987L55.9198 22.5117Z" fill="#BD0034"/>
<path d="M41.0269 35.529H44.3731L45.4028 32.3298L46.4324 35.529H49.8154L47.0943 37.4779L48.1239 40.6771L45.4028 38.6914L42.7184 40.6771L43.748 37.4779L41.0269 35.529Z" fill="white"/>
<path d="M42.4978 36.0071H44.7409L45.4028 33.8743L46.1015 36.0071H48.3078L46.506 37.2941L47.2046 39.4269L45.4028 38.1031L43.601 39.4269L44.2996 37.2941L42.4978 36.0071Z" fill="#BD0034"/>
<path d="M66.3999 32.1827H69.4152L70.3345 29.3145L71.2538 32.1827H74.2324L71.8054 33.911L72.7615 36.7424L70.3345 35.0141L67.9076 36.7424L68.8269 33.911L66.3999 32.1827Z" fill="white"/>
<path d="M67.7604 32.5873H69.7093L70.3344 30.7119L70.9228 32.5873H72.9085L71.3273 33.764L71.9156 35.6394L70.3344 34.4627L68.7165 35.6394L69.3416 33.764L67.7604 32.5873Z" fill="#BD0034"/>
<path d="M53.9707 56.6732H57.6847L58.8246 53.1431L59.9646 56.6732H63.7153L60.7 58.8795L61.84 62.4464L58.8246 60.2401L55.8093 62.4464L56.9493 58.8795L53.9707 56.6732Z" fill="white"/>
<path d="M55.5887 57.2248H58.0525L58.8247 54.8713L59.5969 57.2248H62.0607L60.075 58.6956L60.8104 61.0491L58.8247 59.5782L56.839 61.0491L57.6112 58.6956L55.5887 57.2248Z" fill="#BD0034"/>
</g>
</g>
</g>
<rect x="0.5" y="0.5" width="73" height="73" rx="36.5" stroke="#8F99A8"/>
<g clip-path="url(#clip3_449_38432)">
<g clip-path="url(#clip4_449_38432)">
<mask id="mask1_449_38432" style="mask-type:luminance" maskUnits="userSpaceOnUse" x="1" y="27" width="124" height="72">
<path d="M124.784 27H1.37646V99H124.784V27Z" fill="white"/>
</mask>
<g mask="url(#mask1_449_38432)">
<path d="M30.4265 27H1.37646V99H30.4265V27Z" fill="#EA0020"/>
<path d="M124.821 27H95.7708V99H124.821V27Z" fill="#EA0020"/>
<path d="M95.7709 27H30.4266V99H95.7709V27Z" fill="white"/>
<mask id="mask2_449_38432" style="mask-type:luminance" maskUnits="userSpaceOnUse" x="1" y="27" width="124" height="72">
<path d="M124.784 27H1.37646V99H124.784V27Z" fill="white"/>
</mask>
<g mask="url(#mask2_449_38432)">
<path d="M63.0801 36.3403L58.8146 44.6509C58.3365 45.5702 57.454 45.4598 56.5715 44.945L53.4826 43.2535L55.7992 56.0502C56.2773 58.4037 54.7328 58.4037 53.9606 57.374L48.5551 51.0492L47.6726 54.2484C47.5623 54.6529 47.121 55.1309 46.4591 55.0206L39.6195 53.513L41.4213 60.3158C41.8258 61.8235 42.12 62.4486 41.0168 62.8531L38.5898 64.0298L50.357 73.9951C50.7982 74.3628 51.0556 75.0615 50.8718 75.6498L49.8421 79.18C53.8871 78.7019 57.5275 78.2607 61.5725 77.7458C61.9402 77.7458 62.5286 78.0768 62.5286 78.4813L61.977 91.3883H63.9627L63.6317 78.5181C63.6317 78.1136 64.1833 77.7458 64.5143 77.7458C68.5592 78.2239 72.1997 78.6651 76.2446 79.18L75.215 75.6498C75.0679 75.0247 75.2885 74.3628 75.7666 73.9951L87.5337 64.0298L85.1067 62.8531C84.0403 62.4486 84.3345 61.8235 84.7022 60.3158L86.504 53.513L79.6644 55.0206C79.0025 55.1309 78.5612 54.6897 78.4509 54.2484L77.5684 51.0492L72.1629 57.374C71.3907 58.3669 69.8462 58.3669 70.3243 56.0502L72.6409 43.2535L69.5521 44.945C68.6695 45.4598 67.787 45.5334 67.3089 44.6509L63.0434 36.3403H63.0801Z" fill="#EA0020"/>
</g>
</g>
</g>
</g>
<rect x="26.5" y="26.5" width="73" height="73" rx="36.5" stroke="#8F99A8"/>
</g>
<defs>
<clipPath id="clip0_449_38432">
<rect width="100" height="100" fill="white"/>
</clipPath>
<clipPath id="clip1_449_38432">
<rect x="1" y="1" width="72" height="72" rx="36" fill="white"/>
</clipPath>
<clipPath id="clip2_449_38432">
<rect width="123.408" height="72" fill="white" transform="translate(-31.2305 1)"/>
</clipPath>
<clipPath id="clip3_449_38432">
<rect x="27" y="27" width="72" height="72" rx="36" fill="white"/>
</clipPath>
<clipPath id="clip4_449_38432">
<rect width="123.408" height="72" fill="white" transform="translate(1.37646 27)"/>
</clipPath>
</defs>
</svg>
