<svg width="100" height="100" viewBox="0 0 100 100" fill="none" xmlns="http://www.w3.org/2000/svg">
<g clip-path="url(#clip0_449_38442)">
<g clip-path="url(#clip1_449_38442)">
<g clip-path="url(#clip2_449_38442)">
<mask id="mask0_449_38442" style="mask-type:luminance" maskUnits="userSpaceOnUse" x="-32" y="1" width="125" height="72">
<path d="M92.1771 1H-31.2305V73H92.1771V1Z" fill="white"/>
</mask>
<g mask="url(#mask0_449_38442)">
<path d="M30.5101 1V3.27988V4.08887V4.45659L16.794 11.2962H30.5101V13.3555V16.4443V19.5332V21.5557H16.794L30.5101 28.4321V29.572V31.8519V32.0725H26.2813H24.7001H24.0014L4.76953 22.4382V32.0725H2.71028H-0.378579H-3.46745H-5.52669V22.4382L-24.7218 32.0725H-27.0384H-31.2305V73H92.1771V1H30.5101Z" fill="#1A237B"/>
<path d="M4.76953 1V10.4137L23.5969 1H4.76953Z" fill="#1A237B"/>
<path d="M30.4732 1L9.91756 11.2962H5.28426L25.8767 1H23.5968L4.76945 10.4137V1H2.71021V11.4433V12.5832V13.3555H5.79907H10.3956H11.9768H12.6755H30.51V11.2962H16.794L30.51 4.45659V4.08887V3.27988V1H30.4732Z" fill="white"/>
<path d="M10.3956 19.5332H5.79907H2.71021V20.2686V21.0776V21.4086V32.0725H4.76945V22.4382L24.0013 32.0725H24.7H26.2812H30.51V31.8519L9.91756 21.5557H14.5141L30.51 29.572V28.4321L16.794 21.5557H30.51V19.5332H12.6755H10.3956Z" fill="white"/>
<path d="M30.4734 1H25.8769L5.28442 11.2962H9.91772L30.4734 1Z" fill="#BD0034"/>
<path d="M9.9176 21.5554L30.51 31.8516V29.5718L14.5141 21.5554H9.9176Z" fill="#BD0034"/>
<path d="M-3.46745 1V11.4433V11.811V12.5832V13.3555H-6.55631H-11.1528H-13.4695H-31.2305V19.5332H-13.4695H-12.734H-11.1528H-6.55631H-3.46745V20.2686V21.4086V32.0725H-0.378579H2.71028V21.4086V21.0776V20.2686V19.5332H5.79915H10.3957H12.6756H30.5101V16.4443V13.3555H12.6756H11.9769H10.3957H5.79915H2.71028V12.5832V11.4433V1H-3.46745Z" fill="#BD0034"/>
<path d="M54.4489 21.9969H57.7951L58.8247 18.8345L59.8544 21.9969H63.2006L60.5163 23.9826L61.5459 27.1818L58.8247 25.1961L56.1036 27.1818L57.17 23.9826L54.4489 21.9969Z" fill="white"/>
<path d="M55.9198 22.5117H58.1261L58.8248 20.3789L59.5235 22.5117H61.7298L59.928 23.7987L60.6266 25.9315L58.8248 24.6077L57.023 25.9315L57.7216 23.7987L55.9198 22.5117Z" fill="#BD0034"/>
<path d="M41.0269 35.529H44.3731L45.4028 32.3298L46.4324 35.529H49.8154L47.0943 37.4779L48.1239 40.6771L45.4028 38.6914L42.7184 40.6771L43.748 37.4779L41.0269 35.529Z" fill="white"/>
<path d="M42.4978 36.0071H44.7409L45.4028 33.8743L46.1015 36.0071H48.3078L46.506 37.2941L47.2046 39.4269L45.4028 38.1031L43.601 39.4269L44.2996 37.2941L42.4978 36.0071Z" fill="#BD0034"/>
<path d="M66.3999 32.1827H69.4152L70.3345 29.3145L71.2538 32.1827H74.2324L71.8054 33.911L72.7615 36.7424L70.3345 35.0141L67.9076 36.7424L68.8269 33.911L66.3999 32.1827Z" fill="white"/>
<path d="M67.7604 32.5873H69.7093L70.3344 30.7119L70.9228 32.5873H72.9085L71.3273 33.764L71.9156 35.6394L70.3344 34.4627L68.7165 35.6394L69.3416 33.764L67.7604 32.5873Z" fill="#BD0034"/>
<path d="M53.9707 56.6732H57.6847L58.8246 53.1431L59.9646 56.6732H63.7153L60.7 58.8795L61.84 62.4464L58.8246 60.2401L55.8093 62.4464L56.9493 58.8795L53.9707 56.6732Z" fill="white"/>
<path d="M55.5887 57.2248H58.0525L58.8247 54.8713L59.5969 57.2248H62.0607L60.075 58.6956L60.8104 61.0491L58.8247 59.5782L56.839 61.0491L57.6112 58.6956L55.5887 57.2248Z" fill="#BD0034"/>
</g>
</g>
</g>
<rect x="0.5" y="0.5" width="73" height="73" rx="36.5" stroke="#8F99A8"/>
<g clip-path="url(#clip3_449_38442)">
<g clip-path="url(#clip4_449_38442)">
<mask id="mask1_449_38442" style="mask-type:luminance" maskUnits="userSpaceOnUse" x="1" y="27" width="124" height="72">
<path d="M124.996 27H1.58826V99H124.996V27Z" fill="white"/>
</mask>
<g mask="url(#mask1_449_38442)">
<path d="M124.996 93.4475H1.58826V99.0001H124.996V93.4475Z" fill="#CB001C"/>
<path d="M124.996 87.9314H1.58826V93.484H124.996V87.9314Z" fill="white"/>
<path d="M124.996 82.3789H1.58826V87.8947H124.996V82.3789Z" fill="#CB001C"/>
<path d="M124.996 76.8633H1.58826V82.4159H124.996V76.8633Z" fill="white"/>
<path d="M124.996 71.3105H1.58826V76.8632H124.996V71.3105Z" fill="#CB001C"/>
<path d="M124.996 65.7581H1.58826V71.2739H124.996V65.7581Z" fill="white"/>
<path d="M124.996 60.2419H1.58826V65.7945H124.996V60.2419Z" fill="#CB001C"/>
<path d="M124.996 54.6895H1.58826V60.2053H124.996V54.6895Z" fill="white"/>
<path d="M124.996 49.1738H1.58826V54.7264H124.996V49.1738Z" fill="#CB001C"/>
<path d="M124.996 43.6211H1.58826V49.1737H124.996V43.6211Z" fill="white"/>
<path d="M124.996 38.0686H1.58826V43.6212H124.996V38.0686Z" fill="#CB001C"/>
<path d="M124.996 32.5525H1.58826V38.1051H124.996V32.5525Z" fill="white"/>
<path d="M124.996 27H1.58826V32.5526H124.996V27Z" fill="#CB001C"/>
<path d="M57.9601 27H1.58826V65.7579H57.9601V27Z" fill="#1A2F81"/>
<path d="M29.3512 34.6855L29.7925 36.1564H31.3369L30.0867 37.0757L30.5647 38.5099L29.3512 37.6273L28.101 38.5099L28.5422 37.0757L27.3287 36.1564H28.8364L29.3512 34.6855Z" fill="white"/>
<path d="M29.3512 41.1575L29.7925 42.6284H31.3369L30.0867 43.5109L30.5647 44.9818L29.3512 44.0992L28.101 44.9818L28.5422 43.5109L27.3287 42.6284H28.8364L29.3512 41.1575Z" fill="white"/>
<path d="M29.3512 47.6294L29.7925 49.1003H31.3369L30.0867 49.9828L30.5647 51.4537L29.3512 50.5712L28.101 51.4537L28.5422 49.9828L27.3287 49.1003H28.8364L29.3512 47.6294Z" fill="white"/>
<path d="M29.3512 54.1013L29.7925 55.5722H31.3369L30.0867 56.4547L30.5647 57.9256L29.3512 57.0063L28.101 57.9256L28.5422 56.4547L27.3287 55.5722H28.8364L29.3512 54.1013Z" fill="white"/>
<path d="M33.8742 31.2656L34.3523 32.7365H35.8967L34.6465 33.6558L35.1245 35.1267L33.8742 34.2074L32.6608 35.1267L33.102 33.6558L31.8885 32.7365H33.3962L33.8742 31.2656Z" fill="white"/>
<path d="M33.8742 37.7373L34.3523 39.2082H35.8967L34.6465 40.1275L35.1245 41.5984L33.8742 40.6791L32.6608 41.5984L33.102 40.1275L31.8885 39.2082H33.3962L33.8742 37.7373Z" fill="white"/>
<path d="M33.8742 44.2092L34.3523 45.6801H35.8967L34.6465 46.5994L35.1245 48.0703L33.8742 47.151L32.6608 48.0703L33.102 46.5994L31.8885 45.6801H33.3962L33.8742 44.2092Z" fill="white"/>
<path d="M33.8742 50.6812L34.3523 52.152H35.8967L34.6465 53.0713L35.1245 54.5055L33.8742 53.6229L32.6608 54.5055L33.102 53.0713L31.8885 52.152H33.3962L33.8742 50.6812Z" fill="white"/>
<path d="M33.8742 57.1531L34.3523 58.624H35.8967L34.6465 59.5433L35.1245 60.9774L33.8742 60.0949L32.6608 60.9774L33.102 59.5433L31.8885 58.624H33.3962L33.8742 57.1531Z" fill="white"/>
<path d="M38.3974 34.6855L38.8754 36.1564H40.4198L39.1696 37.0757L39.6476 38.5099L38.3974 37.6273L37.1471 38.5099L37.6251 37.0757L36.3749 36.1564H37.9193L38.3974 34.6855Z" fill="white"/>
<path d="M38.3974 41.1575L38.8754 42.6284H40.4198L39.1696 43.5109L39.6476 44.9818L38.3974 44.0992L37.1471 44.9818L37.6251 43.5109L36.3749 42.6284H37.9193L38.3974 41.1575Z" fill="white"/>
<path d="M38.3974 47.6294L38.8754 49.1003H40.4198L39.1696 49.9828L39.6476 51.4537L38.3974 50.5712L37.1471 51.4537L37.6251 49.9828L36.3749 49.1003H37.9193L38.3974 47.6294Z" fill="white"/>
<path d="M38.3974 54.1013L38.8754 55.5722H40.4198L39.1696 56.4547L39.6476 57.9256L38.3974 57.0063L37.1471 57.9256L37.6251 56.4547L36.3749 55.5722H37.9193L38.3974 54.1013Z" fill="white"/>
<path d="M42.957 31.2656L43.4351 32.7365H44.9795L43.7292 33.6558L44.2073 35.1267L42.957 34.2074L41.7435 35.1267L42.1848 33.6558L40.9713 32.7365H42.479L42.957 31.2656Z" fill="white"/>
<path d="M42.957 37.7373L43.4351 39.2082H44.9795L43.7292 40.1275L44.2073 41.5984L42.957 40.6791L41.7435 41.5984L42.1848 40.1275L40.9713 39.2082H42.479L42.957 37.7373Z" fill="white"/>
<path d="M42.957 44.2092L43.4351 45.6801H44.9795L43.7292 46.5994L44.2073 48.0703L42.957 47.151L41.7435 48.0703L42.1848 46.5994L40.9713 45.6801H42.479L42.957 44.2092Z" fill="white"/>
<path d="M42.957 50.6812L43.4351 52.152H44.9795L43.7292 53.0713L44.2073 54.5055L42.957 53.6229L41.7435 54.5055L42.1848 53.0713L40.9713 52.152H42.479L42.957 50.6812Z" fill="white"/>
<path d="M42.957 57.1531L43.4351 58.624H44.9795L43.7292 59.5433L44.2073 60.9774L42.957 60.0949L41.7435 60.9774L42.1848 59.5433L40.9713 58.624H42.479L42.957 57.1531Z" fill="white"/>
<path d="M47.4799 34.6855L47.9579 36.1564H49.5023L48.2521 37.0757L48.6934 38.5099L47.4799 37.6273L46.2296 38.5099L46.7077 37.0757L45.4574 36.1564H47.0018L47.4799 34.6855Z" fill="white"/>
<path d="M47.4799 41.1575L47.9579 42.6284H49.5023L48.2521 43.5109L48.6934 44.9818L47.4799 44.0992L46.2296 44.9818L46.7077 43.5109L45.4574 42.6284H47.0018L47.4799 41.1575Z" fill="white"/>
<path d="M47.4799 47.6294L47.9579 49.1003H49.5023L48.2521 49.9828L48.6934 51.4537L47.4799 50.5712L46.2296 51.4537L46.7077 49.9828L45.4574 49.1003H47.0018L47.4799 47.6294Z" fill="white"/>
<path d="M47.4799 54.1013L47.9579 55.5722H49.5023L48.2521 56.4547L48.6934 57.9256L47.4799 57.0063L46.2296 57.9256L46.7077 56.4547L45.4574 55.5722H47.0018L47.4799 54.1013Z" fill="white"/>
<path d="M52.0397 31.2656L52.5177 32.7365H54.0622L52.8119 33.6558L53.2899 35.1267L52.0397 34.2074L50.7894 35.1267L51.2675 33.6558L50.0172 32.7365H51.5616L52.0397 31.2656Z" fill="white"/>
<path d="M52.0397 37.7373L52.5177 39.2082H54.0622L52.8119 40.1275L53.2899 41.5984L52.0397 40.6791L50.7894 41.5984L51.2675 40.1275L50.0172 39.2082H51.5616L52.0397 37.7373Z" fill="white"/>
<path d="M52.0397 44.2092L52.5177 45.6801H54.0622L52.8119 46.5994L53.2899 48.0703L52.0397 47.151L50.7894 48.0703L51.2675 46.5994L50.0172 45.6801H51.5616L52.0397 44.2092Z" fill="white"/>
<path d="M52.0397 50.6812L52.5177 52.152H54.0622L52.8119 53.0713L53.2899 54.5055L52.0397 53.6229L50.7894 54.5055L51.2675 53.0713L50.0172 52.152H51.5616L52.0397 50.6812Z" fill="white"/>
<path d="M52.0397 57.1531L52.5177 58.624H54.0622L52.8119 59.5433L53.2899 60.9774L52.0397 60.0949L50.7894 60.9774L51.2675 59.5433L50.0172 58.624H51.5616L52.0397 57.1531Z" fill="white"/>
</g>
</g>
</g>
<rect x="26.5" y="26.5" width="73" height="73" rx="36.5" stroke="#8F99A8"/>
</g>
<defs>
<clipPath id="clip0_449_38442">
<rect width="100" height="100" fill="white"/>
</clipPath>
<clipPath id="clip1_449_38442">
<rect x="1" y="1" width="72" height="72" rx="36" fill="white"/>
</clipPath>
<clipPath id="clip2_449_38442">
<rect width="123.408" height="72" fill="white" transform="translate(-31.2305 1)"/>
</clipPath>
<clipPath id="clip3_449_38442">
<rect x="27" y="27" width="72" height="72" rx="36" fill="white"/>
</clipPath>
<clipPath id="clip4_449_38442">
<rect width="123.408" height="72" fill="white" transform="translate(1.58826 27)"/>
</clipPath>
</defs>
</svg>
