<svg width="100" height="100" viewBox="0 0 100 100" fill="none" xmlns="http://www.w3.org/2000/svg">
<g clip-path="url(#clip0_449_38533)">
<g clip-path="url(#clip1_449_38533)">
<rect x="1" y="1" width="88" height="88" rx="44" fill="#1836AC"/>
<g clip-path="url(#clip2_449_38533)">
<rect width="142.56" height="88" transform="translate(-27.3981 1)" fill="#DB291C"/>
<path fill-rule="evenodd" clip-rule="evenodd" d="M52.2906 17.1868H35.4732V36.5916H16.0685V53.409H35.4732V72.8136H52.2906V53.409H71.6954V36.5916H52.2906V17.1868Z" fill="white"/>
</g>
</g>
<rect x="0.5" y="0.5" width="89" height="89" rx="44.5" stroke="#8F99A8"/>
<rect x="52.5" y="52.5" width="47" height="47" rx="23.5" fill="#1836AC"/>
<rect x="52.5" y="52.5" width="47" height="47" rx="23.5" stroke="#8F99A8"/>
<path d="M75.846 84.4761H63.8219V81.9465L68.1397 77.5816C69.0103 76.6875 69.7084 75.9423 70.2339 75.3462C70.7673 74.7423 71.1516 74.1932 71.3869 73.6991C71.6301 73.205 71.7516 72.6755 71.7516 72.1108C71.7516 71.4284 71.5595 70.9186 71.1752 70.5813C70.7987 70.2362 70.2928 70.0636 69.6574 70.0636C68.9907 70.0636 68.3436 70.2166 67.7162 70.5225C67.0887 70.8284 66.4338 71.2637 65.7514 71.8284L63.7748 69.4871C64.2689 69.0636 64.7905 68.6636 65.3396 68.2871C65.8965 67.9106 66.5396 67.6086 67.2691 67.3812C68.0064 67.1459 68.8888 67.0282 69.9163 67.0282C71.0457 67.0282 72.0144 67.2321 72.8223 67.64C73.638 68.0479 74.2655 68.6047 74.7047 69.3107C75.144 70.0087 75.3636 70.8009 75.3636 71.6872C75.3636 72.6363 75.1753 73.503 74.7989 74.2874C74.4224 75.0717 73.8733 75.8482 73.1517 76.6169C72.438 77.3855 71.5752 78.2366 70.5634 79.1699L68.3515 81.2524V81.4171H75.846V84.4761ZM89.5407 75.8757C89.5407 77.264 89.4309 78.5032 89.2113 79.5935C88.9995 80.6837 88.6544 81.6093 88.1759 82.3701C87.7053 83.1309 87.0857 83.7113 86.317 84.1114C85.5484 84.5114 84.615 84.7114 83.5169 84.7114C82.1364 84.7114 81.0031 84.3623 80.1167 83.6643C79.2304 82.9584 78.5755 81.9465 78.1519 80.6288C77.7284 79.3033 77.5166 77.7189 77.5166 75.8757C77.5166 74.0168 77.7088 72.4285 78.0931 71.1107C78.4853 69.7852 79.1206 68.7695 79.9991 68.0635C80.8776 67.3576 82.0502 67.0047 83.5169 67.0047C84.8895 67.0047 86.019 67.3576 86.9053 68.0635C87.7995 68.7616 88.4622 69.7734 88.8936 71.099C89.325 72.4167 89.5407 74.0089 89.5407 75.8757ZM81.1286 75.8757C81.1286 77.1855 81.1991 78.2797 81.3403 79.1582C81.4894 80.0288 81.7364 80.6837 82.0815 81.123C82.4267 81.5622 82.9051 81.7818 83.5169 81.7818C84.1209 81.7818 84.5954 81.5661 84.9405 81.1347C85.2935 80.6955 85.5444 80.0406 85.6935 79.1699C85.8425 78.2915 85.917 77.1934 85.917 75.8757C85.917 74.5658 85.8425 73.4716 85.6935 72.5932C85.5444 71.7147 85.2935 71.0558 84.9405 70.6166C84.5954 70.1695 84.1209 69.946 83.5169 69.946C82.9051 69.946 82.4267 70.1695 82.0815 70.6166C81.7364 71.0558 81.4894 71.7147 81.3403 72.5932C81.1991 73.4716 81.1286 74.5658 81.1286 75.8757Z" fill="white"/>
</g>
<defs>
<clipPath id="clip0_449_38533">
<rect width="100" height="100" fill="white"/>
</clipPath>
<clipPath id="clip1_449_38533">
<rect x="1" y="1" width="88" height="88" rx="44" fill="white"/>
</clipPath>
<clipPath id="clip2_449_38533">
<rect width="142.612" height="88" fill="white" transform="translate(-26.2381 1)"/>
</clipPath>
</defs>
</svg>
