<svg width="100" height="100" viewBox="0 0 100 100" fill="none" xmlns="http://www.w3.org/2000/svg">
<g clip-path="url(#clip0_449_38518)">
<g clip-path="url(#clip1_449_38518)">
<rect x="1" y="1" width="88" height="88" rx="44" fill="#1836AC"/>
<g clip-path="url(#clip2_449_38518)">
<path d="M128.156 1.00854H-38.8095V88.8577H128.156V1.00854Z" fill="white"/>
<path d="M128.169 36.1598H54.651V1.01343H34.5831V36.1598H-38.7399V53.7238H34.5831V88.8559H54.651V53.7238H128.169V36.1598Z" fill="#C8102E"/>
<path d="M-18.7164 1.00439L-19.2502 1.0287L27.9707 25.9612V1.00439H-18.7164Z" fill="#012169"/>
<path d="M17.2342 30.2438L-38.8079 1.00854V7.89936L3.88021 30.2438H17.2342Z" fill="#C8102E"/>
<path d="M72.156 59.6128L128.199 88.8481V81.9573L85.5108 59.6128H72.156Z" fill="#C8102E"/>
<path d="M-18.7164 89L-19.2502 88.9757L27.9707 64.0432V89H-18.7164Z" fill="#012169"/>
<path d="M16.9481 59.6116L-38.7709 88.8334L-25.74 88.846L28.0244 60.8V59.6116H16.9481Z" fill="#C8102E"/>
<path d="M108.108 1L108.642 1.0243L61.4212 25.9568V1H108.108Z" fill="#012169"/>
<path d="M128.146 1.04112L115.612 1.04028L61.469 29.2841V30.2747H72.9239L128.146 1.04112Z" fill="#C8102E"/>
<path d="M108.108 88.9924L108.642 88.9681L61.4212 64.0356V88.9924H108.108Z" fill="#012169"/>
</g>
</g>
<rect x="0.5" y="0.5" width="89" height="89" rx="44.5" stroke="#8F99A8"/>
<rect x="52.5" y="52.5" width="47" height="47" rx="23.5" fill="#1836AC"/>
<rect x="52.5" y="52.5" width="47" height="47" rx="23.5" stroke="#8F99A8"/>
<path d="M64.0486 84.4761H60.4132V74.5227C60.4132 74.2481 60.4171 73.9109 60.4249 73.5109C60.4328 73.103 60.4446 72.6873 60.4602 72.2637C60.4759 71.8323 60.4916 71.4441 60.5073 71.099C60.421 71.2009 60.2445 71.3774 59.9779 71.6284C59.719 71.8716 59.4759 72.0912 59.2484 72.2873L57.2719 73.8756L55.5188 71.6872L61.0603 67.2753H64.0486V84.4761ZM80.7788 75.8757C80.7788 77.264 80.669 78.5032 80.4494 79.5935C80.2376 80.6837 79.8925 81.6093 79.4141 82.3701C78.9435 83.1309 78.3238 83.7113 77.5552 84.1114C76.7865 84.5114 75.8531 84.7114 74.755 84.7114C73.3746 84.7114 72.2412 84.3623 71.3549 83.6643C70.4685 82.9584 69.8136 81.9465 69.3901 80.6288C68.9665 79.3033 68.7547 77.7189 68.7547 75.8757C68.7547 74.0168 68.9469 72.4285 69.3312 71.1107C69.7234 69.7852 70.3587 68.7695 71.2372 68.0635C72.1157 67.3576 73.2883 67.0047 74.755 67.0047C76.1276 67.0047 77.2571 67.3576 78.1434 68.0635C79.0376 68.7616 79.7003 69.7734 80.1317 71.099C80.5631 72.4167 80.7788 74.0089 80.7788 75.8757ZM72.3667 75.8757C72.3667 77.1855 72.4373 78.2797 72.5785 79.1582C72.7275 80.0288 72.9745 80.6837 73.3197 81.123C73.6648 81.5622 74.1432 81.7818 74.755 81.7818C75.359 81.7818 75.8335 81.5661 76.1786 81.1347C76.5316 80.6955 76.7826 80.0406 76.9316 79.1699C77.0806 78.2915 77.1551 77.1934 77.1551 75.8757C77.1551 74.5658 77.0806 73.4716 76.9316 72.5932C76.7826 71.7147 76.5316 71.0558 76.1786 70.6166C75.8335 70.1695 75.359 69.946 74.755 69.946C74.1432 69.946 73.6648 70.1695 73.3197 70.6166C72.9745 71.0558 72.7275 71.7147 72.5785 72.5932C72.4373 73.4716 72.3667 74.5658 72.3667 75.8757ZM94.5677 75.8757C94.5677 77.264 94.4579 78.5032 94.2383 79.5935C94.0265 80.6837 93.6814 81.6093 93.2029 82.3701C92.7323 83.1309 92.1127 83.7113 91.344 84.1114C90.5754 84.5114 89.642 84.7114 88.5439 84.7114C87.1634 84.7114 86.0301 84.3623 85.1437 83.6643C84.2574 82.9584 83.6025 81.9465 83.1789 80.6288C82.7554 79.3033 82.5436 77.7189 82.5436 75.8757C82.5436 74.0168 82.7358 72.4285 83.1201 71.1107C83.5123 69.7852 84.1476 68.7695 85.0261 68.0635C85.9046 67.3576 87.0772 67.0047 88.5439 67.0047C89.9165 67.0047 91.046 67.3576 91.9323 68.0635C92.8265 68.7616 93.4892 69.7734 93.9206 71.099C94.352 72.4167 94.5677 74.0089 94.5677 75.8757ZM86.1556 75.8757C86.1556 77.1855 86.2261 78.2797 86.3673 79.1582C86.5164 80.0288 86.7634 80.6837 87.1085 81.123C87.4537 81.5622 87.9321 81.7818 88.5439 81.7818C89.1478 81.7818 89.6224 81.5661 89.9675 81.1347C90.3205 80.6955 90.5714 80.0406 90.7205 79.1699C90.8695 78.2915 90.944 77.1934 90.944 75.8757C90.944 74.5658 90.8695 73.4716 90.7205 72.5932C90.5714 71.7147 90.3205 71.0558 89.9675 70.6166C89.6224 70.1695 89.1478 69.946 88.5439 69.946C87.9321 69.946 87.4537 70.1695 87.1085 70.6166C86.7634 71.0558 86.5164 71.7147 86.3673 72.5932C86.2261 73.4716 86.1556 74.5658 86.1556 75.8757Z" fill="white"/>
</g>
<defs>
<clipPath id="clip0_449_38518">
<rect width="100" height="100" fill="white"/>
</clipPath>
<clipPath id="clip1_449_38518">
<rect x="1" y="1" width="88" height="88" rx="44" fill="white"/>
</clipPath>
<clipPath id="clip2_449_38518">
<rect width="167.009" height="88" fill="white" transform="translate(-38.8095 1)"/>
</clipPath>
</defs>
</svg>
