<svg width="100" height="100" viewBox="0 0 100 100" fill="none" xmlns="http://www.w3.org/2000/svg">
<g clip-path="url(#clip0_449_38558)">
<g clip-path="url(#clip1_449_38558)">
<rect x="1" y="1" width="88" height="88" rx="44" fill="#1836AC"/>
<g clip-path="url(#clip2_449_38558)">
<mask id="mask0_449_38558" style="mask-type:luminance" maskUnits="userSpaceOnUse" x="-27" y="1" width="152" height="88">
<path d="M124.593 1H-26.238V89H124.593V1Z" fill="white"/>
</mask>
<g mask="url(#mask0_449_38558)">
<path d="M124.593 82.2136H-26.238V89.0001H124.593V82.2136Z" fill="#CB001C"/>
<path d="M124.593 75.4717H-26.238V82.2582H124.593V75.4717Z" fill="white"/>
<path d="M124.593 68.6853H-26.238V75.4269H124.593V68.6853Z" fill="#CB001C"/>
<path d="M124.593 61.9438H-26.238V68.7304H124.593V61.9438Z" fill="white"/>
<path d="M124.593 55.1575H-26.238V61.944H124.593V55.1575Z" fill="#CB001C"/>
<path d="M124.593 48.3708H-26.238V55.1124H124.593V48.3708Z" fill="white"/>
<path d="M124.593 41.6292H-26.238V48.4157H124.593V41.6292Z" fill="#CB001C"/>
<path d="M124.593 34.8425H-26.238V41.5841H124.593V34.8425Z" fill="white"/>
<path d="M124.593 28.1013H-26.238V34.8878H124.593V28.1013Z" fill="#CB001C"/>
<path d="M124.593 21.3147H-26.238V28.1012H124.593V21.3147Z" fill="white"/>
<path d="M124.593 14.5283H-26.238V21.3148H124.593V14.5283Z" fill="#CB001C"/>
<path d="M124.593 7.78638H-26.238V14.5729H124.593V7.78638Z" fill="white"/>
<path d="M124.593 1H-26.238V7.78652H124.593V1Z" fill="#CB001C"/>
<path d="M42.6609 1H-26.238V48.3708H42.6609V1Z" fill="#1A2F81"/>
<path d="M2.16637 6.21338L2.75064 8.01113H4.63828L3.11019 9.13473L3.69446 10.9325L2.16637 9.80889L0.638278 10.9325L1.22255 9.13473L-0.305542 8.01113H1.5821L2.16637 6.21338Z" fill="white"/>
<path d="M2.16637 14.1235L2.75064 15.9213H4.63828L3.11019 17.0449L3.69446 18.8426L2.16637 17.719L0.638278 18.8426L1.22255 17.0449L-0.305542 15.9213H1.5821L2.16637 14.1235Z" fill="white"/>
<path d="M2.16637 22.0337L2.75064 23.8314H4.63828L3.11019 24.955L3.69446 26.7528L2.16637 25.6292L0.638278 26.7528L1.22255 24.955L-0.305542 23.8314H1.5821L2.16637 22.0337Z" fill="white"/>
<path d="M2.16637 29.9438L2.75064 31.7416H4.63828L3.11019 32.8652L3.69446 34.618L2.16637 33.5394L0.638278 34.618L1.22255 32.8652L-0.305542 31.7416H1.5821L2.16637 29.9438Z" fill="white"/>
<path d="M2.16637 37.8538L2.75064 39.6515H4.63828L3.11019 40.7751L3.69446 42.5279L2.16637 41.4493L0.638278 42.5279L1.22255 40.7751L-0.305542 39.6515H1.5821L2.16637 37.8538Z" fill="white"/>
<path d="M7.69457 10.3933L8.23389 12.1911H10.1215L8.59344 13.3147L9.17771 15.0675L7.69457 13.9888L6.16648 15.0675L6.7058 13.3147L5.22266 12.1911H7.06535L7.69457 10.3933Z" fill="white"/>
<path d="M7.69457 18.3035L8.23389 20.1012H10.1215L8.59344 21.1799L9.17771 22.9776L7.69457 21.899L6.16648 22.9776L6.7058 21.1799L5.22266 20.1012H7.06535L7.69457 18.3035Z" fill="white"/>
<path d="M7.69457 26.2136L8.23389 28.0114H10.1215L8.59344 29.09L9.17771 30.8878L7.69457 29.8091L6.16648 30.8878L6.7058 29.09L5.22266 28.0114H7.06535L7.69457 26.2136Z" fill="white"/>
<path d="M7.69457 34.1238L8.23389 35.9215H10.1215L8.59344 37.0002L9.17771 38.7979L7.69457 37.6743L6.16648 38.7979L6.7058 37.0002L5.22266 35.9215H7.06535L7.69457 34.1238Z" fill="white"/>
<path d="M13.2226 6.21338L13.8069 8.01113H15.6945L14.1664 9.13473L14.7507 10.9325L13.2226 9.80889L11.7395 10.9325L12.2788 9.13473L10.7957 8.01113H12.6384L13.2226 6.21338Z" fill="white"/>
<path d="M13.2226 14.1235L13.8069 15.9213H15.6945L14.1664 17.0449L14.7507 18.8426L13.2226 17.719L11.7395 18.8426L12.2788 17.0449L10.7957 15.9213H12.6384L13.2226 14.1235Z" fill="white"/>
<path d="M13.2226 22.0337L13.8069 23.8314H15.6945L14.1664 24.955L14.7507 26.7528L13.2226 25.6292L11.7395 26.7528L12.2788 24.955L10.7957 23.8314H12.6384L13.2226 22.0337Z" fill="white"/>
<path d="M13.2226 29.9438L13.8069 31.7416H15.6945L14.1664 32.8652L14.7507 34.618L13.2226 33.5394L11.7395 34.618L12.2788 32.8652L10.7957 31.7416H12.6384L13.2226 29.9438Z" fill="white"/>
<path d="M13.2226 37.8538L13.8069 39.6515H15.6945L14.1664 40.7751L14.7507 42.5279L13.2226 41.4493L11.7395 42.5279L12.2788 40.7751L10.7957 39.6515H12.6384L13.2226 37.8538Z" fill="white"/>
<path d="M18.7508 10.3933L19.3351 12.1911H21.2228L19.6947 13.3147L20.2789 15.0675L18.7508 13.9888L17.2228 15.0675L17.807 13.3147L16.2789 12.1911H18.1666L18.7508 10.3933Z" fill="white"/>
<path d="M18.7508 18.3035L19.3351 20.1012H21.2228L19.6947 21.1799L20.2789 22.9776L18.7508 21.899L17.2228 22.9776L17.807 21.1799L16.2789 20.1012H18.1666L18.7508 18.3035Z" fill="white"/>
<path d="M18.7508 26.2136L19.3351 28.0114H21.2228L19.6947 29.09L20.2789 30.8878L18.7508 29.8091L17.2228 30.8878L17.807 29.09L16.2789 28.0114H18.1666L18.7508 26.2136Z" fill="white"/>
<path d="M18.7508 34.1238L19.3351 35.9215H21.2228L19.6947 37.0002L20.2789 38.7979L18.7508 37.6743L17.2228 38.7979L17.807 37.0002L16.2789 35.9215H18.1666L18.7508 34.1238Z" fill="white"/>
<path d="M24.3238 6.21338L24.9081 8.01113H26.7957L25.2676 9.13473L25.8519 10.9325L24.3238 9.80889L22.8407 10.9325L23.38 9.13473L21.8969 8.01113H23.7395L24.3238 6.21338Z" fill="white"/>
<path d="M24.3238 14.1235L24.9081 15.9213H26.7957L25.2676 17.0449L25.8519 18.8426L24.3238 17.719L22.8407 18.8426L23.38 17.0449L21.8969 15.9213H23.7395L24.3238 14.1235Z" fill="white"/>
<path d="M24.3238 22.0337L24.9081 23.8314H26.7957L25.2676 24.955L25.8519 26.7528L24.3238 25.6292L22.8407 26.7528L23.38 24.955L21.8969 23.8314H23.7395L24.3238 22.0337Z" fill="white"/>
<path d="M24.3238 29.9438L24.9081 31.7416H26.7957L25.2676 32.8652L25.8519 34.618L24.3238 33.5394L22.8407 34.618L23.38 32.8652L21.8969 31.7416H23.7395L24.3238 29.9438Z" fill="white"/>
<path d="M24.3238 37.8538L24.9081 39.6515H26.7957L25.2676 40.7751L25.8519 42.5279L24.3238 41.4493L22.8407 42.5279L23.38 40.7751L21.8969 39.6515H23.7395L24.3238 37.8538Z" fill="white"/>
<path d="M29.8518 10.3933L30.4361 12.1911H32.3237L30.7956 13.3147L31.3349 15.0675L29.8518 13.9888L28.3237 15.0675L28.908 13.3147L27.3799 12.1911H29.2675L29.8518 10.3933Z" fill="white"/>
<path d="M29.8518 18.3035L30.4361 20.1012H32.3237L30.7956 21.1799L31.3349 22.9776L29.8518 21.899L28.3237 22.9776L28.908 21.1799L27.3799 20.1012H29.2675L29.8518 18.3035Z" fill="white"/>
<path d="M29.8518 26.2136L30.4361 28.0114H32.3237L30.7956 29.09L31.3349 30.8878L29.8518 29.8091L28.3237 30.8878L28.908 29.09L27.3799 28.0114H29.2675L29.8518 26.2136Z" fill="white"/>
<path d="M29.8518 34.1238L30.4361 35.9215H32.3237L30.7956 37.0002L31.3349 38.7979L29.8518 37.6743L28.3237 38.7979L28.908 37.0002L27.3799 35.9215H29.2675L29.8518 34.1238Z" fill="white"/>
<path d="M35.4248 6.21338L36.0091 8.01113H37.8967L36.3686 9.13473L36.9529 10.9325L35.4248 9.80889L33.8967 10.9325L34.481 9.13473L32.9529 8.01113H34.8405L35.4248 6.21338Z" fill="white"/>
<path d="M35.4248 14.1235L36.0091 15.9213H37.8967L36.3686 17.0449L36.9529 18.8426L35.4248 17.719L33.8967 18.8426L34.481 17.0449L32.9529 15.9213H34.8405L35.4248 14.1235Z" fill="white"/>
<path d="M35.4248 22.0337L36.0091 23.8314H37.8967L36.3686 24.955L36.9529 26.7528L35.4248 25.6292L33.8967 26.7528L34.481 24.955L32.9529 23.8314H34.8405L35.4248 22.0337Z" fill="white"/>
<path d="M35.4248 29.9438L36.0091 31.7416H37.8967L36.3686 32.8652L36.9529 34.618L35.4248 33.5394L33.8967 34.618L34.481 32.8652L32.9529 31.7416H34.8405L35.4248 29.9438Z" fill="white"/>
<path d="M35.4248 37.8538L36.0091 39.6515H37.8967L36.3686 40.7751L36.9529 42.5279L35.4248 41.4493L33.8967 42.5279L34.481 40.7751L32.9529 39.6515H34.8405L35.4248 37.8538Z" fill="white"/>
</g>
</g>
</g>
<rect x="0.5" y="0.5" width="89" height="89" rx="44.5" stroke="#8F99A8"/>
<rect x="52.5" y="52.5" width="47" height="47" rx="23.5" fill="#1836AC"/>
<rect x="52.5" y="52.5" width="47" height="47" rx="23.5" stroke="#8F99A8"/>
<path d="M75.1753 71.1225C75.1753 71.9147 75.0106 72.601 74.6812 73.1814C74.3518 73.7619 73.9047 74.2364 73.34 74.605C72.7831 74.9737 72.1556 75.2443 71.4575 75.4168V75.4874C72.838 75.66 73.8851 76.0835 74.5988 76.7581C75.3204 77.4326 75.6812 78.3346 75.6812 79.4641C75.6812 80.468 75.4342 81.3661 74.94 82.1583C74.4537 82.9505 73.7008 83.5741 72.6811 84.029C71.6614 84.4839 70.3477 84.7114 68.7397 84.7114C67.7907 84.7114 66.9044 84.6329 66.0808 84.4761C65.2651 84.327 64.4964 84.0957 63.7748 83.7819V80.6877C64.5121 81.0642 65.2847 81.3504 66.0926 81.5465C66.9004 81.7348 67.6534 81.8289 68.3515 81.8289C69.6535 81.8289 70.5634 81.6054 71.081 81.1583C71.6065 80.7033 71.8693 80.068 71.8693 79.2523C71.8693 78.7738 71.7477 78.3699 71.5046 78.0405C71.2614 77.7111 70.8379 77.4601 70.2339 77.2875C69.6378 77.1149 68.8025 77.0287 67.7279 77.0287H66.422V74.2403H67.7515C68.8103 74.2403 69.6143 74.1423 70.1633 73.9462C70.7202 73.7422 71.0967 73.4677 71.2928 73.1226C71.4967 72.7696 71.5987 72.3696 71.5987 71.9225C71.5987 71.3108 71.4105 70.8323 71.034 70.4872C70.6575 70.1421 70.03 69.9695 69.1515 69.9695C68.6025 69.9695 68.1005 70.0401 67.6456 70.1813C67.1985 70.3146 66.7946 70.4793 66.4338 70.6754C66.073 70.8637 65.7553 71.048 65.4808 71.2284L63.7983 68.7224C64.4729 68.2361 65.2612 67.8322 66.1632 67.5106C67.073 67.189 68.1554 67.0282 69.4104 67.0282C71.183 67.0282 72.587 67.3851 73.6223 68.0988C74.6577 68.8126 75.1753 69.8205 75.1753 71.1225ZM89.5407 75.8757C89.5407 77.264 89.4309 78.5032 89.2113 79.5935C88.9995 80.6837 88.6544 81.6093 88.1759 82.3701C87.7053 83.1309 87.0857 83.7113 86.317 84.1114C85.5484 84.5114 84.615 84.7114 83.5169 84.7114C82.1364 84.7114 81.0031 84.3623 80.1167 83.6643C79.2304 82.9584 78.5755 81.9465 78.1519 80.6288C77.7284 79.3033 77.5166 77.7189 77.5166 75.8757C77.5166 74.0168 77.7088 72.4285 78.0931 71.1107C78.4853 69.7852 79.1206 68.7695 79.9991 68.0635C80.8776 67.3576 82.0502 67.0047 83.5169 67.0047C84.8895 67.0047 86.019 67.3576 86.9053 68.0635C87.7995 68.7616 88.4622 69.7734 88.8936 71.099C89.325 72.4167 89.5407 74.0089 89.5407 75.8757ZM81.1286 75.8757C81.1286 77.1855 81.1991 78.2797 81.3403 79.1582C81.4894 80.0288 81.7364 80.6837 82.0815 81.123C82.4267 81.5622 82.9051 81.7818 83.5169 81.7818C84.1209 81.7818 84.5954 81.5661 84.9405 81.1347C85.2935 80.6955 85.5444 80.0406 85.6935 79.1699C85.8425 78.2915 85.917 77.1934 85.917 75.8757C85.917 74.5658 85.8425 73.4716 85.6935 72.5932C85.5444 71.7147 85.2935 71.0558 84.9405 70.6166C84.5954 70.1695 84.1209 69.946 83.5169 69.946C82.9051 69.946 82.4267 70.1695 82.0815 70.6166C81.7364 71.0558 81.4894 71.7147 81.3403 72.5932C81.1991 73.4716 81.1286 74.5658 81.1286 75.8757Z" fill="white"/>
</g>
<defs>
<clipPath id="clip0_449_38558">
<rect width="100" height="100" fill="white"/>
</clipPath>
<clipPath id="clip1_449_38558">
<rect x="1" y="1" width="88" height="88" rx="44" fill="white"/>
</clipPath>
<clipPath id="clip2_449_38558">
<rect width="150.831" height="88" fill="white" transform="translate(-26.238 1)"/>
</clipPath>
</defs>
</svg>
