<svg width="100" height="100" viewBox="0 0 100 100" fill="none" xmlns="http://www.w3.org/2000/svg">
<g clip-path="url(#clip0_449_38563)">
<g clip-path="url(#clip1_449_38563)">
<rect x="1" y="1" width="88" height="88" rx="44" fill="#1836AC"/>
<g clip-path="url(#clip2_449_38563)">
<mask id="mask0_449_38563" style="mask-type:luminance" maskUnits="userSpaceOnUse" x="-27" y="1" width="152" height="88">
<path d="M124.593 1H-26.238V89H124.593V1Z" fill="white"/>
</mask>
<g mask="url(#mask0_449_38563)">
<path d="M124.593 82.2136H-26.238V89.0001H124.593V82.2136Z" fill="#CB001C"/>
<path d="M124.593 75.4717H-26.238V82.2582H124.593V75.4717Z" fill="white"/>
<path d="M124.593 68.6853H-26.238V75.4269H124.593V68.6853Z" fill="#CB001C"/>
<path d="M124.593 61.9438H-26.238V68.7304H124.593V61.9438Z" fill="white"/>
<path d="M124.593 55.1575H-26.238V61.944H124.593V55.1575Z" fill="#CB001C"/>
<path d="M124.593 48.3708H-26.238V55.1124H124.593V48.3708Z" fill="white"/>
<path d="M124.593 41.6292H-26.238V48.4157H124.593V41.6292Z" fill="#CB001C"/>
<path d="M124.593 34.8425H-26.238V41.5841H124.593V34.8425Z" fill="white"/>
<path d="M124.593 28.1013H-26.238V34.8878H124.593V28.1013Z" fill="#CB001C"/>
<path d="M124.593 21.3147H-26.238V28.1012H124.593V21.3147Z" fill="white"/>
<path d="M124.593 14.5283H-26.238V21.3148H124.593V14.5283Z" fill="#CB001C"/>
<path d="M124.593 7.78638H-26.238V14.5729H124.593V7.78638Z" fill="white"/>
<path d="M124.593 1H-26.238V7.78652H124.593V1Z" fill="#CB001C"/>
<path d="M42.6609 1H-26.238V48.3708H42.6609V1Z" fill="#1A2F81"/>
<path d="M2.16637 6.21338L2.75064 8.01113H4.63828L3.11019 9.13473L3.69446 10.9325L2.16637 9.80889L0.638278 10.9325L1.22255 9.13473L-0.305542 8.01113H1.5821L2.16637 6.21338Z" fill="white"/>
<path d="M2.16637 14.1235L2.75064 15.9213H4.63828L3.11019 17.0449L3.69446 18.8426L2.16637 17.719L0.638278 18.8426L1.22255 17.0449L-0.305542 15.9213H1.5821L2.16637 14.1235Z" fill="white"/>
<path d="M2.16637 22.0337L2.75064 23.8314H4.63828L3.11019 24.955L3.69446 26.7528L2.16637 25.6292L0.638278 26.7528L1.22255 24.955L-0.305542 23.8314H1.5821L2.16637 22.0337Z" fill="white"/>
<path d="M2.16637 29.9438L2.75064 31.7416H4.63828L3.11019 32.8652L3.69446 34.618L2.16637 33.5394L0.638278 34.618L1.22255 32.8652L-0.305542 31.7416H1.5821L2.16637 29.9438Z" fill="white"/>
<path d="M2.16637 37.8538L2.75064 39.6515H4.63828L3.11019 40.7751L3.69446 42.5279L2.16637 41.4493L0.638278 42.5279L1.22255 40.7751L-0.305542 39.6515H1.5821L2.16637 37.8538Z" fill="white"/>
<path d="M7.69457 10.3933L8.23389 12.1911H10.1215L8.59344 13.3147L9.17771 15.0675L7.69457 13.9888L6.16648 15.0675L6.7058 13.3147L5.22266 12.1911H7.06535L7.69457 10.3933Z" fill="white"/>
<path d="M7.69457 18.3035L8.23389 20.1012H10.1215L8.59344 21.1799L9.17771 22.9776L7.69457 21.899L6.16648 22.9776L6.7058 21.1799L5.22266 20.1012H7.06535L7.69457 18.3035Z" fill="white"/>
<path d="M7.69457 26.2136L8.23389 28.0114H10.1215L8.59344 29.09L9.17771 30.8878L7.69457 29.8091L6.16648 30.8878L6.7058 29.09L5.22266 28.0114H7.06535L7.69457 26.2136Z" fill="white"/>
<path d="M7.69457 34.1238L8.23389 35.9215H10.1215L8.59344 37.0002L9.17771 38.7979L7.69457 37.6743L6.16648 38.7979L6.7058 37.0002L5.22266 35.9215H7.06535L7.69457 34.1238Z" fill="white"/>
<path d="M13.2226 6.21338L13.8069 8.01113H15.6945L14.1664 9.13473L14.7507 10.9325L13.2226 9.80889L11.7395 10.9325L12.2788 9.13473L10.7957 8.01113H12.6384L13.2226 6.21338Z" fill="white"/>
<path d="M13.2226 14.1235L13.8069 15.9213H15.6945L14.1664 17.0449L14.7507 18.8426L13.2226 17.719L11.7395 18.8426L12.2788 17.0449L10.7957 15.9213H12.6384L13.2226 14.1235Z" fill="white"/>
<path d="M13.2226 22.0337L13.8069 23.8314H15.6945L14.1664 24.955L14.7507 26.7528L13.2226 25.6292L11.7395 26.7528L12.2788 24.955L10.7957 23.8314H12.6384L13.2226 22.0337Z" fill="white"/>
<path d="M13.2226 29.9438L13.8069 31.7416H15.6945L14.1664 32.8652L14.7507 34.618L13.2226 33.5394L11.7395 34.618L12.2788 32.8652L10.7957 31.7416H12.6384L13.2226 29.9438Z" fill="white"/>
<path d="M13.2226 37.8538L13.8069 39.6515H15.6945L14.1664 40.7751L14.7507 42.5279L13.2226 41.4493L11.7395 42.5279L12.2788 40.7751L10.7957 39.6515H12.6384L13.2226 37.8538Z" fill="white"/>
<path d="M18.7508 10.3933L19.3351 12.1911H21.2228L19.6947 13.3147L20.2789 15.0675L18.7508 13.9888L17.2228 15.0675L17.807 13.3147L16.2789 12.1911H18.1666L18.7508 10.3933Z" fill="white"/>
<path d="M18.7508 18.3035L19.3351 20.1012H21.2228L19.6947 21.1799L20.2789 22.9776L18.7508 21.899L17.2228 22.9776L17.807 21.1799L16.2789 20.1012H18.1666L18.7508 18.3035Z" fill="white"/>
<path d="M18.7508 26.2136L19.3351 28.0114H21.2228L19.6947 29.09L20.2789 30.8878L18.7508 29.8091L17.2228 30.8878L17.807 29.09L16.2789 28.0114H18.1666L18.7508 26.2136Z" fill="white"/>
<path d="M18.7508 34.1238L19.3351 35.9215H21.2228L19.6947 37.0002L20.2789 38.7979L18.7508 37.6743L17.2228 38.7979L17.807 37.0002L16.2789 35.9215H18.1666L18.7508 34.1238Z" fill="white"/>
<path d="M24.3238 6.21338L24.9081 8.01113H26.7957L25.2676 9.13473L25.8519 10.9325L24.3238 9.80889L22.8407 10.9325L23.38 9.13473L21.8969 8.01113H23.7395L24.3238 6.21338Z" fill="white"/>
<path d="M24.3238 14.1235L24.9081 15.9213H26.7957L25.2676 17.0449L25.8519 18.8426L24.3238 17.719L22.8407 18.8426L23.38 17.0449L21.8969 15.9213H23.7395L24.3238 14.1235Z" fill="white"/>
<path d="M24.3238 22.0337L24.9081 23.8314H26.7957L25.2676 24.955L25.8519 26.7528L24.3238 25.6292L22.8407 26.7528L23.38 24.955L21.8969 23.8314H23.7395L24.3238 22.0337Z" fill="white"/>
<path d="M24.3238 29.9438L24.9081 31.7416H26.7957L25.2676 32.8652L25.8519 34.618L24.3238 33.5394L22.8407 34.618L23.38 32.8652L21.8969 31.7416H23.7395L24.3238 29.9438Z" fill="white"/>
<path d="M24.3238 37.8538L24.9081 39.6515H26.7957L25.2676 40.7751L25.8519 42.5279L24.3238 41.4493L22.8407 42.5279L23.38 40.7751L21.8969 39.6515H23.7395L24.3238 37.8538Z" fill="white"/>
<path d="M29.8518 10.3933L30.4361 12.1911H32.3237L30.7956 13.3147L31.3349 15.0675L29.8518 13.9888L28.3237 15.0675L28.908 13.3147L27.3799 12.1911H29.2675L29.8518 10.3933Z" fill="white"/>
<path d="M29.8518 18.3035L30.4361 20.1012H32.3237L30.7956 21.1799L31.3349 22.9776L29.8518 21.899L28.3237 22.9776L28.908 21.1799L27.3799 20.1012H29.2675L29.8518 18.3035Z" fill="white"/>
<path d="M29.8518 26.2136L30.4361 28.0114H32.3237L30.7956 29.09L31.3349 30.8878L29.8518 29.8091L28.3237 30.8878L28.908 29.09L27.3799 28.0114H29.2675L29.8518 26.2136Z" fill="white"/>
<path d="M29.8518 34.1238L30.4361 35.9215H32.3237L30.7956 37.0002L31.3349 38.7979L29.8518 37.6743L28.3237 38.7979L28.908 37.0002L27.3799 35.9215H29.2675L29.8518 34.1238Z" fill="white"/>
<path d="M35.4248 6.21338L36.0091 8.01113H37.8967L36.3686 9.13473L36.9529 10.9325L35.4248 9.80889L33.8967 10.9325L34.481 9.13473L32.9529 8.01113H34.8405L35.4248 6.21338Z" fill="white"/>
<path d="M35.4248 14.1235L36.0091 15.9213H37.8967L36.3686 17.0449L36.9529 18.8426L35.4248 17.719L33.8967 18.8426L34.481 17.0449L32.9529 15.9213H34.8405L35.4248 14.1235Z" fill="white"/>
<path d="M35.4248 22.0337L36.0091 23.8314H37.8967L36.3686 24.955L36.9529 26.7528L35.4248 25.6292L33.8967 26.7528L34.481 24.955L32.9529 23.8314H34.8405L35.4248 22.0337Z" fill="white"/>
<path d="M35.4248 29.9438L36.0091 31.7416H37.8967L36.3686 32.8652L36.9529 34.618L35.4248 33.5394L33.8967 34.618L34.481 32.8652L32.9529 31.7416H34.8405L35.4248 29.9438Z" fill="white"/>
<path d="M35.4248 37.8538L36.0091 39.6515H37.8967L36.3686 40.7751L36.9529 42.5279L35.4248 41.4493L33.8967 42.5279L34.481 40.7751L32.9529 39.6515H34.8405L35.4248 37.8538Z" fill="white"/>
</g>
</g>
</g>
<rect x="0.5" y="0.5" width="89" height="89" rx="44.5" stroke="#8F99A8"/>
<rect x="52.5" y="52.5" width="47" height="47" rx="23.5" fill="#1836AC"/>
<rect x="52.5" y="52.5" width="47" height="47" rx="23.5" stroke="#8F99A8"/>
<path d="M63.5095 73.4873C64.5605 73.4873 65.4939 73.6873 66.3096 74.0874C67.1332 74.4874 67.7803 75.0756 68.2509 75.8521C68.7215 76.6286 68.9568 77.5856 68.9568 78.7229C68.9568 79.9621 68.698 81.0328 68.1803 81.9348C67.6705 82.8289 66.9057 83.5152 65.8861 83.9937C64.8743 84.4722 63.6115 84.7114 62.0977 84.7114C61.1957 84.7114 60.3447 84.6329 59.5446 84.4761C58.7524 84.327 58.0583 84.0957 57.4622 83.7819V80.6406C58.0583 80.9543 58.772 81.221 59.6034 81.4406C60.4427 81.6524 61.231 81.7583 61.9683 81.7583C62.6899 81.7583 63.2977 81.6642 63.7919 81.4759C64.286 81.2798 64.6586 80.9818 64.9096 80.5818C65.1684 80.1739 65.2978 79.6562 65.2978 79.0288C65.2978 78.1895 65.0155 77.5463 64.4507 77.0993C63.886 76.6522 63.0193 76.4286 61.8506 76.4286C61.4035 76.4286 60.9368 76.4718 60.4505 76.5581C59.9721 76.6443 59.5721 76.7306 59.2505 76.8169L57.8034 76.0404L58.4505 67.2753H67.7803V70.3578H61.6388L61.3212 73.7344C61.5879 73.6795 61.8781 73.6246 62.1918 73.5697C62.5055 73.5148 62.9448 73.4873 63.5095 73.4873ZM82.9692 75.8757C82.9692 77.264 82.8594 78.5032 82.6398 79.5935C82.428 80.6837 82.0829 81.6093 81.6045 82.3701C81.1339 83.1309 80.5142 83.7113 79.7456 84.1114C78.9769 84.5114 78.0435 84.7114 76.9454 84.7114C75.565 84.7114 74.4316 84.3623 73.5453 83.6643C72.659 82.9584 72.004 81.9465 71.5805 80.6288C71.1569 79.3033 70.9452 77.7189 70.9452 75.8757C70.9452 74.0168 71.1373 72.4285 71.5216 71.1107C71.9138 69.7852 72.5491 68.7695 73.4276 68.0635C74.3061 67.3576 75.4787 67.0047 76.9454 67.0047C78.318 67.0047 79.4475 67.3576 80.3338 68.0635C81.228 68.7616 81.8908 69.7734 82.3222 71.099C82.7535 72.4167 82.9692 74.0089 82.9692 75.8757ZM74.5571 75.8757C74.5571 77.1855 74.6277 78.2797 74.7689 79.1582C74.9179 80.0288 75.165 80.6837 75.5101 81.123C75.8552 81.5622 76.3336 81.7818 76.9454 81.7818C77.5494 81.7818 78.0239 81.5661 78.369 81.1347C78.722 80.6955 78.973 80.0406 79.122 79.1699C79.271 78.2915 79.3455 77.1934 79.3455 75.8757C79.3455 74.5658 79.271 73.4716 79.122 72.5932C78.973 71.7147 78.722 71.0558 78.369 70.6166C78.0239 70.1695 77.5494 69.946 76.9454 69.946C76.3336 69.946 75.8552 70.1695 75.5101 70.6166C75.165 71.0558 74.9179 71.7147 74.7689 72.5932C74.6277 73.4716 74.5571 74.5658 74.5571 75.8757ZM96.7581 75.8757C96.7581 77.264 96.6483 78.5032 96.4287 79.5935C96.2169 80.6837 95.8718 81.6093 95.3934 82.3701C94.9227 83.1309 94.3031 83.7113 93.5344 84.1114C92.7658 84.5114 91.8324 84.7114 90.7343 84.7114C89.3539 84.7114 88.2205 84.3623 87.3342 83.6643C86.4478 82.9584 85.7929 81.9465 85.3694 80.6288C84.9458 79.3033 84.734 77.7189 84.734 75.8757C84.734 74.0168 84.9262 72.4285 85.3105 71.1107C85.7027 69.7852 86.338 68.7695 87.2165 68.0635C88.095 67.3576 89.2676 67.0047 90.7343 67.0047C92.1069 67.0047 93.2364 67.3576 94.1227 68.0635C95.0169 68.7616 95.6796 69.7734 96.111 71.099C96.5424 72.4167 96.7581 74.0089 96.7581 75.8757ZM88.346 75.8757C88.346 77.1855 88.4166 78.2797 88.5577 79.1582C88.7068 80.0288 88.9538 80.6837 89.2989 81.123C89.6441 81.5622 90.1225 81.7818 90.7343 81.7818C91.3383 81.7818 91.8128 81.5661 92.1579 81.1347C92.5109 80.6955 92.7619 80.0406 92.9109 79.1699C93.0599 78.2915 93.1344 77.1934 93.1344 75.8757C93.1344 74.5658 93.0599 73.4716 92.9109 72.5932C92.7619 71.7147 92.5109 71.0558 92.1579 70.6166C91.8128 70.1695 91.3383 69.946 90.7343 69.946C90.1225 69.946 89.6441 70.1695 89.2989 70.6166C88.9538 71.0558 88.7068 71.7147 88.5577 72.5932C88.4166 73.4716 88.346 74.5658 88.346 75.8757Z" fill="white"/>
</g>
<defs>
<clipPath id="clip0_449_38563">
<rect width="100" height="100" fill="white"/>
</clipPath>
<clipPath id="clip1_449_38563">
<rect x="1" y="1" width="88" height="88" rx="44" fill="white"/>
</clipPath>
<clipPath id="clip2_449_38563">
<rect width="150.831" height="88" fill="white" transform="translate(-26.238 1)"/>
</clipPath>
</defs>
</svg>
