<svg width="100" height="100" viewBox="0 0 100 100" fill="none" xmlns="http://www.w3.org/2000/svg">
<g clip-path="url(#clip0_449_38512)">
<g clip-path="url(#clip1_449_38512)">
<rect x="1" y="1" width="88" height="88" rx="44" fill="#1836AC"/>
<g clip-path="url(#clip2_449_38512)">
<mask id="mask0_449_38512" style="mask-type:luminance" maskUnits="userSpaceOnUse" x="-27" y="1" width="152" height="88">
<path d="M124.593 1H-26.2381V89H124.593V1Z" fill="white"/>
</mask>
<g mask="url(#mask0_449_38512)">
<path d="M124.593 82.2136H-26.2381V89.0001H124.593V82.2136Z" fill="#CB001C"/>
<path d="M124.593 75.4717H-26.2381V82.2582H124.593V75.4717Z" fill="white"/>
<path d="M124.593 68.6853H-26.2381V75.4269H124.593V68.6853Z" fill="#CB001C"/>
<path d="M124.593 61.9438H-26.2381V68.7304H124.593V61.9438Z" fill="white"/>
<path d="M124.593 55.1575H-26.2381V61.944H124.593V55.1575Z" fill="#CB001C"/>
<path d="M124.593 48.3708H-26.2381V55.1124H124.593V48.3708Z" fill="white"/>
<path d="M124.593 41.6292H-26.2381V48.4157H124.593V41.6292Z" fill="#CB001C"/>
<path d="M124.593 34.8425H-26.2381V41.5841H124.593V34.8425Z" fill="white"/>
<path d="M124.593 28.1013H-26.2381V34.8878H124.593V28.1013Z" fill="#CB001C"/>
<path d="M124.593 21.3147H-26.2381V28.1012H124.593V21.3147Z" fill="white"/>
<path d="M124.593 14.5283H-26.2381V21.3148H124.593V14.5283Z" fill="#CB001C"/>
<path d="M124.593 7.78638H-26.2381V14.5729H124.593V7.78638Z" fill="white"/>
<path d="M124.593 1H-26.2381V7.78652H124.593V1Z" fill="#CB001C"/>
<path d="M42.6608 1H-26.2381V48.3708H42.6608V1Z" fill="#1A2F81"/>
<path d="M2.1664 6.21338L2.75067 8.01113H4.63831L3.11022 9.13473L3.69449 10.9325L2.1664 9.80889L0.638309 10.9325L1.22258 9.13473L-0.305511 8.01113H1.58213L2.1664 6.21338Z" fill="white"/>
<path d="M2.1664 14.1235L2.75067 15.9213H4.63831L3.11022 17.0449L3.69449 18.8426L2.1664 17.719L0.638309 18.8426L1.22258 17.0449L-0.305511 15.9213H1.58213L2.1664 14.1235Z" fill="white"/>
<path d="M2.1664 22.0337L2.75067 23.8314H4.63831L3.11022 24.955L3.69449 26.7528L2.1664 25.6292L0.638309 26.7528L1.22258 24.955L-0.305511 23.8314H1.58213L2.1664 22.0337Z" fill="white"/>
<path d="M2.1664 29.9438L2.75067 31.7416H4.63831L3.11022 32.8652L3.69449 34.618L2.1664 33.5394L0.638309 34.618L1.22258 32.8652L-0.305511 31.7416H1.58213L2.1664 29.9438Z" fill="white"/>
<path d="M2.1664 37.8538L2.75067 39.6515H4.63831L3.11022 40.7751L3.69449 42.5279L2.1664 41.4493L0.638309 42.5279L1.22258 40.7751L-0.305511 39.6515H1.58213L2.1664 37.8538Z" fill="white"/>
<path d="M7.69449 10.3933L8.23382 12.1911H10.1215L8.59337 13.3147L9.17764 15.0675L7.69449 13.9888L6.1664 15.0675L6.70573 13.3147L5.22258 12.1911H7.06528L7.69449 10.3933Z" fill="white"/>
<path d="M7.69449 18.3035L8.23382 20.1012H10.1215L8.59337 21.1799L9.17764 22.9776L7.69449 21.899L6.1664 22.9776L6.70573 21.1799L5.22258 20.1012H7.06528L7.69449 18.3035Z" fill="white"/>
<path d="M7.69449 26.2136L8.23382 28.0114H10.1215L8.59337 29.09L9.17764 30.8878L7.69449 29.8091L6.1664 30.8878L6.70573 29.09L5.22258 28.0114H7.06528L7.69449 26.2136Z" fill="white"/>
<path d="M7.69449 34.1238L8.23382 35.9215H10.1215L8.59337 37.0002L9.17764 38.7979L7.69449 37.6743L6.1664 38.7979L6.70573 37.0002L5.22258 35.9215H7.06528L7.69449 34.1238Z" fill="white"/>
<path d="M13.2226 6.21338L13.8069 8.01113H15.6945L14.1664 9.13473L14.7507 10.9325L13.2226 9.80889L11.7394 10.9325L12.2788 9.13473L10.7956 8.01113H12.6383L13.2226 6.21338Z" fill="white"/>
<path d="M13.2226 14.1235L13.8069 15.9213H15.6945L14.1664 17.0449L14.7507 18.8426L13.2226 17.719L11.7394 18.8426L12.2788 17.0449L10.7956 15.9213H12.6383L13.2226 14.1235Z" fill="white"/>
<path d="M13.2226 22.0337L13.8069 23.8314H15.6945L14.1664 24.955L14.7507 26.7528L13.2226 25.6292L11.7394 26.7528L12.2788 24.955L10.7956 23.8314H12.6383L13.2226 22.0337Z" fill="white"/>
<path d="M13.2226 29.9438L13.8069 31.7416H15.6945L14.1664 32.8652L14.7507 34.618L13.2226 33.5394L11.7394 34.618L12.2788 32.8652L10.7956 31.7416H12.6383L13.2226 29.9438Z" fill="white"/>
<path d="M13.2226 37.8538L13.8069 39.6515H15.6945L14.1664 40.7751L14.7507 42.5279L13.2226 41.4493L11.7394 42.5279L12.2788 40.7751L10.7956 39.6515H12.6383L13.2226 37.8538Z" fill="white"/>
<path d="M18.7507 10.3933L19.3349 12.1911H21.2226L19.6945 13.3147L20.2788 15.0675L18.7507 13.9888L17.2226 15.0675L17.8069 13.3147L16.2788 12.1911H18.1664L18.7507 10.3933Z" fill="white"/>
<path d="M18.7507 18.3035L19.3349 20.1012H21.2226L19.6945 21.1799L20.2788 22.9776L18.7507 21.899L17.2226 22.9776L17.8069 21.1799L16.2788 20.1012H18.1664L18.7507 18.3035Z" fill="white"/>
<path d="M18.7507 26.2136L19.3349 28.0114H21.2226L19.6945 29.09L20.2788 30.8878L18.7507 29.8091L17.2226 30.8878L17.8069 29.09L16.2788 28.0114H18.1664L18.7507 26.2136Z" fill="white"/>
<path d="M18.7507 34.1238L19.3349 35.9215H21.2226L19.6945 37.0002L20.2788 38.7979L18.7507 37.6743L17.2226 38.7979L17.8069 37.0002L16.2788 35.9215H18.1664L18.7507 34.1238Z" fill="white"/>
<path d="M24.3237 6.21338L24.908 8.01113H26.7956L25.2675 9.13473L25.8518 10.9325L24.3237 9.80889L22.8405 10.9325L23.3799 9.13473L21.8967 8.01113H23.7394L24.3237 6.21338Z" fill="white"/>
<path d="M24.3237 14.1235L24.908 15.9213H26.7956L25.2675 17.0449L25.8518 18.8426L24.3237 17.719L22.8405 18.8426L23.3799 17.0449L21.8967 15.9213H23.7394L24.3237 14.1235Z" fill="white"/>
<path d="M24.3237 22.0337L24.908 23.8314H26.7956L25.2675 24.955L25.8518 26.7528L24.3237 25.6292L22.8405 26.7528L23.3799 24.955L21.8967 23.8314H23.7394L24.3237 22.0337Z" fill="white"/>
<path d="M24.3237 29.9438L24.908 31.7416H26.7956L25.2675 32.8652L25.8518 34.618L24.3237 33.5394L22.8405 34.618L23.3799 32.8652L21.8967 31.7416H23.7394L24.3237 29.9438Z" fill="white"/>
<path d="M24.3237 37.8538L24.908 39.6515H26.7956L25.2675 40.7751L25.8518 42.5279L24.3237 41.4493L22.8405 42.5279L23.3799 40.7751L21.8967 39.6515H23.7394L24.3237 37.8538Z" fill="white"/>
<path d="M29.8518 10.3933L30.4361 12.1911H32.3237L30.7956 13.3147L31.335 15.0675L29.8518 13.9888L28.3237 15.0675L28.908 13.3147L27.3799 12.1911H29.2675L29.8518 10.3933Z" fill="white"/>
<path d="M29.8518 18.3035L30.4361 20.1012H32.3237L30.7956 21.1799L31.335 22.9776L29.8518 21.899L28.3237 22.9776L28.908 21.1799L27.3799 20.1012H29.2675L29.8518 18.3035Z" fill="white"/>
<path d="M29.8518 26.2136L30.4361 28.0114H32.3237L30.7956 29.09L31.335 30.8878L29.8518 29.8091L28.3237 30.8878L28.908 29.09L27.3799 28.0114H29.2675L29.8518 26.2136Z" fill="white"/>
<path d="M29.8518 34.1238L30.4361 35.9215H32.3237L30.7956 37.0002L31.335 38.7979L29.8518 37.6743L28.3237 38.7979L28.908 37.0002L27.3799 35.9215H29.2675L29.8518 34.1238Z" fill="white"/>
<path d="M35.4248 6.21338L36.0091 8.01113H37.8967L36.3686 9.13473L36.9529 10.9325L35.4248 9.80889L33.8967 10.9325L34.481 9.13473L32.9529 8.01113H34.8406L35.4248 6.21338Z" fill="white"/>
<path d="M35.4248 14.1235L36.0091 15.9213H37.8967L36.3686 17.0449L36.9529 18.8426L35.4248 17.719L33.8967 18.8426L34.481 17.0449L32.9529 15.9213H34.8406L35.4248 14.1235Z" fill="white"/>
<path d="M35.4248 22.0337L36.0091 23.8314H37.8967L36.3686 24.955L36.9529 26.7528L35.4248 25.6292L33.8967 26.7528L34.481 24.955L32.9529 23.8314H34.8406L35.4248 22.0337Z" fill="white"/>
<path d="M35.4248 29.9438L36.0091 31.7416H37.8967L36.3686 32.8652L36.9529 34.618L35.4248 33.5394L33.8967 34.618L34.481 32.8652L32.9529 31.7416H34.8406L35.4248 29.9438Z" fill="white"/>
<path d="M35.4248 37.8538L36.0091 39.6515H37.8967L36.3686 40.7751L36.9529 42.5279L35.4248 41.4493L33.8967 42.5279L34.481 40.7751L32.9529 39.6515H34.8406L35.4248 37.8538Z" fill="white"/>
</g>
</g>
</g>
<rect x="0.5" y="0.5" width="89" height="89" rx="44.5" stroke="#8F99A8"/>
<rect x="32.5" y="52.5" width="66.7143" height="47" rx="13.3" fill="#1836AC"/>
<rect x="32.5" y="52.5" width="66.7143" height="47" rx="13.3" stroke="#8F99A8"/>
<path d="M50.2229 75.0664H47.4781V64.406H43.963V62.1216H53.738V64.406H50.2229V75.0664ZM63.1854 75.0664H55.7302V62.1216H63.1854V64.3706H58.475V67.2128H62.8578V69.4617H58.475V72.7997H63.1854V75.0664ZM71.3932 64.2201C70.8679 64.2201 70.4016 64.3234 69.9943 64.5299C69.5929 64.7306 69.2535 65.0228 68.976 65.4065C68.7045 65.7902 68.4979 66.2536 68.3563 66.7966C68.2146 67.3397 68.1438 67.9506 68.1438 68.6294C68.1438 69.5444 68.2559 70.3265 68.4802 70.9758C68.7104 71.6192 69.0646 72.1121 69.5427 72.4544C70.0208 72.7909 70.6377 72.9591 71.3932 72.9591C71.9186 72.9591 72.4439 72.9001 72.9693 72.782C73.5005 72.664 74.076 72.4957 74.6958 72.2773V74.5794C74.1233 74.8155 73.5596 74.9838 73.0047 75.0841C72.4498 75.1904 71.8271 75.2435 71.1365 75.2435C69.8024 75.2435 68.7045 74.969 67.8427 74.4201C66.9868 73.8652 66.3523 73.0919 65.9391 72.1003C65.5259 71.1027 65.3193 69.9398 65.3193 68.6117C65.3193 67.6319 65.4521 66.7346 65.7177 65.9201C65.9833 65.1055 66.3729 64.4001 66.8865 63.8039C67.4 63.2077 68.0346 62.7473 68.7901 62.4227C69.5457 62.098 70.4134 61.9357 71.3932 61.9357C72.0366 61.9357 72.68 62.0183 73.3234 62.1836C73.9727 62.343 74.5925 62.5643 75.1828 62.8477L74.2974 65.0789C73.8134 64.8487 73.3264 64.648 72.8365 64.4768C72.3465 64.3056 71.8655 64.2201 71.3932 64.2201ZM88.0656 75.0664H85.3297V69.4794H80.2031V75.0664H77.4583V62.1216H80.2031V67.1951H85.3297V62.1216H88.0656V75.0664Z" fill="white"/>
<path d="M57.4906 93.1997H54.7547V85.7091C54.7547 85.5025 54.7576 85.2487 54.7635 84.9476C54.7694 84.6407 54.7783 84.3278 54.7901 84.0091C54.8019 83.6844 54.8137 83.3922 54.8255 83.1325C54.7606 83.2093 54.6278 83.3421 54.4271 83.531C54.2323 83.7139 54.0493 83.8792 53.8781 84.0268L52.3906 85.2221L51.0714 83.5752L55.2417 80.2549H57.4906V93.1997ZM70.0812 86.7273C70.0812 87.7721 69.9986 88.7047 69.8333 89.5252C69.674 90.3457 69.4142 91.0422 69.0542 91.6148C68.7 92.1874 68.2337 92.6242 67.6552 92.9252C67.0767 93.2263 66.3743 93.3768 65.5479 93.3768C64.509 93.3768 63.6561 93.1141 62.9891 92.5888C62.322 92.0575 61.8292 91.2961 61.5104 90.3044C61.1917 89.3068 61.0323 88.1145 61.0323 86.7273C61.0323 85.3284 61.1769 84.133 61.4661 83.1414C61.7613 82.1438 62.2394 81.3794 62.9005 80.8481C63.5616 80.3169 64.4441 80.0513 65.5479 80.0513C66.5809 80.0513 67.4309 80.3169 68.0979 80.8481C68.7708 81.3735 69.2696 82.135 69.5943 83.1325C69.9189 84.1242 70.0812 85.3225 70.0812 86.7273ZM63.7505 86.7273C63.7505 87.7131 63.8036 88.5365 63.9099 89.1976C64.022 89.8528 64.208 90.3457 64.4677 90.6763C64.7274 91.0068 65.0875 91.1721 65.5479 91.1721C66.0024 91.1721 66.3595 91.0098 66.6193 90.6851C66.8849 90.3546 67.0738 89.8617 67.1859 89.2065C67.2981 88.5454 67.3542 87.719 67.3542 86.7273C67.3542 85.7415 67.2981 84.9181 67.1859 84.257C67.0738 83.5959 66.8849 83.1001 66.6193 82.7695C66.3595 82.433 66.0024 82.2648 65.5479 82.2648C65.0875 82.2648 64.7274 82.433 64.4677 82.7695C64.208 83.1001 64.022 83.5959 63.9099 84.257C63.8036 84.9181 63.7505 85.7415 63.7505 86.7273ZM80.4583 86.7273C80.4583 87.7721 80.3757 88.7047 80.2104 89.5252C80.051 90.3457 79.7913 91.0422 79.4312 91.6148C79.0771 92.1874 78.6108 92.6242 78.0323 92.9252C77.4538 93.2263 76.7514 93.3768 75.925 93.3768C74.8861 93.3768 74.0332 93.1141 73.3661 92.5888C72.6991 92.0575 72.2062 91.2961 71.8875 90.3044C71.5687 89.3068 71.4094 88.1145 71.4094 86.7273C71.4094 85.3284 71.554 84.133 71.8432 83.1414C72.1384 82.1438 72.6165 81.3794 73.2776 80.8481C73.9387 80.3169 74.8212 80.0513 75.925 80.0513C76.958 80.0513 77.808 80.3169 78.475 80.8481C79.1479 81.3735 79.6467 82.135 79.9714 83.1325C80.296 84.1242 80.4583 85.3225 80.4583 86.7273ZM74.1276 86.7273C74.1276 87.7131 74.1807 88.5365 74.287 89.1976C74.3991 89.8528 74.5851 90.3457 74.8448 90.6763C75.1045 91.0068 75.4646 91.1721 75.925 91.1721C76.3795 91.1721 76.7366 91.0098 76.9964 90.6851C77.262 90.3546 77.4509 89.8617 77.563 89.2065C77.6752 88.5454 77.7312 87.719 77.7312 86.7273C77.7312 85.7415 77.6752 84.9181 77.563 84.257C77.4509 83.5959 77.262 83.1001 76.9964 82.7695C76.7366 82.433 76.3795 82.2648 75.925 82.2648C75.4646 82.2648 75.1045 82.433 74.8448 82.7695C74.5851 83.1001 74.3991 83.5959 74.287 84.257C74.1807 84.9181 74.1276 85.7415 74.1276 86.7273Z" fill="white"/>
</g>
<defs>
<clipPath id="clip0_449_38512">
<rect width="100" height="100" fill="white"/>
</clipPath>
<clipPath id="clip1_449_38512">
<rect x="1" y="1" width="88" height="88" rx="44" fill="white"/>
</clipPath>
<clipPath id="clip2_449_38512">
<rect width="150.831" height="88" fill="white" transform="translate(-26.2381 1)"/>
</clipPath>
</defs>
</svg>
