<svg width="100" height="100" viewBox="0 0 100 100" fill="none" xmlns="http://www.w3.org/2000/svg">
<g clip-path="url(#clip0_449_38387)">
<g clip-path="url(#clip1_449_38387)">
<g clip-path="url(#clip2_449_38387)">
<mask id="mask0_449_38387" style="mask-type:luminance" maskUnits="userSpaceOnUse" x="-25" y="1" width="124" height="72">
<path d="M98.9958 1H-24.4117V73H98.9958V1Z" fill="white"/>
</mask>
<g mask="url(#mask0_449_38387)">
<path d="M98.9958 67.4475H-24.4117V73.0001H98.9958V67.4475Z" fill="#CB001C"/>
<path d="M98.9958 61.9314H-24.4117V67.484H98.9958V61.9314Z" fill="white"/>
<path d="M98.9958 56.3789H-24.4117V61.8947H98.9958V56.3789Z" fill="#CB001C"/>
<path d="M98.9958 50.8633H-24.4117V56.4159H98.9958V50.8633Z" fill="white"/>
<path d="M98.9958 45.3105H-24.4117V50.8632H98.9958V45.3105Z" fill="#CB001C"/>
<path d="M98.9958 39.7581H-24.4117V45.2739H98.9958V39.7581Z" fill="white"/>
<path d="M98.9958 34.2419H-24.4117V39.7945H98.9958V34.2419Z" fill="#CB001C"/>
<path d="M98.9958 28.6895H-24.4117V34.2053H98.9958V28.6895Z" fill="white"/>
<path d="M98.9958 23.1738H-24.4117V28.7264H98.9958V23.1738Z" fill="#CB001C"/>
<path d="M98.9958 17.6211H-24.4117V23.1737H98.9958V17.6211Z" fill="white"/>
<path d="M98.9958 12.0686H-24.4117V17.6212H98.9958V12.0686Z" fill="#CB001C"/>
<path d="M98.9958 6.55249H-24.4117V12.1051H98.9958V6.55249Z" fill="white"/>
<path d="M98.9958 1H-24.4117V6.5526H98.9958V1Z" fill="#CB001C"/>
<path d="M31.9601 1H-24.4117V39.7579H31.9601V1Z" fill="#1A2F81"/>
<path d="M3.35127 8.68555L3.79254 10.1564H5.33697L4.08671 11.0757L4.56475 12.5099L3.35127 11.6273L2.10101 12.5099L2.54228 11.0757L1.3288 10.1564H2.83646L3.35127 8.68555Z" fill="white"/>
<path d="M3.35127 15.1575L3.79254 16.6284H5.33697L4.08671 17.5109L4.56475 18.9818L3.35127 18.0992L2.10101 18.9818L2.54228 17.5109L1.3288 16.6284H2.83646L3.35127 15.1575Z" fill="white"/>
<path d="M3.35127 21.6294L3.79254 23.1003H5.33697L4.08671 23.9828L4.56475 25.4537L3.35127 24.5712L2.10101 25.4537L2.54228 23.9828L1.3288 23.1003H2.83646L3.35127 21.6294Z" fill="white"/>
<path d="M3.35127 28.1013L3.79254 29.5722H5.33697L4.08671 30.4547L4.56475 31.9256L3.35127 31.0063L2.10101 31.9256L2.54228 30.4547L1.3288 29.5722H2.83646L3.35127 28.1013Z" fill="white"/>
<path d="M7.87425 5.26562L8.35229 6.73651H9.89672L8.64647 7.65582L9.12451 9.12671L7.87425 8.2074L6.66077 9.12671L7.10203 7.65582L5.88855 6.73651H7.39621L7.87425 5.26562Z" fill="white"/>
<path d="M7.87425 11.7373L8.35229 13.2082H9.89672L8.64647 14.1275L9.12451 15.5984L7.87425 14.6791L6.66077 15.5984L7.10203 14.1275L5.88855 13.2082H7.39621L7.87425 11.7373Z" fill="white"/>
<path d="M7.87425 18.2092L8.35229 19.6801H9.89672L8.64647 20.5994L9.12451 22.0703L7.87425 21.151L6.66077 22.0703L7.10203 20.5994L5.88855 19.6801H7.39621L7.87425 18.2092Z" fill="white"/>
<path d="M7.87425 24.6812L8.35229 26.152H9.89672L8.64647 27.0713L9.12451 28.5055L7.87425 27.6229L6.66077 28.5055L7.10203 27.0713L5.88855 26.152H7.39621L7.87425 24.6812Z" fill="white"/>
<path d="M7.87425 31.1531L8.35229 32.624H9.89672L8.64647 33.5433L9.12451 34.9774L7.87425 34.0949L6.66077 34.9774L7.10203 33.5433L5.88855 32.624H7.39621L7.87425 31.1531Z" fill="white"/>
<path d="M12.3972 8.68555L12.8753 10.1564H14.4197L13.1694 11.0757L13.6475 12.5099L12.3972 11.6273L11.147 12.5099L11.625 11.0757L10.3748 10.1564H11.9192L12.3972 8.68555Z" fill="white"/>
<path d="M12.3972 15.1575L12.8753 16.6284H14.4197L13.1694 17.5109L13.6475 18.9818L12.3972 18.0992L11.147 18.9818L11.625 17.5109L10.3748 16.6284H11.9192L12.3972 15.1575Z" fill="white"/>
<path d="M12.3972 21.6294L12.8753 23.1003H14.4197L13.1694 23.9828L13.6475 25.4537L12.3972 24.5712L11.147 25.4537L11.625 23.9828L10.3748 23.1003H11.9192L12.3972 21.6294Z" fill="white"/>
<path d="M12.3972 28.1013L12.8753 29.5722H14.4197L13.1694 30.4547L13.6475 31.9256L12.3972 31.0063L11.147 31.9256L11.625 30.4547L10.3748 29.5722H11.9192L12.3972 28.1013Z" fill="white"/>
<path d="M16.957 5.26562L17.4351 6.73651H18.9795L17.7292 7.65582L18.2073 9.12671L16.957 8.2074L15.7435 9.12671L16.1848 7.65582L14.9713 6.73651H16.479L16.957 5.26562Z" fill="white"/>
<path d="M16.957 11.7373L17.4351 13.2082H18.9795L17.7292 14.1275L18.2073 15.5984L16.957 14.6791L15.7435 15.5984L16.1848 14.1275L14.9713 13.2082H16.479L16.957 11.7373Z" fill="white"/>
<path d="M16.957 18.2092L17.4351 19.6801H18.9795L17.7292 20.5994L18.2073 22.0703L16.957 21.151L15.7435 22.0703L16.1848 20.5994L14.9713 19.6801H16.479L16.957 18.2092Z" fill="white"/>
<path d="M16.957 24.6812L17.4351 26.152H18.9795L17.7292 27.0713L18.2073 28.5055L16.957 27.6229L15.7435 28.5055L16.1848 27.0713L14.9713 26.152H16.479L16.957 24.6812Z" fill="white"/>
<path d="M16.957 31.1531L17.4351 32.624H18.9795L17.7292 33.5433L18.2073 34.9774L16.957 34.0949L15.7435 34.9774L16.1848 33.5433L14.9713 32.624H16.479L16.957 31.1531Z" fill="white"/>
<path d="M21.48 8.68555L21.958 10.1564H23.5025L22.2522 11.0757L22.6935 12.5099L21.48 11.6273L20.2297 12.5099L20.7078 11.0757L19.4575 10.1564H21.002L21.48 8.68555Z" fill="white"/>
<path d="M21.48 15.1575L21.958 16.6284H23.5025L22.2522 17.5109L22.6935 18.9818L21.48 18.0992L20.2297 18.9818L20.7078 17.5109L19.4575 16.6284H21.002L21.48 15.1575Z" fill="white"/>
<path d="M21.48 21.6294L21.958 23.1003H23.5025L22.2522 23.9828L22.6935 25.4537L21.48 24.5712L20.2297 25.4537L20.7078 23.9828L19.4575 23.1003H21.002L21.48 21.6294Z" fill="white"/>
<path d="M21.48 28.1013L21.958 29.5722H23.5025L22.2522 30.4547L22.6935 31.9256L21.48 31.0063L20.2297 31.9256L20.7078 30.4547L19.4575 29.5722H21.002L21.48 28.1013Z" fill="white"/>
<path d="M26.0398 5.26562L26.5178 6.73651H28.0623L26.812 7.65582L27.2901 9.12671L26.0398 8.2074L24.7896 9.12671L25.2676 7.65582L24.0173 6.73651H25.5618L26.0398 5.26562Z" fill="white"/>
<path d="M26.0398 11.7373L26.5178 13.2082H28.0623L26.812 14.1275L27.2901 15.5984L26.0398 14.6791L24.7896 15.5984L25.2676 14.1275L24.0173 13.2082H25.5618L26.0398 11.7373Z" fill="white"/>
<path d="M26.0398 18.2092L26.5178 19.6801H28.0623L26.812 20.5994L27.2901 22.0703L26.0398 21.151L24.7896 22.0703L25.2676 20.5994L24.0173 19.6801H25.5618L26.0398 18.2092Z" fill="white"/>
<path d="M26.0398 24.6812L26.5178 26.152H28.0623L26.812 27.0713L27.2901 28.5055L26.0398 27.6229L24.7896 28.5055L25.2676 27.0713L24.0173 26.152H25.5618L26.0398 24.6812Z" fill="white"/>
<path d="M26.0398 31.1531L26.5178 32.624H28.0623L26.812 33.5433L27.2901 34.9774L26.0398 34.0949L24.7896 34.9774L25.2676 33.5433L24.0173 32.624H25.5618L26.0398 31.1531Z" fill="white"/>
</g>
</g>
</g>
<rect x="0.5" y="0.5" width="73" height="73" rx="36.5" stroke="#8F99A8"/>
<g clip-path="url(#clip3_449_38387)">
<g clip-path="url(#clip4_449_38387)">
<mask id="mask1_449_38387" style="mask-type:luminance" maskUnits="userSpaceOnUse" x="11" y="27" width="125" height="72">
<path d="M135.372 27H11.9648V99H135.372V27Z" fill="white"/>
</mask>
<g mask="url(#mask1_449_38387)">
<path d="M135.372 27H11.9648V99H135.372V27Z" fill="#DC1C37"/>
<path d="M56.9372 27H38.9556V99H56.9372V27Z" fill="white"/>
<path d="M135.372 53.991H11.9648V71.9726H135.372V53.991Z" fill="white"/>
<path d="M52.4878 27H43.4786V99H52.4878V27Z" fill="#192967"/>
<path d="M135.372 58.5137H11.9648V67.5229H135.372V58.5137Z" fill="#192967"/>
</g>
</g>
</g>
<rect x="26.5" y="26.5" width="73" height="73" rx="36.5" stroke="#8F99A8"/>
</g>
<defs>
<clipPath id="clip0_449_38387">
<rect width="100" height="100" fill="white"/>
</clipPath>
<clipPath id="clip1_449_38387">
<rect x="1" y="1" width="72" height="72" rx="36" fill="white"/>
</clipPath>
<clipPath id="clip2_449_38387">
<rect width="123.408" height="72" fill="white" transform="translate(-24.4117 1)"/>
</clipPath>
<clipPath id="clip3_449_38387">
<rect x="27" y="27" width="72" height="72" rx="36" fill="white"/>
</clipPath>
<clipPath id="clip4_449_38387">
<rect width="123.408" height="72" fill="white" transform="translate(11.9648 27)"/>
</clipPath>
</defs>
</svg>
