<svg width="100" height="100" viewBox="0 0 100 100" fill="none" xmlns="http://www.w3.org/2000/svg">
<g clip-path="url(#clip0_449_38302)">
<g clip-path="url(#clip1_449_38302)">
<g clip-path="url(#clip2_449_38302)">
<mask id="mask0_449_38302" style="mask-type:luminance" maskUnits="userSpaceOnUse" x="-25" y="1" width="124" height="72">
<path d="M98.9958 1H-24.4118V73H98.9958V1Z" fill="white"/>
</mask>
<g mask="url(#mask0_449_38302)">
<path d="M98.9958 67.4475H-24.4118V73.0001H98.9958V67.4475Z" fill="#CB001C"/>
<path d="M98.9958 61.9314H-24.4118V67.484H98.9958V61.9314Z" fill="white"/>
<path d="M98.9958 56.3789H-24.4118V61.8947H98.9958V56.3789Z" fill="#CB001C"/>
<path d="M98.9958 50.8633H-24.4118V56.4159H98.9958V50.8633Z" fill="white"/>
<path d="M98.9958 45.3105H-24.4118V50.8632H98.9958V45.3105Z" fill="#CB001C"/>
<path d="M98.9958 39.7581H-24.4118V45.2739H98.9958V39.7581Z" fill="white"/>
<path d="M98.9958 34.2419H-24.4118V39.7945H98.9958V34.2419Z" fill="#CB001C"/>
<path d="M98.9958 28.6895H-24.4118V34.2053H98.9958V28.6895Z" fill="white"/>
<path d="M98.9958 23.1738H-24.4118V28.7264H98.9958V23.1738Z" fill="#CB001C"/>
<path d="M98.9958 17.6211H-24.4118V23.1737H98.9958V17.6211Z" fill="white"/>
<path d="M98.9958 12.0686H-24.4118V17.6212H98.9958V12.0686Z" fill="#CB001C"/>
<path d="M98.9958 6.55249H-24.4118V12.1051H98.9958V6.55249Z" fill="white"/>
<path d="M98.9958 1H-24.4118V6.5526H98.9958V1Z" fill="#CB001C"/>
<path d="M31.96 1H-24.4118V39.7579H31.96V1Z" fill="#1A2F81"/>
<path d="M3.35126 8.68555L3.79253 10.1564H5.33696L4.0867 11.0757L4.56474 12.5099L3.35126 11.6273L2.101 12.5099L2.54227 11.0757L1.32879 10.1564H2.83645L3.35126 8.68555Z" fill="white"/>
<path d="M3.35126 15.1575L3.79253 16.6284H5.33696L4.0867 17.5109L4.56474 18.9818L3.35126 18.0992L2.101 18.9818L2.54227 17.5109L1.32879 16.6284H2.83645L3.35126 15.1575Z" fill="white"/>
<path d="M3.35126 21.6294L3.79253 23.1003H5.33696L4.0867 23.9828L4.56474 25.4537L3.35126 24.5712L2.101 25.4537L2.54227 23.9828L1.32879 23.1003H2.83645L3.35126 21.6294Z" fill="white"/>
<path d="M3.35126 28.1013L3.79253 29.5722H5.33696L4.0867 30.4547L4.56474 31.9256L3.35126 31.0063L2.101 31.9256L2.54227 30.4547L1.32879 29.5722H2.83645L3.35126 28.1013Z" fill="white"/>
<path d="M7.87424 5.26562L8.35228 6.73651H9.89671L8.64646 7.65582L9.1245 9.12671L7.87424 8.2074L6.66076 9.12671L7.10203 7.65582L5.88854 6.73651H7.3962L7.87424 5.26562Z" fill="white"/>
<path d="M7.87424 11.7373L8.35228 13.2082H9.89671L8.64646 14.1275L9.1245 15.5984L7.87424 14.6791L6.66076 15.5984L7.10203 14.1275L5.88854 13.2082H7.3962L7.87424 11.7373Z" fill="white"/>
<path d="M7.87424 18.2092L8.35228 19.6801H9.89671L8.64646 20.5994L9.1245 22.0703L7.87424 21.151L6.66076 22.0703L7.10203 20.5994L5.88854 19.6801H7.3962L7.87424 18.2092Z" fill="white"/>
<path d="M7.87424 24.6812L8.35228 26.152H9.89671L8.64646 27.0713L9.1245 28.5055L7.87424 27.6229L6.66076 28.5055L7.10203 27.0713L5.88854 26.152H7.3962L7.87424 24.6812Z" fill="white"/>
<path d="M7.87424 31.1531L8.35228 32.624H9.89671L8.64646 33.5433L9.1245 34.9774L7.87424 34.0949L6.66076 34.9774L7.10203 33.5433L5.88854 32.624H7.3962L7.87424 31.1531Z" fill="white"/>
<path d="M12.3972 8.68555L12.8753 10.1564H14.4197L13.1694 11.0757L13.6475 12.5099L12.3972 11.6273L11.147 12.5099L11.625 11.0757L10.3747 10.1564H11.9192L12.3972 8.68555Z" fill="white"/>
<path d="M12.3972 15.1575L12.8753 16.6284H14.4197L13.1694 17.5109L13.6475 18.9818L12.3972 18.0992L11.147 18.9818L11.625 17.5109L10.3747 16.6284H11.9192L12.3972 15.1575Z" fill="white"/>
<path d="M12.3972 21.6294L12.8753 23.1003H14.4197L13.1694 23.9828L13.6475 25.4537L12.3972 24.5712L11.147 25.4537L11.625 23.9828L10.3747 23.1003H11.9192L12.3972 21.6294Z" fill="white"/>
<path d="M12.3972 28.1013L12.8753 29.5722H14.4197L13.1694 30.4547L13.6475 31.9256L12.3972 31.0063L11.147 31.9256L11.625 30.4547L10.3747 29.5722H11.9192L12.3972 28.1013Z" fill="white"/>
<path d="M16.957 5.26562L17.435 6.73651H18.9795L17.7292 7.65582L18.2072 9.12671L16.957 8.2074L15.7435 9.12671L16.1848 7.65582L14.9713 6.73651H16.4789L16.957 5.26562Z" fill="white"/>
<path d="M16.957 11.7373L17.435 13.2082H18.9795L17.7292 14.1275L18.2072 15.5984L16.957 14.6791L15.7435 15.5984L16.1848 14.1275L14.9713 13.2082H16.4789L16.957 11.7373Z" fill="white"/>
<path d="M16.957 18.2092L17.435 19.6801H18.9795L17.7292 20.5994L18.2072 22.0703L16.957 21.151L15.7435 22.0703L16.1848 20.5994L14.9713 19.6801H16.4789L16.957 18.2092Z" fill="white"/>
<path d="M16.957 24.6812L17.435 26.152H18.9795L17.7292 27.0713L18.2072 28.5055L16.957 27.6229L15.7435 28.5055L16.1848 27.0713L14.9713 26.152H16.4789L16.957 24.6812Z" fill="white"/>
<path d="M16.957 31.1531L17.435 32.624H18.9795L17.7292 33.5433L18.2072 34.9774L16.957 34.0949L15.7435 34.9774L16.1848 33.5433L14.9713 32.624H16.4789L16.957 31.1531Z" fill="white"/>
<path d="M21.48 8.68555L21.958 10.1564H23.5024L22.2522 11.0757L22.6934 12.5099L21.48 11.6273L20.2297 12.5099L20.7077 11.0757L19.4575 10.1564H21.0019L21.48 8.68555Z" fill="white"/>
<path d="M21.48 15.1575L21.958 16.6284H23.5024L22.2522 17.5109L22.6934 18.9818L21.48 18.0992L20.2297 18.9818L20.7077 17.5109L19.4575 16.6284H21.0019L21.48 15.1575Z" fill="white"/>
<path d="M21.48 21.6294L21.958 23.1003H23.5024L22.2522 23.9828L22.6934 25.4537L21.48 24.5712L20.2297 25.4537L20.7077 23.9828L19.4575 23.1003H21.0019L21.48 21.6294Z" fill="white"/>
<path d="M21.48 28.1013L21.958 29.5722H23.5024L22.2522 30.4547L22.6934 31.9256L21.48 31.0063L20.2297 31.9256L20.7077 30.4547L19.4575 29.5722H21.0019L21.48 28.1013Z" fill="white"/>
<path d="M26.0397 5.26562L26.5178 6.73651H28.0622L26.8119 7.65582L27.29 9.12671L26.0397 8.2074L24.7895 9.12671L25.2675 7.65582L24.0173 6.73651H25.5617L26.0397 5.26562Z" fill="white"/>
<path d="M26.0397 11.7373L26.5178 13.2082H28.0622L26.8119 14.1275L27.29 15.5984L26.0397 14.6791L24.7895 15.5984L25.2675 14.1275L24.0173 13.2082H25.5617L26.0397 11.7373Z" fill="white"/>
<path d="M26.0397 18.2092L26.5178 19.6801H28.0622L26.8119 20.5994L27.29 22.0703L26.0397 21.151L24.7895 22.0703L25.2675 20.5994L24.0173 19.6801H25.5617L26.0397 18.2092Z" fill="white"/>
<path d="M26.0397 24.6812L26.5178 26.152H28.0622L26.8119 27.0713L27.29 28.5055L26.0397 27.6229L24.7895 28.5055L25.2675 27.0713L24.0173 26.152H25.5617L26.0397 24.6812Z" fill="white"/>
<path d="M26.0397 31.1531L26.5178 32.624H28.0622L26.8119 33.5433L27.29 34.9774L26.0397 34.0949L24.7895 34.9774L25.2675 33.5433L24.0173 32.624H25.5617L26.0397 31.1531Z" fill="white"/>
</g>
</g>
</g>
<rect x="0.5" y="0.5" width="73" height="73" rx="36.5" stroke="#8F99A8"/>
<g clip-path="url(#clip3_449_38302)">
<g clip-path="url(#clip4_449_38302)">
<path d="M132.408 27H9V99H132.408V27Z" fill="#DE3831"/>
<rect x="-25.56" y="6.84009" width="177.12" height="56.16" fill="#002395"/>
<mask id="path-49-inside-1_449_38302" fill="white">
<path fill-rule="evenodd" clip-rule="evenodd" d="M-25.56 135V-10.4399L67.6422 51.48H164.52V74.52H67.8705L-25.56 135Z"/>
</mask>
<path fill-rule="evenodd" clip-rule="evenodd" d="M-25.56 135V-10.4399L67.6422 51.48H164.52V74.52H67.8705L-25.56 135Z" fill="#007A4D"/>
<path d="M-25.56 -10.4399L-23.1694 -14.0382L-29.88 -18.4965V-10.4399H-25.56ZM-25.56 135H-29.88V142.943L-23.2125 138.627L-25.56 135ZM67.6422 51.48L65.2516 55.0783L66.3379 55.8H67.6422V51.48ZM164.52 51.48H168.84V47.16H164.52V51.48ZM164.52 74.52V78.84H168.84V74.52H164.52ZM67.8705 74.52V70.2H66.5943L65.523 70.8935L67.8705 74.52ZM-29.88 -10.4399V135H-21.24V-10.4399H-29.88ZM70.0327 47.8817L-23.1694 -14.0382L-27.9506 -6.84166L65.2516 55.0783L70.0327 47.8817ZM164.52 47.16H67.6422V55.8H164.52V47.16ZM168.84 74.52V51.48H160.2V74.52H168.84ZM67.8705 78.84H164.52V70.2H67.8705V78.84ZM-23.2125 138.627L70.218 78.1465L65.523 70.8935L-27.9075 131.374L-23.2125 138.627Z" fill="white" mask="url(#path-49-inside-1_449_38302)"/>
<path d="M9 34.9199V90.3599L50.76 62.9999L9 34.9199Z" fill="#FFB612"/>
<path d="M0.360001 35.6399V90.3599L42.12 63.3552L0.360001 35.6399Z" fill="black"/>
</g>
</g>
<rect x="26.5" y="26.5" width="73" height="73" rx="36.5" stroke="#8F99A8"/>
</g>
<defs>
<clipPath id="clip0_449_38302">
<rect width="100" height="100" fill="white"/>
</clipPath>
<clipPath id="clip1_449_38302">
<rect x="1" y="1" width="72" height="72" rx="36" fill="white"/>
</clipPath>
<clipPath id="clip2_449_38302">
<rect width="123.408" height="72" fill="white" transform="translate(-24.4118 1)"/>
</clipPath>
<clipPath id="clip3_449_38302">
<rect x="27" y="27" width="72" height="72" rx="36" fill="white"/>
</clipPath>
<clipPath id="clip4_449_38302">
<rect width="123.408" height="72" fill="white" transform="translate(9 27)"/>
</clipPath>
</defs>
</svg>
