<svg width="100" height="100" viewBox="0 0 100 100" fill="none" xmlns="http://www.w3.org/2000/svg">
<g clip-path="url(#clip0_449_38603)">
<g clip-path="url(#clip1_449_38603)">
<rect x="1" y="1" width="88" height="88" rx="44" fill="#2A43B6"/>
<g clip-path="url(#clip2_449_38603)">
<rect width="88" height="88" transform="translate(1 1)" fill="url(#paint0_linear_449_38603)"/>
<path d="M38.3474 45.2065L36.2041 38.1698H25.4265L23.2831 45.2065H16.5294L26.9632 15.5227H34.6268L45.1011 45.2065H38.3474ZM34.7077 32.9124L32.5643 26.0374C32.4295 25.5791 32.2476 24.9927 32.0184 24.2782C31.8027 23.5503 31.5803 22.8156 31.3511 22.0742C31.1354 21.3193 30.9602 20.6655 30.8254 20.1128C30.6906 20.6655 30.5018 21.353 30.2592 22.1753C30.03 22.9841 29.8076 23.7525 29.5919 24.4804C29.3762 25.2084 29.2212 25.7274 29.1268 26.0374L27.0037 32.9124H34.7077ZM54.9688 55.1551C51.8143 55.1551 49.4014 54.6024 47.7298 53.497C46.0717 52.4051 45.2427 50.8683 45.2427 48.8867C45.2427 47.5252 45.6673 46.3861 46.5166 45.4694C47.3658 44.5527 48.6128 43.8989 50.2574 43.508C49.6238 43.2384 49.0711 42.8003 48.5993 42.1937C48.1275 41.5736 47.8916 40.9198 47.8916 40.2323C47.8916 39.3695 48.1409 38.6551 48.6397 38.0889C49.1385 37.5092 49.8597 36.9431 50.8033 36.3904C49.617 35.8781 48.6734 35.0558 47.9724 33.9235C47.2849 32.7911 46.9412 31.4565 46.9412 29.9198C46.9412 28.2752 47.2984 26.8799 48.0129 25.7341C48.7408 24.5748 49.7923 23.6918 51.1673 23.0852C52.5558 22.4786 54.2408 22.1753 56.2224 22.1753C56.6403 22.1753 57.1256 22.2023 57.6783 22.2562C58.231 22.3101 58.7365 22.3708 59.1949 22.4382C59.6667 22.5056 59.9835 22.5595 60.1452 22.5999H68.0313V25.7341L64.4927 26.644C64.8162 27.1428 65.0588 27.6753 65.2206 28.2415C65.3824 28.8076 65.4632 29.4075 65.4632 30.0411C65.4632 32.4676 64.614 34.3616 62.9155 35.7231C61.2304 37.0711 58.8848 37.7451 55.8787 37.7451C55.1642 37.7047 54.4902 37.6508 53.8566 37.5834C53.5466 37.826 53.3107 38.0822 53.1489 38.3518C52.9871 38.6214 52.9063 38.9045 52.9063 39.201C52.9063 39.4976 53.0276 39.747 53.2702 39.9492C53.5264 40.1379 53.9038 40.2862 54.4026 40.394C54.9148 40.4884 55.5484 40.5356 56.3033 40.5356H60.1452C62.6256 40.5356 64.5129 41.0681 65.807 42.133C67.1146 43.198 67.7684 44.7617 67.7684 46.8242C67.7684 49.4663 66.663 51.5154 64.4522 52.9712C62.2549 54.4271 59.0938 55.1551 54.9688 55.1551ZM55.2316 51.1312C56.701 51.1312 57.9614 50.9896 59.0129 50.7065C60.0778 50.4369 60.8934 50.046 61.4596 49.5337C62.0257 49.035 62.3088 48.4351 62.3088 47.7341C62.3088 47.1679 62.1403 46.7163 61.8033 46.3793C61.4798 46.0558 60.981 45.8266 60.307 45.6918C59.6465 45.557 58.7972 45.4896 57.7592 45.4896H54.5643C53.8094 45.4896 53.1287 45.611 52.5221 45.8536C51.9289 46.0962 51.4571 46.4333 51.1066 46.8646C50.7561 47.3095 50.5809 47.8217 50.5809 48.4014C50.5809 49.2507 50.9853 49.9179 51.7941 50.4032C52.6164 50.8885 53.7623 51.1312 55.2316 51.1312ZM56.2224 33.9841C57.3818 33.9841 58.231 33.6269 58.7702 32.9124C59.3094 32.198 59.5791 31.2274 59.5791 30.0007C59.5791 28.6391 59.296 27.6214 58.7298 26.9473C58.1771 26.2598 57.3413 25.9161 56.2224 25.9161C55.0901 25.9161 54.2408 26.2598 53.6746 26.9473C53.1085 27.6214 52.8254 28.6391 52.8254 30.0007C52.8254 31.2274 53.1017 32.198 53.6544 32.9124C54.2206 33.6269 55.0766 33.9841 56.2224 33.9841Z" fill="white"/>
<path d="M38.3474 45.2065L36.2041 38.1698H25.4265L23.2831 45.2065H16.5294L26.9632 15.5227H34.6268L45.1011 45.2065H38.3474ZM34.7077 32.9124L32.5643 26.0374C32.4295 25.5791 32.2476 24.9927 32.0184 24.2782C31.8027 23.5503 31.5803 22.8156 31.3511 22.0742C31.1354 21.3193 30.9602 20.6655 30.8254 20.1128C30.6906 20.6655 30.5018 21.353 30.2592 22.1753C30.03 22.9841 29.8076 23.7525 29.5919 24.4804C29.3762 25.2084 29.2212 25.7274 29.1268 26.0374L27.0037 32.9124H34.7077ZM54.9688 55.1551C51.8143 55.1551 49.4014 54.6024 47.7298 53.497C46.0717 52.4051 45.2427 50.8683 45.2427 48.8867C45.2427 47.5252 45.6673 46.3861 46.5166 45.4694C47.3658 44.5527 48.6128 43.8989 50.2574 43.508C49.6238 43.2384 49.0711 42.8003 48.5993 42.1937C48.1275 41.5736 47.8916 40.9198 47.8916 40.2323C47.8916 39.3695 48.1409 38.6551 48.6397 38.0889C49.1385 37.5092 49.8597 36.9431 50.8033 36.3904C49.617 35.8781 48.6734 35.0558 47.9724 33.9235C47.2849 32.7911 46.9412 31.4565 46.9412 29.9198C46.9412 28.2752 47.2984 26.8799 48.0129 25.7341C48.7408 24.5748 49.7923 23.6918 51.1673 23.0852C52.5558 22.4786 54.2408 22.1753 56.2224 22.1753C56.6403 22.1753 57.1256 22.2023 57.6783 22.2562C58.231 22.3101 58.7365 22.3708 59.1949 22.4382C59.6667 22.5056 59.9835 22.5595 60.1452 22.5999H68.0313V25.7341L64.4927 26.644C64.8162 27.1428 65.0588 27.6753 65.2206 28.2415C65.3824 28.8076 65.4632 29.4075 65.4632 30.0411C65.4632 32.4676 64.614 34.3616 62.9155 35.7231C61.2304 37.0711 58.8848 37.7451 55.8787 37.7451C55.1642 37.7047 54.4902 37.6508 53.8566 37.5834C53.5466 37.826 53.3107 38.0822 53.1489 38.3518C52.9871 38.6214 52.9063 38.9045 52.9063 39.201C52.9063 39.4976 53.0276 39.747 53.2702 39.9492C53.5264 40.1379 53.9038 40.2862 54.4026 40.394C54.9148 40.4884 55.5484 40.5356 56.3033 40.5356H60.1452C62.6256 40.5356 64.5129 41.0681 65.807 42.133C67.1146 43.198 67.7684 44.7617 67.7684 46.8242C67.7684 49.4663 66.663 51.5154 64.4522 52.9712C62.2549 54.4271 59.0938 55.1551 54.9688 55.1551ZM55.2316 51.1312C56.701 51.1312 57.9614 50.9896 59.0129 50.7065C60.0778 50.4369 60.8934 50.046 61.4596 49.5337C62.0257 49.035 62.3088 48.4351 62.3088 47.7341C62.3088 47.1679 62.1403 46.7163 61.8033 46.3793C61.4798 46.0558 60.981 45.8266 60.307 45.6918C59.6465 45.557 58.7972 45.4896 57.7592 45.4896H54.5643C53.8094 45.4896 53.1287 45.611 52.5221 45.8536C51.9289 46.0962 51.4571 46.4333 51.1066 46.8646C50.7561 47.3095 50.5809 47.8217 50.5809 48.4014C50.5809 49.2507 50.9853 49.9179 51.7941 50.4032C52.6164 50.8885 53.7623 51.1312 55.2316 51.1312ZM56.2224 33.9841C57.3818 33.9841 58.231 33.6269 58.7702 32.9124C59.3094 32.198 59.5791 31.2274 59.5791 30.0007C59.5791 28.6391 59.296 27.6214 58.7298 26.9473C58.1771 26.2598 57.3413 25.9161 56.2224 25.9161C55.0901 25.9161 54.2408 26.2598 53.6746 26.9473C53.1085 27.6214 52.8254 28.6391 52.8254 30.0007C52.8254 31.2274 53.1017 32.198 53.6544 32.9124C54.2206 33.6269 55.0766 33.9841 56.2224 33.9841Z" fill="black" fill-opacity="0.33"/>
<path d="M23.8157 64.0603L17.5068 73.7662C16.8073 74.8423 17.5796 76.2654 18.8631 76.2654H68.8105C69.8629 76.2654 70.6351 75.2764 70.3798 74.2554L67.9534 64.5495C67.7733 63.8294 67.1263 63.3242 66.384 63.3242H25.172C24.6244 63.3242 24.1141 63.6012 23.8157 64.0603Z" fill="#F2F2F2"/>
<path d="M23.8157 64.0603L17.5068 73.7662C16.8073 74.8423 17.5796 76.2654 18.8631 76.2654H68.8105C69.8629 76.2654 70.6351 75.2764 70.3798 74.2554L67.9534 64.5495C67.7733 63.8294 67.1263 63.3242 66.384 63.3242H25.172C24.6244 63.3242 24.1141 63.6012 23.8157 64.0603Z" fill="#BEC0C4"/>
</g>
</g>
<rect x="0.5" y="0.5" width="89" height="89" rx="44.5" stroke="#8F99A8"/>
<g clip-path="url(#clip3_449_38603)">
<rect x="53" y="53" width="46" height="46" rx="23" fill="#2A43B6"/>
<g clip-path="url(#clip4_449_38603)">
<path d="M120.136 53.0002H31.84V99.5886H120.136V53.0002Z" fill="#314199"/>
<path d="M75.9711 89.5486L76.5839 91.3624L78.4505 91.3607L77.1257 92.3634L77.4899 94.3108L75.9711 93.206L74.4475 94.2811L74.8162 92.3634L73.5051 91.3544H75.3699L75.9711 89.5486Z" fill="#F8EC26"/>
<path d="M75.9711 58.0386L76.5839 59.8529L78.4505 59.8506L77.1257 60.8534L77.4899 62.8008L75.9711 61.696L74.4475 62.7711L74.8162 60.8534L73.5051 59.8444H75.3699L75.9711 58.0386Z" fill="#F8EC26"/>
<path d="M83.5607 60.0649L84.1734 61.8788L86.0405 61.877L84.7156 62.8798L85.0795 64.8267L83.5607 63.7224L82.037 64.7974L82.4062 62.8798L81.095 61.8708H82.9599L83.5607 60.0649Z" fill="#F8EC26"/>
<path d="M68.0147 60.0649L68.6275 61.8788L70.4945 61.877L69.1697 62.8798L69.5335 64.8267L68.0147 63.7224L66.491 64.7974L66.8602 62.8798L65.5491 61.8708H67.4135L68.0147 60.0649Z" fill="#F8EC26"/>
<path d="M83.5607 87.4199L84.1734 89.2342L86.0405 89.2324L84.7156 90.2352L85.0795 92.1821L83.5607 91.0778L82.037 92.1529L82.4062 90.2352L81.095 89.2258H82.9599L83.5607 87.4199Z" fill="#F8EC26"/>
<path d="M68.0147 87.4199L68.6275 89.2342L70.4945 89.2324L69.1697 90.2352L69.5335 92.1821L68.0147 91.0778L66.491 92.1529L66.8602 90.2352L65.5491 89.2258H67.4135L68.0147 87.4199Z" fill="#F8EC26"/>
<path d="M62.2019 66.0112L62.8146 67.8255L64.6812 67.8233L63.3564 68.8265L63.7206 70.7735L62.2019 69.6691L60.6782 70.7437L61.0469 68.8265L59.7358 67.8171H61.6006L62.2019 66.0112Z" fill="#F8EC26"/>
<path d="M89.5643 66.0112L90.177 67.8255L92.0441 67.8233L90.7192 68.8265L91.0831 70.7735L89.5643 69.6691L88.0406 70.7437L88.4093 68.8265L87.0982 67.8171H88.9631L89.5643 66.0112Z" fill="#F8EC26"/>
<path d="M62.2019 81.7388L62.8146 83.5531L64.6812 83.5508L63.3564 84.554L63.7206 86.501L62.2019 85.3962L60.6782 86.4713L61.0469 84.554L59.7358 83.5446H61.6006L62.2019 81.7388Z" fill="#F8EC26"/>
<path d="M89.5643 81.7388L90.177 83.5531L92.0441 83.5508L90.7192 84.554L91.0831 86.501L89.5643 85.3962L88.0406 86.4713L88.4093 84.554L87.0982 83.5446H88.9631L89.5643 81.7388Z" fill="#F8EC26"/>
<path d="M60.396 73.8159L61.0088 75.6302L62.8754 75.628L61.5505 76.6312L61.9148 78.5781L60.396 77.4733L58.8723 78.5484L59.2411 76.6312L57.9299 75.6218H59.7948L60.396 73.8159Z" fill="#F8EC26"/>
<path d="M91.5663 73.8159L92.179 75.6302L94.0461 75.628L92.7212 76.6312L93.0851 78.5781L91.5663 77.4733L90.0426 78.5484L90.4113 76.6312L89.1006 75.6218H90.9651L91.5663 73.8159Z" fill="#F8EC26"/>
</g>
</g>
<rect x="52.5" y="52.5" width="47" height="47" rx="23.5" stroke="#8F99A8"/>
</g>
<defs>
<linearGradient id="paint0_linear_449_38603" x1="1.29412" y1="1.50074" x2="72.4706" y2="89.5008" gradientUnits="userSpaceOnUse">
<stop stop-color="#D8D8D8"/>
<stop offset="0.0001" stop-color="#EBEBEB"/>
<stop offset="1" stop-color="#D1D1D1"/>
</linearGradient>
<clipPath id="clip0_449_38603">
<rect width="100" height="100" fill="white"/>
</clipPath>
<clipPath id="clip1_449_38603">
<rect x="1" y="1" width="88" height="88" rx="44" fill="white"/>
</clipPath>
<clipPath id="clip2_449_38603">
<rect width="88" height="88" fill="white" transform="translate(1 1)"/>
</clipPath>
<clipPath id="clip3_449_38603">
<rect x="53" y="53" width="46" height="46" rx="23" fill="white"/>
</clipPath>
<clipPath id="clip4_449_38603">
<rect width="88.2961" height="46.5884" fill="white" transform="translate(31.84 53.0002)"/>
</clipPath>
</defs>
</svg>
