<svg width="100" height="100" viewBox="0 0 100 100" fill="none" xmlns="http://www.w3.org/2000/svg">
<g clip-path="url(#clip0_449_38598)">
<g clip-path="url(#clip1_449_38598)">
<rect x="1" y="1" width="88" height="88" rx="44" fill="#2A43B6"/>
<rect width="88" height="88" transform="translate(1 1)" fill="#DADBE1"/>
<rect width="88" height="88" transform="translate(1 1)" fill="url(#paint0_linear_449_38598)"/>
<path d="M38.3474 45.2065L36.2041 38.1698H25.4265L23.2831 45.2065H16.5294L26.9632 15.5227H34.6268L45.1011 45.2065H38.3474ZM34.7077 32.9124L32.5643 26.0374C32.4295 25.5791 32.2476 24.9927 32.0184 24.2782C31.8027 23.5503 31.5803 22.8156 31.3511 22.0742C31.1354 21.3193 30.9602 20.6655 30.8254 20.1128C30.6906 20.6655 30.5018 21.353 30.2592 22.1753C30.03 22.9841 29.8076 23.7525 29.5919 24.4804C29.3762 25.2084 29.2212 25.7274 29.1268 26.0374L27.0037 32.9124H34.7077ZM69.103 22.5999V45.2065H64.3713L63.5423 42.315H63.2188C62.7335 43.0834 62.1269 43.7102 61.3989 44.1955C60.671 44.6808 59.8689 45.038 58.9927 45.2672C58.1164 45.4964 57.2065 45.611 56.2629 45.611C54.6452 45.611 53.2365 45.3279 52.0368 44.7617C50.837 44.182 49.9001 43.2856 49.2261 42.0724C48.5656 40.8591 48.2353 39.2819 48.2353 37.3407V22.5999H54.4026V35.804C54.4026 37.4216 54.6924 38.6416 55.2721 39.4639C55.8517 40.2862 56.7751 40.6974 58.0423 40.6974C59.296 40.6974 60.28 40.4143 60.9945 39.8481C61.709 39.2684 62.2077 38.4259 62.4908 37.3205C62.7874 36.2016 62.9357 34.8401 62.9357 33.236V22.5999H69.103Z" fill="black" fill-opacity="0.33"/>
<path d="M23.8157 64.0603L17.5068 73.7662C16.8073 74.8423 17.5796 76.2654 18.8631 76.2654H68.8105C69.8629 76.2654 70.6351 75.2764 70.3798 74.2554L67.9534 64.5495C67.7733 63.8294 67.1263 63.3242 66.384 63.3242H25.172C24.6244 63.3242 24.1141 63.6012 23.8157 64.0603Z" fill="#F2F2F2"/>
<path d="M23.8157 64.0603L17.5068 73.7662C16.8073 74.8423 17.5796 76.2654 18.8631 76.2654H68.8105C69.8629 76.2654 70.6351 75.2764 70.3798 74.2554L67.9534 64.5495C67.7733 63.8294 67.1263 63.3242 66.384 63.3242H25.172C24.6244 63.3242 24.1141 63.6012 23.8157 64.0603Z" fill="#EDA926"/>
</g>
<rect x="0.5" y="0.5" width="89" height="89" rx="44.5" stroke="#8F99A8"/>
<g clip-path="url(#clip2_449_38598)">
<rect x="53" y="53" width="46" height="46" rx="23" fill="#2A43B6"/>
<g clip-path="url(#clip3_449_38598)">
<path d="M120.136 53.0002H31.84V99.5886H120.136V53.0002Z" fill="#314199"/>
<path d="M75.9712 89.5486L76.584 91.3624L78.4506 91.3607L77.1257 92.3634L77.49 94.3108L75.9712 93.206L74.4475 94.2811L74.8163 92.3634L73.5051 91.3544H75.37L75.9712 89.5486Z" fill="#F8EC26"/>
<path d="M75.9712 58.0386L76.584 59.8529L78.4506 59.8506L77.1257 60.8534L77.49 62.8008L75.9712 61.696L74.4475 62.7711L74.8163 60.8534L73.5051 59.8444H75.37L75.9712 58.0386Z" fill="#F8EC26"/>
<path d="M83.5606 60.0649L84.1734 61.8788L86.0404 61.877L84.7156 62.8798L85.0794 64.8267L83.5606 63.7224L82.0369 64.7974L82.4061 62.8798L81.095 61.8708H82.9598L83.5606 60.0649Z" fill="#F8EC26"/>
<path d="M68.0147 60.0649L68.6275 61.8788L70.4945 61.877L69.1697 62.8798L69.5335 64.8267L68.0147 63.7224L66.491 64.7974L66.8602 62.8798L65.5491 61.8708H67.4135L68.0147 60.0649Z" fill="#F8EC26"/>
<path d="M83.5606 87.4199L84.1734 89.2342L86.0404 89.2324L84.7156 90.2352L85.0794 92.1821L83.5606 91.0778L82.0369 92.1529L82.4061 90.2352L81.095 89.2258H82.9598L83.5606 87.4199Z" fill="#F8EC26"/>
<path d="M68.0147 87.4199L68.6275 89.2342L70.4945 89.2324L69.1697 90.2352L69.5335 92.1821L68.0147 91.0778L66.491 92.1529L66.8602 90.2352L65.5491 89.2258H67.4135L68.0147 87.4199Z" fill="#F8EC26"/>
<path d="M62.2019 66.0112L62.8147 67.8255L64.6813 67.8233L63.3564 68.8265L63.7207 70.7735L62.2019 69.6691L60.6783 70.7437L61.047 68.8265L59.7358 67.8171H61.6007L62.2019 66.0112Z" fill="#F8EC26"/>
<path d="M89.5643 66.0112L90.1771 67.8255L92.0442 67.8233L90.7193 68.8265L91.0831 70.7735L89.5643 69.6691L88.0407 70.7437L88.4094 68.8265L87.0983 67.8171H88.9631L89.5643 66.0112Z" fill="#F8EC26"/>
<path d="M62.2019 81.7388L62.8147 83.5531L64.6813 83.5508L63.3564 84.554L63.7207 86.501L62.2019 85.3962L60.6783 86.4713L61.047 84.554L59.7358 83.5446H61.6007L62.2019 81.7388Z" fill="#F8EC26"/>
<path d="M89.5643 81.7388L90.1771 83.5531L92.0442 83.5508L90.7193 84.554L91.0831 86.501L89.5643 85.3962L88.0407 86.4713L88.4094 84.554L87.0983 83.5446H88.9631L89.5643 81.7388Z" fill="#F8EC26"/>
<path d="M60.396 73.8159L61.0088 75.6302L62.8754 75.628L61.5505 76.6312L61.9148 78.5781L60.396 77.4733L58.8723 78.5484L59.2411 76.6312L57.9299 75.6218H59.7948L60.396 73.8159Z" fill="#F8EC26"/>
<path d="M91.5663 73.8159L92.1791 75.6302L94.0462 75.628L92.7213 76.6312L93.0851 78.5781L91.5663 77.4733L90.0427 78.5484L90.4114 76.6312L89.1007 75.6218H90.9651L91.5663 73.8159Z" fill="#F8EC26"/>
</g>
</g>
<rect x="52.5" y="52.5" width="47" height="47" rx="23.5" stroke="#8F99A8"/>
</g>
<defs>
<linearGradient id="paint0_linear_449_38598" x1="1.29412" y1="1.50074" x2="72.4706" y2="89.5008" gradientUnits="userSpaceOnUse">
<stop stop-color="#F3BB27"/>
<stop offset="0.0001" stop-color="#FFE870"/>
<stop offset="1" stop-color="#F3B33E"/>
</linearGradient>
<clipPath id="clip0_449_38598">
<rect width="100" height="100" fill="white"/>
</clipPath>
<clipPath id="clip1_449_38598">
<rect x="1" y="1" width="88" height="88" rx="44" fill="white"/>
</clipPath>
<clipPath id="clip2_449_38598">
<rect x="53" y="53" width="46" height="46" rx="23" fill="white"/>
</clipPath>
<clipPath id="clip3_449_38598">
<rect width="88.2961" height="46.5884" fill="white" transform="translate(31.84 53.0002)"/>
</clipPath>
</defs>
</svg>
