<svg width="100" height="100" viewBox="0 0 100 100" fill="none" xmlns="http://www.w3.org/2000/svg">
<g clip-path="url(#clip0_449_38507)">
<g clip-path="url(#clip1_449_38507)">
<rect x="1" y="1" width="88" height="88" rx="44" fill="#2A43B6"/>
<rect width="88" height="88" transform="translate(1 1)" fill="#DADBE1"/>
<rect width="88" height="88" transform="translate(1 1)" fill="url(#paint0_linear_449_38507)"/>
<path d="M38.3474 45.2065L36.2041 38.1698H25.4265L23.2831 45.2065H16.5294L26.9632 15.5227H34.6268L45.1011 45.2065H38.3474ZM34.7077 32.9124L32.5643 26.0374C32.4295 25.5791 32.2476 24.9927 32.0184 24.2782C31.8027 23.5503 31.5803 22.8156 31.3511 22.0742C31.1354 21.3193 30.9602 20.6655 30.8254 20.1128C30.6906 20.6655 30.5018 21.353 30.2592 22.1753C30.03 22.9841 29.8076 23.7525 29.5919 24.4804C29.3762 25.2084 29.2212 25.7274 29.1268 26.0374L27.0037 32.9124H34.7077ZM69.103 22.5999V45.2065H64.3713L63.5423 42.315H63.2188C62.7335 43.0834 62.1269 43.7102 61.3989 44.1955C60.671 44.6808 59.8689 45.038 58.9927 45.2672C58.1164 45.4964 57.2065 45.611 56.2629 45.611C54.6452 45.611 53.2365 45.3279 52.0368 44.7617C50.837 44.182 49.9001 43.2856 49.2261 42.0724C48.5656 40.8591 48.2353 39.2819 48.2353 37.3407V22.5999H54.4026V35.804C54.4026 37.4216 54.6924 38.6416 55.2721 39.4639C55.8517 40.2862 56.7751 40.6974 58.0423 40.6974C59.296 40.6974 60.28 40.4143 60.9945 39.8481C61.709 39.2684 62.2077 38.4259 62.4908 37.3205C62.7874 36.2016 62.9357 34.8401 62.9357 33.236V22.5999H69.103Z" fill="black" fill-opacity="0.33"/>
<path d="M23.8157 64.0603L17.5068 73.7662C16.8073 74.8423 17.5796 76.2654 18.8631 76.2654H68.8105C69.8629 76.2654 70.6351 75.2764 70.3798 74.2554L67.9534 64.5495C67.7733 63.8294 67.1263 63.3242 66.384 63.3242H25.172C24.6244 63.3242 24.1141 63.6012 23.8157 64.0603Z" fill="#F2F2F2"/>
<path d="M23.8157 64.0603L17.5068 73.7662C16.8073 74.8423 17.5796 76.2654 18.8631 76.2654H68.8105C69.8629 76.2654 70.6351 75.2764 70.3798 74.2554L67.9534 64.5495C67.7733 63.8294 67.1263 63.3242 66.384 63.3242H25.172C24.6244 63.3242 24.1141 63.6012 23.8157 64.0603Z" fill="#EDA926"/>
</g>
<rect x="0.5" y="0.5" width="89" height="89" rx="44.5" stroke="#8F99A8"/>
<g clip-path="url(#clip2_449_38507)">
<rect x="53" y="53" width="46" height="46" rx="23" fill="#2A43B6"/>
<g clip-path="url(#clip3_449_38507)">
<mask id="mask0_449_38507" style="mask-type:luminance" maskUnits="userSpaceOnUse" x="36" y="53" width="81" height="47">
<path d="M116.08 53.0002H36.2279V99.5886H116.08V53.0002Z" fill="white"/>
</mask>
<g mask="url(#mask0_449_38507)">
<path d="M116.08 95.9958H36.2279V99.5887H116.08V95.9958Z" fill="#CB001C"/>
<path d="M116.08 92.4265H36.2279V96.0194H116.08V92.4265Z" fill="white"/>
<path d="M116.08 88.8337H36.2279V92.4028H116.08V88.8337Z" fill="#CB001C"/>
<path d="M116.08 85.2646H36.2279V88.8575H116.08V85.2646Z" fill="white"/>
<path d="M116.08 81.6719H36.2279V85.2647H116.08V81.6719Z" fill="#CB001C"/>
<path d="M116.08 78.0791H36.2279V81.6482H116.08V78.0791Z" fill="white"/>
<path d="M116.08 74.5098H36.2279V78.1026H116.08V74.5098Z" fill="#CB001C"/>
<path d="M116.08 70.917H36.2279V74.4861H116.08V70.917Z" fill="white"/>
<path d="M116.08 67.3479H36.2279V70.9408H116.08V67.3479Z" fill="#CB001C"/>
<path d="M116.08 63.7551H36.2279V67.348H116.08V63.7551Z" fill="white"/>
<path d="M116.08 60.1624H36.2279V63.7552H116.08V60.1624Z" fill="#CB001C"/>
<path d="M116.08 56.593H36.2279V60.1859H116.08V56.593Z" fill="white"/>
<path d="M116.08 53.0002H36.2279V56.5931H116.08V53.0002Z" fill="#CB001C"/>
<path d="M72.7039 53.0002H36.2279V78.079H72.7039V53.0002Z" fill="#1A2F81"/>
<path d="M54.1922 57.9731L54.4777 58.9249H55.4771L54.6681 59.5197L54.9774 60.4477L54.1922 59.8767L53.3832 60.4477L53.6687 59.5197L52.8835 58.9249H53.8591L54.1922 57.9731Z" fill="white"/>
<path d="M54.1922 62.1609L54.4777 63.1126H55.4771L54.6681 63.6837L54.9774 64.6355L54.1922 64.0644L53.3832 64.6355L53.6687 63.6837L52.8835 63.1126H53.8591L54.1922 62.1609Z" fill="white"/>
<path d="M54.1922 66.3486L54.4777 67.3004H55.4771L54.6681 67.8714L54.9774 68.8232L54.1922 68.2521L53.3832 68.8232L53.6687 67.8714L52.8835 67.3004H53.8591L54.1922 66.3486Z" fill="white"/>
<path d="M54.1922 70.5364L54.4777 71.4881H55.4771L54.6681 72.0592L54.9774 73.0109L54.1922 72.4161L53.3832 73.0109L53.6687 72.0592L52.8835 71.4881H53.8591L54.1922 70.5364Z" fill="white"/>
<path d="M57.1189 55.7603L57.4282 56.712H58.4275L57.6185 57.3069L57.9278 58.2586L57.1189 57.6638L56.3337 58.2586L56.6192 57.3069L55.834 56.712H56.8095L57.1189 55.7603Z" fill="white"/>
<path d="M57.1189 59.948L57.4282 60.8998H58.4275L57.6185 61.4946L57.9278 62.4464L57.1189 61.8515L56.3337 62.4464L56.6192 61.4946L55.834 60.8998H56.8095L57.1189 59.948Z" fill="white"/>
<path d="M57.1189 64.1357L57.4282 65.0875H58.4275L57.6185 65.6823L57.9278 66.6341L57.1189 66.0393L56.3337 66.6341L56.6192 65.6823L55.834 65.0875H56.8095L57.1189 64.1357Z" fill="white"/>
<path d="M57.1189 68.3235L57.4282 69.2752H58.4275L57.6185 69.8701L57.9278 70.798L57.1189 70.227L56.3337 70.798L56.6192 69.8701L55.834 69.2752H56.8095L57.1189 68.3235Z" fill="white"/>
<path d="M57.1189 72.5112L57.4282 73.463H58.4275L57.6185 74.0578L57.9278 74.9858L57.1189 74.4147L56.3337 74.9858L56.6192 74.0578L55.834 73.463H56.8095L57.1189 72.5112Z" fill="white"/>
<path d="M60.0456 57.9731L60.3549 58.9249H61.3543L60.5453 59.5197L60.8546 60.4477L60.0456 59.8767L59.2366 60.4477L59.5459 59.5197L58.7369 58.9249H59.7363L60.0456 57.9731Z" fill="white"/>
<path d="M60.0456 62.1609L60.3549 63.1126H61.3543L60.5453 63.6837L60.8546 64.6355L60.0456 64.0644L59.2366 64.6355L59.5459 63.6837L58.7369 63.1126H59.7363L60.0456 62.1609Z" fill="white"/>
<path d="M60.0456 66.3486L60.3549 67.3004H61.3543L60.5453 67.8714L60.8546 68.8232L60.0456 68.2521L59.2366 68.8232L59.5459 67.8714L58.7369 67.3004H59.7363L60.0456 66.3486Z" fill="white"/>
<path d="M60.0456 70.5364L60.3549 71.4881H61.3543L60.5453 72.0592L60.8546 73.0109L60.0456 72.4161L59.2366 73.0109L59.5459 72.0592L58.7369 71.4881H59.7363L60.0456 70.5364Z" fill="white"/>
<path d="M62.9961 55.7603L63.3054 56.712H64.3047L63.4957 57.3069L63.805 58.2586L62.9961 57.6638L62.2109 58.2586L62.4964 57.3069L61.7112 56.712H62.6867L62.9961 55.7603Z" fill="white"/>
<path d="M62.9961 59.948L63.3054 60.8998H64.3047L63.4957 61.4946L63.805 62.4464L62.9961 61.8515L62.2109 62.4464L62.4964 61.4946L61.7112 60.8998H62.6867L62.9961 59.948Z" fill="white"/>
<path d="M62.9961 64.1357L63.3054 65.0875H64.3047L63.4957 65.6823L63.805 66.6341L62.9961 66.0393L62.2109 66.6341L62.4964 65.6823L61.7112 65.0875H62.6867L62.9961 64.1357Z" fill="white"/>
<path d="M62.9961 68.3235L63.3054 69.2752H64.3047L63.4957 69.8701L63.805 70.798L62.9961 70.227L62.2109 70.798L62.4964 69.8701L61.7112 69.2752H62.6867L62.9961 68.3235Z" fill="white"/>
<path d="M62.9961 72.5112L63.3054 73.463H64.3047L63.4957 74.0578L63.805 74.9858L62.9961 74.4147L62.2109 74.9858L62.4964 74.0578L61.7112 73.463H62.6867L62.9961 72.5112Z" fill="white"/>
<path d="M65.9226 57.9731L66.2319 58.9249H67.2312L66.4222 59.5197L66.7078 60.4477L65.9226 59.8767L65.1136 60.4477L65.4229 59.5197L64.6139 58.9249H65.6132L65.9226 57.9731Z" fill="white"/>
<path d="M65.9226 62.1609L66.2319 63.1126H67.2312L66.4222 63.6837L66.7078 64.6355L65.9226 64.0644L65.1136 64.6355L65.4229 63.6837L64.6139 63.1126H65.6132L65.9226 62.1609Z" fill="white"/>
<path d="M65.9226 66.3486L66.2319 67.3004H67.2312L66.4222 67.8714L66.7078 68.8232L65.9226 68.2521L65.1136 68.8232L65.4229 67.8714L64.6139 67.3004H65.6132L65.9226 66.3486Z" fill="white"/>
<path d="M65.9226 70.5364L66.2319 71.4881H67.2312L66.4222 72.0592L66.7078 73.0109L65.9226 72.4161L65.1136 73.0109L65.4229 72.0592L64.6139 71.4881H65.6132L65.9226 70.5364Z" fill="white"/>
<path d="M68.8731 55.7603L69.1824 56.712H70.1818L69.3728 57.3069L69.6821 58.2586L68.8731 57.6638L68.0641 58.2586L68.3734 57.3069L67.5645 56.712H68.5638L68.8731 55.7603Z" fill="white"/>
<path d="M68.8731 59.948L69.1824 60.8998H70.1818L69.3728 61.4946L69.6821 62.4464L68.8731 61.8515L68.0641 62.4464L68.3734 61.4946L67.5645 60.8998H68.5638L68.8731 59.948Z" fill="white"/>
<path d="M68.8731 64.1357L69.1824 65.0875H70.1818L69.3728 65.6823L69.6821 66.6341L68.8731 66.0393L68.0641 66.6341L68.3734 65.6823L67.5645 65.0875H68.5638L68.8731 64.1357Z" fill="white"/>
<path d="M68.8731 68.3235L69.1824 69.2752H70.1818L69.3728 69.8701L69.6821 70.798L68.8731 70.227L68.0641 70.798L68.3734 69.8701L67.5645 69.2752H68.5638L68.8731 68.3235Z" fill="white"/>
<path d="M68.8731 72.5112L69.1824 73.463H70.1818L69.3728 74.0578L69.6821 74.9858L68.8731 74.4147L68.0641 74.9858L68.3734 74.0578L67.5645 73.463H68.5638L68.8731 72.5112Z" fill="white"/>
</g>
</g>
</g>
<rect x="52.5" y="52.5" width="47" height="47" rx="23.5" stroke="#8F99A8"/>
</g>
<defs>
<linearGradient id="paint0_linear_449_38507" x1="1.29412" y1="1.50074" x2="72.4706" y2="89.5008" gradientUnits="userSpaceOnUse">
<stop stop-color="#F3BB27"/>
<stop offset="0.0001" stop-color="#FFE870"/>
<stop offset="1" stop-color="#F3B33E"/>
</linearGradient>
<clipPath id="clip0_449_38507">
<rect width="100" height="100" fill="white"/>
</clipPath>
<clipPath id="clip1_449_38507">
<rect x="1" y="1" width="88" height="88" rx="44" fill="white"/>
</clipPath>
<clipPath id="clip2_449_38507">
<rect x="53" y="53" width="46" height="46" rx="23" fill="white"/>
</clipPath>
<clipPath id="clip3_449_38507">
<rect width="79.8522" height="46.5884" fill="white" transform="translate(36.2279 53.0002)"/>
</clipPath>
</defs>
</svg>
