<svg width="100" height="100" viewBox="0 0 100 100" fill="none" xmlns="http://www.w3.org/2000/svg">
<g clip-path="url(#clip0_449_38593)">
<g clip-path="url(#clip1_449_38593)">
<rect x="1" y="1" width="88" height="88" rx="44" fill="#2A43B6"/>
<rect width="88.2465" height="88.2465" transform="translate(0.753479 0.753418)" fill="#DADBE1"/>
<path d="M44.8771 11.8587C44.8926 11.8796 44.9081 11.9005 44.9236 11.9214C59.2204 30.9053 64.4886 40.8073 65.6843 53.702C65.8185 54.6713 65.8878 55.6614 65.8878 56.668C65.8878 68.3905 56.481 77.8934 44.8771 77.8934C44.8318 77.8934 44.7865 77.8933 44.7412 77.893C44.3141 77.8903 43.89 77.8747 43.4693 77.8465C32.5215 77.1152 23.8657 67.9128 23.8657 56.668C23.8657 55.6614 23.935 54.6713 24.0692 53.702C25.2649 40.8073 30.5331 30.9053 44.8299 11.9214C44.8454 11.9005 44.8616 11.8796 44.8771 11.8587Z" fill="black"/>
<path d="M30.3331 41.2711H35.9347C38.3313 41.2711 40.1451 41.6076 41.3762 42.2806C42.6074 42.9536 43.2229 44.1355 43.2229 45.8262C43.2229 46.5074 43.1121 47.123 42.8905 47.6729C42.6771 48.2228 42.3652 48.6742 41.9549 49.0271C41.5445 49.38 41.0438 49.6099 40.4529 49.7165V49.8397C41.0521 49.9628 41.5937 50.1762 42.078 50.4798C42.5622 50.7753 42.948 51.2103 43.2352 51.7848C43.5307 52.3511 43.6784 53.1062 43.6784 54.0501C43.6784 55.1417 43.4117 56.0773 42.8782 56.857C42.3447 57.6367 41.5814 58.2359 40.5883 58.6545C39.6034 59.0648 38.4298 59.27 37.0673 59.27H30.3331V41.2711ZM34.1496 48.3993H36.3656C37.4736 48.3993 38.241 48.2269 38.6678 47.8822C39.0946 47.5293 39.308 47.0122 39.308 46.331C39.308 45.6416 39.0535 45.1491 38.5447 44.8536C38.044 44.55 37.2479 44.3981 36.1563 44.3981H34.1496V48.3993ZM34.1496 51.4278V56.1184H36.6364C37.7855 56.1184 38.5857 55.8968 39.0371 55.4536C39.4885 55.0104 39.7142 54.4153 39.7142 53.6684C39.7142 53.2252 39.6158 52.8354 39.4188 52.4989C39.2218 52.1624 38.8894 51.8997 38.4216 51.711C37.962 51.5222 37.3259 51.4278 36.5133 51.4278H34.1496ZM52.5179 41.2711C54.1511 41.2711 55.4972 41.4681 56.5559 41.862C57.6229 42.256 58.4149 42.851 58.932 43.6471C59.4491 44.4433 59.7076 45.4487 59.7076 46.6634C59.7076 47.4841 59.5516 48.2023 59.2398 48.8178C58.9279 49.4334 58.5175 49.9546 58.0086 50.3814C57.4998 50.8081 56.9499 51.157 56.3589 51.4278L61.6528 59.27H57.4177L53.1211 52.3635H51.0898V59.27H47.2733V41.2711H52.5179ZM52.247 44.3981H51.0898V49.261H52.3209C53.5848 49.261 54.4876 49.0517 55.0293 48.6332C55.5792 48.2064 55.8542 47.5826 55.8542 46.7619C55.8542 45.9083 55.5587 45.3009 54.9678 44.9398C54.3851 44.5787 53.4781 44.3981 52.247 44.3981Z" fill="white" fill-opacity="0.9"/>
</g>
<rect x="0.5" y="0.5" width="89" height="89" rx="44.5" stroke="#8F99A8"/>
<g clip-path="url(#clip2_449_38593)">
<rect x="53" y="53" width="46" height="46" rx="23" fill="#2A43B6"/>
<g clip-path="url(#clip3_449_38593)">
<mask id="mask0_449_38593" style="mask-type:luminance" maskUnits="userSpaceOnUse" x="36" y="53" width="81" height="47">
<path d="M116.08 53.0002H36.2279V99.5886H116.08V53.0002Z" fill="white"/>
</mask>
<g mask="url(#mask0_449_38593)">
<path d="M116.08 95.9958H36.2279V99.5887H116.08V95.9958Z" fill="#CB001C"/>
<path d="M116.08 92.4265H36.2279V96.0194H116.08V92.4265Z" fill="white"/>
<path d="M116.08 88.8337H36.2279V92.4028H116.08V88.8337Z" fill="#CB001C"/>
<path d="M116.08 85.2646H36.2279V88.8575H116.08V85.2646Z" fill="white"/>
<path d="M116.08 81.6719H36.2279V85.2648H116.08V81.6719Z" fill="#CB001C"/>
<path d="M116.08 78.0791H36.2279V81.6482H116.08V78.0791Z" fill="white"/>
<path d="M116.08 74.5098H36.2279V78.1026H116.08V74.5098Z" fill="#CB001C"/>
<path d="M116.08 70.917H36.2279V74.4861H116.08V70.917Z" fill="white"/>
<path d="M116.08 67.3479H36.2279V70.9408H116.08V67.3479Z" fill="#CB001C"/>
<path d="M116.08 63.7551H36.2279V67.348H116.08V63.7551Z" fill="white"/>
<path d="M116.08 60.1624H36.2279V63.7552H116.08V60.1624Z" fill="#CB001C"/>
<path d="M116.08 56.593H36.2279V60.1859H116.08V56.593Z" fill="white"/>
<path d="M116.08 53.0002H36.2279V56.5931H116.08V53.0002Z" fill="#CB001C"/>
<path d="M72.7039 53.0002H36.2279V78.079H72.7039V53.0002Z" fill="#1A2F81"/>
<path d="M54.1923 57.9731L54.4778 58.9249H55.4771L54.6681 59.5197L54.9775 60.4477L54.1923 59.8767L53.3833 60.4477L53.6688 59.5197L52.8836 58.9249H53.8592L54.1923 57.9731Z" fill="white"/>
<path d="M54.1923 62.1609L54.4778 63.1126H55.4771L54.6681 63.6837L54.9775 64.6355L54.1923 64.0644L53.3833 64.6355L53.6688 63.6837L52.8836 63.1126H53.8592L54.1923 62.1609Z" fill="white"/>
<path d="M54.1923 66.3486L54.4778 67.3004H55.4771L54.6681 67.8714L54.9775 68.8232L54.1923 68.2521L53.3833 68.8232L53.6688 67.8714L52.8836 67.3004H53.8592L54.1923 66.3486Z" fill="white"/>
<path d="M54.1923 70.5364L54.4778 71.4881H55.4771L54.6681 72.0592L54.9775 73.0109L54.1923 72.4161L53.3833 73.0109L53.6688 72.0592L52.8836 71.4881H53.8592L54.1923 70.5364Z" fill="white"/>
<path d="M57.1189 55.7603L57.4282 56.712H58.4276L57.6186 57.3069L57.9279 58.2586L57.1189 57.6638L56.3337 58.2586L56.6192 57.3069L55.834 56.712H56.8096L57.1189 55.7603Z" fill="white"/>
<path d="M57.1189 59.948L57.4282 60.8998H58.4276L57.6186 61.4946L57.9279 62.4464L57.1189 61.8515L56.3337 62.4464L56.6192 61.4946L55.834 60.8998H56.8096L57.1189 59.948Z" fill="white"/>
<path d="M57.1189 64.1357L57.4282 65.0875H58.4276L57.6186 65.6823L57.9279 66.6341L57.1189 66.0393L56.3337 66.6341L56.6192 65.6823L55.834 65.0875H56.8096L57.1189 64.1357Z" fill="white"/>
<path d="M57.1189 68.3235L57.4282 69.2752H58.4276L57.6186 69.8701L57.9279 70.798L57.1189 70.227L56.3337 70.798L56.6192 69.8701L55.834 69.2752H56.8096L57.1189 68.3235Z" fill="white"/>
<path d="M57.1189 72.5112L57.4282 73.463H58.4276L57.6186 74.0578L57.9279 74.9858L57.1189 74.4147L56.3337 74.9858L56.6192 74.0578L55.834 73.463H56.8096L57.1189 72.5112Z" fill="white"/>
<path d="M60.0455 57.9731L60.3549 58.9249H61.3542L60.5452 59.5197L60.8545 60.4477L60.0455 59.8767L59.2365 60.4477L59.5459 59.5197L58.7369 58.9249H59.7362L60.0455 57.9731Z" fill="white"/>
<path d="M60.0455 62.1609L60.3549 63.1126H61.3542L60.5452 63.6837L60.8545 64.6355L60.0455 64.0644L59.2365 64.6355L59.5459 63.6837L58.7369 63.1126H59.7362L60.0455 62.1609Z" fill="white"/>
<path d="M60.0455 66.3486L60.3549 67.3004H61.3542L60.5452 67.8714L60.8545 68.8232L60.0455 68.2521L59.2365 68.8232L59.5459 67.8714L58.7369 67.3004H59.7362L60.0455 66.3486Z" fill="white"/>
<path d="M60.0455 70.5364L60.3549 71.4881H61.3542L60.5452 72.0592L60.8545 73.0109L60.0455 72.4161L59.2365 73.0109L59.5459 72.0592L58.7369 71.4881H59.7362L60.0455 70.5364Z" fill="white"/>
<path d="M62.9961 55.7603L63.3054 56.712H64.3047L63.4957 57.3069L63.805 58.2586L62.9961 57.6638L62.2109 58.2586L62.4964 57.3069L61.7112 56.712H62.6867L62.9961 55.7603Z" fill="white"/>
<path d="M62.9961 59.948L63.3054 60.8998H64.3047L63.4957 61.4946L63.805 62.4464L62.9961 61.8515L62.2109 62.4464L62.4964 61.4946L61.7112 60.8998H62.6867L62.9961 59.948Z" fill="white"/>
<path d="M62.9961 64.1357L63.3054 65.0875H64.3047L63.4957 65.6823L63.805 66.6341L62.9961 66.0393L62.2109 66.6341L62.4964 65.6823L61.7112 65.0875H62.6867L62.9961 64.1357Z" fill="white"/>
<path d="M62.9961 68.3235L63.3054 69.2752H64.3047L63.4957 69.8701L63.805 70.798L62.9961 70.227L62.2109 70.798L62.4964 69.8701L61.7112 69.2752H62.6867L62.9961 68.3235Z" fill="white"/>
<path d="M62.9961 72.5112L63.3054 73.463H64.3047L63.4957 74.0578L63.805 74.9858L62.9961 74.4147L62.2109 74.9858L62.4964 74.0578L61.7112 73.463H62.6867L62.9961 72.5112Z" fill="white"/>
<path d="M65.9227 57.9731L66.232 58.9249H67.2313L66.4223 59.5197L66.7079 60.4477L65.9227 59.8767L65.1137 60.4477L65.423 59.5197L64.614 58.9249H65.6134L65.9227 57.9731Z" fill="white"/>
<path d="M65.9227 62.1609L66.232 63.1126H67.2313L66.4223 63.6837L66.7079 64.6355L65.9227 64.0644L65.1137 64.6355L65.423 63.6837L64.614 63.1126H65.6134L65.9227 62.1609Z" fill="white"/>
<path d="M65.9227 66.3486L66.232 67.3004H67.2313L66.4223 67.8714L66.7079 68.8232L65.9227 68.2521L65.1137 68.8232L65.423 67.8714L64.614 67.3004H65.6134L65.9227 66.3486Z" fill="white"/>
<path d="M65.9227 70.5364L66.232 71.4881H67.2313L66.4223 72.0592L66.7079 73.0109L65.9227 72.4161L65.1137 73.0109L65.423 72.0592L64.614 71.4881H65.6134L65.9227 70.5364Z" fill="white"/>
<path d="M68.8731 55.7603L69.1824 56.712H70.1818L69.3728 57.3069L69.6821 58.2586L68.8731 57.6638L68.0641 58.2586L68.3734 57.3069L67.5645 56.712H68.5638L68.8731 55.7603Z" fill="white"/>
<path d="M68.8731 59.948L69.1824 60.8998H70.1818L69.3728 61.4946L69.6821 62.4464L68.8731 61.8515L68.0641 62.4464L68.3734 61.4946L67.5645 60.8998H68.5638L68.8731 59.948Z" fill="white"/>
<path d="M68.8731 64.1357L69.1824 65.0875H70.1818L69.3728 65.6823L69.6821 66.6341L68.8731 66.0393L68.0641 66.6341L68.3734 65.6823L67.5645 65.0875H68.5638L68.8731 64.1357Z" fill="white"/>
<path d="M68.8731 68.3235L69.1824 69.2752H70.1818L69.3728 69.8701L69.6821 70.798L68.8731 70.227L68.0641 70.798L68.3734 69.8701L67.5645 69.2752H68.5638L68.8731 68.3235Z" fill="white"/>
<path d="M68.8731 72.5112L69.1824 73.463H70.1818L69.3728 74.0578L69.6821 74.9858L68.8731 74.4147L68.0641 74.9858L68.3734 74.0578L67.5645 73.463H68.5638L68.8731 72.5112Z" fill="white"/>
</g>
</g>
</g>
<rect x="52.5" y="52.5" width="47" height="47" rx="23.5" stroke="#8F99A8"/>
</g>
<defs>
<clipPath id="clip0_449_38593">
<rect width="100" height="100" fill="white"/>
</clipPath>
<clipPath id="clip1_449_38593">
<rect x="1" y="1" width="88" height="88" rx="44" fill="white"/>
</clipPath>
<clipPath id="clip2_449_38593">
<rect x="53" y="53" width="46" height="46" rx="23" fill="white"/>
</clipPath>
<clipPath id="clip3_449_38593">
<rect width="79.8522" height="46.5884" fill="white" transform="translate(36.2279 53.0002)"/>
</clipPath>
</defs>
</svg>
