<svg width="100" height="100" viewBox="0 0 100 100" fill="none" xmlns="http://www.w3.org/2000/svg">
<g clip-path="url(#clip0_449_38583)">
<g clip-path="url(#clip1_449_38583)">
<rect x="1" y="1" width="88" height="88" rx="44" fill="#2A43B6"/>
<rect width="88.2464" height="88.2464" transform="translate(0.753479 0.753418)" fill="url(#paint0_linear_449_38583)"/>
<path d="M31.9991 16.3154C35.8247 16.3154 38.6162 17.14 40.3736 18.7892C42.131 20.4249 43.0096 22.6825 43.0096 25.5618C43.0096 26.8596 42.8136 28.1032 42.4216 29.2928C42.0296 30.4689 41.3875 31.5166 40.4953 32.4358C39.6166 33.355 38.4405 34.085 36.967 34.6257C35.4936 35.1529 33.6754 35.4165 31.5125 35.4165H28.8156V45.9607H22.5297V16.3154H31.9991ZM31.6747 21.4658H28.8156V30.2661H30.8839C32.0599 30.2661 33.0806 30.1107 33.9457 29.7998C34.8109 29.4888 35.48 29.0022 35.9532 28.3398C36.4263 27.6774 36.6629 26.8258 36.6629 25.7849C36.6629 24.3249 36.2573 23.2435 35.4462 22.5405C34.6352 21.824 33.378 21.4658 31.6747 21.4658ZM55.2976 46.3662C52.7697 46.3662 50.7082 45.3794 49.1131 43.4058C47.5315 41.4186 46.7406 38.5054 46.7406 34.6663C46.7406 30.7866 47.545 27.8531 49.1536 25.866C50.7623 23.8653 52.8644 22.8649 55.4598 22.8649C56.5413 22.8649 57.4943 23.0136 58.3189 23.311C59.1435 23.6084 59.8532 24.0072 60.448 24.5074C61.0564 25.0076 61.5701 25.5686 61.9891 26.1904H62.1919C62.1108 25.7578 62.0094 25.1225 61.8877 24.2844C61.7796 23.4327 61.7255 22.5608 61.7255 21.6686V14.4093H67.9303V45.9607H63.1855L61.9891 43.0205H61.7255C61.3335 43.6423 60.8401 44.2101 60.2453 44.7238C59.664 45.224 58.9678 45.6227 58.1567 45.9201C57.3456 46.2175 56.3926 46.3662 55.2976 46.3662ZM57.4673 41.4389C59.1571 41.4389 60.3467 40.9387 61.0361 39.9384C61.739 38.9245 62.1108 37.4037 62.1513 35.376V34.7068C62.1513 32.5034 61.8134 30.8204 61.1375 29.6578C60.4616 28.4817 59.2044 27.8937 57.3659 27.8937C56.0006 27.8937 54.9326 28.4817 54.1621 29.6578C53.3916 30.8339 53.0063 32.5304 53.0063 34.7474C53.0063 36.9644 53.3916 38.6339 54.1621 39.7559C54.9462 40.8779 56.0479 41.4389 57.4673 41.4389Z" fill="white"/>
<path d="M31.9991 16.3154C35.8247 16.3154 38.6162 17.14 40.3736 18.7892C42.131 20.4249 43.0096 22.6825 43.0096 25.5618C43.0096 26.8596 42.8136 28.1032 42.4216 29.2928C42.0296 30.4689 41.3875 31.5166 40.4953 32.4358C39.6166 33.355 38.4405 34.085 36.967 34.6257C35.4936 35.1529 33.6754 35.4165 31.5125 35.4165H28.8156V45.9607H22.5297V16.3154H31.9991ZM31.6747 21.4658H28.8156V30.2661H30.8839C32.0599 30.2661 33.0806 30.1107 33.9457 29.7998C34.8109 29.4888 35.48 29.0022 35.9532 28.3398C36.4263 27.6774 36.6629 26.8258 36.6629 25.7849C36.6629 24.3249 36.2573 23.2435 35.4462 22.5405C34.6352 21.824 33.378 21.4658 31.6747 21.4658ZM55.2976 46.3662C52.7697 46.3662 50.7082 45.3794 49.1131 43.4058C47.5315 41.4186 46.7406 38.5054 46.7406 34.6663C46.7406 30.7866 47.545 27.8531 49.1536 25.866C50.7623 23.8653 52.8644 22.8649 55.4598 22.8649C56.5413 22.8649 57.4943 23.0136 58.3189 23.311C59.1435 23.6084 59.8532 24.0072 60.448 24.5074C61.0564 25.0076 61.5701 25.5686 61.9891 26.1904H62.1919C62.1108 25.7578 62.0094 25.1225 61.8877 24.2844C61.7796 23.4327 61.7255 22.5608 61.7255 21.6686V14.4093H67.9303V45.9607H63.1855L61.9891 43.0205H61.7255C61.3335 43.6423 60.8401 44.2101 60.2453 44.7238C59.664 45.224 58.9678 45.6227 58.1567 45.9201C57.3456 46.2175 56.3926 46.3662 55.2976 46.3662ZM57.4673 41.4389C59.1571 41.4389 60.3467 40.9387 61.0361 39.9384C61.739 38.9245 62.1108 37.4037 62.1513 35.376V34.7068C62.1513 32.5034 61.8134 30.8204 61.1375 29.6578C60.4616 28.4817 59.2044 27.8937 57.3659 27.8937C56.0006 27.8937 54.9326 28.4817 54.1621 29.6578C53.3916 30.8339 53.0063 32.5304 53.0063 34.7474C53.0063 36.9644 53.3916 38.6339 54.1621 39.7559C54.9462 40.8779 56.0479 41.4389 57.4673 41.4389Z" fill="black" fill-opacity="0.33"/>
<path d="M23.5098 63.9903L17.1833 73.7234C16.4819 74.8025 17.2563 76.2296 18.5434 76.2296H68.6306C69.686 76.2296 70.4603 75.2378 70.2044 74.214L67.7711 64.4809C67.5906 63.7588 66.9417 63.2522 66.1974 63.2522H24.8699C24.3208 63.2522 23.809 63.5299 23.5098 63.9903Z" fill="#F2F2F2"/>
<path d="M23.5098 63.9903L17.1833 73.7234C16.4819 74.8025 17.2563 76.2296 18.5434 76.2296H68.6306C69.686 76.2296 70.4603 75.2378 70.2044 74.214L67.7711 64.4809C67.5906 63.7588 66.9417 63.2522 66.1974 63.2522H24.8699C24.3208 63.2522 23.809 63.5299 23.5098 63.9903Z" fill="#BEC0C4"/>
</g>
<rect x="0.5" y="0.5" width="89" height="89" rx="44.5" stroke="#8F99A8"/>
<g clip-path="url(#clip2_449_38583)">
<rect x="53" y="53" width="46" height="46" rx="23" fill="#2A43B6"/>
<g clip-path="url(#clip3_449_38583)">
<mask id="mask0_449_38583" style="mask-type:luminance" maskUnits="userSpaceOnUse" x="36" y="53" width="81" height="47">
<path d="M116.08 53.0002H36.2279V99.5886H116.08V53.0002Z" fill="white"/>
</mask>
<g mask="url(#mask0_449_38583)">
<path d="M116.08 95.9958H36.2279V99.5887H116.08V95.9958Z" fill="#CB001C"/>
<path d="M116.08 92.4265H36.2279V96.0194H116.08V92.4265Z" fill="white"/>
<path d="M116.08 88.8337H36.2279V92.4028H116.08V88.8337Z" fill="#CB001C"/>
<path d="M116.08 85.2646H36.2279V88.8575H116.08V85.2646Z" fill="white"/>
<path d="M116.08 81.6719H36.2279V85.2647H116.08V81.6719Z" fill="#CB001C"/>
<path d="M116.08 78.0791H36.2279V81.6482H116.08V78.0791Z" fill="white"/>
<path d="M116.08 74.5098H36.2279V78.1026H116.08V74.5098Z" fill="#CB001C"/>
<path d="M116.08 70.917H36.2279V74.4861H116.08V70.917Z" fill="white"/>
<path d="M116.08 67.3479H36.2279V70.9408H116.08V67.3479Z" fill="#CB001C"/>
<path d="M116.08 63.7551H36.2279V67.348H116.08V63.7551Z" fill="white"/>
<path d="M116.08 60.1624H36.2279V63.7552H116.08V60.1624Z" fill="#CB001C"/>
<path d="M116.08 56.593H36.2279V60.1859H116.08V56.593Z" fill="white"/>
<path d="M116.08 53.0002H36.2279V56.5931H116.08V53.0002Z" fill="#CB001C"/>
<path d="M72.7039 53.0002H36.2279V78.079H72.7039V53.0002Z" fill="#1A2F81"/>
<path d="M54.1923 57.9731L54.4778 58.9249H55.4771L54.6681 59.5197L54.9775 60.4477L54.1923 59.8767L53.3833 60.4477L53.6688 59.5197L52.8836 58.9249H53.8592L54.1923 57.9731Z" fill="white"/>
<path d="M54.1923 62.1609L54.4778 63.1126H55.4771L54.6681 63.6837L54.9775 64.6355L54.1923 64.0644L53.3833 64.6355L53.6688 63.6837L52.8836 63.1126H53.8592L54.1923 62.1609Z" fill="white"/>
<path d="M54.1923 66.3486L54.4778 67.3004H55.4771L54.6681 67.8714L54.9775 68.8232L54.1923 68.2521L53.3833 68.8232L53.6688 67.8714L52.8836 67.3004H53.8592L54.1923 66.3486Z" fill="white"/>
<path d="M54.1923 70.5364L54.4778 71.4881H55.4771L54.6681 72.0592L54.9775 73.0109L54.1923 72.4161L53.3833 73.0109L53.6688 72.0592L52.8836 71.4881H53.8592L54.1923 70.5364Z" fill="white"/>
<path d="M57.1189 55.7603L57.4282 56.712H58.4276L57.6186 57.3069L57.9279 58.2586L57.1189 57.6638L56.3337 58.2586L56.6192 57.3069L55.834 56.712H56.8096L57.1189 55.7603Z" fill="white"/>
<path d="M57.1189 59.948L57.4282 60.8998H58.4276L57.6186 61.4946L57.9279 62.4464L57.1189 61.8515L56.3337 62.4464L56.6192 61.4946L55.834 60.8998H56.8096L57.1189 59.948Z" fill="white"/>
<path d="M57.1189 64.1357L57.4282 65.0875H58.4276L57.6186 65.6823L57.9279 66.6341L57.1189 66.0393L56.3337 66.6341L56.6192 65.6823L55.834 65.0875H56.8096L57.1189 64.1357Z" fill="white"/>
<path d="M57.1189 68.3235L57.4282 69.2752H58.4276L57.6186 69.8701L57.9279 70.798L57.1189 70.227L56.3337 70.798L56.6192 69.8701L55.834 69.2752H56.8096L57.1189 68.3235Z" fill="white"/>
<path d="M57.1189 72.5112L57.4282 73.463H58.4276L57.6186 74.0578L57.9279 74.9858L57.1189 74.4147L56.3337 74.9858L56.6192 74.0578L55.834 73.463H56.8096L57.1189 72.5112Z" fill="white"/>
<path d="M60.0455 57.9731L60.3549 58.9249H61.3542L60.5452 59.5197L60.8545 60.4477L60.0455 59.8767L59.2365 60.4477L59.5459 59.5197L58.7369 58.9249H59.7362L60.0455 57.9731Z" fill="white"/>
<path d="M60.0455 62.1609L60.3549 63.1126H61.3542L60.5452 63.6837L60.8545 64.6355L60.0455 64.0644L59.2365 64.6355L59.5459 63.6837L58.7369 63.1126H59.7362L60.0455 62.1609Z" fill="white"/>
<path d="M60.0455 66.3486L60.3549 67.3004H61.3542L60.5452 67.8714L60.8545 68.8232L60.0455 68.2521L59.2365 68.8232L59.5459 67.8714L58.7369 67.3004H59.7362L60.0455 66.3486Z" fill="white"/>
<path d="M60.0455 70.5364L60.3549 71.4881H61.3542L60.5452 72.0592L60.8545 73.0109L60.0455 72.4161L59.2365 73.0109L59.5459 72.0592L58.7369 71.4881H59.7362L60.0455 70.5364Z" fill="white"/>
<path d="M62.9961 55.7603L63.3054 56.712H64.3047L63.4957 57.3069L63.805 58.2586L62.9961 57.6638L62.2109 58.2586L62.4964 57.3069L61.7112 56.712H62.6867L62.9961 55.7603Z" fill="white"/>
<path d="M62.9961 59.948L63.3054 60.8998H64.3047L63.4957 61.4946L63.805 62.4464L62.9961 61.8515L62.2109 62.4464L62.4964 61.4946L61.7112 60.8998H62.6867L62.9961 59.948Z" fill="white"/>
<path d="M62.9961 64.1357L63.3054 65.0875H64.3047L63.4957 65.6823L63.805 66.6341L62.9961 66.0393L62.2109 66.6341L62.4964 65.6823L61.7112 65.0875H62.6867L62.9961 64.1357Z" fill="white"/>
<path d="M62.9961 68.3235L63.3054 69.2752H64.3047L63.4957 69.8701L63.805 70.798L62.9961 70.227L62.2109 70.798L62.4964 69.8701L61.7112 69.2752H62.6867L62.9961 68.3235Z" fill="white"/>
<path d="M62.9961 72.5112L63.3054 73.463H64.3047L63.4957 74.0578L63.805 74.9858L62.9961 74.4147L62.2109 74.9858L62.4964 74.0578L61.7112 73.463H62.6867L62.9961 72.5112Z" fill="white"/>
<path d="M65.9227 57.9731L66.232 58.9249H67.2313L66.4223 59.5197L66.7079 60.4477L65.9227 59.8767L65.1137 60.4477L65.423 59.5197L64.614 58.9249H65.6134L65.9227 57.9731Z" fill="white"/>
<path d="M65.9227 62.1609L66.232 63.1126H67.2313L66.4223 63.6837L66.7079 64.6355L65.9227 64.0644L65.1137 64.6355L65.423 63.6837L64.614 63.1126H65.6134L65.9227 62.1609Z" fill="white"/>
<path d="M65.9227 66.3486L66.232 67.3004H67.2313L66.4223 67.8714L66.7079 68.8232L65.9227 68.2521L65.1137 68.8232L65.423 67.8714L64.614 67.3004H65.6134L65.9227 66.3486Z" fill="white"/>
<path d="M65.9227 70.5364L66.232 71.4881H67.2313L66.4223 72.0592L66.7079 73.0109L65.9227 72.4161L65.1137 73.0109L65.423 72.0592L64.614 71.4881H65.6134L65.9227 70.5364Z" fill="white"/>
<path d="M68.8731 55.7603L69.1824 56.712H70.1818L69.3728 57.3069L69.6821 58.2586L68.8731 57.6638L68.0641 58.2586L68.3734 57.3069L67.5645 56.712H68.5638L68.8731 55.7603Z" fill="white"/>
<path d="M68.8731 59.948L69.1824 60.8998H70.1818L69.3728 61.4946L69.6821 62.4464L68.8731 61.8515L68.0641 62.4464L68.3734 61.4946L67.5645 60.8998H68.5638L68.8731 59.948Z" fill="white"/>
<path d="M68.8731 64.1357L69.1824 65.0875H70.1818L69.3728 65.6823L69.6821 66.6341L68.8731 66.0393L68.0641 66.6341L68.3734 65.6823L67.5645 65.0875H68.5638L68.8731 64.1357Z" fill="white"/>
<path d="M68.8731 68.3235L69.1824 69.2752H70.1818L69.3728 69.8701L69.6821 70.798L68.8731 70.227L68.0641 70.798L68.3734 69.8701L67.5645 69.2752H68.5638L68.8731 68.3235Z" fill="white"/>
<path d="M68.8731 72.5112L69.1824 73.463H70.1818L69.3728 74.0578L69.6821 74.9858L68.8731 74.4147L68.0641 74.9858L68.3734 74.0578L67.5645 73.463H68.5638L68.8731 72.5112Z" fill="white"/>
</g>
</g>
</g>
<rect x="52.5" y="52.5" width="47" height="47" rx="23.5" stroke="#8F99A8"/>
</g>
<defs>
<linearGradient id="paint0_linear_449_38583" x1="1.29775" y1="1.50495" x2="72.6735" y2="89.7514" gradientUnits="userSpaceOnUse">
<stop stop-color="#EEEFF0"/>
<stop offset="1" stop-color="#D4D7DE"/>
</linearGradient>
<clipPath id="clip0_449_38583">
<rect width="100" height="100" fill="white"/>
</clipPath>
<clipPath id="clip1_449_38583">
<rect x="1" y="1" width="88" height="88" rx="44" fill="white"/>
</clipPath>
<clipPath id="clip2_449_38583">
<rect x="53" y="53" width="46" height="46" rx="23" fill="white"/>
</clipPath>
<clipPath id="clip3_449_38583">
<rect width="79.8522" height="46.5884" fill="white" transform="translate(36.2279 53.0002)"/>
</clipPath>
</defs>
</svg>
