<svg width="100" height="100" viewBox="0 0 100 100" fill="none" xmlns="http://www.w3.org/2000/svg">
<g clip-path="url(#clip0_460_38299)">
<g clip-path="url(#clip1_460_38299)">
<rect x="1" y="1" width="88" height="88" rx="44" fill="#2A43B6"/>
<rect width="88.2464" height="88.2464" transform="translate(0.75351 0.753418)" fill="url(#paint0_linear_460_38299)"/>
<path d="M35.8923 16.3154C39.718 16.3154 42.5095 17.14 44.2668 18.7892C46.0242 20.4249 46.9029 22.6825 46.9029 25.5618C46.9029 26.8596 46.7068 28.1032 46.3148 29.2928C45.9228 30.4689 45.2807 31.5166 44.3885 32.4358C43.5098 33.355 42.3337 34.085 40.8602 34.6257C39.3868 35.1529 37.5686 35.4165 35.4057 35.4165H32.7088V45.9607H26.4229V16.3154H35.8923ZM35.5679 21.4658H32.7088V30.2661H34.7771C35.9532 30.2661 36.9738 30.1107 37.8389 29.7998C38.7041 29.4888 39.3733 29.0022 39.8464 28.3398C40.3195 27.6774 40.5561 26.8258 40.5561 25.7849C40.5561 24.3249 40.1505 23.2435 39.3395 22.5405C38.5284 21.824 37.2712 21.4658 35.5679 21.4658ZM61.5633 41.4389C62.2392 41.4389 62.8948 41.3713 63.5302 41.2361C64.179 41.1009 64.8212 40.9319 65.4565 40.7292V45.3321C64.7941 45.6295 63.9695 45.8728 62.9827 46.0621C62.0094 46.2649 60.9415 46.3662 59.7789 46.3662C58.4271 46.3662 57.2104 46.1499 56.129 45.7174C55.0611 45.2713 54.2162 44.5075 53.5943 43.426C52.986 42.3311 52.6819 40.8103 52.6819 38.8637V27.9342H49.7214V25.3185L53.128 23.2502L54.9124 18.4648H58.8664V23.2908H65.2132V27.9342H58.8664V38.8637C58.8664 39.7288 59.1097 40.3777 59.5964 40.8103C60.0966 41.2293 60.7522 41.4389 61.5633 41.4389Z" fill="white"/>
<path d="M35.8923 16.3154C39.718 16.3154 42.5095 17.14 44.2668 18.7892C46.0242 20.4249 46.9029 22.6825 46.9029 25.5618C46.9029 26.8596 46.7068 28.1032 46.3148 29.2928C45.9228 30.4689 45.2807 31.5166 44.3885 32.4358C43.5098 33.355 42.3337 34.085 40.8602 34.6257C39.3868 35.1529 37.5686 35.4165 35.4057 35.4165H32.7088V45.9607H26.4229V16.3154H35.8923ZM35.5679 21.4658H32.7088V30.2661H34.7771C35.9532 30.2661 36.9738 30.1107 37.8389 29.7998C38.7041 29.4888 39.3733 29.0022 39.8464 28.3398C40.3195 27.6774 40.5561 26.8258 40.5561 25.7849C40.5561 24.3249 40.1505 23.2435 39.3395 22.5405C38.5284 21.824 37.2712 21.4658 35.5679 21.4658ZM61.5633 41.4389C62.2392 41.4389 62.8948 41.3713 63.5302 41.2361C64.179 41.1009 64.8212 40.9319 65.4565 40.7292V45.3321C64.7941 45.6295 63.9695 45.8728 62.9827 46.0621C62.0094 46.2649 60.9415 46.3662 59.7789 46.3662C58.4271 46.3662 57.2104 46.1499 56.129 45.7174C55.0611 45.2713 54.2162 44.5075 53.5943 43.426C52.986 42.3311 52.6819 40.8103 52.6819 38.8637V27.9342H49.7214V25.3185L53.128 23.2502L54.9124 18.4648H58.8664V23.2908H65.2132V27.9342H58.8664V38.8637C58.8664 39.7288 59.1097 40.3777 59.5964 40.8103C60.0966 41.2293 60.7522 41.4389 61.5633 41.4389Z" fill="black" fill-opacity="0.33"/>
<path d="M23.5098 63.9903L17.1834 73.7234C16.4819 74.8025 17.2564 76.2296 18.5435 76.2296H68.6307C69.686 76.2296 70.4604 75.2378 70.2044 74.214L67.7711 64.4809C67.5906 63.7588 66.9418 63.2522 66.1974 63.2522H24.8699C24.3209 63.2522 23.8091 63.5299 23.5098 63.9903Z" fill="#F2F2F2"/>
<path d="M23.5098 63.9903L17.1834 73.7234C16.4819 74.8025 17.2564 76.2296 18.5435 76.2296H68.6307C69.686 76.2296 70.4604 75.2378 70.2044 74.214L67.7711 64.4809C67.5906 63.7588 66.9418 63.2522 66.1974 63.2522H24.8699C24.3209 63.2522 23.8091 63.5299 23.5098 63.9903Z" fill="#BEC0C4"/>
</g>
<rect x="0.5" y="0.5" width="89" height="89" rx="44.5" stroke="#8F99A8"/>
<g clip-path="url(#clip2_460_38299)">
<rect x="53" y="53" width="46" height="46" rx="23" fill="#2A43B6"/>
<g clip-path="url(#clip3_460_38299)">
<mask id="mask0_460_38299" style="mask-type:luminance" maskUnits="userSpaceOnUse" x="36" y="53" width="81" height="47">
<path d="M116.08 53.0002H36.2279V99.5886H116.08V53.0002Z" fill="white"/>
</mask>
<g mask="url(#mask0_460_38299)">
<path d="M116.08 95.9958H36.2279V99.5887H116.08V95.9958Z" fill="#CB001C"/>
<path d="M116.08 92.4265H36.2279V96.0194H116.08V92.4265Z" fill="white"/>
<path d="M116.08 88.8337H36.2279V92.4028H116.08V88.8337Z" fill="#CB001C"/>
<path d="M116.08 85.2646H36.2279V88.8575H116.08V85.2646Z" fill="white"/>
<path d="M116.08 81.6719H36.2279V85.2647H116.08V81.6719Z" fill="#CB001C"/>
<path d="M116.08 78.0791H36.2279V81.6482H116.08V78.0791Z" fill="white"/>
<path d="M116.08 74.5098H36.2279V78.1026H116.08V74.5098Z" fill="#CB001C"/>
<path d="M116.08 70.917H36.2279V74.4861H116.08V70.917Z" fill="white"/>
<path d="M116.08 67.3479H36.2279V70.9408H116.08V67.3479Z" fill="#CB001C"/>
<path d="M116.08 63.7551H36.2279V67.348H116.08V63.7551Z" fill="white"/>
<path d="M116.08 60.1624H36.2279V63.7552H116.08V60.1624Z" fill="#CB001C"/>
<path d="M116.08 56.593H36.2279V60.1859H116.08V56.593Z" fill="white"/>
<path d="M116.08 53.0002H36.2279V56.5931H116.08V53.0002Z" fill="#CB001C"/>
<path d="M72.7039 53.0002H36.2279V78.079H72.7039V53.0002Z" fill="#1A2F81"/>
<path d="M54.1923 57.9731L54.4778 58.9249H55.4772L54.6682 59.5197L54.9775 60.4477L54.1923 59.8767L53.3833 60.4477L53.6688 59.5197L52.8836 58.9249H53.8592L54.1923 57.9731Z" fill="white"/>
<path d="M54.1923 62.1609L54.4778 63.1126H55.4772L54.6682 63.6837L54.9775 64.6355L54.1923 64.0644L53.3833 64.6355L53.6688 63.6837L52.8836 63.1126H53.8592L54.1923 62.1609Z" fill="white"/>
<path d="M54.1923 66.3486L54.4778 67.3004H55.4772L54.6682 67.8714L54.9775 68.8232L54.1923 68.2521L53.3833 68.8232L53.6688 67.8714L52.8836 67.3004H53.8592L54.1923 66.3486Z" fill="white"/>
<path d="M54.1923 70.5364L54.4778 71.4881H55.4772L54.6682 72.0592L54.9775 73.0109L54.1923 72.4161L53.3833 73.0109L53.6688 72.0592L52.8836 71.4881H53.8592L54.1923 70.5364Z" fill="white"/>
<path d="M57.1189 55.7603L57.4282 56.712H58.4276L57.6186 57.3069L57.9279 58.2586L57.1189 57.6638L56.3337 58.2586L56.6192 57.3069L55.834 56.712H56.8096L57.1189 55.7603Z" fill="white"/>
<path d="M57.1189 59.948L57.4282 60.8998H58.4276L57.6186 61.4946L57.9279 62.4464L57.1189 61.8515L56.3337 62.4464L56.6192 61.4946L55.834 60.8998H56.8096L57.1189 59.948Z" fill="white"/>
<path d="M57.1189 64.1357L57.4282 65.0875H58.4276L57.6186 65.6823L57.9279 66.6341L57.1189 66.0393L56.3337 66.6341L56.6192 65.6823L55.834 65.0875H56.8096L57.1189 64.1357Z" fill="white"/>
<path d="M57.1189 68.3235L57.4282 69.2752H58.4276L57.6186 69.8701L57.9279 70.798L57.1189 70.227L56.3337 70.798L56.6192 69.8701L55.834 69.2752H56.8096L57.1189 68.3235Z" fill="white"/>
<path d="M57.1189 72.5112L57.4282 73.463H58.4276L57.6186 74.0578L57.9279 74.9858L57.1189 74.4147L56.3337 74.9858L56.6192 74.0578L55.834 73.463H56.8096L57.1189 72.5112Z" fill="white"/>
<path d="M60.0455 57.9731L60.3549 58.9249H61.3542L60.5452 59.5197L60.8545 60.4477L60.0455 59.8767L59.2365 60.4477L59.5459 59.5197L58.7369 58.9249H59.7362L60.0455 57.9731Z" fill="white"/>
<path d="M60.0455 62.1609L60.3549 63.1126H61.3542L60.5452 63.6837L60.8545 64.6355L60.0455 64.0644L59.2365 64.6355L59.5459 63.6837L58.7369 63.1126H59.7362L60.0455 62.1609Z" fill="white"/>
<path d="M60.0455 66.3486L60.3549 67.3004H61.3542L60.5452 67.8714L60.8545 68.8232L60.0455 68.2521L59.2365 68.8232L59.5459 67.8714L58.7369 67.3004H59.7362L60.0455 66.3486Z" fill="white"/>
<path d="M60.0455 70.5364L60.3549 71.4881H61.3542L60.5452 72.0592L60.8545 73.0109L60.0455 72.4161L59.2365 73.0109L59.5459 72.0592L58.7369 71.4881H59.7362L60.0455 70.5364Z" fill="white"/>
<path d="M62.996 55.7603L63.3053 56.712H64.3047L63.4957 57.3069L63.805 58.2586L62.996 57.6638L62.2108 58.2586L62.4963 57.3069L61.7111 56.712H62.6867L62.996 55.7603Z" fill="white"/>
<path d="M62.996 59.948L63.3053 60.8998H64.3047L63.4957 61.4946L63.805 62.4464L62.996 61.8515L62.2108 62.4464L62.4963 61.4946L61.7111 60.8998H62.6867L62.996 59.948Z" fill="white"/>
<path d="M62.996 64.1357L63.3053 65.0875H64.3047L63.4957 65.6823L63.805 66.6341L62.996 66.0393L62.2108 66.6341L62.4963 65.6823L61.7111 65.0875H62.6867L62.996 64.1357Z" fill="white"/>
<path d="M62.996 68.3235L63.3053 69.2752H64.3047L63.4957 69.8701L63.805 70.798L62.996 70.227L62.2108 70.798L62.4963 69.8701L61.7111 69.2752H62.6867L62.996 68.3235Z" fill="white"/>
<path d="M62.996 72.5112L63.3053 73.463H64.3047L63.4957 74.0578L63.805 74.9858L62.996 74.4147L62.2108 74.9858L62.4963 74.0578L61.7111 73.463H62.6867L62.996 72.5112Z" fill="white"/>
<path d="M65.9226 57.9731L66.232 58.9249H67.2313L66.4223 59.5197L66.7078 60.4477L65.9226 59.8767L65.1137 60.4477L65.423 59.5197L64.614 58.9249H65.6133L65.9226 57.9731Z" fill="white"/>
<path d="M65.9226 62.1609L66.232 63.1126H67.2313L66.4223 63.6837L66.7078 64.6355L65.9226 64.0644L65.1137 64.6355L65.423 63.6837L64.614 63.1126H65.6133L65.9226 62.1609Z" fill="white"/>
<path d="M65.9226 66.3486L66.232 67.3004H67.2313L66.4223 67.8714L66.7078 68.8232L65.9226 68.2521L65.1137 68.8232L65.423 67.8714L64.614 67.3004H65.6133L65.9226 66.3486Z" fill="white"/>
<path d="M65.9226 70.5364L66.232 71.4881H67.2313L66.4223 72.0592L66.7078 73.0109L65.9226 72.4161L65.1137 73.0109L65.423 72.0592L64.614 71.4881H65.6133L65.9226 70.5364Z" fill="white"/>
<path d="M68.8731 55.7603L69.1824 56.712H70.1817L69.3728 57.3069L69.6821 58.2586L68.8731 57.6638L68.0641 58.2586L68.3734 57.3069L67.5644 56.712H68.5638L68.8731 55.7603Z" fill="white"/>
<path d="M68.8731 59.948L69.1824 60.8998H70.1817L69.3728 61.4946L69.6821 62.4464L68.8731 61.8515L68.0641 62.4464L68.3734 61.4946L67.5644 60.8998H68.5638L68.8731 59.948Z" fill="white"/>
<path d="M68.8731 64.1357L69.1824 65.0875H70.1817L69.3728 65.6823L69.6821 66.6341L68.8731 66.0393L68.0641 66.6341L68.3734 65.6823L67.5644 65.0875H68.5638L68.8731 64.1357Z" fill="white"/>
<path d="M68.8731 68.3235L69.1824 69.2752H70.1817L69.3728 69.8701L69.6821 70.798L68.8731 70.227L68.0641 70.798L68.3734 69.8701L67.5644 69.2752H68.5638L68.8731 68.3235Z" fill="white"/>
<path d="M68.8731 72.5112L69.1824 73.463H70.1817L69.3728 74.0578L69.6821 74.9858L68.8731 74.4147L68.0641 74.9858L68.3734 74.0578L67.5644 73.463H68.5638L68.8731 72.5112Z" fill="white"/>
</g>
</g>
</g>
<rect x="52.5" y="52.5" width="47" height="47" rx="23.5" stroke="#8F99A8"/>
</g>
<defs>
<linearGradient id="paint0_linear_460_38299" x1="1.29775" y1="1.50495" x2="72.6735" y2="89.7514" gradientUnits="userSpaceOnUse">
<stop stop-color="#EEEFF0"/>
<stop offset="1" stop-color="#D4D7DE"/>
</linearGradient>
<clipPath id="clip0_460_38299">
<rect width="100" height="100" fill="white"/>
</clipPath>
<clipPath id="clip1_460_38299">
<rect x="1" y="1" width="88" height="88" rx="44" fill="white"/>
</clipPath>
<clipPath id="clip2_460_38299">
<rect x="53" y="53" width="46" height="46" rx="23" fill="white"/>
</clipPath>
<clipPath id="clip3_460_38299">
<rect width="79.8522" height="46.5884" fill="white" transform="translate(36.2279 53.0002)"/>
</clipPath>
</defs>
</svg>
