<svg width="100" height="100" viewBox="0 0 100 100" fill="none" xmlns="http://www.w3.org/2000/svg">
<g clip-path="url(#clip0_449_38588)">
<g clip-path="url(#clip1_449_38588)">
<rect x="1" y="1" width="88" height="88" rx="44" fill="#2A43B6"/>
<rect width="88.2465" height="88.2465" transform="translate(0.753479 0.753418)" fill="#DADBE1"/>
<path d="M44.8771 11.8587C44.8926 11.8796 44.9081 11.9005 44.9236 11.9214C59.2204 30.9053 64.4886 40.8073 65.6843 53.702C65.8185 54.6713 65.8878 55.6614 65.8878 56.668C65.8878 68.3905 56.481 77.8934 44.8771 77.8934C44.8318 77.8934 44.7865 77.8933 44.7412 77.893C44.3141 77.8903 43.89 77.8747 43.4693 77.8465C32.5215 77.1152 23.8657 67.9128 23.8657 56.668C23.8657 55.6614 23.935 54.6713 24.0692 53.702C25.2649 40.8073 30.5331 30.9053 44.8299 11.9214C44.8454 11.9005 44.8616 11.8796 44.8771 11.8587Z" fill="black"/>
<path d="M41.4788 59.147H37.6624V44.3243H32.7748V41.148H46.3664V44.3243H41.4788V59.147ZM49.1364 59.147V41.148H52.9529V59.147H49.1364Z" fill="white" fill-opacity="0.9"/>
</g>
<rect x="0.5" y="0.5" width="89" height="89" rx="44.5" stroke="#8F99A8"/>
<g clip-path="url(#clip2_449_38588)">
<rect x="53" y="53" width="46" height="46" rx="23" fill="#2A43B6"/>
<g clip-path="url(#clip3_449_38588)">
<mask id="mask0_449_38588" style="mask-type:luminance" maskUnits="userSpaceOnUse" x="36" y="53" width="81" height="47">
<path d="M116.08 53.0002H36.2278V99.5886H116.08V53.0002Z" fill="white"/>
</mask>
<g mask="url(#mask0_449_38588)">
<path d="M116.08 95.9958H36.2278V99.5887H116.08V95.9958Z" fill="#CB001C"/>
<path d="M116.08 92.4265H36.2278V96.0194H116.08V92.4265Z" fill="white"/>
<path d="M116.08 88.8337H36.2278V92.4028H116.08V88.8337Z" fill="#CB001C"/>
<path d="M116.08 85.2646H36.2278V88.8575H116.08V85.2646Z" fill="white"/>
<path d="M116.08 81.6719H36.2278V85.2648H116.08V81.6719Z" fill="#CB001C"/>
<path d="M116.08 78.0791H36.2278V81.6482H116.08V78.0791Z" fill="white"/>
<path d="M116.08 74.5098H36.2278V78.1026H116.08V74.5098Z" fill="#CB001C"/>
<path d="M116.08 70.917H36.2278V74.4861H116.08V70.917Z" fill="white"/>
<path d="M116.08 67.3479H36.2278V70.9408H116.08V67.3479Z" fill="#CB001C"/>
<path d="M116.08 63.7551H36.2278V67.348H116.08V63.7551Z" fill="white"/>
<path d="M116.08 60.1624H36.2278V63.7552H116.08V60.1624Z" fill="#CB001C"/>
<path d="M116.08 56.593H36.2278V60.1859H116.08V56.593Z" fill="white"/>
<path d="M116.08 53.0002H36.2278V56.5931H116.08V53.0002Z" fill="#CB001C"/>
<path d="M72.7038 53.0002H36.2278V78.079H72.7038V53.0002Z" fill="#1A2F81"/>
<path d="M54.1922 57.9731L54.4777 58.9249H55.4771L54.6681 59.5197L54.9774 60.4477L54.1922 59.8767L53.3832 60.4477L53.6687 59.5197L52.8835 58.9249H53.8591L54.1922 57.9731Z" fill="white"/>
<path d="M54.1922 62.1609L54.4777 63.1126H55.4771L54.6681 63.6837L54.9774 64.6355L54.1922 64.0644L53.3832 64.6355L53.6687 63.6837L52.8835 63.1126H53.8591L54.1922 62.1609Z" fill="white"/>
<path d="M54.1922 66.3486L54.4777 67.3004H55.4771L54.6681 67.8714L54.9774 68.8232L54.1922 68.2521L53.3832 68.8232L53.6687 67.8714L52.8835 67.3004H53.8591L54.1922 66.3486Z" fill="white"/>
<path d="M54.1922 70.5364L54.4777 71.4881H55.4771L54.6681 72.0592L54.9774 73.0109L54.1922 72.4161L53.3832 73.0109L53.6687 72.0592L52.8835 71.4881H53.8591L54.1922 70.5364Z" fill="white"/>
<path d="M57.1189 55.7603L57.4282 56.712H58.4275L57.6185 57.3069L57.9278 58.2586L57.1189 57.6638L56.3337 58.2586L56.6192 57.3069L55.834 56.712H56.8095L57.1189 55.7603Z" fill="white"/>
<path d="M57.1189 59.948L57.4282 60.8998H58.4275L57.6185 61.4946L57.9278 62.4464L57.1189 61.8515L56.3337 62.4464L56.6192 61.4946L55.834 60.8998H56.8095L57.1189 59.948Z" fill="white"/>
<path d="M57.1189 64.1357L57.4282 65.0875H58.4275L57.6185 65.6823L57.9278 66.6341L57.1189 66.0393L56.3337 66.6341L56.6192 65.6823L55.834 65.0875H56.8095L57.1189 64.1357Z" fill="white"/>
<path d="M57.1189 68.3235L57.4282 69.2752H58.4275L57.6185 69.8701L57.9278 70.798L57.1189 70.227L56.3337 70.798L56.6192 69.8701L55.834 69.2752H56.8095L57.1189 68.3235Z" fill="white"/>
<path d="M57.1189 72.5112L57.4282 73.463H58.4275L57.6185 74.0578L57.9278 74.9858L57.1189 74.4147L56.3337 74.9858L56.6192 74.0578L55.834 73.463H56.8095L57.1189 72.5112Z" fill="white"/>
<path d="M60.0455 57.9731L60.3548 58.9249H61.3541L60.5452 59.5197L60.8545 60.4477L60.0455 59.8767L59.2365 60.4477L59.5458 59.5197L58.7368 58.9249H59.7362L60.0455 57.9731Z" fill="white"/>
<path d="M60.0455 62.1609L60.3548 63.1126H61.3541L60.5452 63.6837L60.8545 64.6355L60.0455 64.0644L59.2365 64.6355L59.5458 63.6837L58.7368 63.1126H59.7362L60.0455 62.1609Z" fill="white"/>
<path d="M60.0455 66.3486L60.3548 67.3004H61.3541L60.5452 67.8714L60.8545 68.8232L60.0455 68.2521L59.2365 68.8232L59.5458 67.8714L58.7368 67.3004H59.7362L60.0455 66.3486Z" fill="white"/>
<path d="M60.0455 70.5364L60.3548 71.4881H61.3541L60.5452 72.0592L60.8545 73.0109L60.0455 72.4161L59.2365 73.0109L59.5458 72.0592L58.7368 71.4881H59.7362L60.0455 70.5364Z" fill="white"/>
<path d="M62.996 55.7603L63.3053 56.712H64.3047L63.4957 57.3069L63.805 58.2586L62.996 57.6638L62.2108 58.2586L62.4963 57.3069L61.7111 56.712H62.6867L62.996 55.7603Z" fill="white"/>
<path d="M62.996 59.948L63.3053 60.8998H64.3047L63.4957 61.4946L63.805 62.4464L62.996 61.8515L62.2108 62.4464L62.4963 61.4946L61.7111 60.8998H62.6867L62.996 59.948Z" fill="white"/>
<path d="M62.996 64.1357L63.3053 65.0875H64.3047L63.4957 65.6823L63.805 66.6341L62.996 66.0393L62.2108 66.6341L62.4963 65.6823L61.7111 65.0875H62.6867L62.996 64.1357Z" fill="white"/>
<path d="M62.996 68.3235L63.3053 69.2752H64.3047L63.4957 69.8701L63.805 70.798L62.996 70.227L62.2108 70.798L62.4963 69.8701L61.7111 69.2752H62.6867L62.996 68.3235Z" fill="white"/>
<path d="M62.996 72.5112L63.3053 73.463H64.3047L63.4957 74.0578L63.805 74.9858L62.996 74.4147L62.2108 74.9858L62.4963 74.0578L61.7111 73.463H62.6867L62.996 72.5112Z" fill="white"/>
<path d="M65.9226 57.9731L66.2319 58.9249H67.2313L66.4223 59.5197L66.7078 60.4477L65.9226 59.8767L65.1136 60.4477L65.4229 59.5197L64.614 58.9249H65.6133L65.9226 57.9731Z" fill="white"/>
<path d="M65.9226 62.1609L66.2319 63.1126H67.2313L66.4223 63.6837L66.7078 64.6355L65.9226 64.0644L65.1136 64.6355L65.4229 63.6837L64.614 63.1126H65.6133L65.9226 62.1609Z" fill="white"/>
<path d="M65.9226 66.3486L66.2319 67.3004H67.2313L66.4223 67.8714L66.7078 68.8232L65.9226 68.2521L65.1136 68.8232L65.4229 67.8714L64.614 67.3004H65.6133L65.9226 66.3486Z" fill="white"/>
<path d="M65.9226 70.5364L66.2319 71.4881H67.2313L66.4223 72.0592L66.7078 73.0109L65.9226 72.4161L65.1136 73.0109L65.4229 72.0592L64.614 71.4881H65.6133L65.9226 70.5364Z" fill="white"/>
<path d="M68.8731 55.7603L69.1824 56.712H70.1817L69.3727 57.3069L69.682 58.2586L68.8731 57.6638L68.0641 58.2586L68.3734 57.3069L67.5644 56.712H68.5637L68.8731 55.7603Z" fill="white"/>
<path d="M68.8731 59.948L69.1824 60.8998H70.1817L69.3727 61.4946L69.682 62.4464L68.8731 61.8515L68.0641 62.4464L68.3734 61.4946L67.5644 60.8998H68.5637L68.8731 59.948Z" fill="white"/>
<path d="M68.8731 64.1357L69.1824 65.0875H70.1817L69.3727 65.6823L69.682 66.6341L68.8731 66.0393L68.0641 66.6341L68.3734 65.6823L67.5644 65.0875H68.5637L68.8731 64.1357Z" fill="white"/>
<path d="M68.8731 68.3235L69.1824 69.2752H70.1817L69.3727 69.8701L69.682 70.798L68.8731 70.227L68.0641 70.798L68.3734 69.8701L67.5644 69.2752H68.5637L68.8731 68.3235Z" fill="white"/>
<path d="M68.8731 72.5112L69.1824 73.463H70.1817L69.3727 74.0578L69.682 74.9858L68.8731 74.4147L68.0641 74.9858L68.3734 74.0578L67.5644 73.463H68.5637L68.8731 72.5112Z" fill="white"/>
</g>
</g>
</g>
<rect x="52.5" y="52.5" width="47" height="47" rx="23.5" stroke="#8F99A8"/>
</g>
<defs>
<clipPath id="clip0_449_38588">
<rect width="100" height="100" fill="white"/>
</clipPath>
<clipPath id="clip1_449_38588">
<rect x="1" y="1" width="88" height="88" rx="44" fill="white"/>
</clipPath>
<clipPath id="clip2_449_38588">
<rect x="53" y="53" width="46" height="46" rx="23" fill="white"/>
</clipPath>
<clipPath id="clip3_449_38588">
<rect width="79.8522" height="46.5884" fill="white" transform="translate(36.2278 53.0002)"/>
</clipPath>
</defs>
</svg>
